#define triangles_width 64
#define triangles_height 64
static unsigned char triangles_bits[] = {
   0x00, 0x00, 0x00, 0x00, 0x00, 0x00, 0x00, 0x00, 0x00, 0x00, 0x00, 0x00,
   0x00, 0x00, 0x00, 0x00, 0x00, 0x00, 0x00, 0x00, 0x00, 0x00, 0x00, 0x00,
   0x00, 0x00, 0x00, 0x00, 0x00, 0x00, 0x00, 0x00, 0x00, 0x00, 0x00, 0x80,
   0x01, 0x00, 0x00, 0x00, 0x00, 0x00, 0x00, 0x80, 0x01, 0x00, 0x00, 0x00,
   0x00, 0x00, 0x00, 0x40, 0x02, 0x00, 0x00, 0x00, 0x00, 0x00, 0x00, 0x40,
   0x02, 0x00, 0x00, 0x00, 0x00, 0x00, 0x00, 0x20, 0x04, 0x00, 0x00, 0x00,
   0x00, 0x00, 0x00, 0xa0, 0x05, 0x00, 0x00, 0x00, 0x00, 0x00, 0x00, 0x90,
   0x09, 0x00, 0x00, 0x00, 0x00, 0x00, 0x00, 0x50, 0x0a, 0x00, 0x00, 0x00,
   0x00, 0x00, 0x00, 0x48, 0x12, 0x00, 0x00, 0x00, 0x00, 0x00, 0x00, 0x28,
   0x14, 0x00, 0x00, 0x00, 0x00, 0x00, 0x00, 0x24, 0x24, 0x00, 0x00, 0x00,
   0x00, 0x00, 0x00, 0x14, 0x29, 0x00, 0x00, 0x00, 0x00, 0x00, 0x00, 0x92,
   0x49, 0x00, 0x00, 0x00, 0x00, 0x00, 0x00, 0x0a, 0x51, 0x00, 0x00, 0x00,
   0x00, 0x00, 0x00, 0x09, 0x91, 0x00, 0x00, 0x00, 0x00, 0x00, 0x00, 0x05,
   0xa1, 0x00, 0x00, 0x00, 0x00, 0x00, 0x80, 0x84, 0x23, 0x01, 0x00, 0x00,
   0x00, 0x00, 0x40, 0x02, 0x40, 0x02, 0x00, 0x00, 0x00, 0x00, 0x40, 0xff,
   0xff, 0x02, 0x00, 0x00, 0x00, 0x00, 0x20, 0x03, 0xc0, 0x04, 0x00, 0x00,
   0x00, 0x00, 0xa0, 0x84, 0x21, 0x05, 0x00, 0x00, 0x00, 0x00, 0x90, 0x44,
   0x22, 0x09, 0x00, 0x00, 0x00, 0x00, 0x50, 0x08, 0x11, 0x0a, 0x00, 0x00,
   0x00, 0x00, 0x48, 0x08, 0x12, 0x12, 0x00, 0x00, 0x00, 0x00, 0x28, 0x53,
   0x8a, 0x14, 0x00, 0x00, 0x00, 0x00, 0xa4, 0x94, 0xc9, 0x24, 0x00, 0x00,
   0x00, 0x00, 0x14, 0x24, 0xa4, 0x28, 0x00, 0x00, 0x00, 0x00, 0x12, 0x23,
   0xe4, 0x49, 0x00, 0x00, 0x00, 0x00, 0x8a, 0x40, 0x82, 0x50, 0x00, 0x00,
   0x00, 0x00, 0x89, 0x47, 0x82, 0x90, 0x00, 0x00, 0x00, 0x80, 0x04, 0x80,
   0x01, 0x20, 0x01, 0x00, 0x00, 0x80, 0xfe, 0xff, 0xff, 0x7f, 0x01, 0x00,
   0x00, 0x40, 0x06, 0x80, 0x01, 0x60, 0x02, 0x00, 0x00, 0x40, 0x09, 0x43,
   0xc2, 0x90, 0x02, 0x00, 0x00, 0x20, 0x89, 0x40, 0x22, 0x91, 0x04, 0x00,
   0x00, 0xa0, 0x90, 0x23, 0xc4, 0x08, 0x05, 0x00, 0x00, 0x90, 0x90, 0x24,
   0x24, 0x09, 0x09, 0x00, 0x00, 0x50, 0xaf, 0xd4, 0x2b, 0x65, 0x0a, 0x00,
   0x00, 0x48, 0x21, 0x13, 0xca, 0x94, 0x12, 0x00, 0x00, 0x28, 0x47, 0x08,
   0x11, 0x92, 0x14, 0x00, 0x00, 0x24, 0x48, 0xc8, 0x13, 0xe2, 0x24, 0x00,
   0x00, 0x14, 0x89, 0x84, 0x20, 0x81, 0x28, 0x00, 0x00, 0x12, 0x86, 0x84,
   0x20, 0x61, 0x48, 0x00, 0x00, 0x09, 0x00, 0x03, 0xc0, 0x00, 0x90, 0x00,
   0x00, 0xfd, 0xff, 0xff, 0xff, 0xff, 0xbf, 0x00, 0x80, 0x0c, 0x00, 0x03,
   0xc0, 0xff, 0x3f, 0x01, 0x80, 0x12, 0x8a, 0x44, 0x23, 0xff, 0x7f, 0x01,
   0x40, 0x12, 0x8a, 0x44, 0x22, 0xff, 0x7f, 0x02, 0x40, 0x21, 0x4a, 0x48,
   0x11, 0xfe, 0xff, 0x02, 0x20, 0x21, 0x4a, 0x48, 0x12, 0xfe, 0xff, 0x04,
   0xa0, 0x40, 0x2a, 0x50, 0x0b, 0xfc, 0xff, 0x05, 0x90, 0x52, 0xa0, 0x16,
   0xa8, 0xfc, 0xff, 0x09, 0x50, 0xaa, 0x90, 0x24, 0xa4, 0xf9, 0xff, 0x0b,
   0x48, 0xaa, 0x90, 0x24, 0xa4, 0xfb, 0xff, 0x13, 0x28, 0x2a, 0x89, 0x42,
   0x22, 0xf1, 0xff, 0x17, 0x24, 0x12, 0x89, 0x46, 0x22, 0xf1, 0xff, 0x27,
   0x14, 0x00, 0x06, 0x80, 0x01, 0xe0, 0xff, 0x2f, 0xf2, 0xff, 0xff, 0xff,
   0xff, 0xff, 0xff, 0x4f, 0x02, 0x00, 0x00, 0x00, 0x00, 0x00, 0x00, 0x40,
   0xff, 0xff, 0xff, 0xff, 0xff, 0xff, 0xff, 0xff};
