#define fovalOp_width 32
#define fovalOp_height 32
static unsigned char fovalOp_bits[] = {
   0x00, 0x00, 0x00, 0x00, 0x00, 0x00, 0x00, 0x00, 0x00, 0x00, 0x00, 0x00,
   0x00, 0x00, 0x00, 0x00, 0x00, 0x00, 0x00, 0x00, 0x00, 0x00, 0x00, 0x00,
   0x00, 0x00, 0x00, 0x00, 0x00, 0xe0, 0x0f, 0x00, 0x00, 0x58, 0x35, 0x00,
   0x00, 0x06, 0xc0, 0x00, 0x00, 0xab, 0xaa, 0x01, 0x80, 0x00, 0x00, 0x02,
   0x80, 0x55, 0x55, 0x03, 0x40, 0x00, 0x00, 0x04, 0xc0, 0xaa, 0xaa, 0x06,
   0x40, 0x00, 0x00, 0x04, 0x40, 0x55, 0x55, 0x05, 0x80, 0x00, 0x00, 0x02,
   0x80, 0xaa, 0xaa, 0x02, 0x00, 0x01, 0x00, 0x01, 0x00, 0x56, 0xd5, 0x00,
   0x00, 0x18, 0x30, 0x00, 0x00, 0xe0, 0x0f, 0x00, 0x00, 0x00, 0x00, 0x00,
   0x00, 0x00, 0x00, 0x00, 0x00, 0x00, 0x00, 0x00, 0x00, 0x00, 0x00, 0x00,
   0x00, 0x00, 0x00, 0x00, 0x00, 0x00, 0x00, 0x00, 0x00, 0x00, 0x00, 0x00,
   0x00, 0x00, 0x00, 0x00, 0x00, 0x00, 0x00, 0x00};
