#define paintP_width 16
#define paintP_height 16
static unsigned char paintP_bits[] = {
   0x00, 0x00, 0xfe, 0x7f, 0xfe, 0x7f, 0xfe, 0x7f, 0xfe, 0x7f, 0xfe, 0x7f,
   0xfe, 0x7f, 0xfe, 0x7f, 0xfe, 0x7f, 0xfe, 0x7f, 0xfe, 0x7f, 0xfe, 0x7f,
   0xfe, 0x7f, 0xfe, 0x7f, 0xfe, 0x7f, 0x00, 0x00};
