#define paintN_width 16
#define paintN_height 16
static unsigned char paintN_bits[] = {
   0x00, 0xc0, 0x00, 0xc0, 0x00, 0x00, 0x00, 0x00, 0x00, 0x0c, 0x00, 0x0c,
   0x00, 0x00, 0x00, 0x00, 0xc0, 0x00, 0xc0, 0x00, 0x00, 0x00, 0x00, 0x00,
   0x0c, 0x00, 0x0c, 0x00, 0x00, 0x00, 0x00, 0x00};
