#define paintB_width 16
#define paintB_height 16
static unsigned char paintB_bits[] = {
   0x00, 0x00, 0x00, 0x00, 0x00, 0x00, 0xc0, 0x07, 0xe0, 0x0f, 0xf0, 0x1f,
   0xf0, 0x1f, 0xf0, 0x1f, 0xf0, 0x1f, 0xf0, 0x1f, 0xe0, 0x0f, 0xc0, 0x07,
   0x00, 0x00, 0x00, 0x00, 0x00, 0x00, 0x00, 0x00};
