#define paintI_width 16
#define paintI_height 16
static unsigned char paintI_bits[] = {
   0x00, 0x00, 0x00, 0x40, 0x00, 0x00, 0x00, 0x10, 0x00, 0x00, 0x00, 0x04,
   0x00, 0x00, 0x00, 0x01, 0x00, 0x00, 0x40, 0x00, 0x00, 0x00, 0x10, 0x00,
   0x00, 0x00, 0x04, 0x00, 0x00, 0x00, 0x01, 0x00};
