#define paintK_width 16
#define paintK_height 16
static unsigned char paintK_bits[] = {
   0x80, 0x00, 0x00, 0x00, 0x80, 0x00, 0x00, 0x00, 0x80, 0x00, 0x00, 0x00,
   0x80, 0x00, 0x00, 0x00, 0x80, 0x00, 0x00, 0x00, 0x80, 0x00, 0x00, 0x00,
   0x80, 0x00, 0x00, 0x00, 0x80, 0x00, 0x00, 0x00};
