#define paintL_width 16
#define paintL_height 16
static unsigned char paintL_bits[] = {
   0x80, 0x01, 0x80, 0x01, 0x00, 0x00, 0x00, 0x00, 0x80, 0x01, 0x80, 0x01,
   0x00, 0x00, 0x00, 0x00, 0x80, 0x01, 0x80, 0x01, 0x00, 0x00, 0x00, 0x00,
   0x80, 0x01, 0x80, 0x01, 0x00, 0x00, 0x00, 0x00};
