#define paintH_width 16
#define paintH_height 16
static unsigned char paintH_bits[] = {
   0x00, 0x00, 0x02, 0x00, 0x00, 0x00, 0x08, 0x00, 0x00, 0x00, 0x20, 0x00,
   0x00, 0x00, 0x80, 0x00, 0x00, 0x00, 0x00, 0x02, 0x00, 0x00, 0x00, 0x08,
   0x00, 0x00, 0x00, 0x20, 0x00, 0x00, 0x00, 0x80};
