#define paintG_width 16
#define paintG_height 16
static unsigned char paintG_bits[] = {
   0x00, 0x00, 0x80, 0x03, 0x80, 0x03, 0x80, 0x03, 0x80, 0x03, 0x80, 0x03,
   0x80, 0x03, 0x80, 0x03, 0x80, 0x03, 0x80, 0x03, 0x80, 0x03, 0x80, 0x03,
   0x80, 0x03, 0x80, 0x03, 0x80, 0x03, 0x00, 0x00};
