#define pattern3_width 32
#define pattern3_height 32
static unsigned char pattern3_bits[] = {
   0x11, 0x11, 0x11, 0x11, 0x88, 0x88, 0x88, 0x88, 0x44, 0x44, 0x44, 0x44,
   0x22, 0x22, 0x22, 0x22, 0x11, 0x11, 0x11, 0x11, 0x88, 0x88, 0x88, 0x88,
   0x44, 0x44, 0x44, 0x44, 0x22, 0x22, 0x22, 0x22, 0x11, 0x11, 0x11, 0x11,
   0x88, 0x88, 0x88, 0x88, 0x44, 0x44, 0x44, 0x44, 0x22, 0x22, 0x22, 0x22,
   0x11, 0x11, 0x11, 0x11, 0x88, 0x88, 0x88, 0x88, 0x44, 0x44, 0x44, 0x44,
   0x22, 0x22, 0x22, 0x22, 0x11, 0x11, 0x11, 0x11, 0x88, 0x88, 0x88, 0x88,
   0x44, 0x44, 0x44, 0x44, 0x22, 0x22, 0x22, 0x22, 0x11, 0x11, 0x11, 0x11,
   0x88, 0x88, 0x88, 0x88, 0x44, 0x44, 0x44, 0x44, 0x22, 0x22, 0x22, 0x22,
   0x11, 0x11, 0x11, 0x11, 0x88, 0x88, 0x88, 0x88, 0x44, 0x44, 0x44, 0x44,
   0x22, 0x22, 0x22, 0x22, 0x11, 0x11, 0x11, 0x11, 0x88, 0x88, 0x88, 0x88,
   0x44, 0x44, 0x44, 0x44, 0x22, 0x22, 0x22, 0x22};
