#define sprayOp_width 32
#define sprayOp_height 32
static unsigned char sprayOp_bits[] = {
   0x00, 0x00, 0x00, 0x00, 0x00, 0x00, 0x80, 0x00, 0x00, 0x00, 0x80, 0x00,
   0x00, 0x00, 0x54, 0x00, 0x00, 0x98, 0x40, 0x00, 0x00, 0xb8, 0x14, 0x03,
   0x00, 0x08, 0x10, 0x00, 0x00, 0x88, 0x05, 0x01, 0x00, 0x1c, 0x44, 0x00,
   0x00, 0x22, 0x50, 0x00, 0x00, 0x41, 0x00, 0x00, 0x80, 0x80, 0x20, 0x01,
   0x80, 0x80, 0x00, 0x00, 0x80, 0x80, 0x00, 0x00, 0x80, 0x80, 0x00, 0x00,
   0x80, 0x80, 0x00, 0x00, 0x80, 0x80, 0x00, 0x00, 0x80, 0x80, 0x00, 0x00,
   0x80, 0x80, 0x00, 0x00, 0x80, 0x80, 0x00, 0x00, 0x80, 0x80, 0x00, 0x00,
   0x80, 0x80, 0x00, 0x00, 0x80, 0x80, 0x00, 0x00, 0x80, 0x80, 0x00, 0x00,
   0x80, 0x80, 0x00, 0x00, 0x80, 0x80, 0x00, 0x00, 0x80, 0x80, 0x00, 0x00,
   0x80, 0x80, 0x00, 0x00, 0x80, 0x80, 0x00, 0x00, 0x80, 0xff, 0x00, 0x00,
   0x00, 0x00, 0x00, 0x00, 0x00, 0x00, 0x00, 0x00};
