/* XPM */
static char * eraseOp_xpm[] = {
"40 40 7 1",
" 	c #FFFFFFFFFFFF",
".	c #000000000000",
"X	c #F7DEBAEA3CF3",
"o	c #E79DBAEA8207",
"O	c #BAEABAEABAEA",
"+	c #DF7D7DF77DF7",
"@	c #51445144FFFF",
"  .Xoo.                                 ",
"   .ooX.                                ",
"   .XXX.                                ",
"    .XXX.                               ",
"    .XXX.                               ",
"     .XXX.                              ",
"     .XXX.                              ",
"      .XXX.                             ",
"      .XXX.                             ",
"       .XXX.                            ",
"       .XXX.                            ",
"        .XXX.                           ",
"        .X...                           ",
"         ..OO.                          ",
"         .OOO.                          ",
"          .O.+. ..........              ",
"          ..+++.@@@@@@@@@@....          ",
"          .++++.@@@@@@@@@@@@@@..        ",
"           .+++.@@@@@@@@@@@@@@@@..      ",
"            ...@@@@@@@@@@@@@@@@@@@.     ",
"               @@@@@@@@@@@@@@@@@@@@.    ",
"               @@@@@@@@@@@@@@@@@@@@@.   ",
"                  @@@@@@@@@@@@@@@@@@.   ",
"                 @@@@@@@@@@@@@@@@@@@@.  ",
"                @@@@@@@@@@@@@@@@@@@@@.  ",
"             @@@@@@@@@@@@@@@@@@@@@@@@.  ",
"            @@@@@@@@@@@@@@@@@@@@@@@@@.  ",
"          @@@@@@@@@@@@@@@@@@@@@@@@@@.   ",
"          @@@@@@@@@@@@@@@@@@@@@@@@@@.   ",
"             @@@@@@@@@@@@@@@@@@@@@@.    ",
"            @@@@@@@@@@@@@@@@@@@@@@.     ",
"           @@@@@@@@@@@@@@@@@@@@@..      ",
"          .@@@@@@@@@@@@@@@@@@@..        ",
"            ....@@@@@@@@@@....          ",
"                ..........              ",
"                                        ",
"                                        ",
"                                        ",
"                                        ",
"                                        "};
