/* XPM */
static char * paintK_xpm[] = {
"1 15 2 1",
" 	c #000000000000 m black s B",
".	c #FFFFFFFFFFFF m white s A",
" ",
".",
" ",
".",
" ",
".",
" ",
".",
" ",
".",
" ",
".",
" ",
".",
" "};
