/* XPM */
static char * paintT_xpm[] = {
"30 30 4 1",
" 	c #FFFFFFFFFFFF m white s A",
".	c #A699A289A699 m black s B",
"X	c #79E77DF779E7 m black s C",
"o	c #000000000000 m black s D",
"           ........           ",
"         ............         ",
"       .....XXXXXX.....       ",
"      ...XXXXXXXXXXXX...      ",
"     ...XXXXXXXXXXXXXX...     ",
"    ..XXXXXXooooooXXXXXX..    ",
"   ..XXXXXooooooooooXXXXX..   ",
"  ..XXXXXooooooooooooXXXXX..  ",
"  ..XXXXooooooooooooooXXXX..  ",
" ..XXXXooooooooooooooooXXXX.. ",
" ..XXXooooooooooooooooooXXX.. ",
"..XXXXooooooooooooooooooXXXX..",
"..XXXooooooooooooooooooooXXX..",
"..XXXooooooooooooooooooooXXX..",
"..XXXooooooooooooooooooooXXX..",
"..XXXooooooooooooooooooooXXX..",
"..XXXooooooooooooooooooooXXX..",
"..XXXooooooooooooooooooooXXX..",
"..XXXXooooooooooooooooooXXXX..",
" ..XXXooooooooooooooooooXXX.. ",
" ..XXXXooooooooooooooooXXXX.. ",
"  ..XXXXooooooooooooooXXXX..  ",
"  ..XXXXXooooooooooooXXXXX..  ",
"   ..XXXXXooooooooooXXXXX..   ",
"    ..XXXXXXooooooXXXXXX..    ",
"     ...XXXXXXXXXXXXXX...     ",
"      ...XXXXXXXXXXXX...      ",
"       .....XXXXXX.....       ",
"         ............         ",
"           ........           "};
