#define hexagons_width 64
#define hexagons_height 64
static unsigned char hexagons_bits[] = {
   0x00, 0x00, 0x00, 0x00, 0x00, 0x00, 0x00, 0x00, 0x00, 0x00, 0x00, 0x00,
   0x00, 0x00, 0x00, 0x00, 0x00, 0x00, 0x00, 0x00, 0x00, 0x00, 0x00, 0x00,
   0x00, 0x00, 0x00, 0x00, 0x00, 0x00, 0x00, 0x00, 0x00, 0x00, 0x00, 0x00,
   0x00, 0x00, 0x00, 0x00, 0x00, 0x00, 0x00, 0x00, 0x00, 0x00, 0x00, 0x00,
   0x00, 0x00, 0x00, 0x00, 0x00, 0x00, 0x00, 0x00, 0x00, 0x00, 0x00, 0x00,
   0x00, 0x00, 0x00, 0x00, 0x00, 0x00, 0xfe, 0xff, 0xff, 0x3f, 0x00, 0x00,
   0x00, 0x00, 0x01, 0x00, 0x00, 0x40, 0x00, 0x00, 0x00, 0x00, 0xfd, 0xff,
   0xff, 0x5f, 0x00, 0x00, 0x00, 0x80, 0xda, 0x60, 0x83, 0xad, 0x00, 0x00,
   0x00, 0x40, 0x06, 0x1b, 0x6c, 0x30, 0x01, 0x00, 0x00, 0x40, 0x21, 0x84,
   0x11, 0x46, 0x01, 0x00, 0x00, 0xa0, 0x31, 0x44, 0x12, 0xc9, 0x02, 0x00,
   0x00, 0x90, 0x21, 0x04, 0x12, 0xc4, 0x04, 0x00, 0x00, 0x48, 0x21, 0x84,
   0x11, 0x48, 0x09, 0x00, 0x00, 0x28, 0x21, 0x44, 0x10, 0x49, 0x0a, 0x00,
   0x00, 0x24, 0x71, 0xc4, 0x13, 0x46, 0x12, 0x00, 0x00, 0xd2, 0x06, 0x1b,
   0x6c, 0xb0, 0x25, 0x00, 0x00, 0x3a, 0xd8, 0x60, 0x83, 0x0d, 0x2e, 0x00,
   0x00, 0x09, 0x22, 0x9e, 0x30, 0xe2, 0x49, 0x00, 0x80, 0x0c, 0x23, 0x82,
   0x08, 0x02, 0x99, 0x00, 0x80, 0x8a, 0x22, 0x8e, 0x38, 0x82, 0xa8, 0x00,
   0x40, 0x8a, 0x27, 0x90, 0x48, 0xe2, 0x29, 0x01, 0x20, 0x09, 0x22, 0x92,
   0x48, 0x42, 0x48, 0x02, 0x90, 0x08, 0x22, 0x8c, 0x30, 0x42, 0x98, 0x04,
   0x90, 0x36, 0xd8, 0x60, 0x83, 0x0d, 0xb6, 0x04, 0xc8, 0xc1, 0x06, 0x1b,
   0x6c, 0xb0, 0xc1, 0x09, 0x64, 0x18, 0x61, 0x04, 0x10, 0x40, 0x00, 0x13,
   0x64, 0x24, 0x91, 0x24, 0x11, 0x45, 0x34, 0x13, 0x52, 0x18, 0x91, 0xa4,
   0x12, 0x45, 0x24, 0x25, 0x52, 0x24, 0xe1, 0xa4, 0x12, 0x45, 0x14, 0x25,
   0x64, 0x24, 0x81, 0xa4, 0x12, 0x45, 0x14, 0x13, 0x64, 0x18, 0x61, 0x24,
   0x11, 0x45, 0x34, 0x13, 0xc8, 0xc1, 0x06, 0x1b, 0x6c, 0xb0, 0xc1, 0x09,
   0x90, 0x36, 0xd8, 0x60, 0x83, 0x0d, 0xb6, 0x04, 0x90, 0x08, 0x20, 0x80,
   0x00, 0x02, 0x88, 0x04, 0x20, 0x89, 0x26, 0x85, 0x74, 0x92, 0x48, 0x02,
   0x40, 0x8a, 0x24, 0x8d, 0x14, 0x52, 0x28, 0x01, 0x80, 0x8a, 0x22, 0x9d,
   0x64, 0xd2, 0xa8, 0x00, 0x80, 0x8c, 0x24, 0x89, 0x44, 0x52, 0x99, 0x00,
   0x00, 0x89, 0x26, 0x89, 0x34, 0x92, 0x48, 0x00, 0x00, 0x3a, 0xd8, 0xe0,
   0x83, 0x0f, 0x2e, 0x00, 0x00, 0xd2, 0x06, 0xfb, 0xef, 0xbf, 0x25, 0x00,
   0x00, 0x24, 0x01, 0xfc, 0xff, 0x7f, 0x12, 0x00, 0x00, 0x28, 0xe9, 0xfc,
   0xff, 0x7f, 0x0a, 0x00, 0x00, 0x48, 0x89, 0xfc, 0xff, 0x7f, 0x09, 0x00,
   0x00, 0x90, 0xe9, 0xfc, 0xff, 0xff, 0x04, 0x00, 0x00, 0xa0, 0x49, 0xfc,
   0xff, 0xff, 0x02, 0x00, 0x00, 0x40, 0x49, 0xfc, 0xff, 0x7f, 0x01, 0x00,
   0x00, 0x40, 0x06, 0xfb, 0xef, 0x3f, 0x01, 0x00, 0x00, 0x80, 0xda, 0xe0,
   0x83, 0xaf, 0x00, 0x00, 0x00, 0x00, 0xfd, 0xff, 0xff, 0x5f, 0x00, 0x00,
   0x00, 0x00, 0x01, 0x00, 0x00, 0x40, 0x00, 0x00, 0x00, 0x00, 0xfe, 0xff,
   0xff, 0x3f, 0x00, 0x00, 0x00, 0x00, 0x00, 0x00, 0x00, 0x00, 0x00, 0x00,
   0x00, 0x00, 0x00, 0x00, 0x00, 0x00, 0x00, 0x00, 0x00, 0x00, 0x00, 0x00,
   0x00, 0x00, 0x00, 0x00, 0x00, 0x00, 0x00, 0x00, 0x00, 0x00, 0x00, 0x00,
   0x00, 0x00, 0x00, 0x00, 0x00, 0x00, 0x00, 0x00, 0x00, 0x00, 0x00, 0x00,
   0x00, 0x00, 0x00, 0x00, 0x00, 0x00, 0x00, 0x00, 0x00, 0x00, 0x00, 0x00,
   0x00, 0x00, 0x00, 0x00, 0x00, 0x00, 0x00, 0x00};
