#define stone_width 32
#define stone_height 32
static char stone_bits[] = {
   0x00, 0x00, 0x00, 0x00, 0x00, 0xf0, 0x07, 0x00, 0x00, 0x0e, 0x38, 0x00,
   0x80, 0x31, 0xc0, 0x00, 0x40, 0x48, 0x00, 0x01, 0x20, 0x49, 0x00, 0x02,
   0x90, 0x32, 0x00, 0x04, 0x48, 0x04, 0x00, 0x08, 0x24, 0x02, 0x00, 0x10,
   0x14, 0x01, 0x00, 0x10, 0x92, 0x00, 0x00, 0x20, 0x8a, 0x00, 0x00, 0x20,
   0x72, 0x00, 0x00, 0x20, 0x01, 0x00, 0x00, 0x40, 0x01, 0x00, 0x00, 0x40,
   0x01, 0x00, 0x00, 0x40, 0x01, 0x00, 0x00, 0x40, 0x01, 0x00, 0x00, 0x40,
   0x01, 0x00, 0x00, 0x40, 0x01, 0x00, 0x00, 0x40, 0x02, 0x00, 0x00, 0x20,
   0x02, 0x00, 0x00, 0x20, 0x02, 0x00, 0x00, 0x20, 0x04, 0x00, 0x00, 0x10,
   0x04, 0x00, 0x00, 0x10, 0x08, 0x00, 0x00, 0x08, 0x10, 0x00, 0x00, 0x04,
   0x20, 0x00, 0x00, 0x02, 0x40, 0x00, 0x00, 0x01, 0x80, 0x01, 0xc0, 0x00,
   0x00, 0x0e, 0x38, 0x00, 0x00, 0xf0, 0x07, 0x00};
