#define dkstone_width 32
#define dkstone_height 32
static char dkstone_bits[] = {
   0x00, 0x00, 0x00, 0x00, 0x00, 0x50, 0x05, 0x00, 0x00, 0xaa, 0x1a, 0x00,
   0x00, 0x55, 0x65, 0x00, 0x80, 0x2a, 0x88, 0x01, 0x40, 0x95, 0x22, 0x02,
   0xa0, 0x02, 0x88, 0x04, 0x50, 0xa5, 0x22, 0x0a, 0xa8, 0x08, 0x88, 0x08,
   0x54, 0xa2, 0x22, 0x12, 0xa8, 0x08, 0x88, 0x20, 0x16, 0xa2, 0x22, 0x2a,
   0xaa, 0x08, 0x88, 0x40, 0x14, 0xa2, 0x22, 0x0a, 0x8a, 0x08, 0x88, 0x40,
   0x25, 0xa2, 0x22, 0x0a, 0x8a, 0x08, 0x88, 0x40, 0x25, 0xa2, 0x22, 0x02,
   0x8a, 0x08, 0x88, 0x40, 0x25, 0xa2, 0x22, 0x02, 0x8a, 0x08, 0x88, 0x40,
   0x22, 0xa2, 0x22, 0x00, 0x8a, 0x08, 0x88, 0x20, 0x24, 0xa2, 0x22, 0x00,
   0x88, 0x08, 0x08, 0x10, 0x28, 0xa2, 0x02, 0x00, 0x90, 0x08, 0x00, 0x04,
   0x20, 0x00, 0x00, 0x00, 0x00, 0x00, 0x00, 0x01, 0x80, 0x00, 0x40, 0x00,
   0x00, 0x02, 0x00, 0x00, 0x00, 0x54, 0x15, 0x00};
