#define downmask_width 15
#define downmask_height 15
#define downmask_x_hot 7
#define downmask_y_hot 7
static char downmask_bits[] = {
   0xc0, 0x01, 0xc0, 0x01, 0xc0, 0x01, 0xc0, 0x01, 0xf0, 0x07, 0xf0, 0x07,
   0xff, 0x7f, 0xff, 0x7f, 0xff, 0x7f, 0xf0, 0x07, 0xf0, 0x07, 0xc0, 0x01,
   0xc0, 0x01, 0xc0, 0x01, 0xc0, 0x01};
