#define downcursor_width 15
#define downcursor_height 15
#define downcursor_x_hot 7
#define downcursor_y_hot 7
static char downcursor_bits[] = {
   0x00, 0x00, 0x80, 0x00, 0x80, 0x00, 0x80, 0x00, 0x80, 0x00, 0xa0, 0x02,
   0xc0, 0x01, 0xfe, 0x3f, 0xc0, 0x01, 0xa0, 0x02, 0x80, 0x00, 0x80, 0x00,
   0x80, 0x00, 0x80, 0x00, 0x00, 0x00};
