#define scowlcurs_width 15
#define scowlcurs_height 15
#define scowlcurs_x_hot 7
#define scowlcurs_y_hot 7
static char scowlcurs_bits[] = {
   0x00, 0x00, 0xfe, 0x3f, 0x02, 0x20, 0x02, 0x20, 0x22, 0x22, 0x72, 0x27,
   0x22, 0x22, 0x02, 0x20, 0xc2, 0x21, 0x22, 0x22, 0x12, 0x24, 0x02, 0x20,
   0x02, 0x20, 0xfe, 0x3f, 0x00, 0x00};
