#define smilecurs_width 15
#define smilecurs_height 15
#define smilecurs_x_hot 7
#define smilecurs_y_hot 7
static char smilecurs_bits[] = {
   0xe0, 0x03, 0x18, 0x0c, 0x04, 0x10, 0x02, 0x20, 0x22, 0x22, 0x71, 0x47,
   0x21, 0x42, 0x01, 0x40, 0x01, 0x40, 0x11, 0x44, 0x22, 0x22, 0xc2, 0x21,
   0x04, 0x10, 0x18, 0x0c, 0xe0, 0x03};
