#define title_width 224
#define title_height 224
#define title_x_hot -1
#define title_y_hot -1
static char title_bits[] = {
   0x00, 0x00, 0x00, 0x00, 0x00, 0x00, 0x00, 0x00, 0x00, 0x00, 0x00, 0x00,
   0x00, 0x00, 0x00, 0x00, 0x00, 0x00, 0x00, 0x00, 0x00, 0x00, 0x00, 0x00,
   0x00, 0x00, 0x00, 0x00, 0x00, 0x00, 0x00, 0x00, 0x00, 0x00, 0x00, 0x00,
   0x00, 0x00, 0x00, 0x00, 0x00, 0x00, 0x00, 0x00, 0x00, 0x00, 0x00, 0x00,
   0x00, 0x00, 0x00, 0x00, 0x00, 0x00, 0x00, 0x00, 0x00, 0x00, 0x00, 0x00,
   0x00, 0x00, 0x00, 0x00, 0x00, 0x00, 0x00, 0x00, 0x00, 0x00, 0x00, 0x00,
   0x00, 0x00, 0x00, 0x00, 0x00, 0x00, 0x00, 0x00, 0x00, 0x00, 0x00, 0x00,
   0x00, 0x00, 0x00, 0x00, 0x00, 0x00, 0x00, 0x00, 0x00, 0x00, 0x00, 0x00,
   0x00, 0x00, 0x00, 0x00, 0x00, 0x00, 0x00, 0x00, 0x00, 0x00, 0x00, 0x00,
   0x00, 0x00, 0x00, 0x00, 0x00, 0x00, 0x00, 0x00, 0x00, 0x00, 0x00, 0x00,
   0x00, 0x00, 0x00, 0x00, 0x00, 0x00, 0x00, 0x00, 0x00, 0x00, 0x00, 0x00,
   0x00, 0x00, 0x00, 0x00, 0x00, 0x00, 0x00, 0x00, 0x00, 0x00, 0x00, 0x00,
   0x00, 0x00, 0x00, 0x00, 0x00, 0x00, 0x00, 0x00, 0x00, 0x00, 0x00, 0x00,
   0x00, 0x00, 0x00, 0x00, 0x00, 0x00, 0x00, 0x00, 0x00, 0x00, 0x00, 0x00,
   0x00, 0x00, 0x00, 0x00, 0x00, 0x00, 0x00, 0x00, 0x00, 0x00, 0x00, 0x00,
   0x00, 0x00, 0x00, 0x00, 0x00, 0x00, 0x00, 0x00, 0x00, 0x00, 0x00, 0x00,
   0x00, 0x00, 0x00, 0x00, 0x00, 0x00, 0x00, 0x00, 0x00, 0x00, 0x00, 0x00,
   0x00, 0x00, 0x00, 0x00, 0x00, 0x00, 0x00, 0x00, 0x00, 0x00, 0x00, 0x00,
   0x00, 0x00, 0x00, 0x00, 0x00, 0x00, 0x00, 0x00, 0x00, 0x00, 0x00, 0x00,
   0x00, 0x00, 0x00, 0x00, 0x00, 0x00, 0x00, 0x00, 0x00, 0x00, 0x00, 0x00,
   0x00, 0x00, 0x00, 0x00, 0x00, 0x00, 0x00, 0x00, 0x00, 0x00, 0x00, 0x00,
   0x00, 0x00, 0x00, 0x00, 0x00, 0x00, 0x00, 0x00, 0x00, 0x00, 0x00, 0x00,
   0x00, 0x00, 0x00, 0x00, 0x00, 0x00, 0x00, 0x00, 0x00, 0x00, 0x00, 0x00,
   0x00, 0x00, 0x00, 0x00, 0x00, 0x00, 0x00, 0x00, 0x00, 0x00, 0x00, 0x00,
   0x00, 0x00, 0x00, 0x00, 0x00, 0x00, 0x00, 0x00, 0x00, 0x00, 0x00, 0x00,
   0x00, 0x00, 0x00, 0x00, 0x00, 0x00, 0x00, 0x00, 0x00, 0x00, 0x00, 0x00,
   0x00, 0x00, 0x00, 0x00, 0x00, 0x00, 0x00, 0x00, 0x00, 0x00, 0x00, 0x00,
   0x00, 0x00, 0x00, 0x00, 0x00, 0x00, 0x00, 0x00, 0x00, 0x00, 0x00, 0x00,
   0x00, 0x00, 0x00, 0x00, 0x00, 0x00, 0x00, 0x00, 0x00, 0x00, 0x00, 0x00,
   0x00, 0x00, 0x00, 0x00, 0x00, 0x00, 0x00, 0x00, 0x00, 0x00, 0x00, 0x00,
   0x00, 0x00, 0x00, 0x00, 0x00, 0x00, 0x00, 0x00, 0x00, 0x00, 0x00, 0x00,
   0x00, 0x00, 0x00, 0x00, 0x00, 0x00, 0x00, 0x00, 0x00, 0x00, 0x00, 0x00,
   0x00, 0x00, 0x00, 0x00, 0x00, 0x00, 0x00, 0x00, 0x00, 0x00, 0x00, 0xfe,
   0x07, 0x00, 0x00, 0xc0, 0x01, 0x00, 0x00, 0x00, 0x00, 0x00, 0x00, 0x00,
   0x00, 0x00, 0x00, 0x00, 0x00, 0x00, 0x00, 0x00, 0x00, 0x00, 0x00, 0x00,
   0x00, 0x00, 0x00, 0xfc, 0x0f, 0x00, 0x00, 0xe0, 0x00, 0x00, 0x00, 0x00,
   0x00, 0x00, 0x00, 0x00, 0x00, 0x00, 0x00, 0x00, 0x00, 0x00, 0x00, 0x00,
   0x00, 0x00, 0x00, 0x00, 0x00, 0x00, 0x00, 0xf8, 0x1f, 0x00, 0x00, 0x70,
   0x00, 0x00, 0x00, 0x00, 0x00, 0x00, 0x00, 0x00, 0x00, 0x00, 0x00, 0x00,
   0x00, 0x00, 0x00, 0x00, 0x00, 0x00, 0x00, 0x00, 0x00, 0x00, 0x00, 0xf8,
   0x1f, 0x00, 0x00, 0x70, 0x00, 0x00, 0x00, 0x00, 0x00, 0x00, 0x00, 0x00,
   0x00, 0x00, 0x00, 0x00, 0x00, 0x00, 0x00, 0x00, 0x00, 0x00, 0x00, 0x00,
   0x00, 0x00, 0x00, 0xf0, 0x3f, 0x00, 0x00, 0x38, 0x00, 0x00, 0x00, 0x00,
   0x00, 0x00, 0x00, 0x00, 0x00, 0x00, 0x00, 0x00, 0x00, 0x00, 0x00, 0x00,
   0x00, 0x00, 0x00, 0x00, 0x00, 0x00, 0x00, 0xe0, 0x7f, 0x00, 0x00, 0x1c,
   0x00, 0x00, 0x00, 0x00, 0x00, 0x00, 0x00, 0x00, 0x00, 0x00, 0x00, 0x00,
   0x00, 0x00, 0x00, 0x00, 0x00, 0x00, 0x00, 0x00, 0x00, 0x00, 0x00, 0xc0,
   0xff, 0x00, 0x00, 0x0e, 0x00, 0x00, 0x00, 0x00, 0x00, 0x00, 0x00, 0x00,
   0x00, 0x00, 0x00, 0x00, 0x00, 0x00, 0x00, 0x00, 0x00, 0x00, 0x00, 0x00,
   0x00, 0x00, 0x00, 0xc0, 0xff, 0x00, 0x00, 0x0e, 0x00, 0x00, 0x00, 0x00,
   0x00, 0x00, 0x00, 0x00, 0x00, 0x00, 0x00, 0x00, 0x00, 0x00, 0x00, 0x00,
   0x00, 0x00, 0x00, 0x00, 0x00, 0x00, 0x00, 0x80, 0xff, 0x01, 0x00, 0x07,
   0x00, 0x00, 0x00, 0x00, 0x00, 0x00, 0x00, 0x00, 0x00, 0x00, 0x00, 0x00,
   0x00, 0x00, 0x00, 0x00, 0x00, 0x00, 0x00, 0x00, 0x00, 0x00, 0x00, 0x00,
   0xff, 0x03, 0x80, 0x03, 0x00, 0xf0, 0x07, 0xc0, 0xff, 0xff, 0x01, 0xf0,
   0x07, 0xc0, 0x07, 0xc0, 0x07, 0x1f, 0x00, 0x1f, 0x00, 0x00, 0x00, 0x00,
   0x00, 0x00, 0x00, 0x00, 0xfe, 0x07, 0xc0, 0x01, 0x00, 0x08, 0x0c, 0x40,
   0x00, 0x80, 0x01, 0x08, 0x0c, 0x40, 0x06, 0x40, 0x06, 0x19, 0x00, 0x19,
   0x00, 0x00, 0x00, 0x00, 0x00, 0x00, 0x00, 0x00, 0xfe, 0x07, 0xc0, 0x01,
   0x00, 0xe4, 0x1f, 0x40, 0xff, 0xff, 0x01, 0xe4, 0x1f, 0x80, 0x0e, 0xa0,
   0x03, 0x3a, 0x80, 0x0e, 0x00, 0x00, 0x00, 0x00, 0x00, 0x00, 0x00, 0x00,
   0xfc, 0x0f, 0xe0, 0x00, 0x00, 0xf4, 0x1f, 0xc0, 0xff, 0xff, 0x01, 0xf4,
   0x1f, 0x80, 0x0e, 0xa0, 0x03, 0x3a, 0x80, 0x0e, 0x00, 0x00, 0x00, 0x00,
   0x00, 0x00, 0x00, 0x00, 0xf8, 0x1f, 0x70, 0x00, 0x00, 0xf2, 0x3f, 0xc0,
   0xff, 0xff, 0x01, 0xf2, 0x3f, 0x00, 0x1d, 0xd0, 0x01, 0x74, 0x40, 0x07,
   0x00, 0x00, 0x00, 0x00, 0x00, 0x00, 0x00, 0x00, 0xf0, 0x3f, 0x38, 0x00,
   0x00, 0x3a, 0x3a, 0x00, 0xa0, 0x03, 0x00, 0x3a, 0x3a, 0x00, 0x1d, 0xd0,
   0x01, 0x74, 0x40, 0x07, 0x00, 0x00, 0x00, 0x00, 0x00, 0x00, 0x00, 0x00,
   0xf0, 0x7f, 0x38, 0x00, 0x00, 0x39, 0x7a, 0x00, 0xa0, 0x03, 0x00, 0x39,
   0x7a, 0x00, 0x3a, 0xe8, 0x00, 0xe8, 0xa0, 0x03, 0x00, 0x00, 0x00, 0x00,
   0x00, 0x00, 0x00, 0x00, 0xe0, 0x3f, 0x1c, 0x00, 0x00, 0x1d, 0x74, 0x00,
   0xa0, 0x03, 0x00, 0x1d, 0x74, 0x00, 0x3a, 0xe8, 0x00, 0xe8, 0xa0, 0x03,
   0x00, 0x00, 0x00, 0x00, 0x00, 0x00, 0x00, 0x00, 0xc0, 0x1f, 0x0e, 0x00,
   0x80, 0x1c, 0xf4, 0x00, 0xa0, 0x03, 0x80, 0x1c, 0xf4, 0x00, 0x74, 0x74,
   0x00, 0xd0, 0xd1, 0x01, 0x00, 0x00, 0x00, 0x00, 0x00, 0x00, 0x00, 0x00,
   0x80, 0x1f, 0x07, 0x00, 0x80, 0x0e, 0xe8, 0x00, 0xa0, 0x03, 0x80, 0x0e,
   0xe8, 0x00, 0x74, 0x74, 0x00, 0xd0, 0xd1, 0x01, 0x00, 0x00, 0x00, 0x00,
   0x00, 0x00, 0x00, 0x00, 0x80, 0x0f, 0x03, 0x00, 0x40, 0x0e, 0xe8, 0x01,
   0xa0, 0x03, 0x40, 0x0e, 0xe8, 0x01, 0xe8, 0x3a, 0x00, 0xa0, 0xeb, 0x00,
   0x00, 0x00, 0x00, 0x00, 0x00, 0x00, 0x00, 0x00, 0x00, 0x87, 0x03, 0x00,
   0x40, 0x07, 0xd0, 0x01, 0xa0, 0x03, 0x40, 0x07, 0xd0, 0x01, 0xe8, 0x3b,
   0x00, 0xa0, 0xef, 0x00, 0x00, 0x00, 0x00, 0x00, 0x00, 0x00, 0x00, 0x00,
   0x80, 0xc3, 0x07, 0x00, 0x40, 0x07, 0xd0, 0x01, 0xa0, 0x03, 0x40, 0x07,
   0xd0, 0x01, 0xd0, 0x1d, 0x00, 0x40, 0x77, 0x00, 0x00, 0x00, 0x00, 0x00,
   0x00, 0x00, 0x00, 0x00, 0x80, 0xe3, 0x0f, 0x00, 0x40, 0xff, 0xdf, 0x01,
   0xa0, 0x03, 0x40, 0xff, 0xdf, 0x01, 0xd0, 0x1f, 0x00, 0x40, 0x7f, 0x00,
   0x00, 0x00, 0x00, 0x00, 0x00, 0x00, 0x00, 0x00, 0xc0, 0xe1, 0x0f, 0x00,
   0x40, 0x07, 0xc0, 0x01, 0xa0, 0x03, 0x40, 0x07, 0xc0, 0x01, 0xa0, 0x0f,
   0x00, 0x80, 0x3e, 0x00, 0x00, 0x00, 0x00, 0x00, 0x00, 0x00, 0x00, 0x00,
   0xe0, 0xf0, 0x1f, 0x00, 0x40, 0xff, 0xff, 0x01, 0xa0, 0x03, 0x40, 0xff,
   0xff, 0x01, 0xa0, 0x0f, 0x00, 0x80, 0x3e, 0x00, 0x00, 0x00, 0x00, 0x00,
   0x00, 0x00, 0x00, 0x00, 0x70, 0xf8, 0x3f, 0x00, 0x40, 0xff, 0xff, 0x01,
   0xa0, 0x03, 0x40, 0xff, 0xff, 0x01, 0xa0, 0x0f, 0x00, 0x80, 0x3e, 0x00,
   0x00, 0x00, 0x00, 0x00, 0x00, 0x00, 0x00, 0x00, 0x70, 0xe0, 0x7f, 0x00,
   0x40, 0xff, 0xff, 0x01, 0xa0, 0x03, 0x40, 0xff, 0xff, 0x01, 0xa0, 0x0f,
   0x00, 0x80, 0x3e, 0x00, 0x00, 0x00, 0x00, 0x00, 0x00, 0x00, 0x00, 0x00,
   0x38, 0xe0, 0x7f, 0x00, 0x40, 0x07, 0xd0, 0x01, 0xa0, 0x03, 0x40, 0x07,
   0xd0, 0x01, 0xd0, 0x1f, 0x00, 0x40, 0x7f, 0x00, 0x00, 0x00, 0x00, 0x00,
   0x00, 0x00, 0x00, 0x00, 0x1c, 0xc0, 0xff, 0x00, 0x40, 0x07, 0xd0, 0x01,
   0xa0, 0x03, 0x40, 0x07, 0xd0, 0x01, 0xd0, 0x1d, 0x00, 0x40, 0x77, 0x00,
   0x00, 0x00, 0x00, 0x00, 0x00, 0x00, 0x00, 0x00, 0x0e, 0x80, 0xff, 0x01,
   0x40, 0x07, 0xd0, 0x01, 0xa0, 0x03, 0x40, 0x07, 0xd0, 0x01, 0xe8, 0x3b,
   0x00, 0xa0, 0xef, 0x00, 0x00, 0x00, 0x00, 0x00, 0x00, 0x00, 0x00, 0x00,
   0x0e, 0x00, 0xff, 0x03, 0x40, 0x07, 0xd0, 0x01, 0xa0, 0x03, 0x40, 0x07,
   0xd0, 0x01, 0xe8, 0x3a, 0x00, 0xa0, 0xeb, 0x00, 0x00, 0x00, 0x00, 0x00,
   0x00, 0x00, 0x00, 0x00, 0x07, 0x00, 0xff, 0x03, 0x40, 0x07, 0xd0, 0x01,
   0xa0, 0x03, 0x40, 0x07, 0xd0, 0x01, 0x74, 0x74, 0x00, 0xd0, 0xd1, 0x01,
   0x00, 0x00, 0x00, 0x00, 0x00, 0x00, 0x00, 0x80, 0x03, 0x00, 0xfe, 0x07,
   0x40, 0x07, 0xd0, 0x01, 0xa0, 0x03, 0x40, 0x07, 0xd0, 0x01, 0x74, 0x74,
   0x00, 0xd0, 0xd1, 0x01, 0x00, 0x00, 0x00, 0x00, 0x00, 0x00, 0x00, 0xc0,
   0x01, 0x00, 0xfc, 0x0f, 0x40, 0x07, 0xd0, 0x01, 0xa0, 0x03, 0x40, 0x07,
   0xd0, 0x01, 0x3a, 0xe8, 0x00, 0xe8, 0xa0, 0x03, 0x00, 0x00, 0x00, 0x00,
   0x00, 0x00, 0x00, 0xc0, 0x01, 0x00, 0xf8, 0x1f, 0x40, 0x07, 0xd0, 0x01,
   0xa0, 0x03, 0x40, 0x07, 0xd0, 0x01, 0x3a, 0xe8, 0x00, 0xe8, 0xa0, 0x03,
   0x00, 0x00, 0x00, 0x00, 0x00, 0x00, 0x00, 0xe0, 0x00, 0x00, 0xf8, 0x1f,
   0x40, 0x07, 0xd0, 0x01, 0xa0, 0x03, 0x40, 0x07, 0xd0, 0x01, 0x1d, 0xd0,
   0x01, 0x74, 0x40, 0x07, 0x00, 0x00, 0x00, 0x00, 0x00, 0x00, 0x00, 0x70,
   0x00, 0x00, 0xf0, 0x3f, 0x40, 0x07, 0xd0, 0x01, 0xa0, 0x03, 0x40, 0x07,
   0xd0, 0x01, 0x1d, 0xd0, 0x01, 0x74, 0x40, 0x07, 0x00, 0x00, 0x00, 0x00,
   0x00, 0x00, 0x00, 0x38, 0x00, 0x00, 0xe0, 0x7f, 0x40, 0x07, 0xd0, 0x01,
   0xa0, 0x03, 0x40, 0x07, 0xd0, 0x81, 0x0e, 0xa0, 0x03, 0x3a, 0x80, 0x0e,
   0x00, 0x00, 0x00, 0x00, 0x00, 0x00, 0x00, 0x38, 0x00, 0x00, 0xc0, 0xff,
   0x40, 0x07, 0xd0, 0x01, 0xa0, 0x03, 0x40, 0x07, 0xd0, 0x81, 0x0e, 0xa0,
   0x03, 0x3a, 0x80, 0x0e, 0x00, 0x00, 0x00, 0x00, 0x00, 0x00, 0x00, 0x1c,
   0x00, 0x00, 0xc0, 0xff, 0xc0, 0x07, 0xf0, 0x01, 0xe0, 0x03, 0xc0, 0x07,
   0xf0, 0x41, 0x06, 0x40, 0x06, 0x19, 0x00, 0x19, 0x00, 0x00, 0x00, 0x00,
   0x00, 0x00, 0x00, 0x0e, 0x00, 0x00, 0x80, 0xff, 0xc1, 0x07, 0xf0, 0x01,
   0xe0, 0x03, 0xc0, 0x07, 0xf0, 0xc1, 0x07, 0xc0, 0x07, 0x1f, 0x00, 0x1f,
   0x00, 0x00, 0x00, 0x00, 0x00, 0x00, 0x00, 0x00, 0x00, 0x00, 0x00, 0x00,
   0x00, 0x00, 0x00, 0x00, 0x00, 0x00, 0x00, 0x00, 0x00, 0x00, 0x00, 0x00,
   0x00, 0x00, 0x00, 0x00, 0x00, 0x00, 0x00, 0x00, 0x00, 0x00, 0x00, 0x00,
   0x00, 0x00, 0x00, 0x00, 0x00, 0x00, 0x00, 0x00, 0x00, 0x00, 0x00, 0x00,
   0x00, 0x00, 0x00, 0x00, 0x00, 0x00, 0x00, 0x00, 0x00, 0x00, 0x00, 0x00,
   0x00, 0x00, 0x00, 0x00, 0x00, 0x00, 0x00, 0x00, 0x00, 0x00, 0x00, 0x00,
   0x00, 0x00, 0x00, 0x00, 0x00, 0x00, 0x00, 0x00, 0x00, 0x00, 0x00, 0x00,
   0x00, 0x00, 0x00, 0x00, 0x00, 0x00, 0x00, 0x00, 0x00, 0x00, 0x00, 0x00,
   0x00, 0x00, 0x00, 0x00, 0x00, 0x00, 0x00, 0x00, 0x00, 0x00, 0x00, 0x00,
   0x00, 0x00, 0x00, 0x00, 0x00, 0x00, 0x00, 0x00, 0x00, 0x00, 0x00, 0x00,
   0x00, 0x00, 0x00, 0x00, 0x00, 0x00, 0x00, 0x00, 0x00, 0x00, 0x00, 0x00,
   0x00, 0x00, 0x00, 0x00, 0x00, 0x00, 0x00, 0x00, 0x00, 0x00, 0x00, 0x00,
   0x00, 0x00, 0x00, 0x00, 0x00, 0x00, 0x00, 0x00, 0x00, 0x00, 0x00, 0x00,
   0x00, 0x00, 0x00, 0x00, 0x00, 0x00, 0x00, 0x00, 0x00, 0x00, 0x00, 0x00,
   0x00, 0x00, 0x00, 0x00, 0x00, 0x00, 0x00, 0x00, 0x00, 0x00, 0x00, 0x00,
   0x00, 0x00, 0x00, 0x00, 0x00, 0x00, 0x00, 0x00, 0x00, 0x00, 0x00, 0x00,
   0x00, 0x00, 0x00, 0x00, 0x00, 0x00, 0x00, 0x00, 0x00, 0x00, 0x00, 0x00,
   0x00, 0x00, 0x00, 0x00, 0x00, 0x00, 0x00, 0x00, 0x00, 0x00, 0x00, 0x00,
   0x00, 0x00, 0x00, 0x00, 0x00, 0x00, 0x00, 0x00, 0x00, 0x00, 0x00, 0x00,
   0x00, 0x00, 0x00, 0x00, 0x00, 0x00, 0x00, 0x00, 0x00, 0x00, 0x00, 0x00,
   0x00, 0x00, 0x00, 0x00, 0x00, 0x00, 0x00, 0x00, 0x00, 0x00, 0x00, 0x00,
   0x00, 0x00, 0x00, 0x00, 0x00, 0x00, 0x00, 0x00, 0x00, 0x00, 0x00, 0x00,
   0x00, 0x00, 0x00, 0x00, 0x00, 0x00, 0x00, 0x00, 0x00, 0x00, 0x00, 0x00,
   0x00, 0x00, 0x00, 0x00, 0x00, 0x00, 0x00, 0x00, 0x00, 0x00, 0x00, 0x00,
   0x00, 0x00, 0x00, 0x00, 0x00, 0x00, 0x00, 0x00, 0x00, 0x00, 0x00, 0x00,
   0x00, 0x00, 0x00, 0x00, 0x00, 0x00, 0x00, 0x00, 0x00, 0x00, 0x00, 0x00,
   0x00, 0x00, 0x00, 0x00, 0x00, 0x00, 0x00, 0x00, 0x00, 0x00, 0x00, 0x00,
   0x00, 0x00, 0x00, 0x00, 0x00, 0x00, 0x00, 0x00, 0x00, 0x00, 0x00, 0x00,
   0x00, 0x00, 0x00, 0x00, 0x00, 0x00, 0x00, 0x00, 0x00, 0x00, 0x00, 0x00,
   0x00, 0x00, 0x00, 0x00, 0x00, 0x00, 0x00, 0x00, 0x00, 0x00, 0x00, 0x00,
   0x00, 0x00, 0x00, 0x00, 0x00, 0x00, 0x00, 0x00, 0x00, 0x00, 0x00, 0x00,
   0x00, 0x00, 0x00, 0x00, 0x00, 0x00, 0x00, 0x00, 0x00, 0x00, 0x00, 0x00,
   0x00, 0x00, 0x00, 0x00, 0x00, 0x00, 0x00, 0x00, 0x00, 0x00, 0x00, 0x00,
   0x00, 0x00, 0x00, 0x00, 0x00, 0x00, 0x00, 0x00, 0x00, 0x00, 0x00, 0x00,
   0x00, 0x00, 0x00, 0x00, 0x00, 0x00, 0x00, 0x00, 0x00, 0x00, 0x00, 0x00,
   0x00, 0x00, 0x00, 0x00, 0x00, 0x00, 0x00, 0x00, 0x00, 0x00, 0x00, 0x00,
   0x00, 0x00, 0x00, 0x00, 0x00, 0x00, 0x00, 0x00, 0x00, 0x00, 0x00, 0x00,
   0x00, 0x00, 0x00, 0x00, 0x00, 0x00, 0x00, 0x00, 0x00, 0x00, 0x00, 0x00,
   0x00, 0x00, 0x00, 0x00, 0x00, 0x00, 0x00, 0x00, 0x00, 0x00, 0x00, 0x00,
   0x00, 0x00, 0x00, 0x00, 0x00, 0x00, 0x00, 0x00, 0x00, 0x00, 0x00, 0x00,
   0x00, 0x00, 0x00, 0x00, 0x00, 0x00, 0x00, 0x00, 0x00, 0x00, 0x00, 0x00,
   0x00, 0x00, 0x00, 0x00, 0x00, 0x00, 0x00, 0x00, 0x00, 0x00, 0x00, 0x00,
   0x00, 0x00, 0x00, 0x00, 0x00, 0x00, 0x00, 0x00, 0x00, 0x00, 0x00, 0x00,
   0x00, 0x00, 0x00, 0x00, 0x00, 0x00, 0x00, 0x00, 0x00, 0x00, 0x00, 0x00,
   0x00, 0x00, 0x00, 0x00, 0x00, 0x00, 0x00, 0x00, 0x00, 0x00, 0x00, 0x00,
   0x00, 0x00, 0x00, 0x00, 0x00, 0x00, 0x00, 0x00, 0x00, 0x00, 0x00, 0x00,
   0x00, 0x00, 0x00, 0x00, 0x00, 0x00, 0x00, 0x00, 0x00, 0x00, 0x00, 0x00,
   0x00, 0x00, 0x00, 0x00, 0x00, 0x00, 0x00, 0x00, 0x00, 0x00, 0x00, 0x00,
   0x80, 0xff, 0x00, 0x00, 0x80, 0x07, 0x00, 0x00, 0x00, 0x00, 0x00, 0x00,
   0x00, 0x00, 0x00, 0x00, 0x00, 0x00, 0x00, 0x00, 0x00, 0x40, 0x55, 0x55,
   0x55, 0x55, 0x00, 0x00, 0xf0, 0xff, 0x07, 0x00, 0x80, 0x08, 0x08, 0x00,
   0x00, 0x00, 0x40, 0x00, 0x30, 0x00, 0x00, 0x00, 0x00, 0x00, 0x00, 0x00,
   0x00, 0x80, 0xff, 0xff, 0xff, 0x1f, 0x00, 0x00, 0xfc, 0xbf, 0x1a, 0x00,
   0x80, 0x48, 0x3e, 0x0a, 0x83, 0xc3, 0x43, 0x00, 0x30, 0x00, 0x00, 0x00,
   0x00, 0x00, 0x00, 0x00, 0x00, 0xc0, 0x55, 0x55, 0x55, 0x55, 0x00, 0x00,
   0xfe, 0xff, 0x3f, 0x00, 0x80, 0x07, 0x08, 0x95, 0x44, 0x24, 0xc0, 0x23,
   0x02, 0x00, 0x00, 0x00, 0x00, 0x00, 0x00, 0x00, 0x00, 0x80, 0xaa, 0xaa,
   0xaa, 0x0a, 0x00, 0x00, 0xff, 0xaa, 0x6a, 0x00, 0x80, 0x48, 0x08, 0x95,
   0x44, 0xc4, 0x41, 0x24, 0x32, 0x00, 0x00, 0x00, 0x00, 0x00, 0x00, 0x00,
   0x00, 0xc0, 0x55, 0x55, 0x55, 0x55, 0x00, 0x80, 0xff, 0xff, 0xff, 0x00,
   0x80, 0x48, 0x08, 0x95, 0x44, 0x04, 0x42, 0x24, 0x32, 0x00, 0x00, 0x00,
   0x00, 0x00, 0x00, 0x00, 0x00, 0x80, 0xaa, 0xaa, 0xaa, 0x0a, 0x00, 0xc0,
   0xbf, 0xaa, 0xaa, 0x01, 0x80, 0x47, 0x08, 0x11, 0xcb, 0xe3, 0xc1, 0xc3,
   0x03, 0x00, 0x00, 0x00, 0x00, 0x00, 0x00, 0x00, 0x00, 0xc0, 0x05, 0x00,
   0x00, 0x54, 0x00, 0xe0, 0xff, 0xff, 0xff, 0x03, 0x00, 0x00, 0x00, 0x00,
   0x40, 0x00, 0x00, 0x00, 0x02, 0x00, 0x00, 0x00, 0x00, 0x00, 0x00, 0x00,
   0x00, 0x80, 0xaa, 0xaa, 0xaa, 0x0b, 0x00, 0xf0, 0xab, 0xaa, 0xaa, 0x06,
   0x00, 0x00, 0x00, 0x00, 0x40, 0x00, 0x00, 0x20, 0x02, 0x00, 0x00, 0x00,
   0x00, 0x00, 0x00, 0x00, 0x00, 0xc0, 0x45, 0x55, 0x55, 0x55, 0x00, 0xf0,
   0xff, 0xff, 0xff, 0x07, 0x00, 0x00, 0x00, 0x00, 0x40, 0x00, 0x00, 0xc0,
   0x01, 0x00, 0x00, 0x00, 0x00, 0x00, 0x00, 0x00, 0x00, 0x80, 0xaa, 0xaa,
   0xaa, 0x0b, 0x00, 0xf8, 0xaa, 0xaa, 0xaa, 0x0e, 0x00, 0x06, 0x00, 0x08,
   0x00, 0x07, 0x0c, 0x00, 0x00, 0x00, 0x00, 0x00, 0x00, 0x00, 0x00, 0x00,
   0x00, 0xc0, 0x45, 0x55, 0x55, 0x55, 0x00, 0xf8, 0xff, 0xff, 0xff, 0x0f,
   0x00, 0x09, 0x00, 0x08, 0x80, 0x00, 0x12, 0x00, 0x00, 0x00, 0x00, 0x00,
   0x00, 0x00, 0x00, 0x00, 0x00, 0x80, 0xaa, 0xaa, 0xaa, 0x0b, 0x00, 0xf8,
   0xaa, 0x3a, 0xab, 0x0a, 0x80, 0x08, 0x00, 0x08, 0x40, 0x00, 0x11, 0x00,
   0x08, 0x00, 0x00, 0x00, 0x00, 0x00, 0x00, 0x00, 0x00, 0xc0, 0x45, 0xfd,
   0x53, 0x55, 0x00, 0xfc, 0xff, 0x1f, 0xfe, 0x1f, 0x80, 0x08, 0x00, 0x08,
   0x40, 0x00, 0x11, 0x00, 0x08, 0x00, 0x00, 0x00, 0x00, 0x00, 0x00, 0x00,
   0x00, 0x80, 0xaa, 0x06, 0xaa, 0x0b, 0x00, 0xbc, 0xaa, 0x0a, 0xac, 0x1a,
   0x80, 0x08, 0x00, 0x08, 0x40, 0x00, 0x11, 0x00, 0x08, 0x00, 0x00, 0x00,
   0x00, 0x00, 0x00, 0x00, 0x00, 0xc0, 0x45, 0x05, 0x52, 0x55, 0x00, 0xfc,
   0xff, 0x0f, 0xfc, 0x1f, 0x80, 0xc4, 0x69, 0x08, 0xc0, 0x01, 0x89, 0x63,
   0x08, 0x00, 0x00, 0x00, 0x00, 0x00, 0x00, 0x00, 0x00, 0x80, 0xaa, 0x06,
   0xaa, 0x0b, 0x00, 0xac, 0x8e, 0x0f, 0xac, 0x1a, 0x80, 0x23, 0x9a, 0x08,
   0x40, 0x00, 0x47, 0x94, 0x08, 0x00, 0x00, 0x00, 0x00, 0x00, 0x00, 0x00,
   0x00, 0xc0, 0x45, 0x05, 0x52, 0x55, 0x00, 0xfc, 0x07, 0x07, 0xfc, 0x1f,
   0x80, 0x24, 0x8a, 0x08, 0x40, 0x00, 0x41, 0x94, 0x08, 0x00, 0x00, 0x00,
   0x00, 0x00, 0x00, 0x00, 0x00, 0x80, 0xaa, 0x06, 0xaa, 0x0b, 0x00, 0xac,
   0x06, 0x07, 0xae, 0x1a, 0x80, 0xe8, 0x89, 0x08, 0x40, 0x00, 0xc1, 0x93,
   0x08, 0x00, 0x00, 0x00, 0x00, 0x00, 0x00, 0x00, 0x00, 0xc0, 0x45, 0x05,
   0x52, 0x55, 0x00, 0xfc, 0x03, 0x07, 0xfe, 0x1d, 0x80, 0x28, 0x88, 0x08,
   0x40, 0x00, 0x41, 0x90, 0x08, 0x00, 0x00, 0x00, 0x00, 0x00, 0x00, 0x00,
   0x00, 0x80, 0xaa, 0x06, 0xaa, 0x0b, 0x00, 0xac, 0x02, 0x07, 0xab, 0x1a,
   0x80, 0x28, 0x8a, 0x08, 0x46, 0x30, 0x41, 0x94, 0x08, 0x00, 0x00, 0x00,
   0x00, 0x00, 0x00, 0x00, 0x00, 0xc0, 0x45, 0xfd, 0x53, 0x55, 0x00, 0xfc,
   0x83, 0x83, 0x7f, 0x1d, 0x00, 0xc7, 0x89, 0xf0, 0x86, 0x37, 0x81, 0x63,
   0x05, 0x00, 0x00, 0x00, 0x00, 0x00, 0x00, 0x00, 0x00, 0x80, 0xaa, 0x02,
   0xa8, 0x0b, 0x00, 0xa8, 0x82, 0xc1, 0xe3, 0x0a, 0x00, 0x00, 0x00, 0x00,
   0x00, 0x00, 0x00, 0x00, 0x00, 0x00, 0x00, 0x00, 0x00, 0x00, 0x00, 0x00,
   0x00, 0xc0, 0x45, 0x55, 0x55, 0x55, 0x00, 0xf8, 0x07, 0xe0, 0xc0, 0x0d,
   0x00, 0x00, 0x00, 0x00, 0x00, 0x00, 0x00, 0x00, 0x00, 0x00, 0x00, 0x00,
   0x00, 0x00, 0x00, 0x00, 0x00, 0x80, 0xaa, 0xaa, 0xaa, 0x0b, 0x00, 0xa8,
   0x06, 0x00, 0x80, 0x0e, 0x00, 0x0e, 0x00, 0x00, 0x00, 0x03, 0x1c, 0x00,
   0x00, 0x00, 0x00, 0x00, 0x00, 0x00, 0x00, 0x00, 0x00, 0xc0, 0x45, 0x55,
   0x55, 0x55, 0x00, 0xf0, 0x0f, 0x00, 0x80, 0x05, 0x00, 0x01, 0x00, 0x00,
   0x80, 0x04, 0x02, 0x00, 0x00, 0x00, 0x00, 0x00, 0x00, 0x00, 0x00, 0x00,
   0x00, 0x80, 0xaa, 0xaa, 0xaa, 0x0b, 0x00, 0xb0, 0x1a, 0x00, 0xc0, 0x06,
   0x80, 0x40, 0x02, 0x20, 0x42, 0x00, 0x01, 0x00, 0x00, 0x00, 0x00, 0x00,
   0x00, 0x00, 0x00, 0x00, 0x00, 0xc0, 0xe5, 0xff, 0xff, 0x55, 0x00, 0xe0,
   0x3f, 0x00, 0x60, 0x03, 0x80, 0x40, 0x02, 0x20, 0x42, 0x00, 0x01, 0x00,
   0x00, 0x00, 0x00, 0x00, 0x00, 0x00, 0x00, 0x00, 0x00, 0x80, 0xaa, 0xaa,
   0xaa, 0x0a, 0x00, 0xc0, 0x6a, 0x00, 0xbf, 0x01, 0x80, 0x40, 0x02, 0x20,
   0x42, 0x00, 0x01, 0x00, 0x00, 0x00, 0x00, 0x00, 0x00, 0x00, 0x00, 0x00,
   0x00, 0xc0, 0x55, 0x55, 0x55, 0x55, 0x00, 0x80, 0x7f, 0x80, 0xd5, 0x00,
   0x80, 0x43, 0x92, 0x73, 0x47, 0x00, 0x47, 0x64, 0x34, 0x0e, 0x00, 0x00,
   0x00, 0x00, 0x00, 0x00, 0x00, 0x80, 0xaa, 0xaa, 0xaa, 0x0a, 0x00, 0x00,
   0xeb, 0x80, 0x6a, 0x00, 0x80, 0x40, 0x42, 0x24, 0x42, 0x00, 0x41, 0x94,
   0x4c, 0x11, 0x00, 0x00, 0x00, 0x00, 0x00, 0x00, 0x00, 0xc0, 0x55, 0x55,
   0x55, 0x55, 0x00, 0x00, 0xd6, 0x81, 0x35, 0x00, 0x80, 0x40, 0x52, 0x24,
   0x42, 0x00, 0x41, 0x94, 0x44, 0x01, 0x00, 0x00, 0x00, 0x00, 0x00, 0x00,
   0x00, 0x00, 0x00, 0x00, 0x00, 0x00, 0x00, 0x00, 0xbc, 0x81, 0x1f, 0x00,
   0x80, 0x40, 0x52, 0x24, 0x42, 0x00, 0x81, 0x92, 0x44, 0x0e, 0x00, 0x00,
   0x00, 0x00, 0x00, 0x00, 0x00, 0x40, 0x55, 0x55, 0x55, 0x55, 0x00, 0x00,
   0xf0, 0x03, 0x07, 0x00, 0x80, 0x40, 0x52, 0x24, 0x42, 0x04, 0x81, 0x92,
   0x44, 0x10, 0x00, 0x00, 0x00, 0x00, 0x00, 0x00, 0x00, 0x00, 0x00, 0x00,
   0x00, 0x00, 0x00, 0x00, 0x80, 0x03, 0x03, 0x00, 0x80, 0x40, 0x52, 0x24,
   0x42, 0x32, 0x01, 0x91, 0x44, 0x11, 0x00, 0x00, 0x00, 0x00, 0x00, 0x00,
   0x00, 0x00, 0x00, 0x00, 0x00, 0x00, 0x00, 0x00, 0x00, 0x06, 0x02, 0x00,
   0x00, 0x2f, 0x89, 0x13, 0x81, 0x31, 0x1e, 0x61, 0x45, 0x0e, 0x00, 0x00,
   0x00, 0x00, 0x00, 0x00, 0x00, 0x00, 0x00, 0x00, 0x00, 0x00, 0x00, 0x00,
   0x00, 0x04, 0x02, 0x00, 0x00, 0x00, 0x00, 0x00, 0x00, 0x00, 0x00, 0x00,
   0x00, 0x00, 0x00, 0x00, 0x00, 0x00, 0x00, 0x00, 0x00, 0x00, 0x00, 0x00,
   0x00, 0x00, 0x00, 0x00, 0x00, 0x04, 0x02, 0x00, 0x00, 0x00, 0x00, 0x00,
   0x00, 0x00, 0x00, 0x00, 0x00, 0x00, 0x00, 0x00, 0x00, 0x00, 0x00, 0x00,
   0x00, 0x00, 0x00, 0x00, 0x00, 0x00, 0x00, 0x00, 0x00, 0x04, 0x02, 0x00,
   0x00, 0x00, 0x00, 0x00, 0x00, 0x00, 0x00, 0x00, 0x00, 0x00, 0x00, 0x00,
   0x00, 0x00, 0x00, 0x00, 0x00, 0x00, 0x00, 0x00, 0x00, 0x00, 0x00, 0x00,
   0x00, 0x04, 0x02, 0x00, 0x00, 0x00, 0x00, 0x00, 0x00, 0x00, 0x00, 0x00,
   0x00, 0x00, 0x00, 0x00, 0x00, 0x00, 0x00, 0x00, 0x00, 0x00, 0x00, 0x00,
   0x00, 0x00, 0x00, 0x00, 0x00, 0x06, 0x03, 0x00, 0x00, 0x00, 0x00, 0x00,
   0x00, 0x00, 0x00, 0x00, 0x00, 0x00, 0x00, 0x00, 0x00, 0x00, 0x00, 0x00,
   0x00, 0x00, 0x00, 0x00, 0x00, 0x00, 0x00, 0x00, 0x00, 0x02, 0x01, 0x00,
   0x00, 0x00, 0x00, 0x00, 0x00, 0x00, 0x00, 0x00, 0x00, 0x00, 0x00, 0x00,
   0x00, 0x00, 0x00, 0x00, 0x00, 0x00, 0x00, 0x00, 0x00, 0x00, 0x00, 0x00,
   0x00, 0x02, 0x01, 0x00, 0x00, 0x00, 0x00, 0x00, 0x00, 0x00, 0x00, 0x00,
   0x00, 0x00, 0x00, 0x00, 0x00, 0x00, 0x00, 0x00, 0x00, 0x00, 0x00, 0x00,
   0x00, 0x00, 0x00, 0x00, 0x00, 0x83, 0x01, 0x00, 0x00, 0x00, 0x00, 0x00,
   0x00, 0x00, 0x00, 0x00, 0x00, 0x00, 0x00, 0x00, 0x00, 0x00, 0x00, 0x00,
   0x00, 0x00, 0x00, 0x00, 0x00, 0x00, 0x00, 0x00, 0x00, 0x81, 0x00, 0x00,
   0x00, 0x00, 0x00, 0x00, 0x00, 0x00, 0x00, 0x00, 0x00, 0x00, 0x00, 0x00,
   0x00, 0x00, 0x00, 0x00, 0x00, 0x00, 0x00, 0xfc, 0x07, 0x00, 0x00, 0x00,
   0x80, 0x81, 0x00, 0x00, 0x00, 0x00, 0xf0, 0x1f, 0x00, 0x00, 0x00, 0x00,
   0x00, 0x00, 0x00, 0x00, 0x00, 0x00, 0x00, 0x00, 0x00, 0x00, 0x80, 0xbf,
   0x3e, 0x00, 0x00, 0x00, 0x70, 0x00, 0x07, 0x00, 0x00, 0x00, 0xfe, 0xff,
   0x00, 0x00, 0x00, 0x00, 0x00, 0x00, 0x00, 0x00, 0x00, 0x00, 0x00, 0x00,
   0x00, 0x00, 0xe0, 0xff, 0xff, 0x00, 0x00, 0x00, 0x0c, 0x2a, 0x18, 0x00,
   0x00, 0x80, 0xff, 0x57, 0x03, 0x00, 0x00, 0x00, 0x00, 0x00, 0x00, 0x00,
   0x00, 0x00, 0x00, 0x00, 0x00, 0x00, 0xf0, 0xaf, 0xaa, 0x01, 0x00, 0x00,
   0x42, 0x55, 0x20, 0x00, 0x00, 0xc0, 0xff, 0xff, 0x07, 0x00, 0x00, 0x00,
   0x00, 0x00, 0x00, 0x00, 0x00, 0x00, 0x00, 0x00, 0x00, 0x00, 0xf8, 0xff,
   0xff, 0x03, 0x00, 0x00, 0xa9, 0xaa, 0x4a, 0x00, 0x00, 0xe0, 0x5f, 0x55,
   0x0d, 0x00, 0x00, 0x00, 0x00, 0x00, 0x00, 0x00, 0x00, 0x00, 0x00, 0x00,
   0x00, 0x00, 0xfc, 0xaa, 0xab, 0x06, 0x00, 0x80, 0x54, 0x05, 0x80, 0x00,
   0x00, 0xf0, 0xff, 0xff, 0x1f, 0x00, 0x00, 0x00, 0x00, 0x00, 0x00, 0x00,
   0x00, 0x00, 0x00, 0x00, 0x00, 0x00, 0xfe, 0x7f, 0xfc, 0x0f, 0x00, 0x40,
   0xaa, 0xaa, 0x2a, 0x01, 0x00, 0xf8, 0x57, 0x55, 0x35, 0x00, 0x00, 0x00,
   0x00, 0x00, 0x00, 0x00, 0x00, 0x00, 0x00, 0x00, 0x00, 0x00, 0xbf, 0x1a,
   0xb0, 0x1a, 0x00, 0x20, 0x15, 0x00, 0x00, 0x02, 0x00, 0xfc, 0xff, 0xff,
   0x7f, 0x00, 0x00, 0x00, 0x00, 0x00, 0x00, 0x00, 0x00, 0x00, 0x00, 0x00,
   0x00, 0x80, 0xff, 0x0f, 0xe0, 0x3f, 0x00, 0x90, 0xaa, 0xaa, 0xaa, 0x04,
   0x00, 0xfe, 0x81, 0x55, 0xd5, 0x00, 0x00, 0x00, 0x00, 0x00, 0x00, 0x00,
   0x00, 0x00, 0x00, 0x00, 0x00, 0x80, 0xaf, 0x0e, 0xc0, 0x2b, 0x00, 0x50,
   0x05, 0x00, 0x00, 0x04, 0x00, 0x3e, 0x00, 0xff, 0xff, 0x00, 0x00, 0x00,
   0x00, 0x00, 0x00, 0x00, 0x00, 0x00, 0x00, 0x00, 0x00, 0xc0, 0xff, 0x0f,
   0x00, 0x7e, 0x00, 0x88, 0xaa, 0xaa, 0xaa, 0x08, 0x00, 0x1f, 0x00, 0xfa,
   0xd5, 0x01, 0x00, 0x00, 0x00, 0x00, 0x00, 0x00, 0x00, 0x00, 0x00, 0x00,
   0x00, 0xc0, 0xaf, 0x0a, 0x00, 0xe0, 0x00, 0x48, 0x01, 0x00, 0x00, 0x08,
   0x80, 0x03, 0x00, 0x9e, 0xff, 0x01, 0x00, 0x00, 0x00, 0x00, 0x00, 0x00,
   0x00, 0x00, 0x00, 0x00, 0x00, 0xc0, 0xff, 0x0f, 0x00, 0x00, 0x03, 0xa8,
   0xaa, 0xaa, 0xaa, 0x1a, 0xe0, 0x01, 0x00, 0x07, 0x56, 0x01, 0x00, 0x00,
   0x00, 0x00, 0x00, 0x00, 0x00, 0x00, 0x00, 0x00, 0x00, 0xe0, 0xab, 0x1a,
   0x00, 0x00, 0x0e, 0x46, 0x00, 0x00, 0x00, 0x70, 0x38, 0x00, 0x80, 0x03,
   0xfc, 0x03, 0x00, 0x00, 0x00, 0x00, 0x00, 0x00, 0x00, 0x00, 0x00, 0x00,
   0x00, 0xe0, 0xff, 0x3f, 0xc0, 0x00, 0xf8, 0xa7, 0xaa, 0xaa, 0xaa, 0xc2,
   0x0f, 0xe0, 0xc0, 0x03, 0x58, 0x03, 0x00, 0x00, 0x00, 0x00, 0x00, 0x00,
   0x00, 0x00, 0x00, 0x00, 0x00, 0xe0, 0xea, 0x6f, 0xb0, 0x01, 0x00, 0x50,
   0x00, 0x00, 0x00, 0x00, 0x00, 0xe0, 0xff, 0x01, 0xf8, 0x03, 0x00, 0x00,
   0x00, 0x00, 0x00, 0x00, 0x00, 0x00, 0x00, 0x00, 0x00, 0xe0, 0x3f, 0xfc,
   0xff, 0x01, 0x00, 0xa0, 0xaa, 0xaa, 0xaa, 0x02, 0x00, 0xc0, 0x7f, 0x00,
   0x58, 0x03, 0x00, 0x00, 0x00, 0x00, 0x00, 0x00, 0x00, 0x00, 0x00, 0x00,
   0x00, 0xe0, 0x1a, 0xb0, 0xaa, 0x00, 0x00, 0x50, 0x00, 0x00, 0x00, 0x00,
   0x00, 0x80, 0x01, 0x00, 0xf8, 0x03, 0x00, 0x00, 0x00, 0x00, 0x00, 0x00,
   0x00, 0x00, 0x00, 0x00, 0x00, 0xe0, 0x1f, 0xc0, 0x7f, 0x00, 0x00, 0xa0,
   0xaa, 0xaa, 0xaa, 0x00, 0x00, 0x00, 0x00, 0x00, 0x5c, 0x03, 0x00, 0x00,
   0x00, 0x00, 0x00, 0x00, 0x00, 0x00, 0x00, 0x00, 0x00, 0xa0, 0x3a, 0x00,
   0x0c, 0xe0, 0x03, 0x10, 0x00, 0x00, 0x00, 0x00, 0xff, 0x00, 0x00, 0x00,
   0xbe, 0x03, 0x00, 0x00, 0x00, 0x00, 0x00, 0x00, 0x00, 0x00, 0x00, 0x00,
   0x00, 0xe0, 0x7f, 0x00, 0x00, 0xf0, 0xfe, 0xa0, 0xaa, 0xaa, 0xaa, 0xc0,
   0xc1, 0x07, 0x00, 0xc0, 0x57, 0x03, 0x00, 0x00, 0x00, 0x00, 0x00, 0x00,
   0x00, 0x00, 0x00, 0x00, 0x00, 0xa0, 0x6a, 0x00, 0x00, 0xf8, 0x00, 0x07,
   0x00, 0x00, 0x00, 0x30, 0x80, 0x0f, 0xf8, 0xf0, 0xaf, 0x03, 0x00, 0x00,
   0x00, 0x00, 0x00, 0x00, 0x00, 0x00, 0x00, 0x00, 0x00, 0xc0, 0xff, 0x00,
   0x00, 0x5f, 0x00, 0xa4, 0xaa, 0xaa, 0x2a, 0x08, 0x00, 0x1d, 0xde, 0x5f,
   0x55, 0x01, 0x00, 0x00, 0x00, 0x00, 0x00, 0x00, 0x00, 0x00, 0x00, 0x00,
   0x00, 0xc0, 0xaa, 0x7f, 0x00, 0x6b, 0x00, 0x0c, 0x00, 0x00, 0x00, 0x08,
   0x00, 0x3f, 0xfc, 0xff, 0xab, 0x01, 0x00, 0x00, 0x00, 0x00, 0x00, 0x00,
   0x00, 0x00, 0x00, 0x00, 0x00, 0xc0, 0xff, 0xff, 0x80, 0x75, 0x00, 0xa8,
   0xaa, 0xaa, 0x2a, 0x08, 0x00, 0x35, 0x80, 0x55, 0xd5, 0x01, 0x00, 0x00,
   0x00, 0x00, 0x00, 0x00, 0x00, 0x00, 0x00, 0x00, 0x00, 0x80, 0xaa, 0xaf,
   0x80, 0x3a, 0x00, 0x10, 0x00, 0x00, 0x00, 0x04, 0x00, 0x7e, 0x00, 0xff,
   0xea, 0x00, 0x00, 0x00, 0x00, 0x00, 0x00, 0x00, 0x00, 0x00, 0x00, 0x00,
   0x00, 0x80, 0xff, 0xf9, 0x40, 0x35, 0x00, 0x90, 0xaa, 0xaa, 0x0a, 0x04,
   0x00, 0xd6, 0x00, 0x56, 0xd5, 0x00, 0x00, 0x00, 0x00, 0x00, 0x00, 0x00,
   0x00, 0x00, 0x00, 0x00, 0x00, 0x00, 0xab, 0x60, 0xf0, 0x1a, 0x00, 0x20,
   0x00, 0x00, 0x00, 0x02, 0x00, 0xfc, 0x01, 0xbe, 0x6a, 0x00, 0x00, 0x00,
   0x00, 0x00, 0x00, 0x00, 0x00, 0x00, 0x00, 0x00, 0x00, 0x00, 0xfe, 0x00,
   0x50, 0x0d, 0x00, 0x40, 0xaa, 0xaa, 0x00, 0x01, 0x00, 0x58, 0x87, 0x57,
   0x35, 0x00, 0x00, 0x00, 0x00, 0x00, 0x00, 0x00, 0x00, 0x00, 0x00, 0x00,
   0x00, 0x00, 0xac, 0x00, 0xb0, 0x06, 0x00, 0x80, 0x00, 0x00, 0x80, 0x00,
   0x00, 0xf0, 0xff, 0xab, 0x1a, 0x00, 0x00, 0x00, 0x00, 0x00, 0x00, 0x00,
   0x00, 0x00, 0x00, 0x00, 0x00, 0x00, 0xf8, 0x01, 0x58, 0x03, 0x00, 0x00,
   0xa9, 0x0a, 0x40, 0x00, 0x00, 0x60, 0x55, 0x55, 0x0d, 0x00, 0x00, 0x00,
   0x00, 0x00, 0x00, 0x00, 0x00, 0x00, 0x00, 0x00, 0x00, 0x00, 0xb0, 0x06,
   0xae, 0x01, 0x00, 0x00, 0x02, 0x00, 0x20, 0x00, 0x00, 0xc0, 0xaf, 0xaa,
   0x06, 0x00, 0x00, 0x00, 0x00, 0x00, 0x00, 0x00, 0x00, 0x00, 0x00, 0x00,
   0x00, 0x00, 0xe0, 0x9d, 0xf5, 0x00, 0x00, 0x00, 0x8c, 0x00, 0x18, 0x00,
   0x00, 0x80, 0x55, 0xd5, 0x03, 0x00, 0x00, 0x00, 0x00, 0x00, 0x00, 0x00,
   0x00, 0x00, 0x00, 0x00, 0x00, 0x00, 0x80, 0xff, 0x3e, 0x00, 0x00, 0x00,
   0x70, 0x00, 0x07, 0x00, 0x00, 0x00, 0xbe, 0xfa, 0x00, 0x00, 0x00, 0x00,
   0x00, 0x00, 0x00, 0x00, 0x00, 0x00, 0x00, 0x00, 0x00, 0x00, 0x00, 0xfc,
   0x07, 0x00, 0x00, 0x00, 0x80, 0xff, 0x00, 0x00, 0x00, 0x00, 0xf0, 0x1f,
   0x00, 0x00, 0x00, 0x00, 0x00, 0x00, 0x00, 0x00, 0x00, 0x00, 0x00, 0x00,
   0x00, 0x00, 0x00, 0x00, 0x00, 0x00, 0x00, 0x00, 0x00, 0x00, 0x00, 0x00,
   0x00, 0x00, 0x00, 0x00, 0x00, 0x00, 0x00, 0x00, 0x00, 0x00, 0x00, 0x00,
   0x00, 0x00, 0x00, 0x00, 0x00, 0x00, 0x00, 0x00, 0x00, 0x00, 0x00, 0x00,
   0x00, 0x00, 0x00, 0x00, 0x00, 0x00, 0x00, 0x00, 0x00, 0x00, 0x00, 0x00,
   0x00, 0x00, 0x00, 0x00, 0x00, 0x00, 0x00, 0x00, 0x00, 0x00, 0x00, 0x00,
   0x00, 0x00, 0x00, 0x00, 0x00, 0x00, 0x00, 0x00, 0x00, 0x00, 0x00, 0x00,
   0x00, 0x00, 0x00, 0x00, 0x00, 0x00, 0x00, 0x00, 0x00, 0x00, 0x00, 0x00,
   0x00, 0x00, 0x00, 0x00, 0x00, 0x00, 0x00, 0x00, 0x00, 0x00, 0x00, 0x00,
   0x00, 0x00, 0x00, 0x00, 0x00, 0x00, 0x00, 0x00, 0x00, 0x00, 0x00, 0x00,
   0x00, 0x00, 0x00, 0x00, 0x00, 0x00, 0x00, 0x00, 0x00, 0x00, 0x00, 0x00,
   0x00, 0x00, 0x00, 0x00, 0x00, 0x00, 0x00, 0x00, 0x00, 0x00, 0x00, 0x00,
   0x00, 0x00, 0x00, 0x00, 0x00, 0x00, 0x00, 0x00, 0x00, 0x00, 0x00, 0x00,
   0x00, 0x00, 0x00, 0x00, 0x00, 0x00, 0x00, 0x00, 0x00, 0x00, 0x00, 0x00,
   0x00, 0x00, 0x00, 0x00, 0x00, 0x00, 0x00, 0x00, 0x00, 0x00, 0x00, 0x00,
   0x00, 0x00, 0x00, 0x00, 0x00, 0x00, 0x00, 0x00, 0x00, 0x00, 0x00, 0x00,
   0x00, 0x00, 0x00, 0x00, 0x00, 0x00, 0x00, 0x00, 0x00, 0x00, 0x00, 0x00,
   0x00, 0x00, 0x00, 0x00, 0x00, 0x00, 0x00, 0x00, 0x00, 0x00, 0x00, 0x00,
   0x00, 0x00, 0x00, 0x00, 0x00, 0x00, 0x00, 0x00, 0x00, 0x00, 0x00, 0x00,
   0x00, 0x00, 0x00, 0x00, 0x00, 0x00, 0x00, 0x00, 0x00, 0x00, 0x00, 0x00,
   0x00, 0x00, 0x00, 0x00, 0x00, 0x00, 0x00, 0x00, 0x00, 0x00, 0x00, 0x00,
   0x00, 0x00, 0x00, 0x00, 0x00, 0x00, 0x00, 0x00, 0x00, 0x00, 0x00, 0x00,
   0x00, 0x00, 0x00, 0x00, 0x00, 0x00, 0x00, 0x00, 0x00, 0x00, 0x00, 0x00,
   0x00, 0x00, 0x00, 0x00, 0x00, 0x00, 0x00, 0x00, 0x00, 0x00, 0x00, 0x00,
   0x00, 0x00, 0x00, 0x00, 0x00, 0xc0, 0x01, 0x00, 0x00, 0x00, 0x00, 0x00,
   0x00, 0x00, 0x00, 0x00, 0x00, 0x00, 0x00, 0x00, 0x00, 0x00, 0x00, 0x00,
   0x00, 0x00, 0x00, 0x00, 0x00, 0x00, 0x00, 0x00, 0x00, 0x20, 0x02, 0x20,
   0x04, 0x00, 0x00, 0xc0, 0x00, 0x00, 0x00, 0x00, 0x80, 0xaa, 0xaa, 0xaa,
   0xaa, 0x00, 0x00, 0x00, 0x00, 0x00, 0x00, 0x00, 0x00, 0x00, 0x00, 0x00,
   0x00, 0x20, 0x02, 0xf8, 0x04, 0x1c, 0x0d, 0xcf, 0x00, 0x00, 0x00, 0x00,
   0x00, 0xff, 0xff, 0xff, 0x3f, 0x00, 0x00, 0x00, 0x00, 0x00, 0x00, 0x00,
   0x00, 0x00, 0x00, 0x00, 0x00, 0xe0, 0x13, 0x21, 0x3c, 0x22, 0x93, 0x00,
   0x00, 0x00, 0x00, 0x00, 0x80, 0xab, 0xaa, 0xaa, 0xaa, 0x00, 0x00, 0x00,
   0x00, 0x00, 0x00, 0x00, 0x00, 0x00, 0x00, 0x00, 0x00, 0x20, 0x12, 0x21,
   0x44, 0x22, 0x01, 0xc7, 0x00, 0x00, 0x00, 0x00, 0x00, 0x55, 0x55, 0x55,
   0x15, 0x00, 0x00, 0x00, 0x00, 0x00, 0x00, 0x00, 0x00, 0x00, 0x00, 0x00,
   0x00, 0x20, 0x12, 0x21, 0x44, 0x22, 0x01, 0xc8, 0x00, 0x00, 0x00, 0x00,
   0x80, 0xab, 0xaa, 0xaa, 0xaa, 0x00, 0x00, 0x00, 0x00, 0x00, 0x00, 0x00,
   0x00, 0x00, 0x00, 0x00, 0x00, 0x20, 0xe2, 0x20, 0x44, 0x1c, 0x81, 0x07,
   0x00, 0x00, 0x00, 0x00, 0x00, 0x55, 0x55, 0x55, 0x15, 0x00, 0x00, 0x00,
   0x00, 0x00, 0x00, 0x00, 0x00, 0x00, 0x00, 0x00, 0x00, 0x00, 0x00, 0x00,
   0x00, 0x00, 0x00, 0x00, 0x00, 0x00, 0x00, 0x00, 0x80, 0x0b, 0x00, 0x00,
   0xa8, 0x00, 0x00, 0x00, 0x00, 0x00, 0x00, 0x00, 0x00, 0x00, 0x00, 0x00,
   0x00, 0x00, 0x00, 0x00, 0x00, 0x00, 0x00, 0x00, 0x00, 0x00, 0x00, 0x00,
   0x00, 0x55, 0x55, 0x55, 0x17, 0x00, 0x00, 0x00, 0x00, 0x00, 0x00, 0x00,
   0x00, 0x00, 0x00, 0x00, 0x00, 0x00, 0x00, 0x00, 0x00, 0x00, 0x00, 0x00,
   0x00, 0x00, 0x00, 0x00, 0x80, 0x8b, 0xaa, 0xaa, 0xaa, 0x00, 0x00, 0x00,
   0x00, 0x00, 0x00, 0x00, 0x00, 0x00, 0x00, 0x00, 0x00, 0x80, 0x01, 0x00,
   0x00, 0x60, 0x00, 0x00, 0x00, 0x00, 0x00, 0x00, 0x00, 0x55, 0x55, 0x55,
   0x17, 0x00, 0x00, 0x00, 0x00, 0x00, 0x00, 0x00, 0x00, 0x00, 0x00, 0x00,
   0x00, 0x40, 0x02, 0x00, 0x00, 0x90, 0x00, 0x00, 0x00, 0x00, 0x00, 0x00,
   0x80, 0x8b, 0xaa, 0xaa, 0xaa, 0x00, 0x00, 0x00, 0x00, 0x00, 0x00, 0x00,
   0x00, 0x00, 0x00, 0x00, 0x00, 0x20, 0x10, 0x00, 0x00, 0x88, 0xc0, 0x30,
   0x00, 0x00, 0x01, 0x00, 0x00, 0x55, 0x55, 0x55, 0x17, 0x00, 0x00, 0x00,
   0x00, 0x00, 0x00, 0x00, 0x00, 0x00, 0x00, 0x00, 0x00, 0x20, 0x10, 0x00,
   0x00, 0x08, 0x20, 0x49, 0x00, 0x00, 0x01, 0x00, 0x80, 0x8b, 0xfa, 0xa7,
   0xaa, 0x00, 0x00, 0x00, 0x00, 0x00, 0x00, 0x00, 0x00, 0x00, 0x00, 0x00,
   0x00, 0x20, 0x10, 0x00, 0x00, 0x08, 0x20, 0x08, 0x00, 0x00, 0x01, 0x00,
   0x00, 0x55, 0x0d, 0x54, 0x17, 0x00, 0x00, 0x00, 0x00, 0x00, 0x00, 0x00,
   0x00, 0x00, 0x00, 0x00, 0x00, 0xc0, 0x38, 0x27, 0x72, 0x08, 0x74, 0x1c,
   0x4e, 0x03, 0x01, 0x00, 0x80, 0x8b, 0x0a, 0xa4, 0xaa, 0x00, 0x00, 0x00,
   0x00, 0x00, 0x00, 0x00, 0x00, 0x00, 0x00, 0x00, 0x00, 0x00, 0x91, 0x28,
   0x8a, 0x08, 0x20, 0x08, 0xd1, 0xc4, 0x01, 0x00, 0x00, 0x55, 0x0d, 0x54,
   0x17, 0x00, 0x00, 0x00, 0x00, 0x00, 0x00, 0x00, 0x00, 0x00, 0x00, 0x00,
   0x00, 0x00, 0x92, 0x28, 0x8a, 0xe8, 0x24, 0x08, 0x51, 0x20, 0x01, 0x00,
   0x80, 0x8b, 0x0a, 0xa4, 0xaa, 0x00, 0x00, 0x00, 0x00, 0x00, 0x00, 0x00,
   0x00, 0x00, 0x00, 0x00, 0x00, 0x00, 0x92, 0x27, 0x7a, 0x88, 0x24, 0x08,
   0x51, 0x10, 0x01, 0x00, 0x00, 0x55, 0x0d, 0x54, 0x17, 0x00, 0x00, 0x00,
   0x00, 0x00, 0x00, 0x00, 0x00, 0x00, 0x00, 0x00, 0x00, 0x00, 0x92, 0x20,
   0x0a, 0x88, 0x24, 0x08, 0x51, 0x10, 0x01, 0x00, 0x80, 0x8b, 0x0a, 0xa4,
   0xaa, 0x00, 0x00, 0x00, 0x00, 0x00, 0x00, 0x00, 0x00, 0x00, 0x00, 0x00,
   0x00, 0x20, 0x91, 0x48, 0x89, 0x48, 0x24, 0x08, 0x51, 0x10, 0x01, 0x00,
   0x00, 0x55, 0x0d, 0x54, 0x17, 0x00, 0x00, 0x00, 0x00, 0x00, 0x00, 0x00,
   0x00, 0x00, 0x00, 0x00, 0x00, 0xc0, 0x08, 0x87, 0x70, 0x30, 0x22, 0x08,
   0x4e, 0xe0, 0x00, 0x00, 0x80, 0x8b, 0xfa, 0xa7, 0xaa, 0x00, 0x00, 0x00,
   0x00, 0x00, 0x00, 0x00, 0x00, 0x00, 0x00, 0x00, 0x00, 0x00, 0x00, 0x00,
   0x00, 0x00, 0x00, 0x00, 0x00, 0x00, 0x00, 0x00, 0x00, 0x55, 0x05, 0x50,
   0x17, 0x00, 0x00, 0x00, 0x00, 0x00, 0x00, 0x00, 0x00, 0x00, 0x00, 0x00,
   0x00, 0x00, 0x00, 0x00, 0x00, 0x00, 0x00, 0x00, 0x00, 0x00, 0x00, 0x00,
   0x80, 0x8b, 0xaa, 0xaa, 0xaa, 0x00, 0x00, 0x00, 0x00, 0x00, 0x00, 0x00,
   0x00, 0x00, 0x00, 0x00, 0x00, 0xc0, 0x03, 0x00, 0x1e, 0x00, 0x00, 0x00,
   0x00, 0x00, 0x00, 0x00, 0x00, 0x55, 0x55, 0x55, 0x17, 0x00, 0x00, 0x00,
   0x00, 0x00, 0x00, 0x00, 0x00, 0x00, 0x00, 0x00, 0x00, 0x20, 0x01, 0x00,
   0x11, 0x00, 0x00, 0x00, 0x00, 0x00, 0x00, 0x00, 0x80, 0x8b, 0xaa, 0xaa,
   0xaa, 0x00, 0x00, 0x00, 0x00, 0x00, 0x00, 0x00, 0x00, 0x00, 0x00, 0x00,
   0x00, 0x00, 0x01, 0x00, 0x10, 0x20, 0x00, 0x08, 0x00, 0x00, 0x00, 0x00,
   0x00, 0x55, 0x55, 0x55, 0x17, 0x00, 0x00, 0x00, 0x00, 0x00, 0x00, 0x00,
   0x00, 0x00, 0x00, 0x00, 0x00, 0x00, 0x01, 0x00, 0x08, 0x20, 0x00, 0x88,
   0x00, 0x00, 0x00, 0x00, 0x80, 0xcb, 0xff, 0xff, 0xab, 0x00, 0x00, 0x00,
   0x00, 0x00, 0x00, 0x00, 0x00, 0x00, 0x00, 0x00, 0x00, 0x00, 0x01, 0x00,
   0x08, 0x20, 0x00, 0x88, 0x00, 0x00, 0x00, 0x00, 0x00, 0x55, 0x55, 0x55,
   0x15, 0x00, 0x00, 0x00, 0x00, 0x00, 0x00, 0x00, 0x00, 0x00, 0x00, 0x00,
   0x00, 0x00, 0x91, 0x0d, 0x84, 0x23, 0xa7, 0x89, 0x0c, 0x00, 0x00, 0x00,
   0x80, 0xab, 0xaa, 0xaa, 0xaa, 0x00, 0x00, 0x00, 0x00, 0x00, 0x00, 0x00,
   0x00, 0x00, 0x00, 0x00, 0x00, 0x00, 0x41, 0x12, 0x44, 0xa4, 0x68, 0x4a,
   0x12, 0x00, 0x00, 0x00, 0x00, 0x55, 0x55, 0x55, 0x15, 0x00, 0x00, 0x00,
   0x00, 0x00, 0x00, 0x00, 0x00, 0x00, 0x00, 0x00, 0x00, 0x00, 0x51, 0x12,
   0x42, 0xa4, 0x28, 0x3a, 0x12, 0x00, 0x00, 0x00, 0x80, 0xab, 0xaa, 0xaa,
   0xaa, 0x00, 0x00, 0x00, 0x00, 0x00, 0x00, 0x00, 0x00, 0x00, 0x00, 0x00,
   0x00, 0x00, 0x51, 0x12, 0xc2, 0xa3, 0x27, 0x4a, 0x12, 0x00, 0x00, 0x00,
   0x00, 0x00, 0x00, 0x00, 0x00, 0x00, 0x00, 0x00, 0x00, 0x00, 0x00, 0x00,
   0x00, 0x00, 0x00, 0x00, 0x00, 0x20, 0x51, 0x10, 0x41, 0xa0, 0x20, 0x8a,
   0x12, 0x00, 0x00, 0x00, 0x80, 0xaa, 0xaa, 0xaa, 0xaa, 0x00, 0x00, 0x00,
   0x00, 0x00, 0x00, 0x00, 0x00, 0x00, 0x00, 0x00, 0x00, 0x20, 0x51, 0x10,
   0x51, 0xa4, 0x28, 0x8a, 0x12, 0x00, 0x00, 0x00, 0x00, 0x00, 0x00, 0x00,
   0x00, 0x00, 0x00, 0x00, 0x00, 0x00, 0x00, 0x00, 0x00, 0x00, 0x00, 0x00,
   0x00, 0xc0, 0x48, 0x10, 0x8f, 0x13, 0x27, 0x8a, 0x2c, 0x00, 0x00, 0x00,
   0x00, 0x00, 0x00, 0x00, 0x00, 0x00, 0x00, 0x00, 0x00, 0x00, 0x00, 0x00,
   0x00, 0x00, 0x00, 0x00, 0x00, 0x00, 0x00, 0x00, 0x00, 0x00, 0x00, 0x00,
   0x00, 0x00, 0x00, 0x00, 0x00, 0x00, 0x00, 0x00, 0x00, 0x00, 0x00, 0x00,
   0x00, 0x00, 0x00, 0x00, 0x00, 0x00, 0x00, 0x00, 0x00, 0x00, 0x00, 0x00,
   0x00, 0x00, 0x00, 0x00, 0x00, 0x00, 0x00, 0x00, 0x00, 0x00, 0x00, 0x00,
   0x00, 0x00, 0x00, 0x00, 0x00, 0x00, 0x00, 0x00, 0x00, 0x00, 0x00, 0x00,
   0x00, 0x80, 0x01, 0x00, 0x00, 0x06, 0x00, 0x00, 0x00, 0x00, 0x00, 0x00,
   0x00, 0x00, 0x00, 0x00, 0x00, 0x00, 0x00, 0x00, 0x00, 0x00, 0x00, 0x00,
   0x00, 0x00, 0x00, 0x00, 0x00, 0x40, 0x02, 0x00, 0x00, 0x09, 0x00, 0x00,
   0x00, 0x00, 0x00, 0x00, 0x00, 0x00, 0x00, 0x00, 0x00, 0x00, 0x00, 0x00,
   0x00, 0x00, 0x00, 0x00, 0x00, 0x00, 0x00, 0x00, 0x00, 0x20, 0x02, 0x20,
   0x80, 0x48, 0x80, 0x04, 0x00, 0x00, 0x00, 0x00, 0x00, 0x00, 0x00, 0x00,
   0x00, 0x00, 0x00, 0x00, 0x00, 0x00, 0x00, 0x00, 0x00, 0x00, 0x00, 0x00,
   0x00, 0x20, 0x02, 0x20, 0x80, 0x48, 0x80, 0x04, 0x00, 0x00, 0x00, 0x00,
   0x00, 0x00, 0x00, 0x00, 0x00, 0x00, 0x00, 0x00, 0x00, 0x00, 0x00, 0x00,
   0x00, 0x00, 0x00, 0x00, 0x00, 0x20, 0x02, 0x20, 0x80, 0x48, 0x80, 0x44,
   0x00, 0x00, 0x00, 0x00, 0x00, 0x00, 0x00, 0x00, 0x00, 0x00, 0x00, 0x00,
   0x00, 0x00, 0x00, 0x00, 0x00, 0x00, 0x00, 0x00, 0x00, 0x20, 0x6a, 0xa0,
   0x88, 0x44, 0xce, 0x45, 0x6a, 0x00, 0x00, 0x00, 0x00, 0x00, 0x00, 0x00,
   0x00, 0x00, 0x00, 0x00, 0x00, 0x00, 0x00, 0x00, 0x00, 0x00, 0x00, 0x00,
   0x00, 0xe0, 0x9b, 0xb8, 0x88, 0x43, 0x91, 0x24, 0x98, 0x00, 0x00, 0x00,
   0x00, 0x00, 0x00, 0x00, 0x00, 0x00, 0x00, 0x00, 0x00, 0x00, 0x00, 0x00,
   0x00, 0x00, 0x00, 0x00, 0x00, 0x20, 0x8a, 0xa4, 0x88, 0x40, 0x91, 0x1c,
   0x8a, 0x00, 0x00, 0x00, 0x00, 0x00, 0x00, 0x00, 0x00, 0x00, 0x00, 0x00,
   0x00, 0x00, 0x00, 0x00, 0x00, 0x00, 0x00, 0x00, 0x00, 0x20, 0x8a, 0xa2,
   0x88, 0x40, 0x91, 0x24, 0x8a, 0x00, 0x00, 0x00, 0x00, 0x00, 0x00, 0x00,
   0x00, 0x00, 0x00, 0x00, 0x00, 0x00, 0x00, 0x00, 0x00, 0x00, 0x00, 0x00,
   0x00, 0x20, 0x8a, 0xa2, 0x88, 0x40, 0x91, 0x44, 0x8a, 0x00, 0x00, 0x00,
   0x00, 0x00, 0x00, 0x00, 0x00, 0x00, 0x00, 0x00, 0x00, 0x00, 0x00, 0x00,
   0x00, 0x00, 0x00, 0x00, 0x00, 0x20, 0x8a, 0xa2, 0x88, 0x40, 0x91, 0x44,
   0x8a, 0x00, 0x00, 0x00, 0x00, 0x00, 0x00, 0x00, 0x00, 0x00, 0x00, 0x00,
   0x00, 0x00, 0x00, 0x00, 0x00, 0x00, 0x00, 0x00, 0x00, 0x20, 0x8a, 0x1c,
   0x8f, 0x20, 0x4e, 0x44, 0x89, 0x00, 0x00, 0x00, 0x00, 0x00, 0x00, 0x00,
   0x00, 0x00, 0x00, 0x00, 0x00, 0x00, 0x00, 0x00, 0x00, 0x00, 0x00, 0x00,
   0x00, 0x00, 0x00, 0x00, 0x08, 0x00, 0x00, 0x00, 0x00, 0x00, 0x00, 0x00,
   0x00, 0x00, 0x00, 0x00, 0x00, 0x00, 0x00, 0x00, 0x00, 0x00, 0x00, 0x00,
   0x00, 0x00, 0x00, 0x00, 0x00, 0x00, 0x00, 0x80, 0x04, 0x00, 0x00, 0x00,
   0x00, 0x00, 0x00, 0x00, 0x00, 0x00, 0x00, 0x00, 0x00, 0x00, 0x00, 0x00,
   0x00, 0x00, 0x00, 0x00, 0x00, 0x00, 0x00, 0x00, 0x00, 0x00, 0x00, 0x00,
   0x03, 0x00, 0x00, 0x00, 0x00, 0x00, 0x00, 0x00, 0x00, 0x00, 0x00, 0x00,
   0x00, 0x00, 0x00, 0x00, 0x00, 0x00, 0x00, 0x00, 0x00, 0x00, 0x00, 0x00,
   0x00, 0x00, 0x00, 0x00, 0x00, 0x00, 0x00, 0x00, 0x00, 0x00, 0x00, 0x00,
   0x00, 0x00, 0x00, 0x00, 0x00, 0x00, 0x00, 0x00, 0x00, 0x00, 0x00, 0x00,
   0x00, 0x00, 0x00, 0x00, 0x00, 0x00, 0x00, 0x00, 0x00, 0x00, 0x00, 0x00,
   0x00, 0x00, 0x00, 0x00, 0x00, 0x00, 0x00, 0x00, 0x00, 0x00, 0x00, 0x00,
   0x00, 0x00, 0x00, 0x00, 0x00, 0x00, 0x00, 0x00, 0x00, 0x00, 0x00, 0x00,
   0x00, 0x00, 0x00, 0x00, 0x00, 0x00, 0x00, 0x00, 0x00, 0x00, 0x00, 0x00,
   0x00, 0x00, 0x00, 0x00, 0x00, 0x00, 0x00, 0x00, 0x00, 0x00, 0x00, 0x00,
   0x00, 0x00, 0x00, 0x00, 0x00, 0x00, 0x00, 0x00, 0x00, 0x00, 0x00, 0x00,
   0x00, 0x00, 0x00, 0x00, 0x00, 0x00, 0x00, 0x00, 0x00, 0x00, 0x00, 0x00,
   0x00, 0x00, 0x00, 0x00, 0x00, 0x00, 0x00, 0x00, 0x00, 0x00, 0x00, 0x00,
   0x00, 0x00, 0x00, 0x00, 0x00, 0x00, 0x00, 0x00, 0x00, 0x00, 0x00, 0x00,
   0x00, 0x00, 0x00, 0x00, 0x00, 0x00, 0x00, 0x00, 0x00, 0x00, 0x00, 0x00,
   0x00, 0x00, 0x00, 0x00, 0x00, 0x00, 0x00, 0x00, 0x00, 0x00, 0x00, 0x00,
   0x00, 0x00, 0x00, 0x00, 0x00, 0x00, 0x00, 0x00};
