#define cursor_width 15
#define cursor_height 15
#define cursor_x_hot 0
#define cursor_y_hot 0
static char cursor_bits[] = {
   0x03, 0x00, 0x0d, 0x00, 0x3a, 0x00, 0xd6, 0x00, 0xac, 0x03, 0x54, 0x0d,
   0xa8, 0x1a, 0x58, 0x35, 0xb0, 0x7e, 0x50, 0x55, 0xe0, 0x7f, 0x60, 0x55,
   0xc0, 0x7f, 0x80, 0x35, 0x00, 0x1f};
