#define upmask_width 15
#define upmask_height 15
#define upmask_x_hot 0
#define upmask_y_hot 0
static char upmask_bits[] = {
   0x1f, 0x00, 0x7f, 0x00, 0xff, 0x01, 0xff, 0x07, 0xff, 0x1f, 0xfe, 0x3f,
   0xfe, 0x7f, 0xfc, 0x7f, 0xfc, 0x7f, 0xf8, 0x7f, 0xf8, 0x7f, 0xf0, 0x7f,
   0xf0, 0x7f, 0xc0, 0x7f, 0xc0, 0x7f};
