/* XPM */
static char *xedit[] = {
/* width height ncolors chars_per_pixel */
"    32    32       6          1",
/* colors */
"  c grey90	m white  g4 grey90",
"w c white	m white  g4 white",
"b c black	m black  g4 black",
"c c grey50	m black  g4 grey50",
"d c grey70	m white  g4 grey70",
"e c khaki	m black  g4 grey80",
/* pixels */
"                     ccdd       ",
"                   ccdwwddd     ",
"                  cdwwdddc      ",
"                 cdwwdddddc     ",
" bbbbbbbbbbbbbbbcdwddddccbbb    ",
" bwwwwwwwwwwwwwwcdwddcwwwwwb    ",
" bwwwbwwwwwwwwwcddcccwwwwwwb    ",
" bwwwbbwwbbwwwwcddcwwbwwwwwb    ",
" bwwbwbbwwbbwwcddcwbbwbwwwwb    ",
" bwwwwwwwwwwwwcdcwwwwwwwwwwb    ",
" bwwwbwwwwwwwwcdcwbbbwwwwwwb    ",
" bwwwbwwbwwwwcdcwwbwwbwwwwwb    ",
" bwwbwbbbwwwwccwwwbwwbwbwwwb    ",
" bwwwwwwbwwwwccwwwwwwwwwwwwb    ",
" bwwwwbbwwwwweewwwwwwwwwwwwb    ",
" bwwwwwwwwwweewwwwwwwwwwwwwb    ",
" bwbbbwwwbwwewwwwwwwwwwwwwwb    ",
" bwwbbbwbwwwbwwwwwwwwwwwwwwb    ",
" bwwwbbbwwwwbbwwwwwwwwwwwwwb    ",
" bwwbwbbbwwwbbwwwwwwwwwwwwwb    ",
" bwbwwwbbbwwbwwwwwwwwwwwwwwb    ",
" bwwwwwwwwwwwwwwwwwwwwwwwwwb    ",
" bwwwwwwwwwwwwwwwwwwwwwwwwwb    ",
" bwwwwwwwwwwwwwwwwwwwwwwwwwb    ",
" bwwwwwwwwwwwwwwwwwwwwwwwwwb    ",
" bwwwwwwwwwwwwwwwwwwwwwwwwwb    ",
" bbbbbbbbbbbbbbbbbbbbbbbbbbb    ",
"                                ",
"                                ",
"                                ",
"                                ",
"                                "
};
