#define ticon_width 64
#define ticon_height 64
static unsigned char ticon_bits[] = {
   0x00, 0x00, 0x00, 0x00, 0x00, 0x00, 0x00, 0x00, 0x00, 0x00, 0x00, 0x00,
   0x00, 0x00, 0x00, 0x00, 0x00, 0x00, 0x00, 0x00, 0x00, 0x00, 0x00, 0x00,
   0x00, 0x00, 0x00, 0x00, 0x00, 0x00, 0x00, 0x00, 0x00, 0x00, 0x00, 0x00,
   0x00, 0x00, 0x00, 0x00, 0x00, 0x00, 0x00, 0x00, 0x00, 0x00, 0x00, 0x00,
   0x00, 0x00, 0x00, 0x00, 0x00, 0x00, 0x00, 0x00, 0x00, 0x00, 0x00, 0x00,
   0x00, 0x00, 0x00, 0x00, 0x00, 0x00, 0x00, 0x10, 0x00, 0x00, 0x00, 0x00,
   0x00, 0x00, 0x00, 0xf0, 0x00, 0x00, 0x00, 0x00, 0x00, 0x00, 0x00, 0x90,
   0x07, 0x00, 0x00, 0x00, 0x00, 0x00, 0x00, 0x10, 0x3c, 0x00, 0x00, 0x00,
   0x00, 0x00, 0x00, 0xf0, 0x0f, 0x00, 0x00, 0x00, 0x00, 0x00, 0x00, 0x30,
   0x00, 0x40, 0x00, 0x00, 0x00, 0x00, 0x00, 0x10, 0x00, 0xc0, 0x01, 0x00,
   0x00, 0x00, 0x00, 0x38, 0x00, 0x40, 0x0e, 0x00, 0x00, 0x00, 0x00, 0x7c,
   0x00, 0xc0, 0x03, 0x00, 0x00, 0x00, 0x00, 0x83, 0x01, 0x40, 0x00, 0x00,
   0x00, 0x00, 0x00, 0x01, 0x01, 0xe0, 0x00, 0x00, 0x00, 0x00, 0x80, 0x00,
   0x02, 0x10, 0x01, 0x00, 0x00, 0x00, 0x80, 0x10, 0x02, 0x10, 0x01, 0x00,
   0x00, 0x00, 0x80, 0x10, 0x02, 0x10, 0x01, 0x00, 0x00, 0x00, 0x80, 0x10,
   0x02, 0x10, 0x01, 0x00, 0x00, 0x00, 0x80, 0x00, 0x02, 0x08, 0x02, 0x00,
   0x00, 0x00, 0x00, 0x01, 0x01, 0x48, 0x02, 0x00, 0x00, 0x00, 0x00, 0x83,
   0x01, 0x08, 0x02, 0x00, 0x00, 0x00, 0x00, 0x7c, 0x00, 0x08, 0x02, 0x00,
   0x00, 0x00, 0xe0, 0xff, 0xff, 0xff, 0x1f, 0x00, 0x00, 0x00, 0x3c, 0x44,
   0x00, 0x00, 0x70, 0x00, 0x00, 0x00, 0x07, 0x44, 0x00, 0x00, 0xc0, 0x00,
   0x00, 0xc0, 0x01, 0x44, 0x00, 0x00, 0x80, 0x00, 0x00, 0x70, 0x00, 0x44,
   0x00, 0x00, 0x80, 0x00, 0x00, 0x18, 0x00, 0x44, 0x00, 0x00, 0x80, 0x00,
   0x00, 0x0c, 0x00, 0x44, 0x7c, 0x3e, 0x9f, 0x00, 0x00, 0x06, 0x00, 0x44,
   0x44, 0x22, 0x91, 0x00, 0x00, 0x03, 0x00, 0x44, 0x44, 0x22, 0x91, 0x00,
   0x00, 0x81, 0x0f, 0x44, 0x44, 0x22, 0x91, 0x00, 0x00, 0xe1, 0x3f, 0x44,
   0x44, 0x22, 0x91, 0x00, 0x00, 0x31, 0x60, 0x44, 0x44, 0x22, 0x91, 0x00,
   0x00, 0x19, 0xc0, 0x44, 0x44, 0x22, 0x91, 0x00, 0x00, 0x09, 0x80, 0x44,
   0x44, 0x22, 0x91, 0x00, 0x00, 0x89, 0x88, 0x44, 0x44, 0x22, 0x91, 0x00,
   0x00, 0xc9, 0x98, 0x44, 0x44, 0x22, 0x91, 0x00, 0x00, 0x09, 0x80, 0x44,
   0x44, 0x22, 0x91, 0x00, 0x00, 0x09, 0x80, 0x44, 0x44, 0x22, 0x91, 0x00,
   0x00, 0xc9, 0x98, 0x44, 0x44, 0x22, 0x91, 0x00, 0x00, 0x09, 0x80, 0x44,
   0x7c, 0x3e, 0x9f, 0x00, 0x00, 0x09, 0x80, 0x44, 0x7c, 0x3e, 0x9f, 0x00,
   0x00, 0xc9, 0x98, 0x44, 0x00, 0x00, 0x80, 0x00, 0x00, 0x89, 0x88, 0x44,
   0x00, 0x00, 0x80, 0x00, 0x00, 0x09, 0x80, 0x44, 0x00, 0x00, 0x80, 0x00,
   0x00, 0x09, 0x80, 0x44, 0x00, 0x00, 0x80, 0x00, 0x00, 0xf9, 0xff, 0x44,
   0x00, 0x00, 0x80, 0x00, 0x00, 0x01, 0x00, 0x44, 0x00, 0x00, 0x80, 0x00,
   0x00, 0x01, 0x00, 0x44, 0x00, 0x00, 0x80, 0x00, 0x00, 0xff, 0xff, 0xff,
   0xff, 0xff, 0xff, 0x00, 0x00, 0x00, 0x00, 0x00, 0x00, 0x00, 0x00, 0x00,
   0x00, 0x00, 0x00, 0x00, 0x00, 0x00, 0x00, 0x00, 0x00, 0x00, 0x00, 0x00,
   0x00, 0x00, 0x00, 0x00, 0x00, 0x00, 0x00, 0x00, 0x00, 0x00, 0x00, 0x00,
   0x00, 0x00, 0x00, 0x00, 0x00, 0x00, 0x00, 0x00, 0x00, 0x00, 0x00, 0x00,
   0x00, 0x00, 0x00, 0x00, 0x00, 0x00, 0x00, 0x00, 0x00, 0x00, 0x00, 0x00,
   0x00, 0x00, 0x00, 0x00, 0x00, 0x00, 0x00, 0x00};
