/* XPM */
static char *icons-40-128[] = {
/* width height ncolors chars_per_pixel */
"40 40 127 2",
/* colors */
"`` c #000000",
"`a c #4C486F",
"`b c #E6E51B",
"`c c #514A35",
"`d c #1A172A",
"`e c #D9D98C",
"`f c #7F4D34",
"`g c #7D4B32",
"`h c #07060A",
"`i c #2F2263",
"`j c #BE8A4A",
"`k c #8A86A5",
"`l c #70709C",
"`m c #8D6EE7",
"`n c #3D3D56",
"`o c #585856",
"`p c #585681",
"`q c #322469",
"`r c #525250",
"`s c #3E2D82",
"`t c #BC8C4B",
"`u c #865741",
"`v c #35266F",
"`w c #474766",
"`x c #CC9275",
"`y c #8D6737",
"`z c #555042",
"a` c #B68352",
"aa c #9A723D",
"ab c #B0A9B9",
"ac c #43318D",
"ad c #1A1333",
"ae c #67402C",
"af c #5D5543",
"ag c #65658D",
"ah c #595956",
"ai c #523CAC",
"aj c #6B6B96",
"ak c #393851",
"al c #CAC829",
"am c #8460FE",
"an c #B98747",
"ao c #6147CB",
"ap c #5C5C69",
"aq c #302E20",
"ar c #7D603A",
"as c #0F0D1A",
"at c #DDDD8E",
"au c #514A33",
"av c #939363",
"aw c #48398A",
"ax c #F3E6DF",
"ay c #000001",
"az c #5A5A56",
"b` c #271D4F",
"ba c #423F45",
"bb c #251B4D",
"bc c #7C4B32",
"bd c #9999C2",
"be c #373644",
"bf c #AE7959",
"bg c #82533B",
"bh c #454562",
"bi c #7B7BA4",
"bj c #979770",
"bk c #211845",
"bl c #DAD741",
"bm c #58585D",
"bn c #DADA8D",
"bo c #565551",
"bp c #926740",
"bq c #804E35",
"br c #7E4C33",
"bs c #A2A142",
"bt c #5F5F88",
"bu c #9E9E73",
"bv c #584B6A",
"bw c #514B38",
"bx c #5F4A28",
"by c #614B4B",
"bz c #42425E",
"c` c #B27A5F",
"ca c #4E4E6D",
"cb c #BA998B",
"cc c #B18340",
"cd c #715336",
"ce c #2C205C",
"cf c #573423",
"cg c #947376",
"ch c #DBDB8D",
"ci c #16102F",
"cj c #C4A03B",
"ck c #27262F",
"cl c #585855",
"cm c #CFBAB6",
"cn c #D7D78C",
"co c #AB7F40",
"cp c #B77F63",
"cq c #5E3926",
"cr c #8E8E97",
"cs c #3F3F5A",
"ct c #545454",
"cu c #B47D63",
"cv c #7253EC",
"cw c #372873",
"cx c #DBDA8C",
"cy c #37305F",
"cz c #643C28",
"d` c #8080B7",
"da c #C78E72",
"db c #514B4A",
"dc c #3A2A79",
"dd c #020103",
"de c #2F2F39",
"df c #D8D88C",
"dg c #D6D68A",
"dh c #7B4A31",
"di c #BBB720",
"dj c #9C9C72",
"dk c #8F872D",
"dl c #555554",
"dm c #504E45",
"dn c #BE8A6F",
"do c #605D4E",
"dp c #DFDF8F",
"dq c #766B3F",
"dr c #98793C",
/* pixels */
"`x`x`x`x`xbfdh`g`g`g`g`g`g`g`g`g`g`g`g`g`g`g`g`g`g`g`g`g`g`g`g`g`gbccqcfcfcfcf`u",
"`x`x`x`x`xbfbc`g`g`g`g`g`g`g`g`g`g`g`g`g`g`g`g`g`g`g`g`g`g`g`g`g`gbccqcfcfcqbp`x",
"`x`x`x`x`xbfdh`g`g`g`g`g`g`g`g`g`g`g`g`g`g`g`g`g`g`g`g`g`g`g`g`g`gbccqcfcf`u`x`x",
"`x`x`x`x`xbfbc`g`g`g`g`g`g`g`g`g`g`g`g`g`g`g`g`g`g`g`g`g`g`g`g`g`gbccqcqbp`x`x`x",
"`x`x`x`x`xbfdh`g`g`g`g`g`g`g`g`g`g`g`g`g`g`g`g`g`g`g`g`g`g`g`g`g`gbcae`u`x`x`x`x",
"dncpdndndnbpbc`g`g`g`g`g`g`g`g`g`g`g`g`g`g`g`g`g`g`g`g`g`g`g`g`g`gbc`udncpdndndn",
"bqbgbqbqbqbg`f`g`g`g`g`g`g`g`g`g`g`g`g`g`g`g`g`g`g`g`g`g`g`g`g`g`g`gbqbqbgbqbqbq",
"br`gbrbrbr`g`g`g`g`g`g`g`g`g`g`g`g`g`g`g`g`g`g`g`g`g`g`g`g`g`g`g`g`gbr`g`g`g`g`g",
"`g`g`g`g`g`g`g`g`g`g`g`g`g`g`g`g`g`g`g`g`g`g`g`g`g`g`g`g`g`g`g`g`g`g`g`g`g`g`g`g",
"`g`g`g`g`g`g`g`g`g`g`g`g`g`g`g`g`g`g`g`g`g`g`g`g`g`g`g`g`g`g`g`g`g`g`g`g`g`g`g`g",
"`g`g`g`g`g`g`g`g`g`g`g`g`g`g`g`g`g`g`g`g`g`g`g`g`g`g`g`g`g`g`g`g`g`g`g`g`g`g`g`g",
"`g`g`g`g`g`g`g`g`g`g`g`g`g`g`g`g`g`g`g`g`g`g`g`g`g`g`g`g`g`g`g`g`g`g`g`g`g`g`g`g",
"`g`g`g`g`g`g`g`g`g`g`g`g`g`g`g`g`g`g`g`g`g`g`g`g`g`g`g`g`g`g`g`g`g`g`g`g`g`g`g`g",
"`g`g`g`g`g`g`g`g`g`g`g`g`g`g`g`g`g`g`g`g`g`g`g`g`g`g`g`g`g`g`g`g`g`g`g`g`g`g`g`g",
"`g`g`g`g`g`g`g`g`g`g`g`g`g`g`g`g`g`g`g`g`g`g`g`g`g`g`g`g`g`g`g`g`g`g`g`g`g`g`g`g",
"`g`g`g`g`g`g`g`g`g`g`g`g`g`g`g`g`g`g`g`g`g`g`g`g`g`g`g`g`g`g`g`g`g`g`g`g`g`g`g`g",
"`g`g`g`g`g`g`g`g`g`g`g`g`g`g`g`g`g`g`g`g`g`g`g`g`g`g`g`g`g`g`g`g`g`g`g`g`g`g`g`g",
"`g`g`g`g`g`g`g`g`g`g`g`g`g`g`g`g`g`g`g`g`g`g`g`g`g`g`g`g`g`g`g`g`g`g`g`g`g`g`g`g",
"`g`g`g`g`g`g`g`g`g`g`g`g`g`g`g`g`g`g`g`g`g`g`g`g`g`g`g`g`g`g`g`g`g`g`g`g`g`g`g`g",
"`g`g`g`g`g`g`g`g`g`g`g`g`g`g`g`g`g`g`g`g`g`g`g`g`g`g`g`g`g`g`g`g`g`g`g`g`g`g`g`g",
"`g`g`g`g`g`g`g`g`g`g`g`g`g`g`g`g`g`g`g`g`g`g`g`g`g`g`g`g`g`g`g`g`g`g`g`g`g`g`g`g",
"`g`g`g`g`g`g`g`g`g`g`g`g`g`g`g`g`g`g`g`g`g`g`g`g`g`g`g`g`g`g`g`g`g`g`g`g`g`g`g`g",
"`g`g`g`g`g`g`g`g`g`g`g`g`g`g`g`g`g`g`g`g`g`g`g`g`g`g`g`g`g`g`g`g`g`g`g`g`g`g`g`g",
"`g`g`g`g`g`g`g`g`g`g`g`g`g`g`g`g`g`g`g`g`g`g`g`g`g`g`g`g`g`g`g`g`g`g`g`g`g`g`g`g",
"`g`g`g`g`g`g`g`g`g`g`g`g`g`g`g`g`g`g`g`g`g`g`g`g`g`g`g`g`g`g`g`g`g`g`g`g`g`g`g`g",
"`g`g`g`g`g`g`g`g`g`g`g`g`g`g`g`g`g`g`g`g`g`g`g`g`g`g`g`g`g`g`g`g`g`g`g`g`g`g`g`g",
"`g`g`g`g`g`g`g`g`g`g`g`g`g`g`g`g`g`g`g`g`g`g`g`g`g`g`g`g`g`g`g`g`g`g`g`g`g`g`g`g",
"`g`g`g`g`g`g`g`g`g`g`g`g`g`g`g`g`g`g`g`g`g`g`g`g`g`g`g`g`g`g`g`g`g`g`g`g`g`g`g`g",
"`g`g`g`g`g`g`g`g`g`g`g`g`g`g`g`g`g`g`g`g`g`g`g`g`g`g`g`g`g`g`g`g`g`g`g`g`g`g`g`g",
"`g`g`g`g`g`g`g`g`g`g`g`g`g`g`g`g`g`g`g`g`g`g`g`g`g`g`g`g`g`g`g`g`g`g`g`g`g`g`g`g",
"`g`g`g`g`g`g`g`g`g`g`g`g`g`g`g`g`g`g`g`g`g`g`g`g`g`g`g`g`g`g`g`g`g`g`g`g`g`g`g`g",
"`g`g`g`g`g`g`g`g`g`g`g`g`g`g`g`g`g`g`g`g`g`g`g`g`g`g`g`g`g`g`g`g`g`g`g`g`g`g`g`g",
"`g`g`g`g`g`g`g`g`g`g`g`g`g`g`g`g`g`g`g`g`g`g`g`g`g`g`g`g`g`g`g`g`g`g`g`g`g`g`g`g",
"`g`g`g`g`g`g`g`g`g`g`g`g`g`g`g`g`g`g`g`g`g`g`g`g`g`g`g`g`g`g`g`g`g`g`g`g`g`g`g`g",
"aeaeaeaeae`u`g`g`g`g`g`g`g`g`g`g`g`g`g`g`g`g`g`g`g`g`g`g`g`g`g`g`gdhaeaeaeaeaeae",
"cfcfcfcqbpbf`g`g`g`g`g`g`g`g`g`g`g`g`g`g`g`g`g`g`g`g`g`g`g`g`g`g`gdhczcfcfcfcfcf",
"cfcfcqbp`xbfdh`g`g`g`g`g`g`g`g`g`g`g`g`g`g`g`g`g`g`g`g`g`g`g`g`g`gdhcqcfcfcfcfcf",
"cfcqbpdadabf`g`g`g`g`g`g`g`g`g`g`g`g`g`g`g`g`g`g`g`g`g`g`g`g`g`g`gdhczcfcfcfcfcf",
"cqbp`x`x`xbfdh`g`g`g`g`g`g`g`g`g`g`g`g`g`g`g`g`g`g`g`g`g`g`g`g`g`gdhcqcfcfcfcfcf",
"bp`x`x`xdabf`g`g`g`g`g`g`g`g`g`g`g`g`g`g`g`g`g`g`g`g`g`g`g`g`g`g`gdhczcfcfcfcfcf",
};
