#define left_arrow_width 10
#define left_arrow_height 13
static char left_arrow_bits[] = {
   0x00, 0x00, 0x80, 0x00, 0xc0, 0x00, 0xe0, 0x00, 0xf0, 0x00, 0xf8, 0x00,
   0xfc, 0x00, 0xf8, 0x00, 0xf0, 0x00, 0xe0, 0x00, 0xc0, 0x00, 0x80, 0x00,
   0x00, 0x00};
