#define right_arrow_width 10
#define right_arrow_height 13
static char right_arrow_bits[] = {
   0x00, 0xfc, 0x04, 0xfc, 0x0c, 0xfc, 0x1c, 0xfc, 0x3c, 0xfc, 0x7c, 0xfc,
   0xfc, 0xfc, 0x7c, 0xfc, 0x3c, 0xfc, 0x1c, 0xfc, 0x0c, 0xfc, 0x04, 0xfc,
   0x00, 0xfc};
