#define oct_width 64
#define oct_height 64
static unsigned char oct_bits[] = {
   0x00, 0x00, 0x00, 0x00, 0x00, 0x00, 0x00, 0x00, 0x00, 0x00, 0x00, 0x00,
   0x00, 0x00, 0x00, 0x00, 0x00, 0x00, 0x00, 0x00, 0x00, 0x00, 0x00, 0x00,
   0x00, 0x00, 0x00, 0x00, 0x00, 0x00, 0x00, 0x00, 0x00, 0x00, 0x00, 0x00,
   0x00, 0x00, 0x00, 0x00, 0x00, 0x00, 0x00, 0x00, 0x00, 0x00, 0x00, 0x00,
   0x00, 0x00, 0x00, 0x00, 0x00, 0x00, 0x00, 0x00, 0x00, 0x00, 0x00, 0x80,
   0x01, 0x00, 0x00, 0x00, 0x00, 0x00, 0x00, 0x60, 0x07, 0x00, 0x00, 0x00,
   0x00, 0x00, 0x00, 0x50, 0x0a, 0x00, 0x00, 0x00, 0x00, 0x00, 0x00, 0x2c,
   0x3e, 0x00, 0x00, 0x00, 0x00, 0x00, 0x00, 0xa6, 0x74, 0x00, 0x00, 0x00,
   0x00, 0x00, 0x80, 0x11, 0xe9, 0x01, 0x00, 0x00, 0x00, 0x00, 0x60, 0x51,
   0xbc, 0x07, 0x00, 0x00, 0x00, 0x00, 0x50, 0x2c, 0xd2, 0x0d, 0x00, 0x00,
   0x00, 0x00, 0x4c, 0x8c, 0x78, 0x37, 0x00, 0x00, 0x00, 0x00, 0x1a, 0x15,
   0xf1, 0x7e, 0x00, 0x00, 0x00, 0x80, 0x1d, 0x45, 0xa4, 0xbb, 0x01, 0x00,
   0x00, 0x40, 0x4c, 0x22, 0xe2, 0xfd, 0x03, 0x00, 0x00, 0x70, 0x4e, 0x8a,
   0x48, 0x57, 0x0f, 0x00, 0x00, 0x1c, 0x1b, 0x11, 0x91, 0xfe, 0x3e, 0x00,
   0x00, 0x14, 0x19, 0x45, 0xc4, 0xbb, 0x3b, 0x00, 0x00, 0x44, 0xcd, 0x22,
   0x22, 0xdd, 0x3d, 0x00, 0x00, 0xc4, 0xcc, 0x88, 0x88, 0x77, 0x37, 0x00,
   0x00, 0x94, 0x59, 0x11, 0x11, 0xff, 0x2f, 0x00, 0x00, 0x54, 0x59, 0x44,
   0x44, 0xba, 0x3b, 0x00, 0x00, 0x44, 0x2c, 0x22, 0x22, 0xde, 0x3f, 0x00,
   0x00, 0x64, 0xac, 0x88, 0x88, 0x74, 0x37, 0x00, 0x00, 0x34, 0xfd, 0xff,
   0xff, 0xff, 0x2e, 0x00, 0x00, 0x14, 0x73, 0x44, 0x44, 0xfc, 0x3b, 0x00,
   0x00, 0xd4, 0x6c, 0x22, 0x22, 0xd2, 0x3f, 0x00, 0x00, 0x7c, 0xcc, 0x88,
   0x88, 0x7a, 0x3f, 0x00, 0x00, 0x1c, 0x95, 0x11, 0x11, 0xf1, 0x3e, 0x00,
   0x00, 0x14, 0xc5, 0x44, 0x44, 0xa5, 0x3b, 0x00, 0x00, 0x44, 0x22, 0x23,
   0xa2, 0xe2, 0x3d, 0x00, 0x00, 0x44, 0x8a, 0x89, 0x88, 0x48, 0x37, 0x00,
   0x00, 0x14, 0x11, 0x13, 0x51, 0x91, 0x2e, 0x00, 0x00, 0x14, 0x45, 0x46,
   0x44, 0xc4, 0x3b, 0x00, 0x00, 0xc4, 0x22, 0x26, 0x22, 0x22, 0x3d, 0x00,
   0x00, 0xc4, 0x88, 0x8c, 0xa8, 0x88, 0x37, 0x00, 0x00, 0x54, 0x11, 0x19,
   0x11, 0x11, 0x2f, 0x00, 0x00, 0x54, 0x44, 0x4c, 0x54, 0x44, 0x3a, 0x00,
   0x00, 0x24, 0x22, 0x32, 0x2a, 0x22, 0x3e, 0x00, 0x00, 0xa4, 0x88, 0x98,
   0x88, 0x88, 0x34, 0x00, 0x00, 0x14, 0x11, 0x31, 0x15, 0x11, 0x29, 0x00,
   0x00, 0x54, 0x44, 0x64, 0x44, 0x44, 0x3c, 0x00, 0x00, 0x2c, 0x22, 0x62,
   0x22, 0x22, 0x32, 0x00, 0x00, 0x8c, 0x88, 0xc8, 0x8a, 0x88, 0x38, 0x00,
   0x00, 0x14, 0x11, 0x91, 0x11, 0x11, 0x31, 0x00, 0x00, 0xfc, 0xff, 0xff,
   0xff, 0xff, 0x3f, 0x00, 0x00, 0x70, 0x55, 0x75, 0x57, 0x55, 0x0f, 0x00,
   0x00, 0xc0, 0xaa, 0xba, 0xaa, 0xaa, 0x03, 0x00, 0x00, 0x00, 0x57, 0x5d,
   0x75, 0xd5, 0x00, 0x00, 0x00, 0x00, 0xac, 0xaa, 0xea, 0x3a, 0x00, 0x00,
   0x00, 0x00, 0xf0, 0x55, 0xd5, 0x0d, 0x00, 0x00, 0x00, 0x00, 0xc0, 0xff,
   0xff, 0x03, 0x00, 0x00, 0x00, 0x00, 0x00, 0x57, 0xd5, 0x00, 0x00, 0x00,
   0x00, 0x00, 0x00, 0xac, 0x3a, 0x00, 0x00, 0x00, 0x00, 0x00, 0x00, 0x70,
   0x0d, 0x00, 0x00, 0x00, 0x00, 0x00, 0x00, 0xc0, 0x03, 0x00, 0x00, 0x00,
   0x00, 0x00, 0x00, 0x00, 0x00, 0x00, 0x00, 0x00, 0x00, 0x00, 0x00, 0x00,
   0x00, 0x00, 0x00, 0x00, 0x00, 0x00, 0x00, 0x00, 0x00, 0x00, 0x00, 0x00,
   0x00, 0x00, 0x00, 0x00, 0x00, 0x00, 0x00, 0x00};
