/* XPM */
static char * xmcd1_xpm[] = {
"32 32 14 1",
" 	c #DB6CDB6CBAEA",
".	c #CF3C00000000",
"X	c #000000000000",
"o	c #0000FFFF0000",
"O	c #820782070000",
"+	c #820782078207",
"@	c #C30BC30BC30B",
"#	c #FFFFFFFFFFFF",
"$	c #000082078207",
"%	c #00000000FFFF",
"&	c #0000FFFFFFFF",
"*	c #FFFFFFFF0000",
"=	c #FFFF0000FFFF",
"-	c #820700008207",
"             .                  ",
"             .                  ",
"             ..                 ",
"             ....               ",
"             .....              ",
"            .  ....             ",
"            .    ...            ",
"            .     ..            ",
"            .     ..            ",
"            .     .             ",
"           .     .     XXXXXXXX ",
"           .        XXXooOO+@@@X",
"     ....  .      XX+@@ooOO+@@@#",
"   ....... .     X$+%@@ooOO+@@@@",
"  ..........    X$$$%+@ooOO+@@@#",
"  .........    X$$$$+%@@o+O+@@@@",
" ..........   X@@$$$$%+@o@O+@@@#",
" ..........  X@@@@$$$+%@o@O+@@#@",
" .........   X&@@@@$$$%+ooO+@@@#",
"  .......   X&&&&@@@$$+%ooO+@@##",
"   .....    X**&&&&@@$$%+oO+@#@#",
"           Xoo****&&@@$+%oO+@@##",
"           Xooooo****&@$%+++++#@",
"           XOOOOoooo***++XXXX++@",
"           X=====OOOOOO+X+  +X++",
"           X-=-=-=-=-=-+X    X++",
"           X++++++++++++X    X+-",
"           X+@+@+@+@+@++X+  +X+O",
"           X@+@+@+@+@+@++XXXX++*",
"           X+@+@+@+@+@@#+++++%$@",
"           X@+@+@+@+@@##@@+Oo%+$",
"            X@+@+@+@@##@#@+Oo+%$"};
