/* XPM */
static char * aiai_xpm[] = {
"32 32 5 1",
" 	c Gray100",
".	c Black",
"X	c #c0c0c0",
"o	c #808080",
"O	c Yellow",
"                                ",
"               ..               ",
"               ..               ",
"              ....     ...      ",
"             .....    .....     ",
"             ......    ...      ",
"            .......             ",
"           Xo.......  .....     ",
"           XXo..OOOOOO.....     ",
"      O OOX XXo.      .....OOOOO",
"OOOOOOOOO    XXOOOOOOO.....OOOOO",
"OOOOOOOOO    X        .....OOOOO",
"OOOOOOOO XX X OOOOOOOO.....OOOO ",
"       .X  X    Xo.........O O  ",
"       ..XX X XX Xo........     ",
"      ...oX X XX X o.......     ",
"     ......X X    X o......     ",
"                                ",
"                                ",
"                                ",
"                                ",
"        .     .     .     .     ",
"       ...    .    ...    .     ",
"       . .  . . .  . .  . .     ",
"      .....   .   .....   .     ",
"      .   .   .   .   .   .     ",
"     .     .  .  .     .  .     ",
"                                ",
"                                ",
"                                ",
"                                ",
"                                "};
