/* XPM */
static char * RNBOWPOT_XPM[] = {
"32 32 9 1",
" 	c Gray100",
".	c Red",
"X	c Yellow",
"o	c Green",
"O	c Blue",
"+	c Magenta",
"@	c Black",
"#	c #c0c0c0",
"$	c #808080",
"                ...XXooooOOOOOOO",
"               ...XXXoooOOOOOOO+",
"              ....XXoooOOOOOO+++",
"              ...XXXooOOOOOO++  ",
"              ..XXXoooOOOO++    ",
"             ...XXXooOOOO++     ",
"             ..XXXooOOOO++      ",
"            ...XXXooOOO++       ",
"            ...XXooOOO++        ",
"            ..XXooOOO++         ",
"           ...XXoOOO++          ",
"           ...XooOO++           ",
"           ..XXoOOO+            ",
"           ..XXoOO++            ",
"           ..XXoOO+             ",
"          @@@@@@@@@             ",
"          @###$$$$@             ",
"           @@@@@@@              ",
"         @@###$$$$@@            ",
"        @####$$$$$$$@           ",
"        @###$$$$$$$$@           ",
"       @###$$$$$$$$$$@          ",
"       @###$$$$$$$$$$@          ",
"       @###$$$$$$$$$$@          ",
"       @##$$$$$$$$$$$@          ",
"        @#$$$$$$$$$$@           ",
"        @#$$$$$$$$$$@           ",
"      @@@@@$$$$$$$@@@@@         ",
"      @@   @@@@@@@   @@         ",
"                                ",
"                                ",
"                                "};
