/* XPM */
static char * wxxpm_xpm[] = {
"90 90 7 1",
" 	c gray88 s background ",
".	c blue",
"X	c yellow",
"o	c red",
"O	c gray70",
"+	c #7B7B7B7B7B7B",
"@	c black s foreground ",
"                                                                                          ",
"                                                                                          ",
"                               ...............          XXXXXX            XXXXXXX         ",
"     oooooo            ooooo   ...................      XXXXXXX         XXXXXXXXXXX       ",
"     oooooooo         oooooo   ....................     XXXXXXX        XXXXXXXXXXXX       ",
"     ooooooooo       ooooooo   .....................    XXXXXXXXXXXXX  XXXXXXXXXXXXX      ",
"     oooooooooooo    ooooooo   .....................    XXXXXXXXXXXXXXXXXXXXXXXXXXXX      ",
"     ooooooooooooo  oooooooo       ......  .........     XXXXXXXXXXXXXXXXXXXXXXXXXXX      ",
"       oooooooooooo ooooooo         .....     ......      XXXXXXXXXXXXXXXXXX  XXXXXX      ",
"         oooooooooooooooooo         .....      .....       XXXXXXXXXXXXXXXXX   XXXXX      ",
"          oooooooooooooooo          .....      .....       XXXXXXXXXXXXXXXX    XXXXX      ",
"            ooooooooooooo           .....     ......       XXXXXXXXXXXXXXX     XXXXX      ",
"             oooooooooooo           .....    .......       XXXXXXX XXXXXXX     XXXXX      ",
"              oooooooooo           ......   ........       XXXXXX  XXXXXXX    XXXXXX      ",
"            ooooooooooooo          ......  ........       XXXXXXX  XXXXXX     XXXXXX      ",
"           ooooooooooooooo         ................       XXXXXXX  XXXXXX     XXXXXX      ",
"          oooooooooooooooo        ................        XXXXXX   XXXXXX     XXXXXX      ",
"         oooooooooooooooooo       ................        XXXXXX   XXXXXX     XXXXX       ",
"         ooooooooo  ooooooo       ..............          XXXXXX   XXXXXX     XXXXX       ",
"        oooooooo     ooooooo     ..............           XXXXX    XXXXX                  ",
"       oooooooo      ooooooo     ............                                             ",
"      ooooooooo       oooooo     .........                                                ",
"      oooooooo        oooooo     ......                                                   ",
"      ooooooo         oooooo     .....                                                    ",
"      oooooo          oooooo    ......                                                    ",
"      ooooo           oooooo    ......                                                    ",
"                               .......                                                    ",
"                              ........                                                    ",
"                             .........                                                    ",
"                            .........                                                     ",
"                           .........                                                      ",
"                          .........                                                       ",
"                         .........                                                        ",
"                        .........                                                         ",
"                        ........                                                          ",
"                        .......                                                           ",
"                        ......                                                            ",
"                        ......                                                            ",
"                        .....                                                             ",
"                                                                                          ",
"                                                                                          ",
"                                                                                          ",
"                                                                                          ",
"                                                                                          ",
"  OOOOOOOOOOOOOOOOOOOOOOOOOOOOOOOOOOOOOOOOOOOOOOOOOOOOOOOOOOOOOOOOOOOOOOOOOOOOOOOOOOO+    ",
"  OOOOOOOOOOOOOOOOOOOOOOOOOOOOOOOOOOOOOOOOOOOOOOOOOOOOOOOOOOOOOOOOOOOOOOOOOOOOOOOOOO++    ",
"  OOOOOOOOOOOOOOOOOOOOOOOOOOOOOOOOOOOOOOOOOOOOOOOOOOOOOOOOOOOOOOOOOOOOOOOOOOOOOOOOO+++    ",
"  OOOoooooooooooooooooooooooo...............................XXXXXXXXXXXXXXXXXXXXXXX+++    ",
"  OOOoooooooooooooooooooooooo...............................XXXXXXXXXXXXXXXXXXXXXXX+++    ",
"  OOOoooooooooooooooooooooooo...............................XXXXXXXXXXXXXXXXXXXXXXX+++    ",
"  OOOoooooooooooooooooooooooo...............................XXXXXXXXXXXXXXXXXXXXXXX+++    ",
"  OOOoooooooooooooooooooooooo...............................XXXXXXXXXXXXXXXXXXXXXXX+++    ",
"  OOOoooooooooooooooooooooooo...............................XXXXXXXXXXXXXXXXXXXXXXX+++    ",
"  OOOoooooooooooooooooooooooo...............................XXXXXXXXXXXXXXXXXXXXXXX+++    ",
"  OOOoooooooooooooooooooooooo...............................XXXXXXXXXXXXXXXXXXXXXXX+++    ",
"  OOOoooooooooooooooooooooooo...............................XXXXXXXXXXXXXXXXXXXXXXX+++    ",
"  OOOoooooooooooooooooooooooo...............................XXXXXXXXXXXXXXXXXXXXXXX+++    ",
"  OOOoooooooooooooooooooooooo...............................XXXXXXXXXXXXXXXXXXXXXXX+++    ",
"  OOOoooooooooooooooooooooooo...............................XXXXXXXXXXXXXXXXXXXXXXX+++    ",
"  OOOoooooooooooooooooooooooo...............................XXXXXXXXXXXXXXXXXXXXXXX+++    ",
"  OO++++++++++++++++++++++++++++++++++++++++++++++++++++++++++++++++++++++++++++++++++    ",
"  O+++++++++++++++++++++++++++++++++++++++++++++++++++++++++++++++++++++++++++++++++++    ",
"  ++++++++++++++++++++++++++++++++++++++++++++++++++++++++++++++++++++++++++++++++++++    ",
"                                                                                          ",
"                                                                                          ",
"                                                                                          ",
"                                                                                          ",
"                                                                                          ",
"                                                                                          ",
"                                                                                          ",
"                                                                                          ",
"                                                                                          ",
"                                                                                          ",
"                                                                                          ",
"                                                                                          ",
"               @@@     @@@ @@@@ @@@@  @@@@ @@@@   @@ @@@    @@ @@ @@@                     ",
"                @       @   @@   @@    @@   @@   @@@@  @@  @@@@ @@@ @@                    ",
"                @@  @  @@    @@ @@      @@ @@     @@    @@  @@  @@  @@                    ",
"                @@ @@@ @@     @@@        @@@      @@    @@  @@  @@  @@                    ",
"                 @ @ @ @      @@@        @@@      @@    @@  @@  @@  @@                    ",
"                 @@@ @@@     @@ @@      @@ @@     @@    @@  @@  @@  @@                    ",
"                 @@   @@    @@   @@    @@   @@    @@@  @@   @@  @@  @@                    ",
"                  @   @    @@@@ @@@@  @@@@ @@@@   @@ @@@   @@@ @@@ @@@                    ",
"                                                  @@                                      ",
"                                                  @@                                      ",
"                                                 @@@@@                                    ",
"                                                                                          ",
"                                                                                          ",
"                                                                                          ",
"                                                                                          "};
