/* XPM */
static char * fboxOp_xpm[] = {
"40 40 3 1",
" 	c #FFFFFFFFFFFF",
".	c #000000000000",
"X	c #FBEE14514103",
"                                        ",
"                                        ",
"                                        ",
"                                        ",
"                                        ",
"                                        ",
"                                        ",
"                                        ",
"                                        ",
"                                        ",
"                                        ",
"         .......................        ",
"         .......................        ",
"         ..XXXXXXXXXXXXXXXXXXX..        ",
"         ..XXXXXXXXXXXXXXXXXXX..        ",
"         ..XXXXXXXXXXXXXXXXXXX..        ",
"         ..XXXXXXXXXXXXXXXXXXX..        ",
"         ..XXXXXXXXXXXXXXXXXXX..        ",
"         ..XXXXXXXXXXXXXXXXXXX..        ",
"         ..XXXXXXXXXXXXXXXXXXX..        ",
"         ..XXXXXXXXXXXXXXXXXXX..        ",
"         ..XXXXXXXXXXXXXXXXXXX..        ",
"         ..XXXXXXXXXXXXXXXXXXX..        ",
"         ..XXXXXXXXXXXXXXXXXXX..        ",
"         ..XXXXXXXXXXXXXXXXXXX..        ",
"         ..XXXXXXXXXXXXXXXXXXX..        ",
"         ..XXXXXXXXXXXXXXXXXXX..        ",
"         .......................        ",
"         .......................        ",
"                                        ",
"                                        ",
"                                        ",
"                                        ",
"                                        ",
"                                        ",
"                                        ",
"                                        ",
"                                        ",
"                                        ",
"                                        "};
