/* XPM */
static char * ffillOp_xpm[] = {
"40 40 84 1",
" 	c #FFFFFFFFFFFF",
".	c #000000000000",
"X	c #FFFF65950000",
"o	c #FFFF18610000",
"O	c #00000000FFFF",
"+	c #0C30FFFF0000",
"@	c #FFFF0000FFFF",
"#	c #2492FFFF0000",
"$	c #8207FFFF0000",
"%	c #DB6CFFFF0000",
"&	c #FFFFFFFF0000",
"*	c #FFFFBEFB0000",
"=	c #FFFF8E380000",
"-	c #4103FFFF0000",
";	c #F3CEFFFF0000",
":	c #FFFF7DF70000",
">	c #9A69FFFF0000",
",	c #0000FFFF0C30",
"<	c #6595FFFF0000",
"1	c #A699FFFF0000",
"2	c #E79DFFFF0000",
"3	c #FFFFF3CE0000",
"4	c #FFFFB2CA0000",
"5	c #FFFF71C60000",
"6	c #4D34FFFF0000",
"7	c #0000FFFF0000",
"8	c #1861FFFF0000",
"9	c #30C2FFFF0000",
"0	c #8E38FFFF0000",
"q	c #B2CAFFFF0000",
"w	c #FFFFCF3C0000",
"e	c #FFFFA6990000",
"r	c #71C6FFFF0000",
"t	c #FFFFE79D0000",
"y	c #C30BFFFF0000",
"u	c #FFFFDB6C0000",
"i	c #FFFF59650000",
"p	c #CF3CFFFF0000",
"a	c #FFFF9A690000",
"s	c #FFFF4D340000",
"d	c #FFFF3CF30000",
"f	c #5965FFFF0000",
"g	c #8E380000FFFF",
"h	c #7DF70000FFFF",
"j	c #59650000FFFF",
"k	c #24920000FFFF",
"l	c #0C300000FFFF",
"z	c #0000FFFFDB6C",
"x	c #0000FFFF9A69",
"c	c #0000FFFF71C6",
"v	c #0000FFFF30C2",
"b	c #FFFF0000E79D",
"n	c #F3CE0000FFFF",
"m	c #CF3C0000FFFF",
"M	c #9A690000FFFF",
"N	c #71C60000FFFF",
"B	c #65950000FFFF",
"V	c #3CF30000FFFF",
"C	c #18610000FFFF",
"Z	c #0000FFFFE79D",
"A	c #0000FFFFB2CA",
"S	c #0000FFFF7DF7",
"D	c #0000FFFF5965",
"F	c #0000FFFF3CF3",
"G	c #FFFF0000DB6C",
"H	c #E79D0000FFFF",
"J	c #A6990000FFFF",
"K	c #4D340000FFFF",
"L	c #0000FFFFF3CE",
"P	c #0000FFFFCF3C",
"I	c #0000FFFF6595",
"U	c #0000FFFF4D34",
"Y	c #0000FFFF2492",
"T	c #FFFF0000F3CE",
"R	c #BEFB0000FFFF",
"E	c #0000FFFFBEFB",
"W	c #DB6C0000FFFF",
"Q	c #B2CA0000FFFF",
"!	c #0000FFFFA699",
"~	c #0000FFFF1861",
"^	c #0000FFFF8E38",
"/	c #FFFF0000CF3C",
"(	c #30C20000FFFF",
")	c #FFFF30C20000",
"                                        ",
"                                        ",
"                                        ",
"                                        ",
"                                        ",
"                                        ",
"                                        ",
"             ..                         ",
"             . ..                       ",
"            .    ..                     ",
"            .      ..                   ",
"           ..        ..                 ",
"           .           ..               ",
"          .             ..              ",
"          .XoO+@#$%&*=@.  -             ",
"         .;:&>-,<12345.   6             ",
"         .77++890q;weX.  69             ",
"        .#-<r$0>2t*e:.   -#             ",
"        .0y%;&;2ue:55.    >>            ",
"       .$y%22;;;*=5i.     pp            ",
"       ..p;&tuu3*a55.     &2;           ",
"        ...=ae4w:Xi.       2;           ",
"          ..5:==Xss.       2            ",
"            ...5sd.        %    4       ",
"              .....       >p   3        ",
"                ..        0y   &        ",
"                    8     $q%  ;        ",
"                    +8#  fr1y     u4    ",
"                          $>1 p         ",
"                     9   r0q1> y   *    ",
"      g  hjkl zxc v  896f$$0>>y%2&t     ",
"bnmMNNBBjBVCOZzASDF,+9-9-<0>1qqy22&t*e==",
"GHJhjKKVVVkClLZPAIUY8-#--f$>11q1yp%3u*a:",
"THRMNKklLLZzEEExSUvv,7---6r$>1y%;;3*4=55",
"TWQghKkOZzEPAAA!!cIUv~896<$>qqy2&3w4a:X5",
"bWJghKVzE!!!^^!AESccUv~+9r0yyqyp3uwa:X5:",
"GHJgBVlZPA!x^Sc^!xx!Iv+8-<>1yp2&u4a==55i",
"/nQMB(OzPEA^IDIc^xAESv#96f$qy%3u*4==:sis",
"GHQhjkLP!!^cIIcS!AAASU,#-f$qp%tw=5XiXiXX",
"TWJNKkL!xxIDScc^EAAE^DY,+-<q%;weissd)XiX"};
