/* XPM */
static char * paintI_xpm[] = {
"15 15 2 1",
" 	c #FFFFFFFFFFFF m white s A",
".	c #000000000000 m black s B",
"              .",
"               ",
"            .  ",
"               ",
"          .    ",
"               ",
"        .      ",
"               ",
"      .        ",
"               ",
"    .          ",
"               ",
"  .            ",
"               ",
".              "};
