#define mlink_width 64
#define mlink_height 64
static unsigned char mlink_bits[] = {
   0x00, 0x00, 0x00, 0x00, 0x00, 0x00, 0x00, 0x00, 0x00, 0x00, 0x00, 0x00,
   0x01, 0x00, 0x00, 0x00, 0x00, 0x00, 0x00, 0xc0, 0x07, 0x00, 0x00, 0x00,
   0x00, 0x00, 0x00, 0xf0, 0x1f, 0x00, 0x00, 0x00, 0x00, 0x00, 0x00, 0xfc,
   0x7f, 0x00, 0x00, 0x00, 0x00, 0x00, 0x00, 0xff, 0xff, 0x01, 0x00, 0x00,
   0x00, 0x00, 0xc0, 0xff, 0xff, 0x07, 0x00, 0x00, 0x00, 0x00, 0xe0, 0xff,
   0xff, 0x0f, 0x00, 0x00, 0x00, 0x00, 0xf0, 0xff, 0xff, 0x1f, 0x00, 0x00,
   0x00, 0x00, 0xf0, 0xff, 0xff, 0x1f, 0x00, 0x00, 0x00, 0x00, 0xd0, 0xff,
   0xff, 0x17, 0x00, 0x00, 0x00, 0x00, 0x10, 0xff, 0xff, 0x11, 0x00, 0x00,
   0x00, 0x00, 0x10, 0xfc, 0x7f, 0x10, 0x00, 0x00, 0x00, 0x00, 0x10, 0xf0,
   0x1f, 0x10, 0x00, 0x00, 0x00, 0x00, 0x10, 0xc0, 0x07, 0x10, 0x00, 0x00,
   0x00, 0x00, 0x10, 0x00, 0x01, 0x10, 0x00, 0x00, 0x00, 0x00, 0x10, 0x06,
   0xc1, 0x10, 0x00, 0x00, 0x00, 0x00, 0x10, 0x09, 0x21, 0x11, 0x00, 0x00,
   0x00, 0x00, 0x90, 0x10, 0x11, 0x12, 0x00, 0x00, 0x00, 0x00, 0x90, 0x10,
   0x11, 0x12, 0x00, 0x00, 0x00, 0x00, 0x90, 0x20, 0x09, 0x12, 0x00, 0x00,
   0x00, 0x00, 0x20, 0x20, 0x09, 0x08, 0x00, 0x00, 0x00, 0x00, 0xd0, 0x20,
   0x09, 0x16, 0x00, 0x00, 0x00, 0x00, 0x10, 0x23, 0x89, 0x11, 0x00, 0x00,
   0x00, 0x00, 0x90, 0x0c, 0x61, 0x12, 0x00, 0x00, 0x00, 0x00, 0x90, 0x30,
   0x19, 0x12, 0x00, 0x00, 0x00, 0x00, 0x90, 0xc0, 0x07, 0x12, 0x00, 0x00,
   0x00, 0x00, 0x90, 0x20, 0x09, 0x12, 0x00, 0x00, 0x00, 0x00, 0x10, 0x26,
   0x49, 0x11, 0x00, 0x00, 0x00, 0x00, 0x10, 0x21, 0x21, 0x11, 0x00, 0x00,
   0x00, 0x00, 0x90, 0x10, 0x91, 0x10, 0x00, 0x00, 0x00, 0x00, 0x90, 0x0c,
   0x51, 0x12, 0x00, 0x00, 0x00, 0x00, 0x90, 0x20, 0x09, 0x12, 0x00, 0x00,
   0x00, 0x00, 0x20, 0x20, 0x09, 0x08, 0x00, 0x00, 0x00, 0x00, 0xd0, 0x20,
   0x09, 0x16, 0x00, 0x00, 0x00, 0x00, 0x10, 0x23, 0x89, 0x11, 0x00, 0x00,
   0x00, 0x00, 0x90, 0x0c, 0x61, 0x12, 0x00, 0x00, 0x00, 0x00, 0x90, 0x30,
   0x19, 0x12, 0x00, 0x00, 0x00, 0x00, 0x90, 0xc0, 0x07, 0x12, 0x00, 0x00,
   0x00, 0x00, 0x90, 0x20, 0x09, 0x12, 0x00, 0x00, 0x00, 0x00, 0x10, 0x26,
   0x49, 0x11, 0x00, 0x00, 0x00, 0x00, 0x10, 0x21, 0x21, 0x11, 0x00, 0x00,
   0x00, 0x00, 0x90, 0x10, 0x91, 0x10, 0x00, 0x00, 0x00, 0x00, 0x90, 0x0c,
   0x51, 0x12, 0x00, 0x00, 0x00, 0x00, 0x90, 0x20, 0x09, 0x12, 0x00, 0x00,
   0x00, 0x00, 0x20, 0x20, 0x09, 0x08, 0x00, 0x00, 0x00, 0x00, 0xd0, 0x20,
   0x09, 0x16, 0x00, 0x00, 0x00, 0x00, 0x10, 0x23, 0x89, 0x11, 0x00, 0x00,
   0x00, 0x00, 0x90, 0x0c, 0x61, 0x12, 0x00, 0x00, 0x00, 0x00, 0x90, 0x30,
   0x19, 0x12, 0x00, 0x00, 0x00, 0x00, 0x90, 0xc0, 0x07, 0x12, 0x00, 0x00,
   0x00, 0x00, 0x90, 0x20, 0x09, 0x12, 0x00, 0x00, 0x00, 0x00, 0x10, 0x21,
   0x09, 0x11, 0x00, 0x00, 0x00, 0x00, 0x10, 0x21, 0x09, 0x11, 0x00, 0x00,
   0x00, 0x00, 0x10, 0x12, 0x91, 0x10, 0x00, 0x00, 0x00, 0x00, 0x10, 0x0c,
   0x61, 0x10, 0x00, 0x00, 0x00, 0x00, 0x10, 0x00, 0x01, 0x10, 0x00, 0x00,
   0x00, 0x00, 0x20, 0x00, 0x01, 0x08, 0x00, 0x00, 0x00, 0x00, 0xc0, 0x00,
   0x01, 0x06, 0x00, 0x00, 0x00, 0x00, 0x00, 0x03, 0x81, 0x01, 0x00, 0x00,
   0x00, 0x00, 0x00, 0x0c, 0x61, 0x00, 0x00, 0x00, 0x00, 0x00, 0x00, 0x30,
   0x19, 0x00, 0x00, 0x00, 0x00, 0x00, 0x00, 0xc0, 0x07, 0x00, 0x00, 0x00,
   0x00, 0x00, 0x00, 0x00, 0x01, 0x00, 0x00, 0x00};
