#define nopaper_width 64
#define nopaper_height 64
static unsigned char nopaper_bits[] = {
 0x03,0x00,0x00,0x00,0x00,0x00,0x00,0xc0,0x07,0x00,0x00,0x00,0x00,0x00,0x00,
 0xe0,0x0e,0x00,0x00,0x00,0x00,0x00,0x00,0x70,0x1c,0x00,0x00,0x00,0x00,0x00,
 0x00,0x38,0x38,0x00,0x00,0x00,0x00,0x00,0x00,0x1c,0x70,0x00,0x00,0x00,0x00,
 0x00,0x00,0x0e,0xe0,0x00,0x00,0x00,0x00,0x00,0x00,0x07,0xc0,0x01,0x00,0x00,
 0x00,0x00,0x80,0x03,0x80,0x03,0x00,0x00,0x00,0x00,0xc0,0x01,0x00,0x07,0x00,
 0x00,0x00,0x00,0xe0,0x00,0x00,0x0e,0x00,0x00,0x00,0x00,0x70,0x00,0x00,0x1c,
 0x00,0x00,0x00,0x00,0x38,0x00,0x00,0x38,0x00,0x00,0x00,0x00,0x1c,0x00,0x00,
 0x70,0x00,0x00,0x00,0x00,0x0e,0x00,0x00,0xe0,0x00,0x00,0x00,0x00,0x07,0x00,
 0x00,0xc0,0x01,0x00,0x00,0x80,0x03,0x00,0x00,0x80,0x03,0x00,0x00,0xc0,0x01,
 0x00,0x00,0x00,0x07,0x00,0x00,0xe0,0x00,0x00,0x00,0x00,0x0e,0x00,0x00,0x70,
 0x00,0x00,0x00,0x00,0xfe,0xff,0xff,0xff,0x03,0x00,0x00,0x00,0x3d,0x00,0x00,
 0x1c,0x04,0x00,0x00,0x80,0x78,0x00,0x00,0x0e,0x08,0x00,0x00,0x40,0xf0,0x00,
 0x00,0x07,0x10,0x00,0x00,0x20,0xe0,0x01,0x80,0x03,0x20,0x00,0x00,0x20,0xa0,
 0x03,0xc0,0x01,0x20,0x00,0x00,0x10,0x42,0x07,0xe0,0x00,0x40,0x00,0x00,0x10,
 0x47,0x0e,0x70,0x00,0x40,0x00,0x00,0x90,0x4f,0x1c,0x38,0x00,0x40,0x00,0x00,
 0x90,0x4f,0x38,0x1c,0x00,0x40,0x00,0x00,0x90,0x4f,0x70,0x0e,0x00,0x40,0x00,
 0x00,0x90,0x4f,0xe0,0x07,0x00,0x40,0x00,0x00,0x90,0x4f,0xc0,0x03,0x00,0x40,
 0x00,0x00,0x10,0x47,0xc0,0x03,0x00,0x40,0x00,0x00,0x10,0x42,0xe0,0x07,0x00,
 0x40,0x00,0x00,0x20,0x20,0x70,0x0e,0x00,0x20,0x00,0x00,0x20,0x20,0x38,0x1c,
 0x00,0x20,0x00,0x00,0x60,0x10,0x1c,0x38,0x00,0x10,0x00,0x00,0xe0,0x08,0x0e,
 0x70,0x00,0x08,0x00,0x00,0x40,0x05,0x07,0xe0,0x00,0x04,0x00,0x00,0x40,0xfe,
 0xff,0xff,0xff,0x03,0x00,0x00,0x40,0xc0,0x01,0x80,0x43,0x00,0x00,0x00,0x40,
 0xe0,0x00,0x00,0x87,0x00,0x00,0x00,0xc0,0x70,0x00,0x00,0x8e,0x00,0x00,0x00,
 0x80,0x38,0x00,0x00,0x9c,0x00,0x00,0x00,0x80,0x1c,0x00,0x00,0x38,0x01,0x00,
 0x00,0x00,0x0f,0x00,0x00,0x70,0x01,0x00,0x00,0x00,0x07,0x00,0x00,0xe0,0x01,
 0x00,0x00,0x80,0x03,0x00,0x00,0xc0,0x01,0x00,0x00,0xc0,0x01,0x00,0x00,0x80,
 0x03,0x00,0x00,0xe0,0x01,0x00,0x00,0x00,0x07,0x00,0x00,0x70,0x02,0x0c,0x00,
 0x00,0x0e,0x00,0x00,0x38,0x82,0x3f,0x00,0x00,0x1e,0x00,0x00,0x1c,0xf2,0x40,
 0x00,0x3c,0x3a,0x00,0x00,0x0e,0x2a,0x80,0x83,0x43,0x74,0x00,0x00,0x07,0x06,
 0x00,0xfc,0x80,0xe3,0x00,0x80,0x03,0x00,0x00,0x00,0x00,0xc0,0x01,0xc0,0x01,
 0x00,0x00,0x00,0x00,0x80,0x03,0xe0,0x00,0x00,0x00,0x00,0x00,0x00,0x07,0x70,
 0x00,0x00,0x00,0x00,0x00,0x00,0x0e,0x38,0x00,0x00,0x00,0x00,0x00,0x00,0x1c,
 0x1c,0x00,0x00,0x00,0x00,0x00,0x00,0x38,0x0e,0x00,0x00,0x00,0x00,0x00,0x00,
 0x70,0x07,0x00,0x00,0x00,0x00,0x00,0x00,0xe0,0x03,0x00,0x00,0x00,0x00,0x00,
 0x00,0xc0};
