#define noprint_width 64
#define noprint_height 64
static unsigned char noprint_bits[] = {
 0x00,0x00,0x00,0x00,0x02,0x10,0x00,0x00,0x00,0x00,0x00,0x00,0x00,0x10,0x00,
 0x00,0x00,0x1a,0x0e,0x80,0xc3,0xd1,0x70,0x00,0x00,0x26,0x11,0x00,0x22,0x32,
 0x89,0x00,0x00,0x22,0x11,0x00,0x22,0x12,0x09,0x00,0x00,0x22,0x11,0x00,0x22,
 0x12,0x71,0x00,0x00,0x22,0x11,0x00,0x22,0x12,0x81,0x00,0x00,0x22,0x11,0x00,
 0x22,0x32,0x89,0x00,0x00,0x22,0x0e,0x00,0xc2,0xd1,0x70,0x00,0x00,0x00,0x00,
 0x00,0x02,0x00,0x00,0x00,0x00,0x00,0x00,0x40,0x02,0x00,0x00,0x00,0x00,0x00,
 0x00,0x80,0x01,0x00,0x00,0x00,0x00,0x00,0x00,0x00,0x00,0x00,0x00,0x00,0x00,
 0xff,0xff,0xff,0xff,0xff,0xff,0x07,0x00,0x01,0x00,0x00,0x00,0x00,0x00,0x08,
 0x00,0x01,0x00,0x00,0x00,0x00,0x00,0x08,0x00,0x01,0x00,0x00,0x00,0x00,0x00,
 0x08,0x00,0x01,0x00,0x00,0x00,0x00,0x00,0x08,0x00,0x01,0x00,0x00,0x00,0x00,
 0x00,0x08,0x00,0x01,0x00,0x00,0x00,0x00,0x00,0x08,0x00,0x01,0x00,0x00,0x00,
 0x00,0x00,0x08,0x00,0x01,0x00,0x00,0x00,0x00,0x00,0x08,0x00,0xff,0xff,0xff,
 0xff,0xff,0xff,0x0f,0x00,0x09,0x20,0x00,0x00,0x00,0x01,0x08,0x00,0x89,0x27,
 0x00,0x00,0x00,0x01,0x08,0x00,0x49,0x28,0x00,0xf8,0x1f,0x01,0x08,0x00,0x49,
 0x28,0x00,0x08,0x10,0x01,0x08,0x00,0x49,0x28,0x00,0x08,0x10,0x01,0x08,0x00,
 0xc9,0x2f,0x00,0xf8,0x1f,0x01,0x08,0x00,0x49,0x2b,0x00,0x08,0x10,0x01,0x08,
 0x00,0x49,0x28,0x00,0xf8,0x1f,0x01,0x08,0x00,0x89,0x27,0x00,0x00,0x00,0x01,
 0x04,0x00,0x09,0x20,0x00,0x00,0x00,0x01,0x02,0x00,0xff,0xff,0xff,0xff,0xff,
 0x03,0x01,0xfc,0xff,0xff,0xff,0xff,0xff,0x87,0x00,0x1c,0x01,0x00,0x00,0x00,
 0x00,0x7e,0x00,0x1c,0x01,0x00,0x00,0x00,0x00,0xf8,0x3f,0x1c,0x01,0x00,0x00,
 0x00,0x00,0xf8,0x3f,0xfc,0x01,0xf0,0xf7,0xf7,0xf3,0x87,0x00,0x00,0x01,0x00,
 0x00,0x00,0x00,0x80,0x3f,0x00,0x01,0xf0,0xf7,0xf7,0xf3,0x87,0x00,0xf0,0x01,
 0x00,0x00,0x00,0x00,0x80,0x00,0x10,0x01,0xf0,0xf7,0xf7,0xf3,0x87,0x00,0xf0,
 0x01,0x00,0x00,0x00,0x00,0x80,0x00,0x00,0x01,0x00,0x00,0x00,0x00,0x80,0x00,
 0x00,0xff,0xff,0xff,0xff,0xff,0xff,0x00,0x00,0x02,0x00,0x00,0x00,0x00,0x40,
 0x00,0x00,0x02,0x00,0x00,0x00,0x00,0x40,0x00,0x00,0xfc,0xff,0xff,0xff,0xff,
 0x3f,0x00,0x00,0x38,0x00,0x00,0x00,0x80,0x03,0x00,0x00,0x00,0x00,0x00,0x00,
 0x00,0x00,0x00,0x00,0x00,0x00,0x00,0x00,0x00,0x00,0x00,0x00,0x00,0x00,0x00,
 0x00,0x00,0x00,0x00,0x00,0x00,0x00,0x00,0x00,0x00,0x00,0x00,0x00,0x00,0x00,
 0x00,0x00,0x00,0x00,0x00,0x00,0x00,0x00,0x00,0x00,0x00,0x00,0x00,0x00,0x00,
 0x00,0x00,0x00,0x00,0x00,0x00,0x00,0x00,0x00,0x00,0x00,0x00,0x00,0x00,0x00,
 0x00,0x00,0x00,0x00,0x00,0x00,0x00,0x00,0x00,0x00,0x00,0x00,0x00,0x00,0x00,
 0x00,0x00,0x00,0x00,0x00,0x00,0x00,0x00,0x00,0x00,0x00,0x00,0x00,0x00,0x00,
 0x00,0x00,0x00,0x00,0x00,0x00,0x00,0x00,0x00,0x00,0x00,0x00,0x00,0x00,0x00,
 0x00,0x00};
