#define noname_width 48
#define noname_height 48
static char noname_bits[] = {
 0x00,0x00,0x40,0x00,0x00,0x00,0x00,0x00,0x00,0x20,0x00,0x00,0x00,0x00,0x10,
 0x50,0x00,0x00,0x00,0x00,0x00,0x51,0x04,0x00,0x00,0x00,0x80,0x56,0x0b,0x00,
 0x00,0x40,0x00,0x89,0x04,0x00,0x00,0x00,0x00,0x01,0x04,0x00,0x00,0x04,0x00,
 0x72,0x02,0x00,0x00,0x00,0xc2,0xf9,0x1c,0x00,0x00,0x00,0x25,0xf8,0x20,0x00,
 0x00,0x11,0xc5,0xf9,0x1c,0x00,0x00,0x68,0xb5,0x72,0x02,0x00,0x00,0x90,0x48,
 0x01,0x04,0x00,0x00,0x10,0x40,0x89,0x04,0x00,0x00,0x20,0xa7,0x56,0x8b,0x00,
 0x00,0x9c,0xcf,0x51,0x04,0x00,0x40,0x82,0x0f,0x52,0x00,0x00,0x00,0x9c,0xcf,
 0x21,0x20,0x00,0x00,0x20,0x27,0x00,0x00,0x00,0x00,0x10,0x40,0x00,0x04,0x00,
 0x00,0x90,0x48,0x02,0x00,0x00,0x00,0x68,0xb5,0x05,0x00,0x00,0x00,0x10,0x55,
 0x45,0x00,0x00,0x00,0x00,0x6d,0xb5,0x00,0x00,0x00,0x00,0x92,0x48,0x08,0x00,
 0x00,0x00,0x10,0x40,0x00,0x00,0x00,0x04,0x20,0x27,0x00,0x00,0x40,0x00,0x9c,
 0xcf,0x11,0x00,0x00,0x10,0x82,0x0f,0x02,0x00,0x10,0x28,0x9c,0xcf,0x01,0x00,
 0x80,0x28,0x22,0x27,0x00,0x00,0x48,0xab,0x15,0x40,0x10,0x00,0x80,0x44,0x92,
 0x48,0x00,0x00,0x80,0x00,0x6a,0xb5,0x00,0x00,0x04,0x39,0x11,0x45,0x00,0x00,
 0xe0,0x7c,0x0e,0x05,0x04,0x00,0x10,0x7c,0x10,0x02,0x00,0x00,0xe0,0x7c,0x0e,
 0x00,0x00,0x00,0x00,0x39,0x01,0x00,0x00,0x00,0x80,0x00,0x02,0x00,0x00,0x00,
 0x80,0x44,0x42,0x00,0x00,0x00,0x40,0xab,0x05,0x00,0x00,0x00,0x80,0x28,0x02,
 0x00,0x00,0x00,0x00,0x28,0x10,0x00,0x00,0x00,0x00,0x10,0x00,0x00,0x00,0x00,
 0x00,0x00,0x02,0x00,0x00,0x00,0x00,0x00,0x00,0x00,0x00,0x00,0x00,0x00,0x00,
 0x00,0x00,0x00};
