#define awake_width 64
#define awake_height 64
static char awake_bits[] = {
   0x00, 0x00, 0x00, 0x00, 0x00, 0x00, 0x00, 0x00, 0x00, 0x00, 0x00, 0x00,
   0x00, 0x00, 0x00, 0x00, 0x00, 0x00, 0x00, 0x00, 0x00, 0x00, 0x00, 0x00,
   0x00, 0x00, 0x00, 0x00, 0x00, 0x00, 0x00, 0x00, 0x00, 0x1c, 0x00, 0x00,
   0x00, 0x00, 0x30, 0x00, 0x00, 0x38, 0x00, 0x00, 0x00, 0x00, 0x10, 0x00,
   0x00, 0x20, 0x00, 0x03, 0x00, 0x03, 0x18, 0x00, 0x00, 0x60, 0x80, 0x07,
   0x80, 0x07, 0x0e, 0x00, 0x00, 0xc0, 0xc1, 0x0d, 0xc0, 0x0d, 0x03, 0x00,
   0x00, 0x00, 0xc1, 0x1c, 0xe0, 0x0c, 0x03, 0x00, 0x00, 0x00, 0xc3, 0x38,
   0x70, 0x0c, 0x00, 0x00, 0x00, 0x00, 0xe2, 0x30, 0x30, 0x1c, 0x00, 0x00,
   0x3c, 0x00, 0x70, 0x30, 0x30, 0x38, 0x00, 0x3c, 0x20, 0x00, 0x30, 0x70,
   0x38, 0x30, 0x00, 0x04, 0xc0, 0x03, 0x30, 0xe0, 0x1c, 0x30, 0xc0, 0x07,
   0x00, 0x04, 0x18, 0xc0, 0x0c, 0x70, 0x60, 0x00, 0x00, 0x3c, 0x0c, 0xc0,
   0x0f, 0xe0, 0x3c, 0x00, 0x00, 0x20, 0x0c, 0xc0, 0x0f, 0xc0, 0x04, 0x00,
   0x00, 0x00, 0x0c, 0x00, 0x00, 0xc0, 0x00, 0x00, 0x00, 0x00, 0x0c, 0x00,
   0x00, 0xc0, 0x00, 0x00, 0x00, 0x00, 0x0c, 0x0c, 0xc0, 0xc0, 0x00, 0x00,
   0x00, 0x00, 0x0c, 0x0c, 0xc0, 0xc0, 0x00, 0x00, 0xf3, 0x00, 0x0c, 0x0c,
   0xc0, 0xc0, 0x40, 0x3c, 0x9e, 0x01, 0x0c, 0x0c, 0xc0, 0xc0, 0xc0, 0x0f,
   0x00, 0x00, 0x0c, 0x0c, 0xc0, 0xc0, 0x00, 0x00, 0x00, 0x00, 0x0c, 0x0c,
   0xc0, 0xc0, 0x00, 0x00, 0x00, 0x00, 0x0c, 0x00, 0x00, 0xc0, 0x00, 0x00,
   0x00, 0x00, 0x0c, 0x00, 0x00, 0xc0, 0x00, 0x00, 0x00, 0x00, 0xcc, 0x0f,
   0xc3, 0xcf, 0x00, 0x00, 0x00, 0x00, 0x1c, 0x8f, 0xc7, 0xe3, 0x00, 0x00,
   0x00, 0x00, 0x38, 0x00, 0x03, 0x70, 0x00, 0x00, 0x00, 0x00, 0x70, 0x00,
   0x00, 0x38, 0x00, 0x00, 0x00, 0x00, 0xe0, 0x00, 0x00, 0x1c, 0x00, 0x00,
   0x00, 0x00, 0xc0, 0x01, 0x00, 0x0e, 0x00, 0x00, 0x00, 0x00, 0x80, 0x3f,
   0xf0, 0x07, 0x0c, 0x00, 0x00, 0x00, 0x00, 0x3f, 0xf0, 0x03, 0x1e, 0x00,
   0x00, 0x00, 0x00, 0x30, 0x30, 0x00, 0x37, 0x00, 0x00, 0x00, 0x00, 0x38,
   0x30, 0x80, 0x33, 0x00, 0x00, 0x00, 0x00, 0x1c, 0xc0, 0xc0, 0x31, 0x00,
   0x00, 0x00, 0x00, 0x0e, 0xc0, 0xe1, 0x38, 0x00, 0x00, 0x00, 0x00, 0x07,
   0x80, 0x73, 0x1c, 0x00, 0x00, 0x00, 0x80, 0x03, 0x00, 0x3f, 0x0e, 0x00,
   0x00, 0x00, 0xc0, 0x01, 0x00, 0x1e, 0x07, 0x00, 0x00, 0x00, 0xc0, 0x00,
   0x00, 0x8c, 0x03, 0x00, 0x00, 0x00, 0xcf, 0x00, 0x00, 0xcc, 0x03, 0x00,
   0x00, 0x80, 0xdf, 0x00, 0x00, 0xec, 0x07, 0x00, 0x00, 0xc0, 0xf9, 0x00,
   0x03, 0x7c, 0x0e, 0x00, 0x00, 0xe0, 0xf0, 0x00, 0x03, 0x3c, 0x1c, 0x00,
   0x00, 0x70, 0xc0, 0x03, 0x03, 0x0f, 0x38, 0x00, 0x00, 0x30, 0xc0, 0x03,
   0x03, 0x0f, 0x30, 0x00, 0x00, 0x30, 0x00, 0x03, 0x03, 0x03, 0x30, 0x00,
   0x00, 0x30, 0x00, 0x03, 0x03, 0x03, 0x30, 0x00, 0x00, 0xf0, 0x03, 0x03,
   0x03, 0x03, 0x3f, 0x00, 0x00, 0xf8, 0x03, 0x83, 0x07, 0x03, 0x7f, 0x00,
   0x00, 0x3c, 0x00, 0xc3, 0x0f, 0x03, 0xf0, 0x00, 0x00, 0x1c, 0x00, 0xc3,
   0x0f, 0x03, 0xe0, 0x00, 0x00, 0xfc, 0xff, 0xff, 0xfc, 0xff, 0xff, 0x00,
   0x00, 0xfc, 0xff, 0xff, 0xfc, 0xff, 0xff, 0x00, 0x00, 0x00, 0x00, 0x00,
   0x00, 0x00, 0x00, 0x00, 0x00, 0x00, 0x00, 0x00, 0x00, 0x00, 0x00, 0x00,
   0x00, 0x00, 0x00, 0x00, 0x00, 0x00, 0x00, 0x00, 0x00, 0x00, 0x00, 0x00,
   0x00, 0x00, 0x00, 0x00, 0x00, 0x00, 0x00, 0x00, 0x00, 0x00, 0x00, 0x00,
   0x00, 0x00, 0x00, 0x00, 0x00, 0x00, 0x00, 0x00};
