#define cursor_mask_width 32
#define cursor_mask_height 24
static char cursor_mask_bits[] = {
   0x00, 0x00, 0xc0, 0x07, 0x00, 0x00, 0x80, 0x0f, 0x00, 0x00, 0x00, 0x1f,
   0x00, 0x00, 0x00, 0x3e, 0x00, 0x00, 0x00, 0x7c, 0x00, 0x00, 0x00, 0xf8,
   0xe0, 0x00, 0x00, 0xf8, 0xf0, 0x01, 0x00, 0xf8, 0xf8, 0x03, 0xff, 0xf8,
   0xf8, 0x03, 0xff, 0xe0, 0xf8, 0xc3, 0xff, 0xef, 0xf8, 0xc3, 0xff, 0xef,
   0xf0, 0xff, 0xff, 0xef, 0xf0, 0xff, 0xff, 0xef, 0xf0, 0xff, 0xff, 0xff,
   0xf8, 0xff, 0xff, 0xff, 0xfc, 0xff, 0xff, 0xff, 0xfc, 0xff, 0xff, 0xff,
   0xfc, 0xff, 0xff, 0xff, 0xfe, 0xff, 0xff, 0xff, 0xff, 0xff, 0xff, 0xff,
   0xff, 0xff, 0xff, 0x3f, 0xfe, 0xff, 0xff, 0x3f, 0xfc, 0xff, 0xff, 0x3f};
