#define cursor_width 32
#define cursor_height 24
#define cursor_x_hot 16
#define cursor_y_hot 14
static char cursor_bits[] = {
   0x00, 0x00, 0xc0, 0x03, 0x00, 0x00, 0x00, 0x07, 0x00, 0x00, 0x00, 0x0e,
   0x00, 0x00, 0x00, 0x1c, 0x00, 0x00, 0x00, 0x38, 0x00, 0x00, 0x00, 0x30,
   0xe0, 0x00, 0x00, 0x30, 0xf0, 0x01, 0x00, 0x70, 0xb8, 0x03, 0x3f, 0xe0,
   0x18, 0x83, 0xff, 0xc0, 0x18, 0xc3, 0xc1, 0xc7, 0x38, 0xe3, 0x00, 0xcf,
   0xf0, 0x7f, 0x00, 0xcc, 0xf0, 0x3f, 0x00, 0x9c, 0xf0, 0x00, 0xf0, 0xd8,
   0x78, 0x00, 0xf8, 0x90, 0xdc, 0x01, 0x1c, 0xd0, 0xcc, 0x01, 0x0c, 0xb0,
   0x0c, 0x30, 0x0c, 0xe0, 0x0e, 0x38, 0x0c, 0xe0, 0xcf, 0x1f, 0x1f, 0xe0,
   0xdf, 0x0f, 0x3f, 0x30, 0xfe, 0xff, 0xff, 0x3f, 0xfc, 0xff, 0xff, 0x3f};
