#define down1_width 64
#define down1_height 64
static char down1_bits[] = {
   0x00, 0x00, 0x00, 0xc0, 0x03, 0x00, 0x00, 0x00, 0x00, 0x00, 0x00, 0xe0,
   0x07, 0x00, 0x00, 0x00, 0x00, 0x00, 0x00, 0x70, 0x0e, 0x00, 0x00, 0x00,
   0x00, 0x00, 0x00, 0x30, 0x0c, 0x00, 0x00, 0x00, 0x00, 0x00, 0x00, 0x38,
   0x1c, 0x00, 0x00, 0x00, 0x00, 0x00, 0x00, 0x38, 0x1c, 0x00, 0x00, 0x00,
   0x00, 0x00, 0x00, 0x18, 0x18, 0x00, 0x00, 0x00, 0x00, 0x00, 0x00, 0x18,
   0x18, 0x00, 0x00, 0x00, 0x00, 0x00, 0x00, 0x18, 0x18, 0x00, 0x00, 0x00,
   0x00, 0x00, 0x00, 0x38, 0x1c, 0x00, 0x00, 0x00, 0x00, 0x00, 0x00, 0x30,
   0x0c, 0x00, 0x00, 0x00, 0x00, 0x00, 0x00, 0x38, 0x1c, 0x00, 0x00, 0x00,
   0x00, 0x00, 0xc0, 0x3f, 0xfc, 0x03, 0x00, 0x00, 0x00, 0x00, 0xe0, 0x1f,
   0xf8, 0x03, 0x00, 0x00, 0x00, 0x00, 0x70, 0x00, 0x00, 0x0e, 0x00, 0x00,
   0x00, 0x00, 0x38, 0x00, 0x00, 0x1c, 0x00, 0x00, 0x00, 0x00, 0x1c, 0x00,
   0x00, 0x38, 0x00, 0x00, 0x00, 0x00, 0x0e, 0x00, 0x00, 0x70, 0x00, 0x00,
   0x00, 0x00, 0x07, 0x00, 0x00, 0xe0, 0x00, 0x00, 0x00, 0x80, 0x03, 0x00,
   0x00, 0xc0, 0x01, 0x00, 0x00, 0xc0, 0x01, 0x00, 0x00, 0x80, 0x03, 0x00,
   0x00, 0xc0, 0x00, 0x00, 0x00, 0x00, 0x07, 0x00, 0x00, 0xc0, 0x00, 0x03,
   0x00, 0x03, 0x0e, 0x00, 0x00, 0xc0, 0x80, 0x07, 0x80, 0x07, 0x0c, 0x00,
   0x00, 0xc0, 0xc0, 0x0c, 0xc0, 0x0c, 0x0c, 0x00, 0x00, 0xe0, 0xc0, 0x1c,
   0xe0, 0x0c, 0x1c, 0x00, 0x00, 0x70, 0xc0, 0x38, 0x70, 0x0c, 0x38, 0x00,
   0x00, 0x30, 0xe0, 0x30, 0x30, 0x1c, 0x30, 0x00, 0x00, 0x30, 0x60, 0x30,
   0x30, 0x38, 0x30, 0x00, 0x00, 0x30, 0x30, 0x70, 0x38, 0x30, 0x30, 0x00,
   0x00, 0x30, 0x30, 0xe0, 0x1c, 0x30, 0x30, 0x00, 0x00, 0x30, 0x38, 0xc0,
   0x0c, 0x70, 0x30, 0x00, 0x00, 0x30, 0x0c, 0xc0, 0x0f, 0xe0, 0x30, 0x00,
   0x00, 0x30, 0x0c, 0xc0, 0x0f, 0xc0, 0x30, 0x00, 0x00, 0x30, 0x0c, 0x00,
   0x00, 0xc0, 0x30, 0x00, 0x00, 0x30, 0x0c, 0x00, 0x00, 0xc0, 0x30, 0x00,
   0x00, 0x3c, 0x0c, 0x00, 0x00, 0xc0, 0xf0, 0x00, 0x00, 0x38, 0x0c, 0x00,
   0x00, 0xc0, 0x70, 0x00, 0x00, 0xf0, 0x0c, 0x00, 0x00, 0xc0, 0x3c, 0x00,
   0x00, 0xf8, 0x0d, 0x00, 0x00, 0xc0, 0x7e, 0x00, 0x00, 0x9c, 0x0f, 0x0c,
   0xc0, 0xc0, 0xe7, 0x00, 0x00, 0x0c, 0x0f, 0x0c, 0xc0, 0xc0, 0xc3, 0x00,
   0x00, 0xcc, 0x0f, 0x0c, 0xc0, 0xc0, 0xcf, 0x00, 0x00, 0xcc, 0x0f, 0x0c,
   0xc0, 0xc0, 0xcf, 0x00, 0x00, 0xfc, 0x0c, 0x0c, 0xc0, 0xc0, 0xfc, 0x00,
   0x00, 0xfc, 0x1c, 0x0c, 0xc0, 0xe0, 0xfc, 0x00, 0x00, 0xc0, 0x30, 0x00,
   0x03, 0x30, 0x0c, 0x00, 0x00, 0xc0, 0x31, 0x80, 0x07, 0x30, 0x0e, 0x00,
   0x00, 0x80, 0xff, 0x00, 0x03, 0xfc, 0x07, 0x00, 0x00, 0x00, 0xff, 0x01,
   0x00, 0xfc, 0x03, 0x00, 0x00, 0x00, 0xf0, 0x1f, 0xe0, 0x3f, 0x00, 0x00,
   0x00, 0x00, 0x80, 0x7f, 0xf8, 0x07, 0x00, 0x00, 0x00, 0x00, 0x00, 0xf0,
   0x7f, 0x00, 0x00, 0x00, 0x00, 0x00, 0x00, 0xe0, 0x1f, 0x00, 0x00, 0x00,
   0x00, 0x00, 0x00, 0x00, 0x00, 0x00, 0x00, 0x00, 0x00, 0x00, 0x00, 0x00,
   0x00, 0x00, 0x00, 0x00, 0x00, 0x00, 0x00, 0x00, 0x00, 0x00, 0x00, 0x00,
   0x00, 0x00, 0x00, 0x00, 0x00, 0x00, 0x00, 0x00, 0x00, 0x00, 0x00, 0x00,
   0x00, 0x00, 0x00, 0x00, 0x00, 0x00, 0x00, 0x00, 0x00, 0x00, 0x00, 0x00,
   0x00, 0x00, 0x00, 0x00, 0x00, 0x00, 0x00, 0x00, 0x00, 0x00, 0x00, 0x00,
   0x00, 0x00, 0x00, 0x00, 0x00, 0x00, 0x00, 0x00, 0x00, 0x00, 0x00, 0x00,
   0x00, 0x00, 0x00, 0x00, 0x00, 0x00, 0x00, 0x00};
