#define down2_width 64
#define down2_height 64
static char down2_bits[] = {
   0x00, 0x00, 0xf0, 0xc0, 0x03, 0x18, 0x00, 0x00, 0x00, 0x00, 0xf8, 0xe0,
   0x07, 0x3c, 0x00, 0x00, 0x00, 0x00, 0xdc, 0x71, 0x0e, 0xee, 0x00, 0x00,
   0x00, 0x00, 0x8c, 0x33, 0x0c, 0xce, 0x00, 0x00, 0x00, 0x00, 0x0c, 0x33,
   0x0c, 0xc6, 0x00, 0x00, 0x00, 0x00, 0x0c, 0x33, 0x0c, 0xc7, 0x01, 0x00,
   0x00, 0x00, 0x0e, 0x33, 0x0c, 0x83, 0x01, 0x00, 0x00, 0x00, 0x0e, 0x37,
   0x8c, 0x83, 0x01, 0x00, 0x00, 0x00, 0x06, 0x3e, 0xcc, 0x81, 0x01, 0x00,
   0x00, 0x00, 0x07, 0x3c, 0xec, 0x80, 0x03, 0x00, 0x00, 0x00, 0x07, 0x3c,
   0x7c, 0x00, 0x03, 0x00, 0x00, 0x00, 0x03, 0x18, 0x3c, 0x00, 0x03, 0x00,
   0x00, 0x00, 0x03, 0x00, 0x00, 0x00, 0x03, 0x00, 0x00, 0x00, 0x03, 0x00,
   0x00, 0x00, 0x03, 0x00, 0x00, 0x00, 0x03, 0x00, 0x00, 0x00, 0x03, 0x00,
   0x00, 0x00, 0x03, 0x00, 0x00, 0x00, 0x03, 0x00, 0x00, 0x00, 0x03, 0x00,
   0x00, 0x80, 0x03, 0x00, 0x00, 0x00, 0x07, 0x00, 0x00, 0x80, 0x03, 0x00,
   0x00, 0x00, 0x06, 0x00, 0x00, 0x80, 0x01, 0x00, 0x00, 0x00, 0x0e, 0x00,
   0x00, 0x80, 0x01, 0x00, 0x00, 0x00, 0x0c, 0x00, 0x00, 0xc0, 0x00, 0x00,
   0x00, 0x00, 0x0c, 0x00, 0x00, 0xc0, 0x00, 0x00, 0x00, 0x00, 0x0c, 0x03,
   0x00, 0xc3, 0x00, 0x00, 0x00, 0x00, 0x8e, 0x07, 0x80, 0xc7, 0x01, 0x00,
   0x00, 0x00, 0xc7, 0x0d, 0xc0, 0x8e, 0x03, 0x00, 0x00, 0x00, 0xc3, 0x1c,
   0xe0, 0x0c, 0x03, 0x00, 0x00, 0x00, 0xc3, 0x38, 0x70, 0x0c, 0x03, 0x00,
   0x00, 0x00, 0xe3, 0x30, 0x30, 0x0c, 0x03, 0x00, 0x00, 0x80, 0x73, 0x30,
   0x30, 0x30, 0x07, 0x00, 0x00, 0x80, 0x33, 0x70, 0x38, 0x30, 0x07, 0x00,
   0x00, 0x80, 0x31, 0xe0, 0x1c, 0x30, 0x06, 0x00, 0x00, 0x80, 0x39, 0xc0,
   0x0c, 0x70, 0x06, 0x00, 0x00, 0x80, 0x1d, 0xc0, 0x0f, 0xe0, 0x06, 0x00,
   0x00, 0x80, 0x0d, 0xc0, 0x0f, 0xc0, 0x06, 0x00, 0x00, 0x80, 0x0f, 0x00,
   0x00, 0xc0, 0x07, 0x00, 0x00, 0x00, 0x0f, 0x00, 0x00, 0xc0, 0x03, 0x00,
   0x00, 0x3c, 0x0f, 0x00, 0x00, 0xc0, 0xf3, 0x00, 0x00, 0x70, 0x0f, 0x00,
   0x00, 0xc0, 0x1b, 0x00, 0x00, 0xc0, 0x0f, 0x00, 0x00, 0xc0, 0x0f, 0x00,
   0x00, 0x80, 0x0f, 0x00, 0x00, 0xc0, 0x07, 0x00, 0x00, 0x00, 0x0f, 0x0c,
   0xc0, 0xc0, 0x03, 0x00, 0x00, 0x00, 0x0f, 0x0c, 0xc0, 0xc0, 0x03, 0x00,
   0x00, 0x00, 0x0f, 0x0c, 0xc0, 0xc0, 0x03, 0x00, 0x00, 0x00, 0x0f, 0x0c,
   0xc0, 0xc0, 0x03, 0x00, 0x00, 0x00, 0x0c, 0x0c, 0xc0, 0xc0, 0x00, 0x00,
   0x00, 0x00, 0x0c, 0x0c, 0xc0, 0xc0, 0x00, 0x00, 0x00, 0x00, 0x3c, 0x00,
   0x03, 0xf0, 0x00, 0x00, 0x00, 0x00, 0x7c, 0x00, 0x03, 0xf8, 0x00, 0x00,
   0x00, 0x00, 0xec, 0x00, 0x00, 0xdc, 0x00, 0x00, 0x00, 0x00, 0xcc, 0x01,
   0x00, 0xce, 0x00, 0x00, 0x00, 0x00, 0x8c, 0x3f, 0xf0, 0xc7, 0x00, 0x00,
   0x00, 0x00, 0x0c, 0x7f, 0xf8, 0xe3, 0x00, 0x00, 0x00, 0x00, 0x1c, 0xf0,
   0x3f, 0xe0, 0x00, 0x00, 0x00, 0x00, 0x18, 0xe8, 0x5f, 0x60, 0x00, 0x00,
   0x00, 0x00, 0x38, 0x18, 0x60, 0x70, 0x00, 0x00, 0x00, 0x00, 0x30, 0x18,
   0x60, 0x30, 0x00, 0x00, 0x00, 0x00, 0x30, 0x1c, 0xe0, 0x30, 0x00, 0x00,
   0x00, 0x00, 0x30, 0x0c, 0xc0, 0x30, 0x00, 0x00, 0x00, 0x00, 0x30, 0x0e,
   0xc0, 0x31, 0x00, 0x00, 0x00, 0x00, 0x30, 0x0f, 0xc0, 0x3b, 0x00, 0x00,
   0x00, 0x00, 0xe0, 0x03, 0x00, 0x1f, 0x00, 0x00, 0x00, 0x00, 0xc0, 0x01,
   0x00, 0x0e, 0x00, 0x00, 0x00, 0x00, 0x00, 0x00, 0x00, 0x00, 0x00, 0x00,
   0x00, 0x00, 0x00, 0x00, 0x00, 0x00, 0x00, 0x00};
