#define dtogi1_width 64
#define dtogi1_height 64
static char dtogi1_bits[] = {
   0x00, 0x00, 0x00, 0x00, 0x00, 0x00, 0x00, 0x00, 0x00, 0x00, 0x00, 0x00,
   0x00, 0x00, 0x00, 0x00, 0x00, 0x00, 0x00, 0xf8, 0x00, 0x00, 0x00, 0x00,
   0x00, 0x00, 0x00, 0xfc, 0x01, 0x00, 0x00, 0x00, 0x00, 0x00, 0x00, 0x8e,
   0x03, 0x00, 0x00, 0x00, 0x00, 0x00, 0x00, 0x07, 0x07, 0x00, 0x00, 0x00,
   0x00, 0x00, 0x80, 0x03, 0x0e, 0x00, 0x00, 0x00, 0x00, 0x00, 0x80, 0x03,
   0x1c, 0x00, 0x00, 0x00, 0x00, 0x00, 0x00, 0x0f, 0x38, 0x00, 0x00, 0x00,
   0x00, 0x00, 0x00, 0x1c, 0x30, 0x00, 0x00, 0x00, 0x00, 0x00, 0x00, 0x38,
   0x30, 0x00, 0x00, 0x00, 0x00, 0x00, 0x00, 0x30, 0x30, 0x00, 0x00, 0x00,
   0x00, 0x00, 0x00, 0x3f, 0xf0, 0x07, 0x00, 0x00, 0x00, 0x00, 0xe0, 0x1f,
   0xf0, 0x1f, 0x00, 0x00, 0x00, 0x00, 0xf0, 0x03, 0x00, 0x3e, 0x00, 0x00,
   0x00, 0x00, 0x38, 0x00, 0x00, 0x70, 0x00, 0x00, 0x00, 0x00, 0x1c, 0x00,
   0x00, 0xe0, 0x00, 0x00, 0x00, 0x00, 0x0e, 0x00, 0x00, 0xc0, 0x01, 0x00,
   0x00, 0x00, 0x07, 0x00, 0x00, 0x80, 0x03, 0x00, 0x00, 0x80, 0x03, 0x00,
   0x00, 0x00, 0x07, 0x00, 0x00, 0xc0, 0x01, 0x00, 0x00, 0x00, 0x0e, 0x00,
   0x00, 0xc0, 0x00, 0x00, 0x00, 0x00, 0x0c, 0x00, 0x00, 0xc0, 0x00, 0x03,
   0x00, 0x03, 0x0c, 0x00, 0x00, 0xc0, 0x80, 0x07, 0x80, 0x07, 0x0c, 0x00,
   0x00, 0xc0, 0xc0, 0x0c, 0xc0, 0x0c, 0x0c, 0x00, 0x00, 0xc0, 0xc0, 0x1c,
   0xe0, 0x0c, 0x0c, 0x00, 0x00, 0xf8, 0xc0, 0x38, 0x70, 0x0c, 0x3c, 0x00,
   0x00, 0xf8, 0xe1, 0x30, 0x30, 0x1c, 0x7e, 0x00, 0x00, 0x9f, 0x73, 0x30,
   0x30, 0x38, 0xef, 0x03, 0x80, 0x0f, 0x37, 0x70, 0x38, 0xb0, 0xc3, 0x07,
   0xc0, 0x01, 0x30, 0xe0, 0x1c, 0x30, 0x00, 0x0e, 0xc0, 0x00, 0x38, 0xc0,
   0x0c, 0x70, 0x00, 0x0c, 0xc0, 0xff, 0x1f, 0xc0, 0x0f, 0xe0, 0xff, 0x0f,
   0xc0, 0xff, 0x0f, 0xc0, 0x0f, 0xc0, 0xff, 0x0f, 0x00, 0x00, 0x0c, 0x00,
   0x00, 0xc0, 0x00, 0x00, 0x00, 0x00, 0x0c, 0x00, 0x00, 0xc0, 0x00, 0x00,
   0x00, 0x00, 0x0c, 0x00, 0x00, 0xc0, 0x00, 0x00, 0x00, 0x00, 0x0c, 0x00,
   0x00, 0xc0, 0x00, 0x00, 0x00, 0x00, 0x0c, 0x00, 0x00, 0xc0, 0x00, 0x00,
   0x00, 0x00, 0x0c, 0x00, 0x00, 0xc0, 0x00, 0x00, 0x00, 0x00, 0x0c, 0x0c,
   0xc0, 0xc0, 0x00, 0x00, 0x00, 0x00, 0x0c, 0x0c, 0xc0, 0xc0, 0x00, 0x00,
   0x00, 0x00, 0x0c, 0x0c, 0xc0, 0xc0, 0x00, 0x00, 0x00, 0x00, 0x0c, 0x0c,
   0xc0, 0xc0, 0x00, 0x00, 0x00, 0x00, 0x1c, 0x0c, 0xc0, 0xc0, 0x00, 0x00,
   0x00, 0x00, 0x3c, 0x0c, 0xc0, 0xe0, 0x00, 0x00, 0x00, 0x00, 0x3c, 0x00,
   0x03, 0x70, 0x00, 0x00, 0x00, 0x00, 0x7c, 0x80, 0x07, 0x30, 0x00, 0x00,
   0x00, 0x00, 0xec, 0x00, 0x03, 0x3c, 0x00, 0x00, 0x00, 0x00, 0xcc, 0x01,
   0x00, 0x3e, 0x00, 0x00, 0x00, 0x00, 0x8c, 0x3f, 0xf0, 0x37, 0x00, 0x00,
   0x00, 0x00, 0x0c, 0x3f, 0xf0, 0x33, 0x00, 0x00, 0x00, 0x00, 0x0c, 0xf3,
   0x3f, 0x33, 0x00, 0x00, 0x00, 0x00, 0x0c, 0xf3, 0x3f, 0x33, 0x00, 0x00,
   0x00, 0x00, 0x0c, 0x33, 0x30, 0x33, 0x00, 0x00, 0x00, 0x00, 0x0c, 0x33,
   0x30, 0x33, 0x00, 0x00, 0x00, 0x00, 0x8c, 0x33, 0x30, 0x33, 0x00, 0x00,
   0x00, 0x00, 0xdc, 0x33, 0x30, 0x33, 0x00, 0x00, 0x00, 0x00, 0x38, 0x33,
   0x30, 0x33, 0x00, 0x00, 0x00, 0x00, 0x10, 0x33, 0x30, 0x33, 0x00, 0x00,
   0x00, 0x00, 0x30, 0x33, 0x30, 0x33, 0x00, 0x00, 0x00, 0x00, 0x30, 0x33,
   0x30, 0x23, 0x00, 0x00, 0x00, 0x00, 0x20, 0x23, 0x10, 0x22, 0x00, 0x00,
   0x00, 0x00, 0xe0, 0x1d, 0xe0, 0x1d, 0x00, 0x00};
