#define dtogi2_width 64
#define dtogi2_height 64
static char dtogi2_bits[] = {
   0x00, 0x00, 0x00, 0x00, 0x00, 0x00, 0x00, 0x00, 0x00, 0x00, 0x00, 0x00,
   0x00, 0x00, 0x00, 0x00, 0x00, 0x00, 0x00, 0x00, 0xf0, 0x00, 0x00, 0x00,
   0x00, 0x00, 0x00, 0x00, 0xf8, 0x01, 0x00, 0x00, 0x00, 0x00, 0x00, 0x00,
   0x9c, 0x03, 0x00, 0x00, 0x00, 0x00, 0x00, 0x00, 0x0e, 0x03, 0x00, 0x00,
   0x00, 0x00, 0x00, 0x00, 0x07, 0x03, 0x00, 0x00, 0x00, 0x00, 0x00, 0x80,
   0x83, 0x03, 0x00, 0x00, 0x00, 0x00, 0x00, 0xc0, 0xc1, 0x01, 0x00, 0x00,
   0x00, 0x00, 0x00, 0xc0, 0xe0, 0x00, 0x00, 0x00, 0x00, 0x00, 0x00, 0xc0,
   0x70, 0x00, 0x00, 0x00, 0x00, 0x00, 0x00, 0xc0, 0x30, 0x00, 0x00, 0x00,
   0x00, 0x00, 0x00, 0xff, 0xf0, 0x0f, 0x00, 0x00, 0x00, 0x00, 0x80, 0x7f,
   0xe0, 0x1f, 0x00, 0x00, 0x00, 0x00, 0xc0, 0x01, 0x00, 0x38, 0x00, 0x00,
   0x00, 0x00, 0xe0, 0x00, 0x00, 0x70, 0x00, 0x00, 0x00, 0x00, 0x70, 0x00,
   0x00, 0xe0, 0x00, 0x00, 0x00, 0x00, 0x38, 0x00, 0x00, 0xc0, 0x01, 0x00,
   0x00, 0x00, 0x1c, 0x00, 0x00, 0x80, 0x03, 0x00, 0x00, 0x00, 0x0e, 0x00,
   0x00, 0x00, 0x07, 0x00, 0x00, 0x00, 0x07, 0x00, 0x00, 0x00, 0x0e, 0x00,
   0x00, 0x80, 0x03, 0x00, 0x00, 0x00, 0x0c, 0x00, 0x00, 0xc0, 0x01, 0x03,
   0x00, 0x03, 0x0c, 0x00, 0x00, 0xc0, 0x80, 0x07, 0x80, 0x07, 0x0c, 0x00,
   0x00, 0xc0, 0xc0, 0x0c, 0xc0, 0x0c, 0x0c, 0x00, 0x00, 0xc0, 0xc0, 0x0c,
   0xe0, 0x0c, 0x0c, 0x00, 0x00, 0xf0, 0xe0, 0x30, 0x70, 0x1c, 0x3c, 0x00,
   0x00, 0xf8, 0x61, 0x30, 0x30, 0x18, 0x7e, 0x00, 0x00, 0x9f, 0x33, 0x30,
   0x30, 0x30, 0xe7, 0x03, 0x80, 0x07, 0x37, 0x30, 0x30, 0xb0, 0x81, 0x07,
   0xc0, 0x01, 0x30, 0xc0, 0x0c, 0x30, 0x00, 0x0c, 0xc0, 0x00, 0x30, 0xc0,
   0x0c, 0x70, 0x00, 0x0c, 0xc0, 0xff, 0x0f, 0xc0, 0x0f, 0xe0, 0xff, 0x0f,
   0xc0, 0xff, 0x0f, 0xc0, 0x0f, 0xc0, 0xff, 0x0f, 0x00, 0x00, 0x0c, 0x00,
   0x00, 0xc0, 0x00, 0x00, 0x00, 0x00, 0x0c, 0x00, 0x00, 0xc0, 0x00, 0x00,
   0x00, 0x00, 0x0c, 0x00, 0x00, 0xc0, 0x00, 0x00, 0x00, 0x00, 0x0c, 0x00,
   0x00, 0xc0, 0x00, 0x00, 0x00, 0x00, 0x0c, 0x00, 0x00, 0xc0, 0x00, 0x00,
   0x00, 0x00, 0x0c, 0x00, 0x00, 0xc0, 0x00, 0x00, 0x00, 0x00, 0x0c, 0x0c,
   0xc0, 0xc0, 0x00, 0x00, 0x00, 0x00, 0x0c, 0x0c, 0xc0, 0xc0, 0x00, 0x00,
   0x00, 0x00, 0x0c, 0x0c, 0xc0, 0xe0, 0x00, 0x00, 0x00, 0x00, 0x1c, 0x0c,
   0xc0, 0xe0, 0x00, 0x00, 0x00, 0x00, 0x18, 0x0c, 0xc0, 0x70, 0x00, 0x00,
   0x00, 0x00, 0x18, 0x0c, 0xc0, 0x70, 0x00, 0x00, 0x00, 0x00, 0x38, 0x00,
   0x03, 0x30, 0x00, 0x00, 0x00, 0x00, 0x30, 0x00, 0x03, 0x78, 0x00, 0x00,
   0x00, 0x00, 0xf0, 0x00, 0x00, 0x7c, 0x00, 0x00, 0x00, 0x00, 0xf0, 0x01,
   0x00, 0x6e, 0x00, 0x00, 0x00, 0x00, 0xb0, 0x3f, 0xf0, 0xc7, 0x00, 0x00,
   0x00, 0x00, 0x90, 0x3f, 0xf0, 0xc3, 0x00, 0x00, 0x00, 0x00, 0x98, 0xf1,
   0x3f, 0x87, 0x00, 0x00, 0x00, 0x00, 0xd8, 0xf1, 0x3f, 0x86, 0x01, 0x00,
   0x00, 0x00, 0xcc, 0x31, 0x38, 0x86, 0x01, 0x00, 0x00, 0x00, 0xc4, 0x30,
   0x18, 0x06, 0x01, 0x00, 0x00, 0x00, 0xc4, 0x30, 0x18, 0x0e, 0x03, 0x00,
   0x00, 0x00, 0xc6, 0x30, 0x18, 0x1e, 0x00, 0x00, 0x00, 0x00, 0xc0, 0x30,
   0x18, 0x3e, 0x00, 0x00, 0x00, 0x00, 0xc0, 0x31, 0x18, 0x36, 0x00, 0x00,
   0x00, 0x00, 0x80, 0x33, 0x38, 0x36, 0x00, 0x00, 0x00, 0x00, 0x80, 0x33,
   0x38, 0x36, 0x00, 0x00, 0x00, 0x00, 0x00, 0x13, 0x10, 0x03, 0x00, 0x00,
   0x00, 0x00, 0x00, 0x1e, 0xf0, 0x03, 0x00, 0x00};
