#define dwleft2_width 64
#define dwleft2_height 64
static char dwleft2_bits[] = {
   0x00, 0x00, 0x00, 0x00, 0x00, 0x00, 0x00, 0x00, 0x00, 0x00, 0x00, 0x00,
   0x00, 0x00, 0x00, 0x00, 0x00, 0x00, 0x00, 0x00, 0x00, 0x00, 0x00, 0x00,
   0x00, 0x00, 0x00, 0x00, 0x00, 0x00, 0x00, 0x00, 0x00, 0x00, 0x00, 0x00,
   0x00, 0x00, 0x00, 0x00, 0x00, 0x00, 0x00, 0x00, 0x00, 0x00, 0x00, 0x00,
   0x00, 0x00, 0x00, 0xc0, 0xff, 0x0f, 0x00, 0x00, 0x00, 0x00, 0x00, 0xc0,
   0xff, 0x1f, 0x00, 0x00, 0x00, 0x00, 0x00, 0xfc, 0x00, 0x30, 0xfc, 0x0f,
   0x00, 0x00, 0x00, 0xfe, 0x00, 0x30, 0xfe, 0x1f, 0x00, 0x00, 0x00, 0xc3,
   0xc0, 0x1f, 0x07, 0x30, 0x00, 0x00, 0x00, 0xc7, 0xc1, 0x8f, 0x03, 0x30,
   0x00, 0x00, 0x00, 0x8e, 0xc3, 0xc0, 0xc1, 0x1f, 0x00, 0x00, 0x00, 0x1c,
   0xcf, 0xe1, 0xe0, 0x0f, 0x00, 0x00, 0x00, 0x3c, 0x8e, 0x7f, 0x70, 0x00,
   0x00, 0x00, 0x00, 0x78, 0x1c, 0x3f, 0x30, 0x00, 0x00, 0x00, 0x00, 0xef,
   0xf8, 0x03, 0x30, 0x00, 0x00, 0x00, 0x80, 0xc7, 0xf0, 0x03, 0x30, 0x00,
   0x00, 0x00, 0xc0, 0x01, 0x00, 0x00, 0x30, 0x00, 0x00, 0x00, 0xc0, 0x00,
   0x00, 0x00, 0x30, 0x00, 0x00, 0x80, 0xf3, 0x00, 0x00, 0x00, 0x30, 0x00,
   0x00, 0xc0, 0xf3, 0x00, 0x00, 0x00, 0x30, 0x00, 0x1c, 0xc0, 0x3f, 0x00,
   0x00, 0x00, 0x30, 0x00, 0x3c, 0xc0, 0x3f, 0x00, 0x00, 0x00, 0x30, 0x00,
   0xfc, 0xe1, 0x70, 0x00, 0x00, 0x00, 0x30, 0x00, 0xfc, 0xf3, 0xe0, 0x00,
   0x00, 0x00, 0x38, 0x00, 0x0c, 0x7f, 0xc0, 0x01, 0x00, 0x00, 0x1c, 0x00,
   0x0c, 0x3e, 0xc0, 0x03, 0x00, 0x00, 0x0e, 0x00, 0x0c, 0xfc, 0x87, 0x07,
   0x00, 0x00, 0x07, 0x00, 0x0c, 0xf8, 0x03, 0x0f, 0x00, 0x80, 0x03, 0x00,
   0x3c, 0xc0, 0x00, 0x0c, 0x00, 0xc0, 0x01, 0x00, 0x3c, 0x80, 0x01, 0x18,
   0x00, 0xf0, 0x00, 0x00, 0x30, 0x00, 0x00, 0x30, 0x00, 0xfc, 0x00, 0x00,
   0x30, 0x00, 0x00, 0x00, 0x00, 0x1e, 0x00, 0x00, 0x30, 0x00, 0x00, 0x00,
   0x00, 0x07, 0x00, 0x00, 0x30, 0x00, 0x00, 0x00, 0x80, 0x03, 0x00, 0x00,
   0x30, 0x00, 0x00, 0x00, 0x80, 0x01, 0x00, 0x00, 0x30, 0x00, 0x00, 0x00,
   0xc0, 0x01, 0x00, 0x00, 0x33, 0x03, 0x03, 0x3f, 0xc0, 0x00, 0x00, 0x00,
   0x36, 0x03, 0x83, 0x21, 0xe0, 0x00, 0x00, 0x00, 0x3c, 0x03, 0xc3, 0x00,
   0x60, 0x00, 0x00, 0x00, 0x38, 0x03, 0xc3, 0x00, 0x70, 0x00, 0x00, 0x00,
   0x30, 0x03, 0x03, 0xc0, 0x70, 0x00, 0x00, 0x00, 0x30, 0x03, 0x03, 0xe0,
   0x38, 0x00, 0x00, 0x00, 0x30, 0x00, 0x00, 0x30, 0x1c, 0x00, 0x00, 0x00,
   0x30, 0x18, 0x00, 0x38, 0x0e, 0x00, 0x00, 0x00, 0xf0, 0x3c, 0x00, 0x1f,
   0x07, 0x00, 0x00, 0x00, 0xf0, 0x19, 0xe0, 0x8f, 0x03, 0x00, 0x00, 0x00,
   0xc0, 0x03, 0xff, 0xc1, 0x01, 0x00, 0x00, 0x00, 0xc0, 0x07, 0x3f, 0xe0,
   0x00, 0x00, 0x00, 0x00, 0xc0, 0xff, 0x0f, 0x70, 0x00, 0x00, 0x00, 0x00,
   0xe0, 0xfc, 0x0f, 0x38, 0x00, 0x00, 0x00, 0x00, 0x60, 0x3c, 0x0c, 0x1c,
   0x00, 0x00, 0x00, 0x00, 0x70, 0x3c, 0x0c, 0x0c, 0x00, 0x00, 0x00, 0x00,
   0x30, 0x0c, 0x0c, 0x0c, 0x00, 0x00, 0x00, 0x00, 0x30, 0x0e, 0x1c, 0x0e,
   0x00, 0x00, 0x00, 0x00, 0x30, 0x0e, 0x1c, 0x07, 0x00, 0x00, 0x00, 0x00,
   0xf0, 0x07, 0x98, 0x03, 0x00, 0x00, 0x00, 0x00, 0xe0, 0x03, 0xf8, 0x01,
   0x00, 0x00, 0x00, 0x00, 0x80, 0x03, 0xf8, 0x00, 0x00, 0x00, 0x00, 0x00,
   0x00, 0x00, 0x00, 0x00, 0x00, 0x00, 0x00, 0x00, 0x00, 0x00, 0x00, 0x00,
   0x00, 0x00, 0x00, 0x00, 0x00, 0x00, 0x00, 0x00, 0x00, 0x00, 0x00, 0x00,
   0x00, 0x00, 0x00, 0x00, 0x00, 0x00, 0x00, 0x00};
