#define dwleft1_width 64
#define dwleft1_height 64
static char dwleft1_bits[] = {
   0x00, 0x00, 0x00, 0x00, 0x00, 0x00, 0x00, 0x00, 0x00, 0x00, 0x00, 0x00,
   0x00, 0x00, 0x00, 0x00, 0x00, 0x00, 0x00, 0x00, 0x00, 0x00, 0x00, 0x00,
   0x00, 0x00, 0x00, 0x00, 0x00, 0x00, 0x00, 0x00, 0x00, 0x00, 0x00, 0x00,
   0x00, 0xfc, 0x00, 0x00, 0x00, 0x00, 0x00, 0x00, 0x00, 0xff, 0x03, 0x00,
   0x00, 0x00, 0x00, 0x00, 0xe0, 0x03, 0x3f, 0x00, 0x00, 0x00, 0x00, 0x00,
   0xfc, 0x01, 0x7e, 0x00, 0x00, 0x00, 0x00, 0xf0, 0x3f, 0x00, 0xc0, 0x00,
   0x00, 0x00, 0x00, 0xf8, 0x1f, 0x00, 0xc0, 0x00, 0x00, 0x00, 0x00, 0x1c,
   0x00, 0xff, 0x7f, 0x00, 0x00, 0x00, 0x00, 0x0e, 0x00, 0xfc, 0x3f, 0x00,
   0x00, 0x00, 0x00, 0x07, 0x00, 0xf0, 0x01, 0x00, 0x00, 0x00, 0x80, 0x03,
   0x00, 0xf0, 0x03, 0x00, 0x00, 0x00, 0xc0, 0x01, 0x00, 0x00, 0x07, 0x00,
   0x00, 0x00, 0xc0, 0x00, 0x00, 0x00, 0x0f, 0x00, 0xc0, 0x03, 0xff, 0x00,
   0x00, 0x00, 0x1c, 0x00, 0xc0, 0x07, 0xff, 0x00, 0x00, 0x00, 0x18, 0x00,
   0xc0, 0x0e, 0xf3, 0x00, 0x00, 0x00, 0x18, 0x00, 0xc0, 0x1c, 0xf3, 0x00,
   0x00, 0x00, 0x38, 0x00, 0xc0, 0x38, 0xc3, 0x00, 0x00, 0x03, 0x38, 0x00,
   0xc0, 0x70, 0xc3, 0x00, 0x80, 0x03, 0x30, 0x00, 0xc0, 0xe0, 0x03, 0x03,
   0xc0, 0x01, 0x30, 0x00, 0xc0, 0xc0, 0x01, 0x03, 0xe0, 0x00, 0x30, 0x00,
   0xc0, 0x00, 0x00, 0x0c, 0x70, 0x00, 0x30, 0x00, 0xc0, 0x00, 0x00, 0x0c,
   0x30, 0x00, 0x38, 0x00, 0xc0, 0x00, 0x00, 0x30, 0x30, 0x00, 0x38, 0x00,
   0xc0, 0x00, 0x00, 0x30, 0x30, 0x00, 0x18, 0x00, 0xe0, 0x00, 0x00, 0x30,
   0x30, 0x00, 0x1c, 0x00, 0x60, 0x00, 0x00, 0x30, 0x30, 0x00, 0x1c, 0x00,
   0x70, 0x0c, 0x0c, 0x30, 0x30, 0x00, 0x0c, 0x00, 0x30, 0x0c, 0x0c, 0x30,
   0x70, 0x00, 0x0c, 0x00, 0x30, 0x0c, 0x0c, 0x30, 0x60, 0x00, 0x0c, 0x00,
   0x30, 0x0c, 0x0c, 0x78, 0x60, 0x00, 0x0c, 0x00, 0x30, 0x0c, 0x0c, 0xff,
   0xe0, 0x00, 0x0c, 0x00, 0x3c, 0x0c, 0x0c, 0xc7, 0xc0, 0x00, 0x0c, 0x00,
   0x33, 0x00, 0x00, 0x03, 0xc0, 0x00, 0x0e, 0x00, 0x30, 0x00, 0x00, 0x00,
   0xc0, 0x00, 0x0e, 0x00, 0x30, 0x18, 0x00, 0x00, 0xc0, 0x01, 0x06, 0x00,
   0x30, 0x3c, 0x00, 0x00, 0xc0, 0x01, 0x06, 0x00, 0x30, 0x00, 0x00, 0x80,
   0x01, 0x03, 0x07, 0x00, 0x70, 0x00, 0x00, 0x80, 0x01, 0x83, 0x03, 0x00,
   0xe0, 0x38, 0x00, 0x0c, 0x83, 0xc3, 0x01, 0x00, 0xc0, 0xfd, 0x00, 0x0e,
   0x87, 0xc3, 0x00, 0x00, 0x80, 0xff, 0xff, 0x07, 0xce, 0xc1, 0x00, 0x00,
   0x00, 0xfe, 0xff, 0x07, 0xcc, 0xe0, 0x00, 0x00, 0x00, 0xf8, 0xe0, 0x03,
   0xcc, 0x70, 0x00, 0x00, 0x00, 0xf0, 0x81, 0x03, 0xdc, 0x30, 0x00, 0x00,
   0x00, 0xc0, 0xc3, 0x0f, 0xf8, 0x30, 0x00, 0x00, 0x00, 0x00, 0x87, 0x0f,
   0xf0, 0x38, 0x00, 0x00, 0x00, 0x00, 0x8e, 0xff, 0x70, 0x1c, 0x00, 0x00,
   0x00, 0x00, 0xfc, 0xff, 0x30, 0x0e, 0x00, 0x00, 0x00, 0x00, 0xf8, 0xc0,
   0x3f, 0x0f, 0x00, 0x00, 0x00, 0x00, 0xe0, 0xc0, 0x3f, 0x07, 0x00, 0x00,
   0x00, 0x00, 0x00, 0x00, 0xf0, 0x03, 0x00, 0x00, 0x00, 0x00, 0x00, 0x00,
   0xf0, 0x03, 0x00, 0x00, 0x00, 0x00, 0x00, 0x00, 0x00, 0x00, 0x00, 0x00,
   0x00, 0x00, 0x00, 0x00, 0x00, 0x00, 0x00, 0x00, 0x00, 0x00, 0x00, 0x00,
   0x00, 0x00, 0x00, 0x00, 0x00, 0x00, 0x00, 0x00, 0x00, 0x00, 0x00, 0x00,
   0x00, 0x00, 0x00, 0x00, 0x00, 0x00, 0x00, 0x00, 0x00, 0x00, 0x00, 0x00,
   0x00, 0x00, 0x00, 0x00, 0x00, 0x00, 0x00, 0x00, 0x00, 0x00, 0x00, 0x00,
   0x00, 0x00, 0x00, 0x00, 0x00, 0x00, 0x00, 0x00};
