#define dwright1_width 64
#define dwright1_height 64
static char dwright1_bits[] = {
   0x00, 0x00, 0x00, 0x00, 0x00, 0x00, 0x00, 0x00, 0x00, 0x00, 0x00, 0x00,
   0x00, 0x00, 0x00, 0x00, 0x00, 0x00, 0x00, 0x00, 0x00, 0x00, 0x00, 0x00,
   0x00, 0x00, 0x00, 0x00, 0x00, 0x00, 0x00, 0x00, 0x00, 0x00, 0x3f, 0x00,
   0x00, 0x00, 0x00, 0x00, 0x00, 0x80, 0x7f, 0x00, 0x00, 0x00, 0x00, 0x00,
   0x00, 0xfc, 0xf1, 0x0f, 0x00, 0x00, 0x00, 0x00, 0x00, 0xfe, 0xc0, 0x1f,
   0x00, 0x00, 0x00, 0x00, 0x00, 0x03, 0x00, 0xfc, 0x03, 0x00, 0x00, 0x00,
   0x00, 0x03, 0x00, 0xf0, 0x1f, 0x00, 0x00, 0x00, 0x00, 0xfe, 0xff, 0x00,
   0x3e, 0x00, 0x00, 0x00, 0x00, 0xfc, 0x7f, 0x00, 0x70, 0x00, 0x00, 0x00,
   0x00, 0xc0, 0x0f, 0x00, 0xe0, 0x00, 0x00, 0x00, 0x00, 0xe0, 0x01, 0x00,
   0xc0, 0x01, 0x00, 0x00, 0x00, 0xe0, 0x00, 0x00, 0x80, 0x03, 0x00, 0x00,
   0x00, 0xf8, 0x00, 0x00, 0x00, 0x1b, 0x80, 0x01, 0x00, 0x78, 0x00, 0x00,
   0x00, 0x7f, 0xc0, 0x03, 0x00, 0x3c, 0x00, 0x00, 0x00, 0xff, 0xe0, 0x03,
   0x00, 0x1c, 0x00, 0x00, 0x00, 0xef, 0x30, 0x03, 0x00, 0x1c, 0x00, 0x00,
   0x00, 0xc7, 0x38, 0x03, 0x00, 0x1c, 0xc0, 0x00, 0x00, 0xc3, 0x1c, 0x03,
   0x00, 0x0c, 0xc0, 0x01, 0x80, 0xc3, 0x0e, 0x03, 0x00, 0x0c, 0x80, 0x03,
   0xc0, 0xc1, 0x07, 0x03, 0x00, 0x0c, 0x00, 0x07, 0xe0, 0xc0, 0x03, 0x03,
   0x00, 0x0c, 0x00, 0x0e, 0x70, 0x00, 0x00, 0x03, 0x00, 0x1c, 0x00, 0x0c,
   0x38, 0x00, 0x00, 0x03, 0x00, 0x1c, 0x00, 0x0c, 0x1c, 0x00, 0x00, 0x03,
   0x00, 0x1c, 0x00, 0x0c, 0x0c, 0x00, 0x00, 0x07, 0x00, 0x38, 0x00, 0x0c,
   0x0c, 0x00, 0x00, 0x07, 0x00, 0x38, 0x00, 0x0c, 0x0c, 0x00, 0x00, 0x07,
   0x00, 0x30, 0x00, 0x0c, 0x0c, 0x30, 0x30, 0x0e, 0x00, 0x30, 0x00, 0x0e,
   0x0c, 0x30, 0x30, 0x0e, 0x00, 0x30, 0x00, 0x06, 0x0c, 0x30, 0x30, 0x0c,
   0x00, 0x30, 0x00, 0x06, 0x0c, 0x30, 0x30, 0x0c, 0x00, 0x30, 0x00, 0x07,
   0xff, 0x30, 0x30, 0x0c, 0x00, 0x30, 0x00, 0x03, 0x3f, 0x30, 0x30, 0xfc,
   0x00, 0x30, 0x00, 0x03, 0x00, 0x00, 0x00, 0xcc, 0x00, 0x30, 0x80, 0x03,
   0x00, 0x00, 0x00, 0x0c, 0x00, 0x70, 0x80, 0x03, 0x00, 0x00, 0x3f, 0x0c,
   0x00, 0x70, 0x80, 0x03, 0x00, 0x00, 0x1e, 0x0c, 0x00, 0xe0, 0xc0, 0xc1,
   0x00, 0x00, 0x00, 0x0e, 0x00, 0xc0, 0xc1, 0xc0, 0x00, 0x00, 0x00, 0x0e,
   0x00, 0x80, 0xc3, 0xe0, 0x30, 0x00, 0x3e, 0x07, 0x00, 0x00, 0xc3, 0xe0,
   0x70, 0x00, 0xbe, 0x03, 0x00, 0x00, 0x03, 0x73, 0xe0, 0x8f, 0xe7, 0x01,
   0x00, 0x00, 0x07, 0x73, 0xc0, 0xff, 0xff, 0x00, 0x00, 0x00, 0x0e, 0x33,
   0xc0, 0xff, 0x3f, 0x00, 0x00, 0x00, 0x0c, 0x3b, 0xc0, 0x87, 0x0f, 0x00,
   0x00, 0x00, 0x0c, 0x1f, 0xf0, 0xf1, 0x00, 0x00, 0x00, 0x00, 0x1c, 0x0f,
   0xf0, 0xff, 0x00, 0x00, 0x00, 0x00, 0x38, 0x0c, 0xff, 0x3f, 0x00, 0x00,
   0x00, 0x00, 0x30, 0x8c, 0xff, 0x3f, 0x00, 0x00, 0x00, 0x00, 0xf0, 0xfc,
   0x83, 0x0f, 0x00, 0x00, 0x00, 0x00, 0xe0, 0xfc, 0x00, 0x07, 0x00, 0x00,
   0x00, 0x00, 0xc0, 0x0f, 0x00, 0x00, 0x00, 0x00, 0x00, 0x00, 0x80, 0x07,
   0x00, 0x00, 0x00, 0x00, 0x00, 0x00, 0x00, 0x00, 0x00, 0x00, 0x00, 0x00,
   0x00, 0x00, 0x00, 0x00, 0x00, 0x00, 0x00, 0x00, 0x00, 0x00, 0x00, 0x00,
   0x00, 0x00, 0x00, 0x00, 0x00, 0x00, 0x00, 0x00, 0x00, 0x00, 0x00, 0x00,
   0x00, 0x00, 0x00, 0x00, 0x00, 0x00, 0x00, 0x00, 0x00, 0x00, 0x00, 0x00,
   0x00, 0x00, 0x00, 0x00, 0x00, 0x00, 0x00, 0x00, 0x00, 0x00, 0x00, 0x00,
   0x00, 0x00, 0x00, 0x00, 0x00, 0x00, 0x00, 0x00};
