#define dwright2_width 64
#define dwright2_height 64
static char dwright2_bits[] = {
   0x00, 0x00, 0x00, 0x00, 0x00, 0x00, 0x00, 0x00, 0x00, 0x00, 0x00, 0x00,
   0x00, 0x00, 0x00, 0x00, 0x00, 0x00, 0x00, 0x00, 0x00, 0x00, 0x00, 0x00,
   0x00, 0x00, 0x00, 0x00, 0x00, 0x00, 0x00, 0x00, 0x00, 0x00, 0x00, 0x00,
   0x00, 0x00, 0x00, 0x00, 0x00, 0x00, 0x00, 0x00, 0x00, 0x00, 0x00, 0x00,
   0x00, 0x00, 0xf0, 0xff, 0x03, 0x00, 0x00, 0x00, 0x00, 0x00, 0xf8, 0xff,
   0x03, 0x00, 0x00, 0x00, 0xf0, 0x3f, 0x0c, 0x00, 0x3f, 0x00, 0x00, 0x00,
   0xf8, 0x7f, 0x0c, 0x00, 0x7f, 0x00, 0x00, 0x00, 0x0c, 0xe0, 0xf8, 0x03,
   0xc3, 0x00, 0x00, 0x00, 0x0c, 0xc0, 0xf1, 0x83, 0xc3, 0x00, 0x00, 0x00,
   0xf8, 0x83, 0x03, 0xc3, 0x71, 0x00, 0x00, 0x00, 0xf0, 0x07, 0x87, 0xe3,
   0x30, 0x00, 0x00, 0x00, 0x00, 0x0e, 0xfe, 0x71, 0x7c, 0x00, 0x00, 0x00,
   0x00, 0x0c, 0xfc, 0x38, 0x7e, 0x00, 0x00, 0x00, 0x00, 0x1c, 0xc0, 0x1f,
   0xe7, 0x00, 0x00, 0x00, 0x00, 0x18, 0xc0, 0x0f, 0xc3, 0x01, 0x00, 0x00,
   0x00, 0x18, 0x00, 0x00, 0x80, 0x03, 0x00, 0x00, 0x00, 0x18, 0x00, 0x00,
   0x00, 0x03, 0x00, 0x00, 0x00, 0x1c, 0x00, 0x00, 0x00, 0xcf, 0x01, 0x00,
   0x00, 0x0c, 0x00, 0x00, 0x00, 0xcf, 0x03, 0x00, 0x00, 0x0c, 0x00, 0x00,
   0x00, 0xfc, 0x03, 0x38, 0x00, 0x0c, 0x00, 0x00, 0x00, 0xfc, 0x03, 0x3c,
   0x00, 0x0c, 0x00, 0x00, 0x00, 0x0f, 0xcf, 0x3f, 0x00, 0x1c, 0x00, 0x00,
   0x00, 0x07, 0xcf, 0x37, 0x00, 0x38, 0x00, 0x00, 0xc0, 0x03, 0xff, 0x30,
   0x00, 0x70, 0x00, 0x00, 0xe0, 0x01, 0xfc, 0x30, 0x00, 0xe0, 0x00, 0x00,
   0xf0, 0xc0, 0x3f, 0x38, 0x00, 0xc0, 0x01, 0x00, 0x78, 0x80, 0x1f, 0x38,
   0x00, 0x80, 0x03, 0x00, 0x3c, 0x00, 0x03, 0x1c, 0x00, 0x00, 0x07, 0x00,
   0x3c, 0x00, 0x03, 0x1c, 0x00, 0x00, 0x0e, 0x00, 0x0e, 0x00, 0x00, 0x0c,
   0x00, 0x00, 0x7c, 0x00, 0x06, 0x00, 0x00, 0x0c, 0x00, 0x00, 0xf0, 0x00,
   0x07, 0x00, 0x00, 0x0c, 0x00, 0x00, 0xc0, 0x01, 0x03, 0x00, 0x00, 0x0c,
   0x00, 0x00, 0x80, 0x03, 0x00, 0x00, 0x00, 0x0c, 0x00, 0x00, 0x00, 0x03,
   0x00, 0x00, 0x00, 0x0c, 0x00, 0x00, 0x00, 0x03, 0xfc, 0xc0, 0xc0, 0xcc,
   0x00, 0x00, 0x00, 0x07, 0xfc, 0xc1, 0xc0, 0x6c, 0x00, 0x00, 0x00, 0x0e,
   0xc0, 0xc3, 0xc0, 0x3c, 0x00, 0x00, 0x00, 0x0c, 0x00, 0xc3, 0xc0, 0x1c,
   0x00, 0x00, 0x00, 0x0c, 0x03, 0xc0, 0xc0, 0x0c, 0x00, 0x00, 0x00, 0x1c,
   0x07, 0xc0, 0xc0, 0x0c, 0x00, 0x00, 0x00, 0x38, 0x0e, 0x00, 0x00, 0x0c,
   0x00, 0x00, 0x00, 0x70, 0x3c, 0x00, 0x38, 0x0c, 0x00, 0x00, 0x00, 0xe0,
   0xf8, 0x00, 0x7c, 0x0f, 0x00, 0x00, 0x00, 0xc0, 0xe1, 0x01, 0x38, 0x0f,
   0x00, 0x00, 0x00, 0x80, 0x83, 0xff, 0xc0, 0x03, 0x00, 0x00, 0x00, 0x00,
   0x07, 0xff, 0xc0, 0x03, 0x00, 0x00, 0x00, 0x00, 0x0e, 0xf0, 0xff, 0x03,
   0x00, 0x00, 0x00, 0x00, 0x1c, 0xf0, 0xff, 0x03, 0x00, 0x00, 0x00, 0x00,
   0x18, 0x30, 0x2c, 0x0f, 0x00, 0x00, 0x00, 0x00, 0x38, 0x30, 0x3c, 0x0f,
   0x00, 0x00, 0x00, 0x00, 0x30, 0x30, 0x18, 0x0f, 0x00, 0x00, 0x00, 0x00,
   0x70, 0x30, 0x38, 0x0c, 0x00, 0x00, 0x00, 0x00, 0xe0, 0x30, 0x78, 0x0e,
   0x00, 0x00, 0x00, 0x00, 0xc0, 0x39, 0xf0, 0x0f, 0x00, 0x00, 0x00, 0x00,
   0x80, 0x3f, 0xc0, 0x03, 0x00, 0x00, 0x00, 0x00, 0x00, 0x1f, 0x80, 0x01,
   0x00, 0x00, 0x00, 0x00, 0x00, 0x00, 0x00, 0x00, 0x00, 0x00, 0x00, 0x00,
   0x00, 0x00, 0x00, 0x00, 0x00, 0x00, 0x00, 0x00, 0x00, 0x00, 0x00, 0x00,
   0x00, 0x00, 0x00, 0x00, 0x00, 0x00, 0x00, 0x00};
