#define jare2_width 64
#define jare2_height 64
static char jare2_bits[] = {
   0x00, 0x00, 0x00, 0x00, 0x00, 0x00, 0x00, 0x00, 0x00, 0x00, 0x00, 0x00,
   0x00, 0x00, 0x00, 0x00, 0x00, 0x00, 0x00, 0x00, 0x00, 0x00, 0x00, 0x00,
   0x00, 0x00, 0x00, 0x00, 0x00, 0x00, 0x00, 0x00, 0x00, 0x00, 0x00, 0x0f,
   0x00, 0x00, 0x00, 0x00, 0x00, 0x00, 0x00, 0x1f, 0x00, 0x00, 0x00, 0x00,
   0x00, 0x00, 0x00, 0xf3, 0x00, 0x00, 0x00, 0x00, 0x00, 0x00, 0x00, 0xe3,
   0x01, 0x00, 0x00, 0x00, 0x00, 0x00, 0x00, 0x83, 0x03, 0x00, 0x00, 0x00,
   0x00, 0x00, 0x00, 0x03, 0x07, 0x00, 0x00, 0x00, 0x00, 0x00, 0x00, 0x03,
   0x0e, 0x00, 0x00, 0x00, 0x00, 0x00, 0x00, 0x03, 0x1c, 0x00, 0x00, 0x00,
   0x00, 0xfc, 0x00, 0x03, 0x78, 0x00, 0x00, 0x00, 0x00, 0xfc, 0x07, 0x03,
   0xf0, 0x01, 0x00, 0x00, 0x00, 0x8c, 0x3f, 0x0f, 0xc0, 0x03, 0x00, 0x00,
   0x00, 0x0c, 0x7e, 0x0f, 0x00, 0x07, 0x00, 0x00, 0x00, 0x0c, 0xf0, 0x03,
   0x00, 0x0e, 0x00, 0x00, 0x00, 0x1c, 0xc0, 0x03, 0x00, 0x1c, 0x00, 0x00,
   0x00, 0x38, 0x00, 0x00, 0x03, 0x38, 0x00, 0x00, 0x00, 0x38, 0x00, 0x00,
   0x07, 0x30, 0x00, 0x00, 0x00, 0x30, 0x00, 0x00, 0x0e, 0x30, 0x00, 0x00,
   0x00, 0x30, 0x00, 0x00, 0x0c, 0x31, 0x00, 0x00, 0x00, 0x30, 0x00, 0x00,
   0x00, 0x31, 0x00, 0x00, 0x00, 0x70, 0x00, 0x00, 0x80, 0x31, 0x00, 0x00,
   0x00, 0x70, 0xc0, 0x00, 0xc0, 0x30, 0x00, 0x00, 0x00, 0x70, 0xc0, 0x81,
   0x63, 0x30, 0x00, 0x00, 0x00, 0xe0, 0x80, 0xc3, 0x01, 0x30, 0x00, 0x00,
   0x00, 0xc0, 0x00, 0xc3, 0x00, 0x3c, 0x00, 0x00, 0x00, 0xc0, 0x01, 0x40,
   0xf0, 0x1f, 0x00, 0x00, 0x00, 0xc0, 0x01, 0x00, 0xf8, 0x0f, 0x00, 0x00,
   0x00, 0x80, 0xc3, 0x0f, 0x1c, 0x0c, 0x00, 0x00, 0x00, 0x00, 0x07, 0x0c,
   0x0c, 0x1c, 0x00, 0x00, 0x00, 0x00, 0x0e, 0x00, 0x38, 0x30, 0x00, 0x00,
   0x00, 0x00, 0x1c, 0x00, 0x30, 0x30, 0x00, 0x00, 0x00, 0x00, 0xf8, 0x3f,
   0xf0, 0x3f, 0x00, 0x00, 0x00, 0x00, 0xf0, 0x3f, 0xf0, 0x3f, 0x00, 0x00,
   0x00, 0x00, 0x00, 0x30, 0x30, 0x30, 0x00, 0x00, 0x00, 0x00, 0x00, 0x38,
   0x30, 0x30, 0x00, 0x00, 0x00, 0x00, 0x00, 0x1c, 0x3c, 0x30, 0x00, 0x00,
   0x00, 0x00, 0x00, 0x0e, 0x1c, 0x30, 0x00, 0x00, 0x00, 0x00, 0x00, 0x07,
   0x00, 0x30, 0x00, 0x00, 0x00, 0x00, 0x80, 0x03, 0x00, 0x38, 0x00, 0x00,
   0x00, 0x00, 0xc0, 0x01, 0x00, 0x1f, 0x00, 0x00, 0x00, 0x00, 0xc0, 0x00,
   0x00, 0x0f, 0x00, 0x00, 0x00, 0x00, 0xcf, 0x00, 0x30, 0xcc, 0x03, 0x00,
   0x00, 0x80, 0xdf, 0x00, 0x38, 0xec, 0x07, 0x00, 0x00, 0xc0, 0xf8, 0x00,
   0x1f, 0x7c, 0x0c, 0x00, 0x00, 0xe0, 0xf0, 0x00, 0x0f, 0x38, 0x1c, 0x00,
   0x00, 0x70, 0xc0, 0x03, 0x03, 0x00, 0x30, 0x00, 0x00, 0x30, 0xc0, 0x03,
   0x03, 0x00, 0x30, 0x00, 0x00, 0x30, 0x00, 0x03, 0x03, 0x00, 0xf0, 0x0f,
   0x00, 0x30, 0x00, 0x03, 0x03, 0x00, 0xf0, 0x1f, 0x00, 0xf0, 0x03, 0x03,
   0x33, 0x00, 0x3f, 0x30, 0x00, 0xf0, 0x00, 0x03, 0x3b, 0x00, 0x3c, 0x30,
   0x00, 0x3c, 0x00, 0xc3, 0x1f, 0x00, 0xf0, 0x1f, 0x00, 0x3c, 0x00, 0xc3,
   0x0f, 0x00, 0xf0, 0x0f, 0x00, 0xfc, 0xff, 0xff, 0xfc, 0xff, 0xff, 0x00,
   0x00, 0xfc, 0xff, 0xff, 0xfc, 0xff, 0xff, 0x00, 0x00, 0x00, 0x00, 0x00,
   0x00, 0x00, 0x00, 0x00, 0x00, 0x00, 0x00, 0x00, 0x00, 0x00, 0x00, 0x00,
   0x00, 0x00, 0x00, 0x00, 0x00, 0x00, 0x00, 0x00, 0x00, 0x00, 0x00, 0x00,
   0x00, 0x00, 0x00, 0x00, 0x00, 0x00, 0x00, 0x00, 0x00, 0x00, 0x00, 0x00,
   0x00, 0x00, 0x00, 0x00, 0x00, 0x00, 0x00, 0x00};
