#define kaki1_width 64
#define kaki1_height 64
static char kaki1_bits[] = {
   0x00, 0x00, 0x00, 0x00, 0x00, 0x00, 0x00, 0x00, 0x00, 0x00, 0x00, 0x00,
   0x00, 0x00, 0x00, 0x00, 0x00, 0x00, 0x00, 0x00, 0x00, 0x00, 0x00, 0x00,
   0x00, 0x00, 0x00, 0x00, 0x00, 0x00, 0x00, 0x00, 0x00, 0x00, 0x00, 0x00,
   0x00, 0x00, 0x00, 0x00, 0x00, 0x00, 0x00, 0x00, 0x00, 0x00, 0x00, 0x00,
   0x00, 0x00, 0x00, 0x00, 0x00, 0x00, 0x00, 0x00, 0x00, 0x00, 0x00, 0x00,
   0x00, 0x00, 0x00, 0x00, 0x00, 0x00, 0x38, 0x00, 0x00, 0x00, 0x00, 0x00,
   0x00, 0x00, 0x7c, 0x00, 0x00, 0x00, 0x00, 0x00, 0x00, 0x00, 0xdc, 0x03,
   0x00, 0x00, 0x00, 0x00, 0x00, 0x00, 0xcc, 0x07, 0x00, 0x00, 0x00, 0x00,
   0x00, 0x00, 0x0c, 0x3f, 0x00, 0x00, 0x00, 0x00, 0x00, 0x00, 0x0c, 0x7c,
   0x00, 0x00, 0x00, 0x00, 0x00, 0x00, 0x0c, 0xe0, 0x00, 0x00, 0x00, 0x00,
   0x00, 0x00, 0x0c, 0xc0, 0x01, 0x00, 0x00, 0x00, 0x00, 0x00, 0x0c, 0x80,
   0x0f, 0x00, 0x00, 0x00, 0x00, 0x00, 0x0c, 0x00, 0x1f, 0x00, 0x00, 0x00,
   0xe0, 0x0f, 0x0c, 0x00, 0x3c, 0x0f, 0x00, 0x00, 0xf0, 0x1f, 0x0c, 0x00,
   0xf0, 0x1f, 0x00, 0x00, 0x30, 0xf8, 0x0f, 0x00, 0xe0, 0x33, 0x00, 0x00,
   0x70, 0xf0, 0x07, 0x00, 0xc0, 0x33, 0x00, 0x00, 0xe0, 0x00, 0x00, 0x00,
   0xc0, 0x33, 0x00, 0x00, 0xc0, 0x00, 0x00, 0x00, 0xc0, 0x33, 0x00, 0x00,
   0xc0, 0x01, 0x00, 0x0c, 0xc0, 0x33, 0x00, 0x00, 0x80, 0x01, 0x00, 0x0e,
   0xc0, 0x33, 0x00, 0x00, 0x00, 0x03, 0x00, 0x07, 0xc0, 0xf3, 0x00, 0x00,
   0x00, 0x07, 0x80, 0x03, 0xc0, 0xf3, 0x01, 0x00, 0x00, 0x0c, 0xc0, 0x01,
   0xc0, 0x83, 0x03, 0x00, 0x00, 0x0c, 0xe0, 0x00, 0xc0, 0x03, 0x07, 0x00,
   0x00, 0x0e, 0xe0, 0xf0, 0xc0, 0x03, 0x0e, 0x00, 0x00, 0x06, 0x40, 0x38,
   0xc0, 0x03, 0x1c, 0x00, 0x00, 0xf6, 0x07, 0x0c, 0xc0, 0x03, 0x38, 0x00,
   0x00, 0xf6, 0x07, 0x04, 0xe0, 0x03, 0x70, 0x00, 0x00, 0x0e, 0x00, 0x00,
   0x70, 0x0f, 0xe0, 0x00, 0x00, 0x0c, 0x60, 0x00, 0x30, 0x0f, 0xc0, 0x00,
   0x00, 0xfc, 0x73, 0x00, 0x30, 0x0c, 0xc0, 0x00, 0x00, 0xfc, 0x33, 0x00,
   0x70, 0x0c, 0xc0, 0x00, 0x00, 0xf0, 0x00, 0x3c, 0xe0, 0x0f, 0xc0, 0x00,
   0x00, 0xf0, 0x00, 0x3c, 0xc0, 0x0f, 0xc0, 0x00, 0x00, 0x00, 0xff, 0x03,
   0x00, 0x03, 0xc0, 0x00, 0x00, 0x00, 0xff, 0x03, 0x00, 0x03, 0xc0, 0x00,
   0x00, 0x00, 0xc0, 0x00, 0x00, 0x0e, 0xc0, 0x00, 0x00, 0x00, 0xc0, 0x00,
   0x00, 0x0c, 0xc0, 0x00, 0x00, 0x00, 0xcf, 0x00, 0x00, 0x0c, 0xc0, 0x00,
   0x00, 0x80, 0xdf, 0x00, 0x00, 0x0c, 0xc0, 0x00, 0x00, 0xc0, 0xf9, 0x00,
   0x03, 0x0c, 0xf0, 0x00, 0x00, 0xe0, 0xf0, 0x00, 0x03, 0x0c, 0xf0, 0x00,
   0x00, 0x70, 0xc0, 0x03, 0x03, 0x0f, 0x30, 0x00, 0x00, 0x38, 0xc0, 0x03,
   0x03, 0x0f, 0x38, 0x00, 0x00, 0x18, 0x00, 0x03, 0x03, 0x03, 0x1c, 0x00,
   0x00, 0x38, 0x00, 0x03, 0x03, 0x03, 0x0c, 0x00, 0x00, 0xf8, 0x03, 0x03,
   0x03, 0xc3, 0xff, 0x3f, 0x00, 0xf0, 0x03, 0x03, 0x03, 0xc3, 0xff, 0x7f,
   0x00, 0x38, 0x00, 0x83, 0x07, 0xff, 0x00, 0xc0, 0x00, 0x3c, 0x00, 0xc3,
   0x0f, 0xff, 0x00, 0xc0, 0x00, 0xfc, 0xff, 0xff, 0xfc, 0xff, 0xff, 0x7f,
   0x00, 0xfc, 0xff, 0xff, 0xfc, 0xff, 0xff, 0x3f, 0x00, 0x00, 0x00, 0x00,
   0x00, 0x00, 0x00, 0x00, 0x00, 0x00, 0x00, 0x00, 0x00, 0x00, 0x00, 0x00,
   0x00, 0x00, 0x00, 0x00, 0x00, 0x00, 0x00, 0x00, 0x00, 0x00, 0x00, 0x00,
   0x00, 0x00, 0x00, 0x00, 0x00, 0x00, 0x00, 0x00, 0x00, 0x00, 0x00, 0x00,
   0x00, 0x00, 0x00, 0x00, 0x00, 0x00, 0x00, 0x00};
