#define kaki2_width 64
#define kaki2_height 64
static char kaki2_bits[] = {
   0x00, 0x00, 0x00, 0x00, 0x00, 0x00, 0x00, 0x00, 0x00, 0x00, 0x00, 0x00,
   0x00, 0x00, 0x00, 0x00, 0x00, 0x00, 0x00, 0x00, 0x00, 0x00, 0x00, 0x00,
   0x00, 0x00, 0x00, 0x00, 0x00, 0x00, 0x00, 0x00, 0x00, 0x00, 0x00, 0x00,
   0x00, 0x00, 0x00, 0x00, 0x00, 0x00, 0x00, 0x00, 0x00, 0x00, 0x00, 0x00,
   0x00, 0x00, 0x00, 0x00, 0x00, 0x00, 0x00, 0x00, 0x00, 0x00, 0x00, 0x00,
   0x00, 0x00, 0x00, 0x00, 0x00, 0x00, 0x00, 0x0c, 0x00, 0x00, 0x00, 0x00,
   0x00, 0x00, 0x00, 0x1e, 0x00, 0x00, 0x00, 0x00, 0x00, 0x00, 0x00, 0x33,
   0x00, 0x00, 0x00, 0x00, 0x00, 0x00, 0x00, 0x73, 0x00, 0x00, 0x00, 0x00,
   0x00, 0x0c, 0x00, 0xe3, 0x00, 0x00, 0x00, 0x00, 0x00, 0x1e, 0x80, 0xc3,
   0x01, 0x00, 0x00, 0x00, 0x00, 0x3b, 0x80, 0x81, 0x03, 0x00, 0x00, 0x00,
   0x00, 0x73, 0x80, 0x01, 0x07, 0x00, 0x00, 0x00, 0x00, 0xe3, 0xc0, 0x01,
   0x0e, 0x00, 0x00, 0x00, 0x00, 0xc3, 0xc1, 0x00, 0x1c, 0x00, 0x00, 0x00,
   0x00, 0x83, 0xc3, 0x00, 0x38, 0x00, 0x00, 0x00, 0x00, 0x03, 0xe7, 0x00,
   0x70, 0x00, 0x00, 0x00, 0x00, 0x03, 0x7e, 0x00, 0x60, 0x00, 0x00, 0x00,
   0x00, 0x07, 0x3c, 0x00, 0x60, 0x00, 0x00, 0x00, 0x00, 0x07, 0x00, 0x00,
   0xe0, 0x00, 0x00, 0x00, 0x00, 0x06, 0x00, 0x00, 0xc0, 0x01, 0x00, 0x00,
   0x00, 0x06, 0x00, 0x00, 0x80, 0x01, 0x00, 0x00, 0x00, 0x0e, 0x00, 0x00,
   0x80, 0x03, 0x00, 0x00, 0x00, 0x0e, 0x00, 0xc0, 0x00, 0x03, 0x00, 0x00,
   0x00, 0x0c, 0x00, 0xf0, 0x00, 0x03, 0x00, 0x00, 0x00, 0x0c, 0x00, 0x3c,
   0x80, 0x03, 0x00, 0x00, 0x00, 0x0c, 0x00, 0x0e, 0x80, 0x01, 0x00, 0x00,
   0x00, 0x0c, 0x00, 0x07, 0xc0, 0x01, 0x00, 0x00, 0x00, 0x0c, 0x00, 0x03,
   0xc0, 0x00, 0x00, 0x00, 0x00, 0xfc, 0x03, 0xc0, 0xc3, 0xff, 0x03, 0x00,
   0x00, 0xfc, 0x03, 0x60, 0xc0, 0xff, 0x1f, 0x00, 0x00, 0x0c, 0x00, 0x3c,
   0xc0, 0x03, 0x3e, 0x00, 0x00, 0x0c, 0x00, 0x04, 0xc0, 0x03, 0x70, 0x00,
   0x00, 0x1c, 0x73, 0xf0, 0xff, 0x00, 0xe0, 0x00, 0x00, 0xbc, 0x71, 0xf0,
   0xff, 0x00, 0xc0, 0x00, 0x00, 0xf8, 0x00, 0xfc, 0x00, 0x00, 0xc0, 0x00,
   0x00, 0xf0, 0x03, 0xfe, 0x00, 0x00, 0xc0, 0x00, 0x00, 0x80, 0xff, 0xc7,
   0x03, 0x03, 0xc0, 0x00, 0x00, 0x00, 0xff, 0xc3, 0x87, 0x07, 0xc0, 0x00,
   0x00, 0x00, 0xc0, 0x00, 0xfe, 0x0c, 0xc0, 0x00, 0x00, 0x00, 0xc0, 0x00,
   0xfc, 0x0c, 0xc0, 0x00, 0x00, 0x00, 0xcf, 0x00, 0x00, 0x0c, 0xc0, 0x00,
   0x00, 0x80, 0xdf, 0x00, 0x00, 0x0c, 0xc0, 0x00, 0x00, 0xc0, 0xf9, 0x00,
   0x03, 0x0c, 0xc0, 0x00, 0x00, 0xe0, 0xf0, 0x00, 0x03, 0x0c, 0xe0, 0x00,
   0x00, 0x70, 0xc0, 0x03, 0x03, 0x0f, 0x70, 0x00, 0x00, 0x30, 0xc0, 0x03,
   0x03, 0x0f, 0x30, 0x00, 0x00, 0x30, 0x00, 0x03, 0x03, 0x03, 0x30, 0x00,
   0x00, 0x30, 0x00, 0x03, 0x03, 0x03, 0x30, 0x00, 0x00, 0xf0, 0x03, 0x03,
   0x03, 0xc3, 0xff, 0x3f, 0x00, 0xf0, 0x03, 0x03, 0x03, 0xc3, 0xff, 0x7f,
   0x00, 0x3c, 0x00, 0xc3, 0x0f, 0xff, 0x00, 0xc0, 0x00, 0x3c, 0x00, 0xc3,
   0x0f, 0xff, 0x00, 0xc0, 0x00, 0xfc, 0xff, 0xff, 0xfc, 0xff, 0xff, 0x7f,
   0x00, 0xfc, 0xff, 0xff, 0xfc, 0xff, 0xff, 0x3f, 0x00, 0x00, 0x00, 0x00,
   0x00, 0x00, 0x00, 0x00, 0x00, 0x00, 0x00, 0x00, 0x00, 0x00, 0x00, 0x00,
   0x00, 0x00, 0x00, 0x00, 0x00, 0x00, 0x00, 0x00, 0x00, 0x00, 0x00, 0x00,
   0x00, 0x00, 0x00, 0x00, 0x00, 0x00, 0x00, 0x00, 0x00, 0x00, 0x00, 0x00,
   0x00, 0x00, 0x00, 0x00, 0x00, 0x00, 0x00, 0x00};
