#define left1_width 64
#define left1_height 64
static char left1_bits[] = {
   0x00, 0x00, 0x00, 0x00, 0x00, 0x00, 0x00, 0x00, 0x00, 0x00, 0x00, 0x00,
   0x00, 0x00, 0x00, 0x00, 0x00, 0x00, 0x00, 0x00, 0x00, 0x00, 0x00, 0x00,
   0x00, 0x00, 0x00, 0x00, 0x00, 0x00, 0x00, 0x00, 0x00, 0x00, 0x00, 0x00,
   0x00, 0x00, 0x00, 0x00, 0x00, 0x00, 0x00, 0x00, 0x00, 0x00, 0x00, 0x00,
   0x00, 0x00, 0x00, 0x00, 0x3c, 0x00, 0x00, 0x00, 0x00, 0x00, 0x00, 0x00,
   0xff, 0x03, 0x00, 0x00, 0x00, 0x00, 0x00, 0xc0, 0xe3, 0x0f, 0x00, 0x00,
   0x00, 0x00, 0x00, 0xf0, 0x01, 0x1f, 0x00, 0x00, 0x00, 0x00, 0x00, 0x3c,
   0x00, 0x7c, 0x00, 0x00, 0x00, 0x00, 0x00, 0x1e, 0x00, 0xf0, 0x01, 0x00,
   0x00, 0x00, 0x00, 0x0f, 0x00, 0xc0, 0x03, 0x00, 0x00, 0x00, 0x80, 0x03,
   0x00, 0x00, 0x03, 0x00, 0x00, 0x00, 0xc0, 0x01, 0x00, 0x00, 0x07, 0x00,
   0x00, 0x00, 0xe0, 0x00, 0x00, 0x00, 0x07, 0x00, 0xf0, 0x00, 0x70, 0x00,
   0x00, 0x00, 0x0e, 0x00, 0xf0, 0x01, 0x70, 0x00, 0x00, 0x00, 0x1c, 0x00,
   0xb0, 0x03, 0x38, 0x00, 0x00, 0x00, 0x38, 0x00, 0x30, 0x07, 0x38, 0x00,
   0x00, 0x00, 0x70, 0x00, 0x30, 0x1e, 0x1c, 0x00, 0x00, 0x00, 0xe0, 0x00,
   0x30, 0xfc, 0x0c, 0x00, 0x00, 0x00, 0xc0, 0x01, 0xe0, 0xf8, 0x0f, 0x00,
   0x03, 0x00, 0x8c, 0x03, 0xc0, 0xc0, 0x0f, 0x80, 0x03, 0x00, 0x0c, 0x07,
   0xc0, 0x00, 0x3f, 0xc0, 0x01, 0x00, 0x0f, 0x0e, 0xc0, 0x00, 0x30, 0xc0,
   0x00, 0x00, 0x1f, 0x1c, 0xc0, 0x00, 0x00, 0xe0, 0x00, 0x00, 0x3b, 0x38,
   0xe0, 0x00, 0x00, 0xe0, 0x00, 0x00, 0x73, 0x30, 0x70, 0x00, 0x00, 0x70,
   0x00, 0x00, 0xe3, 0x70, 0x38, 0x00, 0x00, 0x70, 0x00, 0x00, 0xc7, 0x61,
   0x1c, 0x03, 0x00, 0x30, 0x00, 0x00, 0x8e, 0xc3, 0x0c, 0x03, 0x00, 0x30,
   0x00, 0x00, 0x1c, 0xc7, 0x0c, 0x03, 0x00, 0x30, 0x00, 0x00, 0x38, 0xce,
   0x0c, 0x03, 0x00, 0x30, 0x00, 0x00, 0x30, 0xdc, 0x0c, 0x03, 0x3f, 0xc0,
   0x00, 0x00, 0x1c, 0xf8, 0x0c, 0x03, 0x03, 0xc0, 0x00, 0x00, 0x0e, 0x60,
   0x0e, 0xe0, 0x03, 0xc0, 0x01, 0x00, 0x07, 0x00, 0x0f, 0x70, 0x00, 0xc0,
   0x01, 0x00, 0x03, 0x00, 0x03, 0x00, 0x00, 0x30, 0x0f, 0x00, 0x03, 0x00,
   0x03, 0x00, 0x00, 0x70, 0x1f, 0x00, 0x03, 0x00, 0x0e, 0x00, 0x00, 0xe0,
   0xfc, 0xc1, 0x03, 0x00, 0x1c, 0x00, 0x00, 0xc0, 0xf9, 0xc3, 0x03, 0x00,
   0x38, 0x00, 0x0f, 0x80, 0x03, 0xc3, 0x03, 0x00, 0x70, 0x80, 0x0f, 0x00,
   0x03, 0xc3, 0x03, 0x00, 0xe0, 0xff, 0x7d, 0x00, 0xfe, 0xf0, 0x07, 0x00,
   0xc0, 0xff, 0xf8, 0x00, 0xfc, 0xf0, 0x0f, 0x00, 0x00, 0x00, 0xf0, 0x03,
   0xc0, 0xf0, 0x0f, 0x00, 0x00, 0x00, 0xe0, 0x0f, 0xc0, 0xf8, 0x0f, 0x00,
   0x00, 0x00, 0xc0, 0xff, 0xff, 0x1c, 0x0f, 0x00, 0x00, 0x00, 0x80, 0xff,
   0xff, 0x1c, 0x0f, 0x00, 0x00, 0x00, 0x00, 0xfe, 0xc0, 0x0f, 0x00, 0x00,
   0x00, 0x00, 0x00, 0xfc, 0xc0, 0x0f, 0x00, 0x00, 0x00, 0x00, 0x00, 0xfc,
   0xc0, 0x03, 0x00, 0x00, 0x00, 0x00, 0x00, 0xfc, 0xc0, 0x03, 0x00, 0x00,
   0x00, 0x00, 0x00, 0x00, 0x00, 0x00, 0x00, 0x00, 0x00, 0x00, 0x00, 0x00,
   0x00, 0x00, 0x00, 0x00, 0x00, 0x00, 0x00, 0x00, 0x00, 0x00, 0x00, 0x00,
   0x00, 0x00, 0x00, 0x00, 0x00, 0x00, 0x00, 0x00, 0x00, 0x00, 0x00, 0x00,
   0x00, 0x00, 0x00, 0x00, 0x00, 0x00, 0x00, 0x00, 0x00, 0x00, 0x00, 0x00,
   0x00, 0x00, 0x00, 0x00, 0x00, 0x00, 0x00, 0x00, 0x00, 0x00, 0x00, 0x00,
   0x00, 0x00, 0x00, 0x00, 0x00, 0x00, 0x00, 0x00, 0x00, 0x00, 0x00, 0x00,
   0x00, 0x00, 0x00, 0x00, 0x00, 0x00, 0x00, 0x00};
