#define ltogi2_width 64
#define ltogi2_height 64
static char ltogi2_bits[] = {
   0x00, 0xf0, 0x00, 0x00, 0x00, 0x00, 0x00, 0x00, 0x00, 0xf0, 0x01, 0x00,
   0x00, 0x00, 0x00, 0x00, 0x00, 0xb0, 0x03, 0x00, 0x00, 0x00, 0x00, 0x00,
   0x00, 0x30, 0x07, 0x00, 0x00, 0x00, 0x00, 0x00, 0x00, 0x30, 0x0e, 0x00,
   0x00, 0x00, 0x00, 0x00, 0x00, 0x30, 0x1c, 0x00, 0x00, 0x00, 0x00, 0x00,
   0x00, 0x30, 0x38, 0x00, 0x00, 0x00, 0x00, 0x00, 0x00, 0x38, 0x70, 0x00,
   0x00, 0x00, 0x00, 0x00, 0x03, 0x38, 0xe0, 0x03, 0x00, 0x00, 0x00, 0x00,
   0x03, 0x38, 0xc0, 0x07, 0x00, 0x00, 0x00, 0x00, 0x03, 0x1f, 0x00, 0x0f,
   0x00, 0x00, 0x00, 0x00, 0x83, 0x0f, 0x00, 0x1c, 0x00, 0x00, 0x00, 0x00,
   0xc3, 0x01, 0x00, 0x38, 0x00, 0x00, 0x00, 0x00, 0xe3, 0x00, 0x00, 0x30,
   0x00, 0x00, 0x00, 0x00, 0x73, 0x0c, 0x00, 0x30, 0x00, 0x00, 0x00, 0x00,
   0x33, 0x0c, 0x00, 0x30, 0x00, 0x00, 0x00, 0x00, 0x33, 0x0c, 0x00, 0x30,
   0x00, 0x00, 0x00, 0x00, 0x3b, 0x0c, 0x00, 0x30, 0x00, 0x00, 0x00, 0x00,
   0x1f, 0x0c, 0x00, 0x30, 0x00, 0x00, 0x00, 0x00, 0x0f, 0x0c, 0x00, 0x30,
   0x00, 0x00, 0x00, 0x00, 0x0f, 0xc0, 0x03, 0x70, 0x00, 0x00, 0x00, 0x00,
   0x0f, 0x60, 0x00, 0xf8, 0x00, 0x00, 0x00, 0x00, 0x33, 0x3c, 0x00, 0xcc,
   0x7f, 0x00, 0x00, 0x00, 0x33, 0x0c, 0x00, 0xcc, 0xff, 0x01, 0x00, 0x00,
   0x33, 0x00, 0x00, 0x00, 0xc0, 0x0f, 0x00, 0x00, 0x33, 0x00, 0x00, 0x00,
   0x00, 0x1f, 0x00, 0x00, 0xc3, 0xfc, 0x03, 0x00, 0x00, 0x38, 0x00, 0x00,
   0xc3, 0xfd, 0x03, 0x00, 0x00, 0x70, 0x00, 0x00, 0x83, 0x0f, 0x00, 0xf0,
   0x00, 0xe0, 0x00, 0x00, 0xe3, 0x0f, 0x00, 0xf8, 0x00, 0xc0, 0x01, 0x00,
   0xff, 0x01, 0x00, 0x1c, 0x00, 0x80, 0x03, 0x00, 0x3f, 0x00, 0x00, 0x0e,
   0x00, 0x00, 0x07, 0x00, 0x03, 0x00, 0x00, 0x07, 0x00, 0x00, 0x0e, 0x70,
   0x07, 0x00, 0x80, 0x03, 0x00, 0x00, 0x0c, 0xf8, 0xfe, 0x3f, 0xc0, 0x01,
   0x00, 0x00, 0x1c, 0xdc, 0xfc, 0x3f, 0xc0, 0x00, 0x00, 0x00, 0x18, 0xce,
   0xfc, 0xff, 0xc3, 0x00, 0x00, 0x00, 0x38, 0xc7, 0xfc, 0xff, 0xc3, 0x00,
   0x00, 0x00, 0xb0, 0xc3, 0xf8, 0x00, 0xff, 0x00, 0x00, 0x00, 0xf0, 0xe1,
   0x70, 0x00, 0xff, 0x00, 0x00, 0x00, 0xf0, 0x60, 0x00, 0x00, 0xf0, 0x00,
   0x00, 0x00, 0x00, 0x70, 0x00, 0x00, 0xf0, 0x00, 0x00, 0x00, 0x00, 0x38,
   0x00, 0x00, 0xf0, 0x03, 0x00, 0x00, 0x00, 0x1c, 0x00, 0x00, 0xf0, 0x03,
   0x00, 0x00, 0x80, 0x0f, 0x00, 0x00, 0xc0, 0x0f, 0x0f, 0x00, 0xfc, 0x07,
   0x00, 0x00, 0xc0, 0x0f, 0x0f, 0x00, 0xfe, 0x01, 0x00, 0x00, 0xfc, 0xff,
   0x03, 0x00, 0x07, 0x00, 0x00, 0x00, 0xfc, 0xff, 0x01, 0x80, 0x03, 0x00,
   0x00, 0x00, 0xff, 0xc0, 0x00, 0xfc, 0x01, 0x00, 0x00, 0x00, 0xff, 0xc0,
   0x00, 0xfe, 0x00, 0x00, 0x00, 0x00, 0xff, 0x00, 0x00, 0x07, 0x00, 0x00,
   0x00, 0x00, 0xff, 0x00, 0x00, 0x03, 0x00, 0x00, 0x00, 0x00, 0xfc, 0xff,
   0xff, 0x03, 0x00, 0x00, 0x00, 0x00, 0xfc, 0xff, 0xff, 0x03, 0x00, 0x00,
   0x00, 0x00, 0x00, 0x00, 0x00, 0x00, 0x00, 0x00, 0x00, 0x00, 0x00, 0x00,
   0x00, 0x00, 0x00, 0x00, 0x00, 0x00, 0x00, 0x00, 0x00, 0x00, 0x00, 0x00,
   0x00, 0x00, 0x00, 0x00, 0x00, 0x00, 0x00, 0x00, 0x00, 0x00, 0x00, 0x00,
   0x00, 0x00, 0x00, 0x00, 0x00, 0x00, 0x00, 0x00, 0x00, 0x00, 0x00, 0x00,
   0x00, 0x00, 0x00, 0x00, 0x00, 0x00, 0x00, 0x00, 0x00, 0x00, 0x00, 0x00,
   0x00, 0x00, 0x00, 0x00, 0x00, 0x00, 0x00, 0x00, 0x00, 0x00, 0x00, 0x00,
   0x00, 0x00, 0x00, 0x00, 0x00, 0x00, 0x00, 0x00};
