#define ltogi1_width 64
#define ltogi1_height 64
static char ltogi1_bits[] = {
   0x00, 0xf0, 0x00, 0x00, 0x00, 0x00, 0x00, 0x00, 0x00, 0xf0, 0x01, 0x00,
   0x00, 0x00, 0x00, 0x00, 0x00, 0xb0, 0x03, 0x00, 0x00, 0x00, 0x00, 0x00,
   0x00, 0x30, 0x07, 0x00, 0x00, 0x00, 0x00, 0x00, 0x00, 0x30, 0x0e, 0x00,
   0x00, 0x00, 0x00, 0x00, 0x00, 0x30, 0x1c, 0x00, 0x00, 0x00, 0x00, 0x00,
   0x0f, 0x38, 0x38, 0x00, 0x00, 0x00, 0x00, 0x00, 0x0f, 0x38, 0xf0, 0x00,
   0x00, 0x00, 0x00, 0x00, 0x3f, 0x1f, 0xe0, 0x03, 0x00, 0x00, 0x00, 0x00,
   0x3f, 0x0f, 0xc0, 0x07, 0x00, 0x00, 0x00, 0x00, 0xbf, 0x01, 0x00, 0x0f,
   0x00, 0x00, 0x00, 0x00, 0xff, 0x00, 0x00, 0x1c, 0x00, 0x00, 0x00, 0x00,
   0x3f, 0x00, 0x00, 0x1c, 0x00, 0x00, 0x00, 0x00, 0x3f, 0x00, 0x00, 0x38,
   0x00, 0x00, 0x00, 0x00, 0x3f, 0x0c, 0x00, 0x38, 0x00, 0x00, 0x00, 0x00,
   0x3f, 0x0c, 0x00, 0x30, 0x00, 0x00, 0x00, 0x00, 0x3f, 0x0c, 0x00, 0x30,
   0x00, 0x00, 0x00, 0x00, 0x3f, 0x0c, 0x00, 0x30, 0x00, 0x00, 0x00, 0x00,
   0xf3, 0x0c, 0x00, 0x30, 0x00, 0x00, 0x00, 0x00, 0xf3, 0x0d, 0x00, 0x30,
   0x00, 0x00, 0x00, 0x00, 0x83, 0x0f, 0x00, 0x30, 0x00, 0x00, 0x00, 0x00,
   0x03, 0x1f, 0x03, 0xf8, 0x07, 0x00, 0x00, 0x00, 0x03, 0xfc, 0x01, 0xdc,
   0xff, 0x00, 0x00, 0x00, 0x03, 0xf0, 0x00, 0x0c, 0xfe, 0x03, 0x00, 0x00,
   0x0f, 0x00, 0x00, 0x00, 0xc0, 0x0f, 0x00, 0x00, 0x1f, 0x00, 0x00, 0x00,
   0x00, 0x1f, 0x00, 0x00, 0x7b, 0x00, 0x00, 0x00, 0x00, 0x38, 0x00, 0x00,
   0xf3, 0x00, 0x00, 0x00, 0x00, 0x70, 0x00, 0x00, 0xc0, 0x03, 0x00, 0xf0,
   0x00, 0xe0, 0x00, 0x00, 0x80, 0x0f, 0x00, 0x78, 0x00, 0xc0, 0x01, 0x00,
   0x00, 0x1f, 0x00, 0x1c, 0x00, 0x80, 0x03, 0x00, 0x00, 0x3c, 0x00, 0x0e,
   0x00, 0x00, 0x07, 0x00, 0x00, 0x30, 0x00, 0x07, 0x00, 0x00, 0x0e, 0x00,
   0x00, 0x70, 0x80, 0x03, 0x00, 0x00, 0x0c, 0x00, 0x00, 0x70, 0xc0, 0x01,
   0x00, 0x00, 0x0c, 0x00, 0x00, 0x60, 0xc0, 0x00, 0x00, 0x00, 0x1c, 0x00,
   0x00, 0xe0, 0xc1, 0x00, 0x00, 0x00, 0x38, 0x00, 0x00, 0xc0, 0xc3, 0x00,
   0x00, 0x00, 0x30, 0x00, 0x00, 0x00, 0xdf, 0x00, 0x00, 0x00, 0xf0, 0x00,
   0x00, 0x00, 0xfe, 0x00, 0x00, 0x00, 0xf0, 0x01, 0x00, 0x00, 0xfc, 0x00,
   0x00, 0x00, 0xc0, 0x03, 0x00, 0x00, 0xf0, 0x00, 0x00, 0x00, 0x00, 0x07,
   0x00, 0x00, 0xf0, 0x03, 0x00, 0x00, 0x00, 0x0e, 0x00, 0x00, 0xf0, 0x03,
   0x00, 0x00, 0x00, 0x1c, 0x00, 0x00, 0xc0, 0x0f, 0x0f, 0x00, 0x18, 0x38,
   0x00, 0x00, 0xc0, 0x0f, 0x07, 0x00, 0x3e, 0x70, 0x00, 0x00, 0xf8, 0xff,
   0x03, 0x00, 0x77, 0xe0, 0x00, 0x00, 0xfe, 0xff, 0x01, 0xc0, 0xf3, 0xc1,
   0x00, 0x00, 0xff, 0xc0, 0x00, 0xfc, 0xc0, 0xff, 0x00, 0x00, 0xff, 0xc0,
   0x00, 0x7e, 0x00, 0x7f, 0x00, 0x00, 0xff, 0x00, 0x00, 0x07, 0x00, 0x00,
   0x00, 0x00, 0xfe, 0x00, 0xc0, 0x03, 0x00, 0x00, 0x00, 0x00, 0xfc, 0xff,
   0xff, 0x03, 0x00, 0x00, 0x00, 0x00, 0xf8, 0xff, 0xff, 0x01, 0x00, 0x00,
   0x00, 0x00, 0x00, 0x00, 0x00, 0x00, 0x00, 0x00, 0x00, 0x00, 0x00, 0x00,
   0x00, 0x00, 0x00, 0x00, 0x00, 0x00, 0x00, 0x00, 0x00, 0x00, 0x00, 0x00,
   0x00, 0x00, 0x00, 0x00, 0x00, 0x00, 0x00, 0x00, 0x00, 0x00, 0x00, 0x00,
   0x00, 0x00, 0x00, 0x00, 0x00, 0x00, 0x00, 0x00, 0x00, 0x00, 0x00, 0x00,
   0x00, 0x00, 0x00, 0x00, 0x00, 0x00, 0x00, 0x00, 0x00, 0x00, 0x00, 0x00,
   0x00, 0x00, 0x00, 0x00, 0x00, 0x00, 0x00, 0x00, 0x00, 0x00, 0x00, 0x00,
   0x00, 0x00, 0x00, 0x00, 0x00, 0x00, 0x00, 0x00};
