#define mati2_width 64
#define mati2_height 64
static char mati2_bits[] = {
   0x00, 0x00, 0x00, 0x00, 0x00, 0x00, 0x00, 0x00, 0x00, 0x00, 0x00, 0x00,
   0x00, 0x00, 0x00, 0x00, 0x00, 0x00, 0x00, 0x00, 0x00, 0x00, 0x00, 0x00,
   0x00, 0x00, 0x00, 0x00, 0x00, 0x00, 0x00, 0x00, 0x00, 0x00, 0x00, 0x00,
   0x00, 0x00, 0x00, 0x00, 0x00, 0x00, 0x00, 0x00, 0x00, 0x00, 0x00, 0x00,
   0x00, 0x00, 0x00, 0x03, 0x00, 0x03, 0x00, 0x00, 0x00, 0x00, 0x80, 0x07,
   0x80, 0x07, 0x00, 0x00, 0x00, 0x00, 0xc0, 0x0c, 0xc0, 0x0c, 0x00, 0x00,
   0x00, 0x00, 0xc0, 0x1c, 0xe0, 0x0c, 0x00, 0x00, 0x00, 0x00, 0xe0, 0x30,
   0x70, 0x0c, 0x00, 0x00, 0x00, 0x00, 0xe0, 0x30, 0x30, 0x1c, 0x00, 0x00,
   0x00, 0x00, 0x70, 0x30, 0x30, 0x38, 0x00, 0x00, 0x00, 0x00, 0x30, 0x70,
   0x38, 0x30, 0x00, 0x00, 0x00, 0x00, 0x30, 0xe0, 0x1c, 0x30, 0x00, 0x00,
   0x00, 0x00, 0x38, 0xc0, 0x0c, 0x70, 0x00, 0x00, 0x00, 0x00, 0x18, 0xc0,
   0x0f, 0x60, 0x00, 0x00, 0x00, 0x00, 0x18, 0xc0, 0x0f, 0x60, 0x00, 0x00,
   0x00, 0x00, 0x1c, 0x00, 0x00, 0xe0, 0x00, 0x00, 0x00, 0x00, 0x0c, 0x00,
   0x00, 0xe0, 0x00, 0x00, 0x00, 0x00, 0x0c, 0x0c, 0xc0, 0xc0, 0x00, 0x00,
   0x00, 0x00, 0x0c, 0x0c, 0xc0, 0xc0, 0x00, 0x00, 0x00, 0x00, 0x0c, 0x0c,
   0xc0, 0xc0, 0x00, 0x00, 0x00, 0x00, 0x0c, 0x0c, 0xc0, 0xc0, 0x00, 0x00,
   0x00, 0x00, 0x0c, 0x0c, 0xc0, 0xc0, 0x00, 0x00, 0x00, 0x00, 0x0c, 0x0c,
   0xc0, 0xc0, 0x00, 0x00, 0x00, 0x00, 0x0c, 0x00, 0x00, 0xc0, 0x00, 0x00,
   0x00, 0x00, 0x0c, 0x00, 0x00, 0xc0, 0x00, 0x00, 0x00, 0x00, 0xcc, 0x03,
   0x03, 0xcf, 0x00, 0x00, 0x00, 0x00, 0x1c, 0x8e, 0xc7, 0xe1, 0x00, 0x00,
   0x00, 0x00, 0x38, 0x00, 0x03, 0x70, 0x00, 0x00, 0x00, 0x00, 0x70, 0x00,
   0x00, 0x38, 0x00, 0x00, 0x00, 0x00, 0xe0, 0x00, 0x00, 0x1c, 0x00, 0x00,
   0x00, 0x00, 0xc0, 0x01, 0x00, 0x0e, 0x00, 0x00, 0x00, 0x00, 0x80, 0x3f,
   0xf0, 0x07, 0x00, 0x00, 0x00, 0x00, 0x00, 0x3f, 0xf0, 0x03, 0x00, 0x00,
   0x00, 0x00, 0x00, 0x30, 0x30, 0x00, 0x00, 0x00, 0x00, 0x00, 0x00, 0x38,
   0x30, 0x00, 0x00, 0x00, 0x00, 0x00, 0x00, 0x1c, 0xc0, 0x00, 0x00, 0x00,
   0x00, 0x00, 0x00, 0x0e, 0xc0, 0x00, 0x00, 0x00, 0x00, 0x00, 0x00, 0x07,
   0x00, 0x03, 0x00, 0x00, 0x00, 0x00, 0x80, 0x03, 0x00, 0x03, 0x00, 0x00,
   0x00, 0x00, 0xc0, 0x01, 0x00, 0x0c, 0x00, 0x00, 0x00, 0x00, 0xc0, 0x00,
   0x00, 0x0c, 0x00, 0x00, 0x00, 0x00, 0xcf, 0x00, 0x00, 0xcc, 0x03, 0x00,
   0x00, 0x80, 0xdf, 0x00, 0x00, 0xec, 0x07, 0x00, 0x00, 0xc0, 0xf1, 0x00,
   0x03, 0x3c, 0x0e, 0x00, 0x00, 0xe0, 0xf0, 0x00, 0x03, 0x3c, 0x1c, 0x00,
   0x00, 0x70, 0xc0, 0x03, 0x03, 0x0f, 0x38, 0x00, 0x00, 0x30, 0xc0, 0x03,
   0x03, 0x0f, 0x30, 0x00, 0x00, 0x30, 0x00, 0x03, 0x03, 0x03, 0x30, 0x00,
   0x00, 0x30, 0x00, 0x03, 0x03, 0x03, 0xf0, 0x1f, 0x00, 0xb0, 0x03, 0x03,
   0x03, 0x03, 0xf7, 0x3f, 0x00, 0xf8, 0x03, 0x03, 0x03, 0x03, 0x7f, 0x70,
   0x00, 0x3c, 0x00, 0x83, 0x07, 0x03, 0xe0, 0xc0, 0x00, 0x1c, 0x00, 0xc3,
   0x0f, 0x03, 0xc0, 0xc1, 0x00, 0xfc, 0xff, 0xff, 0xfd, 0xff, 0xff, 0x7f,
   0x00, 0xf8, 0xff, 0xff, 0xfc, 0xff, 0xff, 0x3f, 0x00, 0x00, 0x00, 0x00,
   0x00, 0x00, 0x00, 0x00, 0x00, 0x00, 0x00, 0x00, 0x00, 0x00, 0x00, 0x00,
   0x00, 0x00, 0x00, 0x00, 0x00, 0x00, 0x00, 0x00, 0x00, 0x00, 0x00, 0x00,
   0x00, 0x00, 0x00, 0x00, 0x00, 0x00, 0x00, 0x00, 0x00, 0x00, 0x00, 0x00,
   0x00, 0x00, 0x00, 0x00, 0x00, 0x00, 0x00, 0x00};
