#define mati3_width 64
#define mati3_height 64
static char mati3_bits[] = {
   0x00, 0x00, 0x00, 0x00, 0x00, 0x00, 0x00, 0x00, 0x00, 0x00, 0x00, 0x00,
   0x00, 0x00, 0x00, 0x00, 0x00, 0x00, 0x00, 0x00, 0x00, 0x00, 0x00, 0x00,
   0x00, 0x00, 0x00, 0x00, 0x00, 0x00, 0x00, 0x00, 0x00, 0x00, 0x00, 0x00,
   0x00, 0x00, 0x00, 0x00, 0x00, 0x00, 0x00, 0x00, 0x00, 0x00, 0x00, 0x00,
   0x00, 0x00, 0x00, 0x03, 0x00, 0x03, 0x00, 0x00, 0x00, 0x00, 0x80, 0x07,
   0x80, 0x07, 0x00, 0x00, 0x00, 0x00, 0xc0, 0x0c, 0xc0, 0x0c, 0x00, 0x00,
   0x00, 0x00, 0xc0, 0x1c, 0xe0, 0x0c, 0x00, 0x00, 0x00, 0x00, 0xe0, 0x38,
   0x70, 0x0c, 0x00, 0x00, 0x00, 0x00, 0xe0, 0x30, 0x30, 0x1c, 0x00, 0x00,
   0x00, 0x00, 0x70, 0x30, 0x30, 0x38, 0x00, 0x00, 0x00, 0x00, 0x30, 0x70,
   0x38, 0x30, 0x00, 0x00, 0x00, 0x00, 0x38, 0xe0, 0x1c, 0x30, 0x00, 0x00,
   0x00, 0x00, 0x38, 0xc0, 0x0c, 0x70, 0x00, 0x00, 0x00, 0x00, 0x1c, 0xc0,
   0x0f, 0xe0, 0x00, 0x00, 0x00, 0x00, 0x1c, 0xc0, 0x0f, 0xc0, 0x00, 0x00,
   0x00, 0x00, 0xcc, 0x07, 0x80, 0xcf, 0x00, 0x00, 0x00, 0x00, 0xcc, 0x0f,
   0xc0, 0xcf, 0x00, 0x00, 0x00, 0x00, 0x0c, 0x38, 0x73, 0xc0, 0x00, 0x00,
   0x00, 0x00, 0x0c, 0xb0, 0x37, 0xc0, 0x00, 0x00, 0x00, 0x00, 0x0c, 0x02,
   0x00, 0xc1, 0x00, 0x00, 0x00, 0x00, 0x0c, 0xe3, 0x03, 0xc3, 0x00, 0x00,
   0x00, 0x00, 0xec, 0xf1, 0x07, 0xde, 0x00, 0x00, 0x00, 0x00, 0x3c, 0x70,
   0x0e, 0xf0, 0x00, 0x00, 0x00, 0x00, 0x0c, 0x30, 0x0c, 0xc0, 0x00, 0x00,
   0x00, 0x00, 0x0c, 0x30, 0x0c, 0xc0, 0x00, 0x00, 0x00, 0x00, 0x1c, 0x30,
   0x0c, 0xc0, 0x00, 0x00, 0x00, 0x00, 0x18, 0x30, 0x0c, 0xe0, 0x00, 0x00,
   0x00, 0x00, 0x38, 0x30, 0x0c, 0x70, 0x00, 0x00, 0x00, 0x00, 0x70, 0x70,
   0x0e, 0x38, 0x00, 0x00, 0x00, 0x00, 0xe0, 0xe0, 0x07, 0x1c, 0x00, 0x00,
   0x00, 0x00, 0xc0, 0xc3, 0x03, 0x0e, 0x00, 0x00, 0x00, 0x00, 0x80, 0x1f,
   0xf0, 0x07, 0x00, 0x00, 0x00, 0x00, 0x00, 0x3e, 0xf8, 0x03, 0x00, 0x00,
   0x00, 0x00, 0x00, 0x30, 0x18, 0x00, 0x00, 0x00, 0x00, 0x00, 0x00, 0x38,
   0x78, 0x00, 0x00, 0x00, 0x00, 0x00, 0x00, 0x1c, 0xe0, 0x00, 0x00, 0x00,
   0x00, 0x00, 0x00, 0x0e, 0xc0, 0x01, 0x00, 0x00, 0x00, 0x00, 0x00, 0x07,
   0x80, 0x03, 0x00, 0x00, 0x00, 0x00, 0x80, 0x03, 0x00, 0x07, 0x00, 0x00,
   0x00, 0x00, 0xc0, 0x01, 0x00, 0x06, 0x00, 0x00, 0x00, 0x00, 0xc0, 0x00,
   0x00, 0x0e, 0x00, 0x00, 0x00, 0x00, 0xcf, 0x00, 0x00, 0xcc, 0x03, 0x00,
   0x00, 0x80, 0xdf, 0x00, 0x00, 0xec, 0x07, 0x00, 0x00, 0xc0, 0xf0, 0x00,
   0x03, 0x3c, 0x0e, 0x00, 0x00, 0xe0, 0xf0, 0x00, 0x03, 0x1c, 0x1c, 0x00,
   0x00, 0x70, 0xc0, 0x03, 0x03, 0x0f, 0x38, 0x00, 0x00, 0x30, 0xc0, 0x03,
   0x03, 0x0f, 0x30, 0x00, 0x00, 0x30, 0x00, 0x03, 0x03, 0x03, 0x30, 0x00,
   0x00, 0x30, 0x00, 0x03, 0x03, 0x03, 0x30, 0x00, 0x00, 0xf0, 0x01, 0x03,
   0x03, 0x03, 0xfe, 0x3f, 0x00, 0xf0, 0x03, 0x03, 0x03, 0x03, 0xff, 0x7f,
   0x00, 0x3c, 0x00, 0xc3, 0x0f, 0x03, 0xf0, 0xc0, 0x00, 0x3c, 0x00, 0xc3,
   0x0f, 0x03, 0xf0, 0xc0, 0x00, 0xfc, 0xff, 0xff, 0xfc, 0xff, 0xff, 0x7f,
   0x00, 0xfc, 0xff, 0xff, 0xfc, 0xff, 0xff, 0x3f, 0x00, 0x00, 0x00, 0x00,
   0x00, 0x00, 0x00, 0x00, 0x00, 0x00, 0x00, 0x00, 0x00, 0x00, 0x00, 0x00,
   0x00, 0x00, 0x00, 0x00, 0x00, 0x00, 0x00, 0x00, 0x00, 0x00, 0x00, 0x00,
   0x00, 0x00, 0x00, 0x00, 0x00, 0x00, 0x00, 0x00, 0x00, 0x00, 0x00, 0x00,
   0x00, 0x00, 0x00, 0x00, 0x00, 0x00, 0x00, 0x00};
