#define right2_width 64
#define right2_height 64
static char right2_bits[] = {
   0x00, 0x00, 0x00, 0x00, 0x00, 0x00, 0x00, 0x00, 0x00, 0x00, 0x00, 0x00,
   0x00, 0x00, 0x00, 0x00, 0x00, 0x00, 0x00, 0x00, 0x00, 0x00, 0x00, 0x00,
   0x00, 0x00, 0x00, 0x00, 0x00, 0x00, 0x00, 0x00, 0x00, 0x00, 0x00, 0x00,
   0x00, 0x00, 0x00, 0x00, 0x00, 0x00, 0x00, 0x00, 0x00, 0x00, 0x00, 0x00,
   0x3c, 0x00, 0x00, 0x00, 0x00, 0x00, 0x00, 0x00, 0x7e, 0x00, 0x00, 0x00,
   0x00, 0x00, 0x18, 0x00, 0xf6, 0x00, 0x00, 0x00, 0x00, 0x00, 0x3c, 0x00,
   0xc3, 0x01, 0x00, 0x00, 0x00, 0x00, 0x3e, 0x00, 0x83, 0x03, 0x00, 0x00,
   0x00, 0x00, 0x37, 0x00, 0x87, 0x07, 0x00, 0x00, 0x00, 0x80, 0x33, 0x00,
   0x0e, 0x0e, 0x00, 0x00, 0x00, 0xc0, 0x31, 0x00, 0x1c, 0x1c, 0x00, 0x00,
   0x00, 0xe0, 0x30, 0x00, 0x38, 0x38, 0x00, 0x00, 0x00, 0x70, 0x30, 0x00,
   0x70, 0x70, 0x00, 0x00, 0x00, 0x38, 0x30, 0x00, 0xe0, 0xe0, 0x00, 0x00,
   0x00, 0x1f, 0xf0, 0x00, 0xc0, 0xc1, 0x01, 0x00, 0x80, 0x0f, 0xf0, 0x01,
   0x80, 0x83, 0x0f, 0x00, 0xc0, 0x03, 0x80, 0x03, 0x00, 0x03, 0x3f, 0x00,
   0xc0, 0x00, 0x00, 0x07, 0x00, 0x03, 0xfc, 0x01, 0xf0, 0x00, 0x30, 0x0e,
   0x00, 0x03, 0xf0, 0x07, 0xf0, 0x00, 0x30, 0x0c, 0x80, 0x03, 0x00, 0x3f,
   0x38, 0x00, 0x30, 0x0c, 0x80, 0x03, 0x00, 0x7c, 0x18, 0x00, 0x30, 0x0c,
   0xc0, 0x01, 0x00, 0xe0, 0x1c, 0x00, 0x30, 0x0c, 0xc0, 0x01, 0x00, 0xc0,
   0x0d, 0x00, 0x30, 0x1c, 0xc0, 0x00, 0x00, 0x80, 0x0f, 0x00, 0x00, 0x38,
   0xc0, 0x00, 0x00, 0x00, 0x0f, 0x00, 0x00, 0x30, 0xc0, 0x00, 0x00, 0x00,
   0x00, 0x30, 0x08, 0x30, 0xc0, 0x00, 0x00, 0x00, 0x00, 0xe0, 0x0f, 0x30,
   0xc0, 0x00, 0x00, 0x00, 0x00, 0x00, 0x00, 0x30, 0xe0, 0x00, 0x00, 0x00,
   0x00, 0x00, 0x00, 0x38, 0xe0, 0x00, 0x00, 0x00, 0x00, 0x00, 0x00, 0x1c,
   0x60, 0x00, 0x00, 0x00, 0x00, 0x00, 0x00, 0x0f, 0x70, 0x00, 0x00, 0x00,
   0x00, 0x00, 0xfc, 0x07, 0x30, 0x00, 0x00, 0x00, 0x00, 0x00, 0xfe, 0x03,
   0x38, 0x00, 0x00, 0x03, 0x00, 0xc0, 0x1f, 0x00, 0x38, 0x00, 0x80, 0x03,
   0x00, 0xe0, 0x03, 0x00, 0x1f, 0x00, 0xf0, 0x01, 0x00, 0xc0, 0x03, 0x00,
   0x0f, 0x00, 0xfc, 0x00, 0x00, 0xc0, 0x07, 0x00, 0x03, 0xc0, 0x1f, 0x00,
   0x00, 0x00, 0x0f, 0x00, 0x03, 0xf0, 0x0f, 0x00, 0x00, 0x00, 0x0f, 0x00,
   0xc3, 0xff, 0x7f, 0x00, 0xc0, 0x03, 0x1e, 0x00, 0xe3, 0xff, 0xff, 0x03,
   0xf0, 0x07, 0x3c, 0x00, 0xf3, 0xff, 0xf3, 0xff, 0xff, 0x0f, 0x78, 0x00,
   0xf7, 0x7f, 0x80, 0xff, 0xff, 0x1f, 0xf0, 0x00, 0xff, 0x1f, 0x00, 0x00,
   0xfe, 0xff, 0xe0, 0x01, 0xfe, 0x01, 0x00, 0x00, 0xf0, 0xff, 0x81, 0x07,
   0xf0, 0x00, 0x00, 0x00, 0x00, 0xff, 0x07, 0x0f, 0x60, 0x00, 0x00, 0x00,
   0x00, 0xfc, 0x1f, 0x0f, 0x00, 0x00, 0x00, 0x00, 0x00, 0xf8, 0xfc, 0x07,
   0x00, 0x00, 0x00, 0x00, 0x00, 0xf0, 0xf0, 0x01, 0x00, 0x00, 0x00, 0x00,
   0x00, 0x00, 0x00, 0x00, 0x00, 0x00, 0x00, 0x00, 0x00, 0x00, 0x00, 0x00,
   0x00, 0x00, 0x00, 0x00, 0x00, 0x00, 0x00, 0x00, 0x00, 0x00, 0x00, 0x00,
   0x00, 0x00, 0x00, 0x00, 0x00, 0x00, 0x00, 0x00, 0x00, 0x00, 0x00, 0x00,
   0x00, 0x00, 0x00, 0x00, 0x00, 0x00, 0x00, 0x00, 0x00, 0x00, 0x00, 0x00,
   0x00, 0x00, 0x00, 0x00, 0x00, 0x00, 0x00, 0x00, 0x00, 0x00, 0x00, 0x00,
   0x00, 0x00, 0x00, 0x00, 0x00, 0x00, 0x00, 0x00, 0x00, 0x00, 0x00, 0x00,
   0x00, 0x00, 0x00, 0x00, 0x00, 0x00, 0x00, 0x00, 0x00, 0x00, 0x00, 0x00,
   0x00, 0x00, 0x00, 0x00, 0x00, 0x00, 0x00, 0x00};
