#define right1_width 64
#define right1_height 64
static char right1_bits[] = {
   0x00, 0x00, 0x00, 0x00, 0x00, 0x00, 0x00, 0x00, 0x00, 0x00, 0x00, 0x00,
   0x00, 0x00, 0x00, 0x00, 0x00, 0x00, 0x00, 0x00, 0x00, 0x00, 0x00, 0x00,
   0x00, 0x00, 0x00, 0x00, 0x00, 0x00, 0x00, 0x00, 0x00, 0x00, 0x00, 0x00,
   0x00, 0x00, 0x00, 0x00, 0x00, 0x00, 0x00, 0x00, 0x00, 0x00, 0x00, 0x00,
   0x00, 0x00, 0x00, 0x1f, 0x00, 0x00, 0x00, 0x00, 0x00, 0x00, 0xc0, 0xff,
   0x00, 0x00, 0x00, 0x00, 0x00, 0x00, 0xf0, 0xf0, 0x03, 0x00, 0x00, 0x00,
   0x00, 0x00, 0x7c, 0xc0, 0x07, 0x00, 0x00, 0x00, 0x00, 0x00, 0x1f, 0x00,
   0x3f, 0x00, 0x00, 0x00, 0x00, 0x80, 0x0f, 0x00, 0x7c, 0x00, 0x00, 0x00,
   0x00, 0xc0, 0x01, 0x00, 0xe0, 0x00, 0x00, 0x00, 0x00, 0xc0, 0x00, 0x00,
   0xc0, 0x01, 0x00, 0x00, 0x00, 0xc0, 0x00, 0x00, 0x80, 0x03, 0x00, 0x00,
   0x00, 0xe0, 0x00, 0x00, 0x00, 0x07, 0x00, 0x00, 0x00, 0x70, 0x00, 0x00,
   0x00, 0x0e, 0x00, 0x07, 0x00, 0x38, 0x00, 0x00, 0x00, 0x1c, 0x80, 0x0f,
   0x00, 0x1c, 0x00, 0x00, 0x00, 0x3c, 0xc0, 0x0d, 0x00, 0x0e, 0x00, 0x00,
   0x00, 0x38, 0xf0, 0x0c, 0x00, 0x07, 0x00, 0x00, 0x00, 0x30, 0x3c, 0x0c,
   0x80, 0x03, 0x00, 0x00, 0x00, 0x70, 0x1e, 0x0e, 0xc0, 0x31, 0x00, 0xc0,
   0x00, 0xf0, 0x07, 0x07, 0xe0, 0x30, 0x00, 0xc0, 0x01, 0xf8, 0x03, 0x03,
   0x70, 0xf0, 0x00, 0x80, 0x03, 0x1c, 0x00, 0x03, 0x38, 0xf8, 0x00, 0x00,
   0x03, 0x0c, 0x00, 0x03, 0x1c, 0xdc, 0x00, 0x00, 0x07, 0x00, 0x00, 0x07,
   0x0c, 0xce, 0x00, 0x00, 0x06, 0x00, 0x00, 0x07, 0x0e, 0xe7, 0x00, 0x00,
   0x0e, 0x00, 0x00, 0x0e, 0x8e, 0xe3, 0x00, 0x00, 0x0c, 0x00, 0x00, 0x1c,
   0xc7, 0x71, 0x00, 0x00, 0x0c, 0x00, 0xc0, 0x38, 0xe3, 0x38, 0x00, 0x00,
   0x0c, 0x00, 0xc0, 0x30, 0x73, 0x1c, 0x00, 0x00, 0x0e, 0x00, 0xc0, 0x30,
   0x3b, 0x0c, 0x00, 0x00, 0x0e, 0x00, 0xc0, 0x30, 0x1f, 0x38, 0x00, 0x00,
   0x07, 0x3c, 0xc0, 0x30, 0x0f, 0x70, 0x00, 0x00, 0x03, 0xfe, 0xc0, 0x30,
   0x00, 0xe0, 0x00, 0x00, 0x03, 0xc7, 0x09, 0x70, 0x00, 0xc0, 0x00, 0xc0,
   0x07, 0x03, 0x0f, 0xe0, 0x00, 0xc0, 0x00, 0xf0, 0x0d, 0x00, 0x00, 0xc0,
   0x00, 0xc0, 0x00, 0xfc, 0x0c, 0x00, 0x00, 0xe0, 0x00, 0xc0, 0x83, 0x3f,
   0x07, 0x00, 0x00, 0x70, 0x00, 0xc0, 0xc3, 0x27, 0x03, 0x00, 0x00, 0x38,
   0x00, 0xc0, 0xc3, 0xc0, 0x01, 0xf0, 0x00, 0x1c, 0x00, 0xe0, 0xc3, 0xc0,
   0x00, 0xf8, 0x83, 0x0f, 0x00, 0xf0, 0x8f, 0x7f, 0x00, 0xbf, 0xff, 0x07,
   0x00, 0xf0, 0x0f, 0x3f, 0xc0, 0x1f, 0xfe, 0x01, 0x00, 0x70, 0x1e, 0x03,
   0xf0, 0x1f, 0x00, 0x00, 0x00, 0xf0, 0x1f, 0x03, 0xfc, 0x0f, 0x00, 0x00,
   0x00, 0xf0, 0x3f, 0xff, 0xff, 0x07, 0x00, 0x00, 0x00, 0xe0, 0x3b, 0xff,
   0xff, 0x03, 0x00, 0x00, 0x00, 0x00, 0xf0, 0x03, 0xff, 0x01, 0x00, 0x00,
   0x00, 0x00, 0xf0, 0x03, 0xff, 0x00, 0x00, 0x00, 0x00, 0x00, 0xc0, 0x03,
   0x7f, 0x00, 0x00, 0x00, 0x00, 0x00, 0xc0, 0x03, 0x3f, 0x00, 0x00, 0x00,
   0x00, 0x00, 0x00, 0x00, 0x00, 0x00, 0x00, 0x00, 0x00, 0x00, 0x00, 0x00,
   0x00, 0x00, 0x00, 0x00, 0x00, 0x00, 0x00, 0x00, 0x00, 0x00, 0x00, 0x00,
   0x00, 0x00, 0x00, 0x00, 0x00, 0x00, 0x00, 0x00, 0x00, 0x00, 0x00, 0x00,
   0x00, 0x00, 0x00, 0x00, 0x00, 0x00, 0x00, 0x00, 0x00, 0x00, 0x00, 0x00,
   0x00, 0x00, 0x00, 0x00, 0x00, 0x00, 0x00, 0x00, 0x00, 0x00, 0x00, 0x00,
   0x00, 0x00, 0x00, 0x00, 0x00, 0x00, 0x00, 0x00, 0x00, 0x00, 0x00, 0x00,
   0x00, 0x00, 0x00, 0x00, 0x00, 0x00, 0x00, 0x00};
