#define rtogi2_width 64
#define rtogi2_height 64
static char rtogi2_bits[] = {
   0x00, 0x00, 0x00, 0x00, 0x00, 0x00, 0x0f, 0x00, 0x00, 0x00, 0x00, 0x00,
   0x00, 0x80, 0x0f, 0x00, 0x00, 0x00, 0x00, 0x00, 0x00, 0xc0, 0x0d, 0x00,
   0x00, 0x00, 0x00, 0x00, 0x00, 0xe0, 0x0c, 0x00, 0x00, 0x00, 0x00, 0x00,
   0x00, 0x70, 0x0c, 0x00, 0x00, 0x00, 0x00, 0x00, 0x00, 0x38, 0x0c, 0x00,
   0x00, 0x00, 0x00, 0x00, 0x00, 0x1c, 0x0c, 0x00, 0x00, 0x00, 0x00, 0x00,
   0x00, 0x0e, 0x0c, 0x00, 0x00, 0x00, 0x00, 0x00, 0xc0, 0x07, 0x1c, 0xc0,
   0x00, 0x00, 0x00, 0x00, 0xe0, 0x03, 0x1c, 0xc0, 0x00, 0x00, 0x00, 0x00,
   0x70, 0x00, 0xf8, 0xc0, 0x00, 0x00, 0x00, 0x00, 0x38, 0x00, 0xf0, 0xc1,
   0x00, 0x00, 0x00, 0x00, 0x1c, 0x00, 0x80, 0xc3, 0x00, 0x00, 0x00, 0x00,
   0x0c, 0x00, 0x00, 0xc7, 0x00, 0x00, 0x00, 0x00, 0x0c, 0x00, 0x30, 0xce,
   0x00, 0x00, 0x00, 0x00, 0x0c, 0x00, 0x30, 0xce, 0x00, 0x00, 0x00, 0x00,
   0x0c, 0x00, 0x30, 0xcc, 0x00, 0x00, 0x00, 0x00, 0x0c, 0x00, 0x30, 0xdc,
   0x00, 0x00, 0x00, 0x00, 0x0e, 0x00, 0x30, 0xf0, 0x00, 0x00, 0x00, 0x00,
   0x0e, 0x00, 0x30, 0xf0, 0x00, 0x00, 0x00, 0x00, 0x0f, 0xc0, 0x03, 0xf0,
   0x00, 0x00, 0x00, 0x80, 0x1f, 0x00, 0x07, 0xf0, 0x00, 0x00, 0x00, 0xff,
   0x37, 0x00, 0x3c, 0xdc, 0x00, 0x00, 0x80, 0xff, 0x31, 0x00, 0x30, 0xcc,
   0x00, 0x00, 0xf0, 0x01, 0x00, 0x00, 0x00, 0xcc, 0x00, 0x00, 0xf8, 0x00,
   0x00, 0xe0, 0x01, 0xce, 0x00, 0x00, 0x1c, 0x00, 0x00, 0xc0, 0x1f, 0xc7,
   0x00, 0x00, 0x0e, 0x00, 0x00, 0x00, 0xbe, 0xc3, 0x00, 0x00, 0x07, 0x00,
   0x0e, 0x00, 0xf0, 0xc1, 0x00, 0x80, 0x03, 0x00, 0x1f, 0x00, 0xe0, 0xc1,
   0x00, 0xc0, 0x01, 0x00, 0x38, 0x00, 0x80, 0xff, 0x00, 0xe0, 0x00, 0x00,
   0x70, 0x00, 0x00, 0xff, 0x0e, 0x60, 0x00, 0x00, 0xe0, 0x00, 0x00, 0xc0,
   0x1f, 0x30, 0x00, 0x00, 0xc0, 0x01, 0x00, 0xe0, 0x33, 0x30, 0x00, 0x00,
   0x80, 0x03, 0xf8, 0x7f, 0x73, 0x38, 0x00, 0x00, 0x00, 0x03, 0xfc, 0x3f,
   0xe3, 0x1c, 0x00, 0x00, 0x00, 0x03, 0xff, 0x3f, 0xc3, 0x1d, 0x00, 0x00,
   0x00, 0xe3, 0xff, 0x3f, 0x83, 0x0f, 0x00, 0x00, 0x00, 0xff, 0xc3, 0x0f,
   0x07, 0x0f, 0x00, 0x00, 0x00, 0xff, 0x00, 0x07, 0x0e, 0x00, 0x00, 0x00,
   0x00, 0x0f, 0x00, 0x00, 0x1c, 0x00, 0x00, 0x00, 0x00, 0x0f, 0x00, 0x00,
   0x38, 0x00, 0x00, 0x00, 0xc0, 0x0f, 0x00, 0x00, 0xf0, 0x00, 0x00, 0x00,
   0xc0, 0x0f, 0x00, 0x00, 0xe0, 0x3f, 0x00, 0x70, 0xf0, 0x03, 0x00, 0x00,
   0x80, 0x7f, 0x00, 0xf0, 0xf0, 0x03, 0x00, 0x00, 0x00, 0xc0, 0x00, 0xe0,
   0xff, 0x3f, 0x00, 0x00, 0x00, 0xc0, 0x01, 0xc0, 0xff, 0x3f, 0x00, 0x00,
   0x00, 0x80, 0x3f, 0x00, 0x03, 0xff, 0x00, 0x00, 0x00, 0x00, 0x7f, 0x00,
   0x03, 0xff, 0x00, 0x00, 0x00, 0x00, 0xe0, 0x00, 0x00, 0xff, 0x00, 0x00,
   0x00, 0x00, 0xc0, 0x00, 0x00, 0xff, 0x00, 0x00, 0x00, 0x00, 0xc0, 0xff,
   0xff, 0x3f, 0x00, 0x00, 0x00, 0x00, 0xc0, 0xff, 0xff, 0x3f, 0x00, 0x00,
   0x00, 0x00, 0x00, 0x00, 0x00, 0x00, 0x00, 0x00, 0x00, 0x00, 0x00, 0x00,
   0x00, 0x00, 0x00, 0x00, 0x00, 0x00, 0x00, 0x00, 0x00, 0x00, 0x00, 0x00,
   0x00, 0x00, 0x00, 0x00, 0x00, 0x00, 0x00, 0x00, 0x00, 0x00, 0x00, 0x00,
   0x00, 0x00, 0x00, 0x00, 0x00, 0x00, 0x00, 0x00, 0x00, 0x00, 0x00, 0x00,
   0x00, 0x00, 0x00, 0x00, 0x00, 0x00, 0x00, 0x00, 0x00, 0x00, 0x00, 0x00,
   0x00, 0x00, 0x00, 0x00, 0x00, 0x00, 0x00, 0x00, 0x00, 0x00, 0x00, 0x00,
   0x00, 0x00, 0x00, 0x00, 0x00, 0x00, 0x00, 0x00};
