#define sleep2_width 64
#define sleep2_height 64
static char sleep2_bits[] = {
   0x00, 0x00, 0x00, 0x00, 0x00, 0x00, 0x00, 0x00, 0x00, 0x00, 0x00, 0x00,
   0x00, 0x00, 0x00, 0x00, 0x00, 0x00, 0x00, 0x00, 0x00, 0x00, 0x00, 0x00,
   0x00, 0x00, 0x00, 0x00, 0x00, 0x00, 0x00, 0x00, 0x00, 0x00, 0x00, 0x00,
   0x00, 0x00, 0x00, 0x00, 0x00, 0x00, 0x00, 0x00, 0x00, 0x00, 0x00, 0x00,
   0x00, 0x00, 0x00, 0x00, 0x00, 0x00, 0x00, 0x00, 0x00, 0x00, 0x00, 0x00,
   0x00, 0x00, 0x00, 0x00, 0x00, 0x00, 0x00, 0x00, 0x00, 0x00, 0x00, 0x00,
   0x00, 0x00, 0x00, 0x00, 0x00, 0x00, 0x00, 0x00, 0x00, 0x00, 0x00, 0x00,
   0x00, 0x00, 0x00, 0x00, 0x00, 0x00, 0x00, 0x00, 0x00, 0x00, 0x00, 0x00,
   0x00, 0x00, 0x00, 0x00, 0x00, 0x00, 0x00, 0x00, 0x00, 0x00, 0x00, 0x00,
   0x00, 0x00, 0x00, 0x00, 0x00, 0x00, 0x00, 0x00, 0x00, 0x00, 0x00, 0x00,
   0x00, 0x00, 0x00, 0x00, 0x00, 0x00, 0x00, 0x00, 0x00, 0x00, 0x00, 0x00,
   0x00, 0x00, 0x00, 0x00, 0x00, 0x00, 0x00, 0x00, 0x00, 0x00, 0x00, 0x00,
   0x00, 0x00, 0xff, 0x0f, 0x00, 0x00, 0x00, 0x00, 0x00, 0x00, 0xff, 0x0f,
   0x00, 0x00, 0x00, 0x00, 0x00, 0x00, 0x00, 0x07, 0xf0, 0x0f, 0x00, 0x00,
   0x00, 0x00, 0x80, 0x03, 0xf0, 0x0f, 0x00, 0x00, 0x00, 0x00, 0xe0, 0x01,
   0x00, 0x03, 0x00, 0x00, 0x00, 0x00, 0xf0, 0x00, 0x80, 0x03, 0x00, 0x00,
   0x00, 0x00, 0x38, 0x00, 0xc0, 0xc1, 0x03, 0x00, 0x00, 0x00, 0x1c, 0x00,
   0xe0, 0xe0, 0x03, 0x00, 0x00, 0x00, 0xff, 0x0f, 0xf0, 0x3f, 0x03, 0x00,
   0x00, 0x00, 0xff, 0x0f, 0xf0, 0x3d, 0x03, 0x00, 0x00, 0x00, 0x00, 0xc0,
   0x00, 0x3c, 0x07, 0x00, 0x00, 0x00, 0x00, 0xc0, 0x00, 0x3c, 0x07, 0x00,
   0x00, 0x00, 0x00, 0xf0, 0x03, 0x0c, 0x0e, 0x00, 0x00, 0x00, 0x00, 0xf0,
   0x03, 0x0c, 0x0c, 0x00, 0x00, 0x00, 0xc0, 0x3f, 0xff, 0x0f, 0x3c, 0x00,
   0x00, 0x00, 0xe0, 0x3f, 0xff, 0x0f, 0x7c, 0x00, 0x00, 0x00, 0x7c, 0x0c,
   0x0c, 0x03, 0xcc, 0x00, 0x00, 0x00, 0x1e, 0x0c, 0x0c, 0x03, 0xdc, 0x01,
   0x00, 0x00, 0x07, 0x0c, 0xf0, 0x00, 0x38, 0x03, 0x00, 0x80, 0x03, 0x0e,
   0xf0, 0x00, 0x30, 0x03, 0x00, 0xc0, 0x01, 0x06, 0x00, 0x00, 0xc0, 0x03,
   0x00, 0xc0, 0x00, 0x07, 0x00, 0x00, 0xc0, 0x03, 0x00, 0xc0, 0x00, 0x07,
   0x00, 0x00, 0xc0, 0x03, 0x00, 0xe0, 0x00, 0x03, 0x00, 0x00, 0xc0, 0x03,
   0x00, 0x60, 0x00, 0x03, 0x00, 0x00, 0xc0, 0x07, 0x00, 0x60, 0x00, 0x03,
   0x00, 0x00, 0xc0, 0x0f, 0x00, 0x30, 0x00, 0x07, 0x00, 0x00, 0xcc, 0x0c,
   0x00, 0x30, 0x00, 0x07, 0x00, 0x00, 0xce, 0x0c, 0x00, 0x30, 0x00, 0xce,
   0x01, 0x00, 0xc7, 0x0c, 0x00, 0x30, 0x00, 0xcc, 0x0f, 0x80, 0xc3, 0x1c,
   0x00, 0x30, 0x00, 0x0c, 0xfe, 0xc0, 0xc1, 0x1c, 0x00, 0x30, 0x00, 0x0c,
   0xf0, 0xc0, 0xe0, 0x3e, 0x00, 0x30, 0x00, 0x0c, 0xc0, 0x03, 0x30, 0x37,
   0x00, 0x30, 0x00, 0x0c, 0x00, 0x03, 0x3c, 0x33, 0x00, 0x70, 0x00, 0x30,
   0x00, 0x30, 0xcf, 0x33, 0x00, 0x70, 0x00, 0x30, 0x00, 0x30, 0xc3, 0x31,
   0x00, 0xe0, 0x00, 0xc0, 0xff, 0xff, 0xf0, 0x30, 0x00, 0xc0, 0x07, 0xc0,
   0xff, 0xff, 0x70, 0x30, 0x00, 0x80, 0xff, 0x0f, 0xc0, 0xff, 0x30, 0x3c,
   0x00, 0x00, 0xff, 0x0f, 0x00, 0xff, 0x30, 0x3e, 0x00, 0x00, 0xfc, 0xfc,
   0xff, 0xc3, 0xff, 0x0f, 0x00, 0x00, 0x00, 0xfc, 0xff, 0xc3, 0xff, 0x07,
   0x00, 0x00, 0x00, 0x00, 0x00, 0x00, 0x00, 0x00, 0x00, 0x00, 0x00, 0x00,
   0x00, 0x00, 0x00, 0x00, 0x00, 0x00, 0x00, 0x00, 0x00, 0x00, 0x00, 0x00,
   0x00, 0x00, 0x00, 0x00, 0x00, 0x00, 0x00, 0x00};
