#define sleep1_width 64
#define sleep1_height 64
static char sleep1_bits[] = {
   0x00, 0x00, 0x00, 0x00, 0x00, 0x00, 0x00, 0x00, 0x00, 0x00, 0x00, 0x00,
   0x00, 0x00, 0x00, 0x00, 0x00, 0x00, 0x00, 0x00, 0x00, 0x00, 0x00, 0x00,
   0x00, 0x00, 0x00, 0x00, 0x00, 0x00, 0x00, 0x00, 0x00, 0x00, 0x00, 0x00,
   0x00, 0x00, 0x00, 0x00, 0x00, 0x00, 0x00, 0x00, 0x00, 0x00, 0x00, 0x00,
   0x00, 0xf0, 0xff, 0x03, 0x00, 0x00, 0x00, 0x00, 0x00, 0xf0, 0xff, 0x03,
   0x00, 0x00, 0x00, 0x00, 0x00, 0x00, 0xc0, 0x01, 0x00, 0x00, 0x00, 0x00,
   0x00, 0x80, 0xe0, 0x00, 0x00, 0x00, 0x00, 0x00, 0x00, 0x40, 0x71, 0x00,
   0x00, 0x00, 0x00, 0x00, 0x00, 0xa0, 0x38, 0x00, 0x00, 0x00, 0x00, 0x00,
   0x00, 0x40, 0x9c, 0x00, 0x00, 0x00, 0x00, 0x00, 0x00, 0x00, 0x4e, 0x01,
   0x00, 0x00, 0x00, 0x00, 0x00, 0x00, 0xa7, 0x00, 0xff, 0x03, 0x00, 0x00,
   0x00, 0x80, 0x43, 0x00, 0xff, 0x01, 0x00, 0x00, 0x00, 0xc0, 0x01, 0x00,
   0xc0, 0x00, 0x00, 0x00, 0x00, 0xe0, 0x00, 0x00, 0xe0, 0x00, 0x00, 0x00,
   0x00, 0xf0, 0xff, 0x03, 0x78, 0x00, 0x00, 0x00, 0x00, 0xf0, 0xff, 0x03,
   0x1c, 0x00, 0x00, 0x00, 0x00, 0x00, 0x00, 0x00, 0xfe, 0x03, 0x00, 0x00,
   0x00, 0x00, 0x00, 0x00, 0xff, 0x03, 0x00, 0x00, 0x00, 0x00, 0x00, 0x00,
   0x00, 0x00, 0x00, 0x00, 0x00, 0x00, 0x00, 0x00, 0x00, 0x00, 0x00, 0x00,
   0x00, 0x00, 0x00, 0x00, 0x00, 0x00, 0x03, 0x00, 0x00, 0x00, 0x00, 0x00,
   0x00, 0x80, 0x07, 0x00, 0x00, 0x00, 0x00, 0x00, 0x00, 0xc0, 0x0d, 0x00,
   0x00, 0x00, 0x00, 0x00, 0x00, 0xe0, 0x0c, 0x00, 0x00, 0x00, 0x00, 0x00,
   0x03, 0x70, 0x0c, 0x00, 0x00, 0x00, 0x00, 0xc0, 0x07, 0x38, 0x0c, 0x00,
   0x00, 0x00, 0x00, 0xe0, 0x0c, 0x1c, 0x0c, 0x00, 0x00, 0x00, 0x00, 0x70,
   0x0c, 0x0c, 0x0c, 0x00, 0x00, 0x00, 0x00, 0x38, 0xfc, 0x0f, 0x3c, 0x00,
   0x00, 0x00, 0x00, 0x1c, 0xfc, 0x0f, 0x7c, 0x00, 0x00, 0x00, 0xc0, 0x0f,
   0x30, 0x03, 0xcc, 0x00, 0x00, 0x00, 0xf0, 0x0f, 0x30, 0x03, 0xcc, 0x01,
   0x00, 0x00, 0x7c, 0x0c, 0xe0, 0x03, 0x38, 0x03, 0x00, 0x00, 0x1e, 0x0c,
   0xc0, 0x03, 0x30, 0x03, 0x00, 0x00, 0x07, 0x03, 0x00, 0x00, 0xe0, 0x03,
   0x00, 0x00, 0x03, 0x03, 0x00, 0x00, 0xc0, 0x03, 0x00, 0x80, 0x03, 0x03,
   0x00, 0x00, 0xc0, 0x03, 0x00, 0x80, 0x03, 0x03, 0x00, 0x00, 0xc0, 0x03,
   0x00, 0xc0, 0x01, 0x03, 0x00, 0x00, 0xc0, 0x07, 0x00, 0xe0, 0x00, 0x03,
   0x00, 0x00, 0xc0, 0x0f, 0x00, 0x70, 0x00, 0x07, 0x00, 0x00, 0xf0, 0x0c,
   0x00, 0x30, 0x00, 0x07, 0x00, 0x00, 0xf8, 0x0c, 0x00, 0x30, 0x00, 0xce,
   0x03, 0x00, 0xcc, 0x1c, 0x00, 0x30, 0x00, 0x0c, 0x1f, 0x80, 0xcf, 0x1c,
   0x00, 0x30, 0x00, 0x0c, 0x3c, 0xc0, 0xc1, 0x1c, 0x00, 0x30, 0x00, 0x0c,
   0xf0, 0xc0, 0xe0, 0x39, 0x00, 0x30, 0x00, 0x1c, 0x80, 0x03, 0x30, 0x33,
   0x00, 0x30, 0x00, 0x1c, 0x00, 0x33, 0x38, 0x33, 0x00, 0x30, 0x00, 0x38,
   0x00, 0x78, 0xdf, 0x33, 0x00, 0x70, 0x00, 0x70, 0x00, 0xb0, 0xef, 0x33,
   0x00, 0xe0, 0x00, 0xe0, 0xff, 0xff, 0xf1, 0x38, 0x00, 0xc0, 0x0f, 0xc0,
   0xff, 0xff, 0x70, 0x38, 0x00, 0x80, 0xff, 0x0f, 0x00, 0xff, 0x30, 0x1c,
   0x00, 0x80, 0xff, 0x0f, 0x80, 0xff, 0x30, 0x1c, 0x00, 0x00, 0x7c, 0xfc,
   0xff, 0xc3, 0xff, 0x0f, 0x00, 0x00, 0x00, 0xfc, 0xff, 0xc3, 0xff, 0x07,
   0x00, 0x00, 0x00, 0x00, 0x00, 0x00, 0x00, 0x00, 0x00, 0x00, 0x00, 0x00,
   0x00, 0x00, 0x00, 0x00, 0x00, 0x00, 0x00, 0x00, 0x00, 0x00, 0x00, 0x00,
   0x00, 0x00, 0x00, 0x00, 0x00, 0x00, 0x00, 0x00};
