#define up1_width 64
#define up1_height 64
static char up1_bits[] = {
   0x00, 0x00, 0x00, 0xf0, 0x1f, 0x00, 0x00, 0x00, 0x00, 0x00, 0x00, 0xfc,
   0x3f, 0x00, 0x00, 0x00, 0x00, 0x00, 0xfe, 0x3f, 0xf8, 0x3f, 0x00, 0x00,
   0x00, 0x00, 0xc2, 0x0f, 0xf0, 0x23, 0x00, 0x00, 0x00, 0x00, 0xe0, 0x00,
   0x80, 0x07, 0x00, 0x00, 0x00, 0x00, 0xf0, 0x00, 0x00, 0x0f, 0x00, 0x00,
   0x00, 0x00, 0x7c, 0x0c, 0x30, 0x3e, 0x00, 0x00, 0x00, 0x00, 0x3c, 0x0c,
   0x30, 0x3c, 0x00, 0x00, 0x00, 0x00, 0x0c, 0x0c, 0x30, 0x70, 0x00, 0x00,
   0x00, 0x00, 0x0e, 0x0c, 0x30, 0x70, 0x00, 0x00, 0x00, 0x00, 0x0e, 0x0c,
   0x30, 0xe0, 0x00, 0x00, 0x00, 0x00, 0x06, 0x0c, 0x30, 0xe0, 0x00, 0x00,
   0x00, 0x00, 0x07, 0x00, 0x00, 0xc0, 0x00, 0x00, 0x00, 0x00, 0x03, 0x00,
   0x00, 0xc0, 0x00, 0x00, 0x00, 0x00, 0xff, 0x03, 0xc0, 0xff, 0x00, 0x00,
   0x00, 0x00, 0x7f, 0x02, 0x40, 0xfe, 0x00, 0x00, 0x00, 0x00, 0x03, 0x00,
   0x00, 0xc0, 0x00, 0x00, 0x00, 0x00, 0x07, 0x00, 0x00, 0xe0, 0x00, 0x00,
   0x00, 0x00, 0x0e, 0x0c, 0x0c, 0x70, 0x00, 0x00, 0x00, 0x00, 0x0e, 0x0c,
   0x0c, 0x70, 0x00, 0x00, 0x00, 0x00, 0xfc, 0x03, 0xf0, 0x3f, 0x00, 0x00,
   0x00, 0x00, 0xfc, 0x03, 0xf0, 0x3f, 0x00, 0x00, 0x00, 0x00, 0x3c, 0x00,
   0x00, 0x3c, 0x00, 0x00, 0x00, 0x00, 0x3c, 0x00, 0x00, 0x3c, 0x00, 0x00,
   0x00, 0xc0, 0xff, 0x0f, 0xf0, 0xff, 0x03, 0x00, 0x00, 0xe0, 0xff, 0x0f,
   0xf0, 0xff, 0x07, 0x00, 0x00, 0xf0, 0x7f, 0x00, 0x00, 0xff, 0x0f, 0x00,
   0x00, 0x70, 0x3e, 0x00, 0x00, 0x7c, 0x0c, 0x00, 0x00, 0x30, 0x0c, 0x00,
   0x00, 0x38, 0x0c, 0x00, 0x00, 0x30, 0x0c, 0x00, 0x00, 0x30, 0x0c, 0x00,
   0x00, 0x30, 0x0c, 0x00, 0x00, 0x30, 0x0c, 0x00, 0x00, 0x30, 0x0e, 0x00,
   0x00, 0x70, 0x0c, 0x00, 0x00, 0x30, 0x07, 0x00, 0x00, 0xe0, 0x0c, 0x00,
   0x00, 0x30, 0x03, 0x00, 0x00, 0xc0, 0x0c, 0x00, 0x00, 0x70, 0x00, 0x00,
   0x00, 0x00, 0x0e, 0x00, 0x00, 0x70, 0x00, 0x00, 0x00, 0x00, 0x0e, 0x00,
   0x00, 0xe0, 0x00, 0x00, 0x00, 0x00, 0x0f, 0x00, 0x00, 0xe0, 0x00, 0x00,
   0x00, 0x00, 0x07, 0x00, 0x00, 0xc0, 0x00, 0x00, 0x00, 0x00, 0x03, 0x00,
   0x00, 0xc0, 0x00, 0x00, 0x00, 0x00, 0x03, 0x00, 0x00, 0xc0, 0x00, 0x00,
   0x00, 0x00, 0x03, 0x00, 0x00, 0xc0, 0x01, 0x00, 0x00, 0x00, 0x03, 0x00,
   0x00, 0xc0, 0x01, 0x00, 0x00, 0x80, 0x03, 0x00, 0x00, 0xc0, 0x01, 0x00,
   0x00, 0x80, 0x03, 0x00, 0x00, 0x80, 0x03, 0x00, 0x00, 0xc0, 0x01, 0x00,
   0x00, 0x00, 0x07, 0x00, 0x00, 0xe0, 0x00, 0x00, 0x00, 0x00, 0x3e, 0x00,
   0x00, 0x7c, 0x00, 0x00, 0x00, 0x00, 0x7c, 0x00, 0xc0, 0x3f, 0x00, 0x00,
   0x00, 0x00, 0xf0, 0x3f, 0xfc, 0x03, 0x00, 0x00, 0x00, 0x00, 0xc0, 0x3f,
   0xfc, 0x00, 0x00, 0x00, 0x00, 0x00, 0x00, 0x30, 0x0c, 0x00, 0x00, 0x00,
   0x00, 0x00, 0x00, 0x30, 0x0c, 0x00, 0x00, 0x00, 0x00, 0x00, 0x00, 0x30,
   0x0c, 0x00, 0x00, 0x00, 0x00, 0x00, 0x00, 0x30, 0x0c, 0x00, 0x00, 0x00,
   0x00, 0x00, 0x00, 0x30, 0x0c, 0x00, 0x00, 0x00, 0x00, 0x00, 0x00, 0x30,
   0x0c, 0x00, 0x00, 0x00, 0x00, 0x00, 0x00, 0x30, 0x0c, 0x00, 0x00, 0x00,
   0x00, 0x00, 0x00, 0x30, 0x0c, 0x00, 0x00, 0x00, 0x00, 0x00, 0x00, 0xe0,
   0x07, 0x00, 0x00, 0x00, 0x00, 0x00, 0x00, 0xc0, 0x03, 0x00, 0x00, 0x00,
   0x00, 0x00, 0x00, 0x00, 0x00, 0x00, 0x00, 0x00, 0x00, 0x00, 0x00, 0x00,
   0x00, 0x00, 0x00, 0x00, 0x00, 0x00, 0x00, 0x00, 0x00, 0x00, 0x00, 0x00,
   0x00, 0x00, 0x00, 0x00, 0x00, 0x00, 0x00, 0x00};
