#define up2_width 64
#define up2_height 64
static char up2_bits[] = {
   0x00, 0x00, 0x00, 0xf0, 0x0f, 0x00, 0x00, 0x00, 0x00, 0x00, 0x00, 0xf8,
   0x1f, 0x00, 0x00, 0x00, 0x00, 0xc0, 0xff, 0x1f, 0xf8, 0xff, 0x03, 0x00,
   0x00, 0xe0, 0x83, 0x07, 0xe0, 0xe3, 0x07, 0x00, 0x00, 0xf0, 0xcf, 0x01,
   0x80, 0xf7, 0x07, 0x00, 0x00, 0x30, 0xef, 0x00, 0x00, 0x77, 0x0e, 0x00,
   0x00, 0x30, 0x7c, 0x0c, 0x30, 0x3e, 0x0e, 0x00, 0x00, 0x30, 0x3c, 0x0c,
   0x30, 0x3c, 0x0c, 0x00, 0x00, 0x30, 0x0c, 0x0c, 0x30, 0x30, 0x0c, 0x00,
   0x00, 0x30, 0x0c, 0x0c, 0x30, 0x30, 0x0c, 0x00, 0x00, 0x30, 0x0c, 0x0c,
   0x30, 0x30, 0x0c, 0x00, 0x00, 0x30, 0x0c, 0x0c, 0x30, 0x30, 0x0c, 0x00,
   0x00, 0x30, 0x02, 0x00, 0x00, 0xc0, 0x0c, 0x00, 0x00, 0x30, 0x03, 0x00,
   0x00, 0xc0, 0x0c, 0x00, 0x00, 0x30, 0xff, 0x03, 0xc0, 0xff, 0x0c, 0x00,
   0x00, 0x30, 0xff, 0x03, 0xc0, 0xff, 0x0c, 0x00, 0x00, 0x30, 0x03, 0x00,
   0x00, 0xc0, 0x0c, 0x00, 0x00, 0x30, 0x07, 0x00, 0x00, 0xe0, 0x0c, 0x00,
   0x00, 0x70, 0x0e, 0x0c, 0x0c, 0x70, 0x0e, 0x00, 0x00, 0x60, 0x8c, 0x0f,
   0x7c, 0x30, 0x06, 0x00, 0x00, 0xe0, 0xfc, 0x07, 0xf8, 0x3f, 0x07, 0x00,
   0x00, 0xe0, 0xfc, 0x00, 0xe0, 0x3f, 0x03, 0x00, 0x00, 0xc0, 0x30, 0x00,
   0x00, 0x0c, 0x03, 0x00, 0x00, 0xc0, 0xf0, 0x01, 0x00, 0x0f, 0x03, 0x00,
   0x00, 0xc0, 0xe0, 0x0f, 0xf0, 0x07, 0x03, 0x00, 0x00, 0xc0, 0x81, 0x0f,
   0xf0, 0x01, 0x03, 0x00, 0x00, 0xc0, 0x01, 0x00, 0x00, 0x80, 0x03, 0x00,
   0x00, 0xc0, 0x01, 0x00, 0x00, 0x80, 0x03, 0x00, 0x00, 0x80, 0x03, 0x00,
   0x00, 0xc0, 0x01, 0x00, 0x00, 0x80, 0x03, 0x00, 0x00, 0xc0, 0x01, 0x00,
   0x00, 0x80, 0xf3, 0x00, 0x00, 0xcf, 0x00, 0x00, 0x00, 0x00, 0xfb, 0x00,
   0x00, 0xdf, 0x00, 0x00, 0x00, 0x00, 0x1f, 0xc0, 0x03, 0xf8, 0x00, 0x00,
   0x00, 0x00, 0x0f, 0xe0, 0x07, 0xf0, 0x00, 0x00, 0x00, 0x00, 0x07, 0x30,
   0x0c, 0xe0, 0x01, 0x00, 0x00, 0x80, 0x03, 0x30, 0x0c, 0xc0, 0x01, 0x00,
   0x00, 0xc0, 0x01, 0x30, 0x0c, 0x80, 0x03, 0x00, 0x00, 0xc0, 0x01, 0x30,
   0x0c, 0x00, 0x03, 0x00, 0x00, 0xc0, 0x00, 0x30, 0x0c, 0x00, 0x03, 0x00,
   0x00, 0xc0, 0x00, 0x30, 0x0c, 0x00, 0x03, 0x00, 0x00, 0xc0, 0x00, 0x30,
   0x0c, 0x00, 0x03, 0x00, 0x00, 0xc0, 0x00, 0x30, 0x0c, 0x00, 0x03, 0x00,
   0x00, 0xc0, 0x00, 0x30, 0x0c, 0x00, 0x03, 0x00, 0x00, 0xc0, 0x00, 0x30,
   0x0c, 0x00, 0x03, 0x00, 0x00, 0xc0, 0x00, 0x30, 0x0c, 0x00, 0x03, 0x00,
   0x00, 0xc0, 0x01, 0x20, 0x04, 0x00, 0x03, 0x00, 0x00, 0xc0, 0x01, 0x00,
   0x00, 0x80, 0x03, 0x00, 0x00, 0x80, 0x01, 0x00, 0x00, 0x80, 0x03, 0x00,
   0x00, 0x80, 0x03, 0xf0, 0x0f, 0x80, 0x03, 0x00, 0x00, 0x80, 0x03, 0xf0,
   0x0f, 0x80, 0x03, 0x00, 0x00, 0x80, 0x03, 0x30, 0x0c, 0xc0, 0x01, 0x00,
   0x00, 0x00, 0x03, 0x38, 0x1c, 0xc0, 0x01, 0x00, 0x00, 0x00, 0x03, 0x1c,
   0x38, 0xc0, 0x00, 0x00, 0x00, 0x00, 0x03, 0x0e, 0x70, 0xc0, 0x00, 0x00,
   0x00, 0x00, 0x03, 0x07, 0xe0, 0xc0, 0x00, 0x00, 0x00, 0x00, 0x83, 0x03,
   0xc0, 0xc1, 0x00, 0x00, 0x00, 0x00, 0xc3, 0x01, 0x80, 0xc3, 0x00, 0x00,
   0x00, 0x00, 0xf3, 0x00, 0x00, 0xe7, 0x00, 0x00, 0x00, 0x00, 0x7f, 0x00,
   0x00, 0x7e, 0x00, 0x00, 0x00, 0x00, 0x3e, 0x00, 0x00, 0x3c, 0x00, 0x00,
   0x00, 0x00, 0x00, 0x00, 0x00, 0x00, 0x00, 0x00, 0x00, 0x00, 0x00, 0x00,
   0x00, 0x00, 0x00, 0x00, 0x00, 0x00, 0x00, 0x00, 0x00, 0x00, 0x00, 0x00,
   0x00, 0x00, 0x00, 0x00, 0x00, 0x00, 0x00, 0x00};
