#define upleft1_width 64
#define upleft1_height 64
static char upleft1_bits[] = {
   0x00, 0x00, 0x00, 0x00, 0x1f, 0x00, 0x00, 0x00, 0x00, 0x00, 0x00, 0xe0,
   0x1f, 0x00, 0x00, 0x00, 0x00, 0x00, 0xff, 0xff, 0x18, 0x00, 0x00, 0x00,
   0x00, 0xe0, 0xff, 0xff, 0x38, 0x00, 0x00, 0x00, 0x00, 0xf0, 0xc1, 0x7f,
   0x38, 0x00, 0x00, 0x00, 0x00, 0x30, 0xe0, 0x3f, 0x30, 0x00, 0x00, 0x00,
   0x00, 0xfc, 0xf3, 0x18, 0x30, 0x00, 0x00, 0x00, 0x00, 0xfe, 0x3b, 0x18,
   0x30, 0x00, 0x00, 0x00, 0x3c, 0x0f, 0x1c, 0x1c, 0x30, 0x00, 0x00, 0x00,
   0x64, 0x0f, 0x0e, 0x1c, 0x30, 0x00, 0x00, 0x00, 0x60, 0x03, 0x07, 0x0c,
   0x30, 0x00, 0x00, 0x00, 0xc0, 0x03, 0x03, 0x0c, 0x30, 0x00, 0x00, 0x00,
   0x00, 0x03, 0x00, 0x0c, 0x30, 0x00, 0x00, 0x00, 0x00, 0x03, 0x00, 0x0c,
   0x30, 0x00, 0x00, 0x00, 0x00, 0x03, 0x00, 0x00, 0x38, 0x00, 0x00, 0x00,
   0x00, 0x03, 0x00, 0x00, 0x18, 0x00, 0x00, 0x00, 0x00, 0x07, 0x00, 0x00,
   0xfc, 0x07, 0x00, 0x00, 0x00, 0x07, 0x00, 0x00, 0xfe, 0x3f, 0x00, 0x00,
   0x00, 0x0e, 0x00, 0x00, 0x07, 0xfc, 0x01, 0x00, 0x00, 0x0c, 0x00, 0x00,
   0x03, 0xf0, 0x07, 0x00, 0x00, 0x0c, 0x00, 0x00, 0x00, 0x80, 0x0f, 0x00,
   0x00, 0x1c, 0x00, 0x00, 0x00, 0x00, 0x1c, 0x00, 0x00, 0xf8, 0x00, 0x00,
   0x00, 0x00, 0x38, 0x00, 0x00, 0xf0, 0x00, 0x00, 0x00, 0x00, 0x70, 0x00,
   0x00, 0xc0, 0x01, 0x00, 0x00, 0x00, 0xe0, 0x00, 0x00, 0xc0, 0x01, 0x00,
   0x00, 0x00, 0xc0, 0x01, 0x00, 0xc0, 0x01, 0x00, 0x00, 0x00, 0xc0, 0x01,
   0x00, 0x80, 0x03, 0x00, 0x00, 0x00, 0xc0, 0x01, 0x00, 0x80, 0x03, 0x00,
   0x00, 0x00, 0x80, 0x03, 0x00, 0x00, 0x07, 0x00, 0x00, 0x00, 0x00, 0x07,
   0x00, 0x00, 0x07, 0x00, 0x00, 0x00, 0x00, 0x0e, 0x00, 0x00, 0x06, 0x00,
   0x00, 0x00, 0x00, 0x0e, 0x00, 0x00, 0x0e, 0xf0, 0x00, 0x00, 0x00, 0x0c,
   0x00, 0x00, 0x0e, 0xf8, 0x00, 0x00, 0x00, 0x1c, 0x00, 0x00, 0x0c, 0x1c,
   0x00, 0x00, 0x00, 0x18, 0x00, 0x00, 0x0c, 0x0e, 0x00, 0x00, 0x00, 0x18,
   0x00, 0x00, 0x0c, 0x0f, 0x00, 0x00, 0x00, 0x18, 0x00, 0x00, 0x1c, 0x0f,
   0x00, 0x00, 0x00, 0x1c, 0x00, 0x00, 0x1c, 0x0c, 0x00, 0x00, 0xc0, 0x0f,
   0x00, 0x00, 0x1c, 0x0c, 0x00, 0x00, 0x80, 0x07, 0x00, 0x00, 0x38, 0x0c,
   0x00, 0x00, 0x00, 0x0f, 0x00, 0x00, 0x30, 0x0c, 0x00, 0x00, 0x00, 0x0f,
   0x00, 0x00, 0x30, 0x3c, 0x00, 0x00, 0x00, 0x0c, 0x00, 0x00, 0x70, 0x3c,
   0x00, 0x00, 0x00, 0x1c, 0x00, 0x00, 0xe0, 0xf3, 0x00, 0x70, 0x30, 0x3c,
   0x00, 0x00, 0xc0, 0xf3, 0x00, 0xf0, 0x30, 0x38, 0x00, 0x00, 0x00, 0xf3,
   0x01, 0xf0, 0xfd, 0x70, 0x00, 0x00, 0x00, 0xf3, 0x03, 0xf0, 0xff, 0x70,
   0x00, 0x00, 0x00, 0xff, 0x07, 0xf0, 0xcf, 0xe3, 0x00, 0x00, 0x00, 0xff,
   0x0f, 0xf8, 0xcf, 0xc3, 0x00, 0x00, 0x00, 0x7f, 0x00, 0xfe, 0x0f, 0xc3,
   0x00, 0x00, 0x00, 0x3f, 0xc0, 0xff, 0x03, 0xe3, 0x00, 0x00, 0x80, 0x03,
   0xfc, 0x03, 0x00, 0x7e, 0x00, 0x00, 0x80, 0x81, 0xff, 0x01, 0x00, 0x3c,
   0x00, 0x00, 0x80, 0xff, 0x0f, 0x00, 0x00, 0x00, 0x00, 0x00, 0x80, 0xff,
   0x03, 0x00, 0x00, 0x00, 0x00, 0x00, 0x00, 0x00, 0x00, 0x00, 0x00, 0x00,
   0x00, 0x00, 0x00, 0x00, 0x00, 0x00, 0x00, 0x00, 0x00, 0x00, 0x00, 0x00,
   0x00, 0x00, 0x00, 0x00, 0x00, 0x00, 0x00, 0x00, 0x00, 0x00, 0x00, 0x00,
   0x00, 0x00, 0x00, 0x00, 0x00, 0x00, 0x00, 0x00, 0x00, 0x00, 0x00, 0x00,
   0x00, 0x00, 0x00, 0x00, 0x00, 0x00, 0x00, 0x00, 0x00, 0x00, 0x00, 0x00,
   0x00, 0x00, 0x00, 0x00, 0x00, 0x00, 0x00, 0x00};
