#define upleft2_width 64
#define upleft2_height 64
static char upleft2_bits[] = {
   0x00, 0x00, 0x00, 0x00, 0x00, 0x00, 0x00, 0x00, 0x00, 0x00, 0x00, 0x00,
   0x00, 0x00, 0x00, 0x00, 0x00, 0x00, 0x00, 0x00, 0x00, 0x00, 0x00, 0x00,
   0x00, 0x00, 0x00, 0x00, 0x00, 0x00, 0x00, 0x00, 0x00, 0x00, 0xff, 0xff,
   0x00, 0x00, 0x00, 0x00, 0x00, 0x80, 0xff, 0xff, 0x00, 0x00, 0x00, 0x00,
   0x00, 0xc0, 0xc1, 0xcf, 0x03, 0x00, 0x00, 0x00, 0x00, 0xe0, 0x00, 0xcf,
   0x1f, 0x00, 0x00, 0x00, 0x00, 0x70, 0x3f, 0x00, 0xfc, 0x0f, 0x00, 0x00,
   0x00, 0x30, 0x3f, 0x00, 0xfc, 0x0f, 0x00, 0x00, 0x00, 0x3c, 0x00, 0x70,
   0x00, 0x0c, 0x00, 0x00, 0x00, 0x37, 0x00, 0xfe, 0x00, 0x0e, 0x00, 0x00,
   0xc0, 0x31, 0xc0, 0xdf, 0x00, 0x07, 0x00, 0x00, 0x40, 0x30, 0xe0, 0xc7,
   0x80, 0x07, 0x00, 0x00, 0x00, 0x30, 0xe0, 0xc0, 0x80, 0x03, 0x00, 0x00,
   0x00, 0x30, 0x60, 0xc0, 0x80, 0x01, 0x00, 0x00, 0xf8, 0x33, 0x00, 0xc0,
   0xc0, 0x01, 0x00, 0x00, 0xfc, 0x33, 0x00, 0xc0, 0xc0, 0x00, 0x00, 0x00,
   0x1c, 0xff, 0x00, 0xc0, 0xc0, 0x00, 0x00, 0x00, 0x0c, 0xff, 0x00, 0xc0,
   0xe0, 0x01, 0x00, 0x00, 0x1c, 0xf0, 0x00, 0x00, 0xb0, 0x03, 0x00, 0x00,
   0x1c, 0xf0, 0x00, 0x00, 0x30, 0x07, 0x00, 0x00, 0x78, 0xc0, 0x0f, 0x00,
   0x38, 0x0e, 0x00, 0x00, 0xf0, 0xc0, 0x0f, 0x00, 0x38, 0x1c, 0x00, 0x00,
   0xc0, 0x01, 0x00, 0x00, 0x0c, 0x38, 0xfc, 0x00, 0xc0, 0x03, 0x00, 0x00,
   0x0e, 0x70, 0xfe, 0x00, 0x80, 0x0f, 0x00, 0x13, 0x07, 0xe0, 0xc7, 0x00,
   0x00, 0x1f, 0x00, 0x32, 0x03, 0xc0, 0xc3, 0x00, 0x00, 0x3c, 0x00, 0x00,
   0x00, 0x00, 0xc3, 0x00, 0x00, 0x70, 0x00, 0x00, 0x00, 0x80, 0xe3, 0x00,
   0x00, 0xe0, 0x03, 0x00, 0x00, 0xc0, 0x71, 0x00, 0x00, 0xc0, 0x07, 0x00,
   0x00, 0xc0, 0x30, 0x00, 0x00, 0x00, 0x0e, 0x00, 0x00, 0xc0, 0xf0, 0x00,
   0x00, 0x00, 0x1c, 0x00, 0x00, 0xe0, 0xf8, 0x00, 0x00, 0x00, 0x38, 0x00,
   0x00, 0xf0, 0xcc, 0x00, 0x00, 0x00, 0x70, 0x00, 0x00, 0x30, 0xcc, 0x01,
   0x00, 0x00, 0xe0, 0x00, 0x00, 0x00, 0x8c, 0x0f, 0x00, 0x00, 0xc0, 0x01,
   0x00, 0x00, 0x0c, 0x1f, 0x00, 0x00, 0x80, 0x03, 0x00, 0x00, 0x00, 0x3c,
   0x00, 0x00, 0x00, 0x03, 0x00, 0x00, 0x00, 0x30, 0x00, 0x00, 0x00, 0x03,
   0x00, 0x0c, 0x00, 0x30, 0x00, 0x00, 0x00, 0x03, 0x00, 0x1c, 0x00, 0x30,
   0x00, 0x00, 0x00, 0x03, 0x00, 0x38, 0x00, 0x30, 0x00, 0x00, 0x00, 0x07,
   0x00, 0x70, 0x00, 0x30, 0x00, 0x00, 0x00, 0x07, 0x00, 0xe0, 0x00, 0x30,
   0x00, 0x00, 0x00, 0x06, 0x00, 0xc0, 0x00, 0x70, 0x00, 0x00, 0x00, 0x0e,
   0x00, 0xc0, 0x3f, 0x60, 0x00, 0x00, 0x00, 0x0c, 0x00, 0xc0, 0x7f, 0xe0,
   0x00, 0x00, 0x00, 0x0c, 0x00, 0xc0, 0xe0, 0xc0, 0x00, 0x00, 0x00, 0x1c,
   0x00, 0xc0, 0xc0, 0xc1, 0x00, 0x00, 0x00, 0x38, 0x00, 0xc0, 0x80, 0xc3,
   0x00, 0x00, 0x00, 0x70, 0x00, 0xc0, 0x00, 0xc3, 0x00, 0x00, 0x00, 0xe0,
   0x3f, 0xc0, 0x00, 0xc3, 0x00, 0x00, 0x00, 0xc0, 0xff, 0xc1, 0x00, 0xc7,
   0x00, 0x00, 0x00, 0x00, 0xf8, 0xc3, 0x00, 0xce, 0x00, 0x00, 0x00, 0x00,
   0x00, 0xc3, 0x00, 0xdc, 0x00, 0x00, 0x00, 0x00, 0x00, 0xc3, 0x00, 0xf8,
   0x00, 0x00, 0x00, 0x00, 0x00, 0xc3, 0x00, 0xf0, 0x00, 0x00, 0x00, 0x00,
   0x00, 0xc3, 0x00, 0x00, 0x00, 0x00, 0x00, 0x00, 0x00, 0xc3, 0x00, 0x00,
   0x00, 0x00, 0x00, 0x00, 0x00, 0xc3, 0x00, 0x00, 0x00, 0x00, 0x00, 0x00,
   0x00, 0xc3, 0x00, 0x00, 0x00, 0x00, 0x00, 0x00, 0x00, 0x7e, 0x00, 0x00,
   0x00, 0x00, 0x00, 0x00, 0x00, 0x3c, 0x00, 0x00};
