#define upright1_width 64
#define upright1_height 64
static char upright1_bits[] = {
   0x00, 0x00, 0x00, 0xfc, 0x00, 0x00, 0x00, 0x00, 0x00, 0x00, 0x00, 0xfc,
   0x0f, 0x00, 0x00, 0x00, 0x00, 0x00, 0x00, 0x0c, 0xff, 0xff, 0x03, 0x00,
   0x00, 0x00, 0x00, 0x0c, 0xff, 0xff, 0x07, 0x00, 0x00, 0x00, 0x00, 0x0c,
   0xfc, 0x03, 0x0f, 0x00, 0x00, 0x00, 0x00, 0x0c, 0xfc, 0x03, 0x0c, 0x00,
   0x00, 0x00, 0x00, 0x0c, 0x30, 0xcc, 0x3f, 0x00, 0x00, 0x00, 0x00, 0x0c,
   0x30, 0xcc, 0x3f, 0x00, 0x00, 0x00, 0x00, 0x0c, 0x30, 0x30, 0xf0, 0x3c,
   0x00, 0x00, 0x00, 0x0c, 0x30, 0x30, 0xf0, 0x0e, 0x00, 0x00, 0x00, 0x0c,
   0x30, 0xc0, 0xc0, 0x03, 0x00, 0x00, 0x00, 0x0c, 0x30, 0xc0, 0xc0, 0x01,
   0x00, 0x00, 0x00, 0x0c, 0x30, 0x00, 0xc0, 0x00, 0x00, 0x00, 0x00, 0x0c,
   0x30, 0x00, 0xc0, 0x00, 0x00, 0x00, 0x00, 0x0c, 0x00, 0x00, 0xc0, 0x00,
   0x00, 0x00, 0x00, 0x0f, 0x00, 0x00, 0xe0, 0x00, 0x00, 0x00, 0xf0, 0x3f,
   0x00, 0x00, 0x60, 0x00, 0x00, 0x00, 0xfc, 0x3f, 0x00, 0x00, 0x60, 0x00,
   0x00, 0xc0, 0x1f, 0xc0, 0x00, 0x00, 0x30, 0x00, 0x00, 0xc0, 0x0f, 0xc0,
   0x00, 0x00, 0x30, 0x00, 0x00, 0x70, 0x00, 0x00, 0x00, 0x00, 0x38, 0x00,
   0x00, 0x38, 0x00, 0x00, 0x00, 0x00, 0x18, 0x00, 0x00, 0x1c, 0x00, 0x00,
   0x00, 0x00, 0x0f, 0x00, 0x00, 0x0e, 0x00, 0x00, 0x00, 0x80, 0x0f, 0x00,
   0x00, 0x07, 0x00, 0x00, 0x00, 0xc0, 0x01, 0x00, 0x00, 0x07, 0x00, 0x00,
   0x00, 0xc0, 0x01, 0x00, 0x00, 0x03, 0x00, 0x00, 0x00, 0xc0, 0x01, 0x00,
   0x80, 0x03, 0x00, 0x00, 0x00, 0xc0, 0x00, 0x00, 0xc0, 0x01, 0x00, 0x00,
   0x00, 0xc0, 0x00, 0x00, 0xe0, 0x01, 0x00, 0x00, 0x00, 0xe0, 0x00, 0x00,
   0x70, 0x00, 0x00, 0x00, 0x00, 0xe0, 0x00, 0x00, 0x70, 0x00, 0x00, 0x00,
   0x00, 0xe0, 0x00, 0x00, 0x38, 0x00, 0x00, 0x00, 0x0f, 0x70, 0x00, 0x00,
   0x38, 0x00, 0x00, 0x00, 0x1f, 0x70, 0x00, 0x00, 0x18, 0x00, 0x00, 0x00,
   0x38, 0x30, 0x00, 0x00, 0x18, 0x00, 0x00, 0x00, 0x30, 0x30, 0x00, 0x00,
   0x18, 0x00, 0x00, 0x00, 0xf0, 0x30, 0x00, 0x00, 0x38, 0x00, 0x00, 0x00,
   0x70, 0x38, 0x00, 0x00, 0x70, 0x00, 0x00, 0x00, 0x30, 0x38, 0x00, 0x00,
   0xf0, 0x00, 0x00, 0x00, 0x30, 0x38, 0x00, 0x00, 0xf0, 0x00, 0x00, 0x00,
   0x30, 0x1c, 0x00, 0x00, 0x70, 0x00, 0x00, 0x00, 0x30, 0x1c, 0x00, 0x00,
   0x30, 0x00, 0x00, 0x00, 0x3c, 0x0c, 0x00, 0x00, 0x30, 0x00, 0x00, 0x00,
   0x3c, 0x0e, 0x00, 0x00, 0x3c, 0x0c, 0x0e, 0x00, 0xcc, 0x07, 0x00, 0x00,
   0x1e, 0x0c, 0x0f, 0x00, 0xcf, 0x03, 0x00, 0x00, 0x0e, 0xff, 0x07, 0x80,
   0xcf, 0x00, 0x00, 0x00, 0x86, 0xff, 0x07, 0xc0, 0xcf, 0x00, 0x00, 0x00,
   0xc3, 0xf3, 0x07, 0xf0, 0xff, 0x00, 0x00, 0x00, 0xc3, 0xf3, 0x07, 0xf0,
   0xff, 0x00, 0x00, 0x00, 0xc3, 0xf1, 0xff, 0x00, 0xfc, 0x00, 0x00, 0x00,
   0xc3, 0xf0, 0xff, 0x00, 0xfc, 0x00, 0x00, 0x00, 0x7e, 0x00, 0xc0, 0x3f,
   0xc0, 0x00, 0x00, 0x00, 0x3c, 0x00, 0xc0, 0x3f, 0xc0, 0x00, 0x00, 0x00,
   0x00, 0x00, 0x00, 0xf0, 0xff, 0x00, 0x00, 0x00, 0x00, 0x00, 0x00, 0xf0,
   0xff, 0x00, 0x00, 0x00, 0x00, 0x00, 0x00, 0x00, 0x00, 0x00, 0x00, 0x00,
   0x00, 0x00, 0x00, 0x00, 0x00, 0x00, 0x00, 0x00, 0x00, 0x00, 0x00, 0x00,
   0x00, 0x00, 0x00, 0x00, 0x00, 0x00, 0x00, 0x00, 0x00, 0x00, 0x00, 0x00,
   0x00, 0x00, 0x00, 0x00, 0x00, 0x00, 0x00, 0x00, 0x00, 0x00, 0x00, 0x00,
   0x00, 0x00, 0x00, 0x00, 0x00, 0x00, 0x00, 0x00, 0x00, 0x00, 0x00, 0x00,
   0x00, 0x00, 0x00, 0x00, 0x00, 0x00, 0x00, 0x00};
