#define upright2_width 64
#define upright2_height 64
static char upright2_bits[] = {
   0x00, 0x00, 0x00, 0x00, 0x00, 0x00, 0x00, 0x00, 0x00, 0x00, 0x00, 0x00,
   0x00, 0x00, 0x00, 0x00, 0x00, 0x00, 0x00, 0x00, 0x00, 0x00, 0x00, 0x00,
   0x00, 0x00, 0x00, 0x00, 0x00, 0x00, 0x00, 0x00, 0x00, 0x00, 0x00, 0x00,
   0x1f, 0x7f, 0x00, 0x00, 0x00, 0x00, 0x00, 0x00, 0xff, 0xff, 0x01, 0x00,
   0x00, 0x00, 0x00, 0xc0, 0xf3, 0xf1, 0x03, 0x00, 0x00, 0x00, 0x00, 0xfc,
   0xf3, 0x00, 0x07, 0x00, 0x00, 0x00, 0xf0, 0x3f, 0x00, 0xfc, 0x0e, 0x00,
   0x00, 0x00, 0xf0, 0x3f, 0x00, 0x8c, 0x0e, 0x00, 0x00, 0x00, 0x30, 0x00,
   0x1f, 0x00, 0x3e, 0x00, 0x00, 0x00, 0x70, 0x00, 0x7f, 0x00, 0xec, 0x00,
   0x00, 0x00, 0xe0, 0x00, 0xfb, 0x00, 0x8c, 0x03, 0x00, 0x00, 0xe0, 0x00,
   0xf3, 0x03, 0x0c, 0x02, 0x00, 0x00, 0xc0, 0x01, 0xc3, 0x03, 0x0c, 0x00,
   0x00, 0x00, 0xc0, 0x01, 0x03, 0x03, 0x0c, 0x00, 0x00, 0x00, 0x80, 0x03,
   0x03, 0x00, 0xcc, 0x0f, 0x00, 0x00, 0x80, 0x03, 0x03, 0x00, 0xec, 0x1f,
   0x00, 0x00, 0x00, 0x07, 0x03, 0x00, 0xfe, 0x30, 0x00, 0x00, 0x80, 0x07,
   0x03, 0x00, 0x7e, 0x30, 0x00, 0x00, 0xc0, 0x0d, 0x00, 0x00, 0x0f, 0x3c,
   0x00, 0x00, 0xe0, 0x0c, 0x00, 0x80, 0x07, 0x1e, 0x00, 0x00, 0x70, 0x0c,
   0x00, 0xf0, 0x03, 0x0f, 0x00, 0x0e, 0x38, 0x1c, 0x00, 0xf0, 0x80, 0x07,
   0x00, 0x3f, 0x1c, 0x38, 0x00, 0x00, 0xc0, 0x03, 0x00, 0x73, 0x0e, 0x70,
   0x00, 0x00, 0xe0, 0x01, 0x00, 0xc3, 0x07, 0xe0, 0xcc, 0x00, 0xf0, 0x00,
   0x00, 0xc3, 0x03, 0xc0, 0x84, 0x00, 0x78, 0x00, 0x00, 0xc3, 0x00, 0x00,
   0x00, 0x00, 0x1c, 0x00, 0x00, 0xc7, 0x01, 0x00, 0x00, 0x00, 0x0f, 0x00,
   0x00, 0x0e, 0x03, 0x00, 0x00, 0xc0, 0x07, 0x00, 0x00, 0x0c, 0x03, 0x00,
   0x00, 0xe0, 0x03, 0x00, 0x00, 0x1f, 0x03, 0x00, 0x00, 0x70, 0x00, 0x00,
   0x00, 0x1f, 0x07, 0x00, 0x00, 0x38, 0x00, 0x00, 0x80, 0x33, 0x0c, 0x00,
   0x00, 0x0c, 0x00, 0x00, 0x80, 0x33, 0x0c, 0x00, 0x00, 0x0e, 0x00, 0x00,
   0xf0, 0x31, 0x00, 0x00, 0x00, 0x03, 0x00, 0x00, 0xf8, 0x30, 0x00, 0x00,
   0x80, 0x03, 0x00, 0x00, 0x1c, 0x00, 0x00, 0x00, 0xc0, 0x01, 0x00, 0x00,
   0x0c, 0x00, 0x00, 0x00, 0xc0, 0x00, 0x00, 0x00, 0x0c, 0x00, 0x30, 0x00,
   0xc0, 0x00, 0x00, 0x00, 0x0c, 0x00, 0x38, 0x00, 0xc0, 0x00, 0x00, 0x00,
   0x0c, 0x00, 0x1c, 0x00, 0xc0, 0x00, 0x00, 0x00, 0x0c, 0x00, 0x0e, 0x00,
   0xe0, 0x00, 0x00, 0x00, 0x0e, 0x00, 0x07, 0x00, 0xe0, 0x00, 0x00, 0x00,
   0x0e, 0x00, 0x03, 0x00, 0x60, 0x00, 0x00, 0x00, 0x03, 0xfc, 0x03, 0x00,
   0x70, 0x00, 0x00, 0x00, 0x03, 0xfe, 0x03, 0x00, 0x70, 0x00, 0x00, 0x00,
   0x03, 0x07, 0x03, 0x00, 0x38, 0x00, 0x00, 0x00, 0x83, 0x03, 0x03, 0x00,
   0x38, 0x00, 0x00, 0x00, 0xc3, 0x01, 0x03, 0x00, 0x1c, 0x00, 0x00, 0x00,
   0xc3, 0x00, 0x03, 0x00, 0x0f, 0x00, 0x00, 0x00, 0xe3, 0x00, 0x03, 0xfe,
   0x07, 0x00, 0x00, 0x00, 0xe3, 0x00, 0x83, 0xff, 0x03, 0x00, 0x00, 0x00,
   0x73, 0x00, 0xc3, 0x01, 0x00, 0x00, 0x00, 0x00, 0x33, 0x00, 0xc3, 0x00,
   0x00, 0x00, 0x00, 0x00, 0x1f, 0x00, 0xc3, 0x00, 0x00, 0x00, 0x00, 0x00,
   0x0f, 0x00, 0xc3, 0x00, 0x00, 0x00, 0x00, 0x00, 0x00, 0x00, 0xc3, 0x00,
   0x00, 0x00, 0x00, 0x00, 0x00, 0x00, 0xc3, 0x00, 0x00, 0x00, 0x00, 0x00,
   0x00, 0x00, 0xc3, 0x00, 0x00, 0x00, 0x00, 0x00, 0x00, 0x00, 0xc3, 0x00,
   0x00, 0x00, 0x00, 0x00, 0x00, 0x00, 0x7e, 0x00, 0x00, 0x00, 0x00, 0x00,
   0x00, 0x00, 0x3c, 0x00, 0x00, 0x00, 0x00, 0x00};
