#define utogi2_width 64
#define utogi2_height 64
static char utogi2_bits[] = {
   0x00, 0x00, 0x3e, 0x0c, 0xcc, 0x0c, 0x00, 0x00, 0x00, 0x00, 0x7e, 0x0c,
   0xcc, 0x0c, 0x00, 0x00, 0x00, 0x00, 0xc3, 0x0c, 0xcc, 0x0c, 0x00, 0x00,
   0x00, 0x00, 0xc3, 0x0c, 0xcc, 0x0c, 0x00, 0x00, 0x00, 0x00, 0xc3, 0xfc,
   0xcf, 0x0c, 0x00, 0x00, 0x00, 0x00, 0xc3, 0xfc, 0xcf, 0xfc, 0x00, 0x00,
   0x00, 0x00, 0xf3, 0x0f, 0xfc, 0x0f, 0x00, 0x00, 0x00, 0x00, 0xd3, 0x0f,
   0xf0, 0x0f, 0x00, 0x00, 0x00, 0x00, 0xc3, 0x00, 0x80, 0x0f, 0x00, 0x00,
   0x00, 0x00, 0xe3, 0x00, 0x00, 0x1f, 0x00, 0x00, 0x00, 0x00, 0x73, 0x0c,
   0x30, 0x38, 0x00, 0x00, 0x00, 0x00, 0x3b, 0x0c, 0x30, 0x30, 0x00, 0x00,
   0x00, 0x00, 0x1f, 0x0c, 0x30, 0x30, 0x00, 0x00, 0x00, 0x00, 0x0f, 0x0c,
   0x30, 0x30, 0x00, 0x00, 0x00, 0x00, 0x0f, 0x0c, 0x30, 0x70, 0x00, 0x00,
   0x00, 0x00, 0x0f, 0x0c, 0x30, 0x70, 0x00, 0x00, 0x00, 0x00, 0x03, 0x00,
   0x00, 0xe0, 0x00, 0x00, 0x00, 0x00, 0x03, 0x00, 0x00, 0xc0, 0x00, 0x00,
   0x00, 0xc0, 0xff, 0x03, 0xc0, 0xff, 0x03, 0x00, 0x00, 0xc0, 0xff, 0x03,
   0xc0, 0xff, 0x03, 0x00, 0x00, 0xc0, 0x00, 0x00, 0x00, 0xc0, 0x01, 0x00,
   0x00, 0xc0, 0x03, 0x00, 0x00, 0xf0, 0x00, 0x00, 0x00, 0x80, 0x3f, 0x0c,
   0x0c, 0x7c, 0x00, 0x00, 0x00, 0x00, 0x7f, 0x0c, 0x0c, 0x3f, 0x00, 0x00,
   0x00, 0x00, 0xfb, 0x03, 0xf0, 0x37, 0x00, 0x00, 0x00, 0x00, 0xf3, 0x03,
   0xf0, 0x30, 0x00, 0x00, 0x00, 0x00, 0x0f, 0x00, 0x00, 0xf0, 0x00, 0x00,
   0x00, 0x00, 0x0f, 0x00, 0x00, 0xf8, 0x00, 0x00, 0x00, 0x00, 0xfc, 0x03,
   0xc0, 0x7f, 0x00, 0x00, 0x00, 0x00, 0xfc, 0x03, 0xc0, 0x3f, 0x00, 0x00,
   0x00, 0x00, 0x0c, 0x00, 0x00, 0x30, 0x00, 0x00, 0x00, 0x00, 0x0e, 0x00,
   0x00, 0x70, 0x00, 0x00, 0x00, 0x00, 0x07, 0x00, 0x00, 0xe0, 0x00, 0x00,
   0x00, 0x80, 0x03, 0x00, 0x00, 0xc0, 0x01, 0x00, 0x00, 0xc0, 0x01, 0x00,
   0x00, 0x80, 0x03, 0x00, 0x00, 0xc0, 0x00, 0x00, 0x00, 0x00, 0x03, 0x00,
   0x00, 0xc0, 0x00, 0x00, 0x00, 0x00, 0x03, 0x00, 0x00, 0xc0, 0x00, 0x00,
   0x00, 0x00, 0x03, 0x00, 0x00, 0xc0, 0x00, 0x00, 0x00, 0x00, 0x03, 0x00,
   0x00, 0xc0, 0x00, 0x00, 0x00, 0x00, 0x03, 0x00, 0x00, 0xcf, 0x00, 0x00,
   0x00, 0x00, 0xf3, 0x00, 0x80, 0xdf, 0x00, 0x00, 0x00, 0x00, 0xfb, 0x01,
   0xc0, 0xfc, 0x01, 0x00, 0x00, 0x80, 0x0f, 0x03, 0xc0, 0xfc, 0x03, 0x00,
   0x00, 0xc0, 0x0f, 0x03, 0xc0, 0x00, 0x0f, 0x00, 0x00, 0xf0, 0x00, 0x03,
   0xc0, 0x01, 0x0f, 0x00, 0x00, 0x70, 0x00, 0x03, 0x80, 0x03, 0x00, 0x00,
   0x00, 0x00, 0xc0, 0x01, 0x00, 0x03, 0x00, 0x00, 0x00, 0x00, 0xc0, 0x00,
   0x00, 0xfe, 0xc0, 0x3f, 0xfc, 0x03, 0x7f, 0x00, 0x00, 0xfc, 0xc1, 0x3f,
   0xfc, 0xc7, 0x3f, 0x00, 0x00, 0xc0, 0x7f, 0x30, 0x0c, 0xff, 0x01, 0x00,
   0x00, 0x00, 0x3f, 0x30, 0x1c, 0xfc, 0x00, 0x00, 0x00, 0x00, 0x00, 0x30,
   0x38, 0x00, 0x00, 0x00, 0x00, 0x00, 0x00, 0x70, 0x70, 0x00, 0x00, 0x00,
   0x00, 0x00, 0x00, 0xe0, 0xc0, 0x00, 0x00, 0x00, 0x00, 0x00, 0x00, 0xc0,
   0xc1, 0x00, 0x00, 0x00, 0x00, 0x00, 0x00, 0x80, 0xc3, 0x00, 0x00, 0x00,
   0x00, 0x00, 0x00, 0x00, 0xc7, 0x00, 0x00, 0x00, 0x00, 0x00, 0x00, 0x00,
   0x7f, 0x00, 0x00, 0x00, 0x00, 0x00, 0x00, 0x00, 0x3c, 0x00, 0x00, 0x00,
   0x00, 0x00, 0x00, 0x00, 0x00, 0x00, 0x00, 0x00, 0x00, 0x00, 0x00, 0x00,
   0x00, 0x00, 0x00, 0x00, 0x00, 0x00, 0x00, 0x00, 0x00, 0x00, 0x00, 0x00,
   0x00, 0x00, 0x00, 0x00, 0x00, 0x00, 0x00, 0x00};
