#define utogi1_width 64
#define utogi1_height 64
static char utogi1_bits[] = {
   0x00, 0x00, 0xcc, 0x0c, 0x0c, 0x0f, 0x00, 0x00, 0x00, 0x00, 0xcc, 0x0c,
   0x8c, 0x1f, 0x00, 0x00, 0x00, 0x00, 0xcc, 0x0c, 0xcc, 0x30, 0x00, 0x00,
   0x00, 0x00, 0xcc, 0x0c, 0xcc, 0x30, 0x00, 0x00, 0x00, 0xc0, 0xcf, 0xfc,
   0xcf, 0x30, 0x00, 0x00, 0x00, 0x40, 0xce, 0xfc, 0xdf, 0x70, 0x00, 0x00,
   0x00, 0x00, 0xfc, 0x0f, 0xfe, 0xff, 0x00, 0x00, 0x00, 0x00, 0xcc, 0x0f,
   0xf0, 0xe7, 0x00, 0x00, 0x00, 0x00, 0xcc, 0x00, 0x00, 0xe3, 0x00, 0x00,
   0x00, 0x00, 0xec, 0x00, 0x00, 0xc7, 0x00, 0x00, 0x00, 0x00, 0x7c, 0x0c,
   0x30, 0xce, 0x00, 0x00, 0x00, 0x00, 0x3c, 0x0c, 0x30, 0xdc, 0x00, 0x00,
   0x00, 0x00, 0x0f, 0x0c, 0x30, 0xf8, 0x00, 0x00, 0x00, 0x00, 0x0f, 0x0c,
   0x30, 0xf0, 0x00, 0x00, 0x00, 0x00, 0x0f, 0x0c, 0x30, 0xf0, 0x00, 0x00,
   0x00, 0x00, 0x0f, 0x0c, 0x30, 0xf0, 0x00, 0x00, 0x00, 0x00, 0x03, 0x00,
   0x00, 0xc0, 0x00, 0x00, 0x00, 0x80, 0x03, 0x00, 0x00, 0xc0, 0x01, 0x00,
   0x00, 0xc0, 0xff, 0x03, 0xc0, 0xff, 0x03, 0x00, 0x00, 0xc0, 0xff, 0x03,
   0xc0, 0xff, 0x03, 0x00, 0x00, 0xc0, 0x01, 0x00, 0x00, 0xc0, 0x00, 0x00,
   0x00, 0xc0, 0x03, 0x00, 0x00, 0xe0, 0x00, 0x00, 0x00, 0x80, 0x0f, 0x0c,
   0x0c, 0x7c, 0x00, 0x00, 0x00, 0x00, 0x3f, 0x0c, 0x0c, 0x3f, 0x00, 0x00,
   0x00, 0x00, 0xf3, 0x03, 0xf0, 0x33, 0x00, 0x00, 0x00, 0x00, 0xc3, 0x03,
   0xf0, 0x30, 0x00, 0x00, 0x00, 0x00, 0x0f, 0x00, 0x00, 0xf0, 0x00, 0x00,
   0x00, 0x00, 0x1f, 0x00, 0x00, 0xf8, 0x00, 0x00, 0x00, 0x00, 0xfe, 0x03,
   0xc0, 0x3f, 0x00, 0x00, 0x00, 0x00, 0xfc, 0x03, 0xc0, 0x3f, 0x00, 0x00,
   0x00, 0x00, 0x0c, 0x00, 0x00, 0x30, 0x00, 0x00, 0x00, 0x00, 0x0e, 0x00,
   0x00, 0x70, 0x00, 0x00, 0x00, 0x00, 0x07, 0x00, 0x00, 0xe0, 0x00, 0x00,
   0x00, 0x80, 0x03, 0x00, 0x00, 0xc0, 0x01, 0x00, 0x00, 0xc0, 0x01, 0x00,
   0x00, 0x80, 0x03, 0x00, 0x00, 0xc0, 0x00, 0x00, 0x00, 0x00, 0x03, 0x00,
   0x00, 0xc0, 0x00, 0x00, 0x00, 0x00, 0x03, 0x00, 0x00, 0xc0, 0x00, 0x00,
   0x00, 0x00, 0x03, 0x00, 0x00, 0xc0, 0x00, 0x00, 0x00, 0x00, 0x03, 0x00,
   0x00, 0xc0, 0x00, 0x00, 0x00, 0x00, 0x03, 0x00, 0x00, 0xc7, 0x00, 0x00,
   0x00, 0x00, 0xf3, 0x00, 0x80, 0xcf, 0x00, 0x00, 0x00, 0x00, 0xfb, 0x01,
   0xc0, 0xfc, 0x03, 0x00, 0x00, 0xc0, 0x0f, 0x03, 0xc0, 0xf8, 0x07, 0x00,
   0x00, 0xe0, 0x0f, 0x03, 0xc0, 0x00, 0x0f, 0x00, 0x00, 0xf0, 0x00, 0x03,
   0xc0, 0x00, 0x0c, 0x00, 0x00, 0x70, 0x00, 0x03, 0x80, 0x03, 0x00, 0x00,
   0x00, 0x00, 0xc0, 0x01, 0x00, 0x03, 0x00, 0x00, 0x00, 0x00, 0xe0, 0x00,
   0x00, 0x3e, 0xc0, 0x3f, 0xf8, 0x03, 0x7f, 0x00, 0x00, 0xfc, 0xf0, 0x3f,
   0xfc, 0x8f, 0x3f, 0x00, 0x00, 0xc0, 0x3f, 0x30, 0x0c, 0xfe, 0x0f, 0x00,
   0x00, 0x80, 0x1f, 0x3c, 0x0c, 0xfc, 0x00, 0x00, 0x00, 0x00, 0x00, 0x1e,
   0x0c, 0x00, 0x00, 0x00, 0x00, 0x00, 0x00, 0x0f, 0x0e, 0x00, 0x00, 0x00,
   0x00, 0x00, 0x80, 0x07, 0x0f, 0x00, 0x00, 0x00, 0x00, 0x00, 0x80, 0x83,
   0x07, 0x00, 0x00, 0x00, 0x00, 0x00, 0x80, 0xc3, 0x03, 0x00, 0x00, 0x00,
   0x00, 0x00, 0x00, 0xe3, 0x01, 0x00, 0x00, 0x00, 0x00, 0x00, 0x00, 0xfe,
   0x00, 0x00, 0x00, 0x00, 0x00, 0x00, 0x00, 0x3c, 0x00, 0x00, 0x00, 0x00,
   0x00, 0x00, 0x00, 0x00, 0x00, 0x00, 0x00, 0x00, 0x00, 0x00, 0x00, 0x00,
   0x00, 0x00, 0x00, 0x00, 0x00, 0x00, 0x00, 0x00, 0x00, 0x00, 0x00, 0x00,
   0x00, 0x00, 0x00, 0x00, 0x00, 0x00, 0x00, 0x00};
