#define select_width 16
#define select_height 16
static char select_bits[] = {
   0xff, 0xff, 0xff, 0x7f, 0xff, 0x3f, 0x57, 0x15, 0xaf, 0x0a, 0x57, 0x15,
   0xef, 0x0b, 0x37, 0x16, 0x2f, 0x0a, 0x37, 0x16, 0xef, 0x0b, 0x57, 0x15,
   0xaf, 0x0a, 0x07, 0x00, 0x03, 0x00, 0x01, 0x00};
