#define unselect_width 16
#define unselect_height 16
static char unselect_bits[] = {
   0x00, 0x00, 0x00, 0x80, 0x00, 0xc0, 0xa8, 0xea, 0x50, 0xf5, 0xa8, 0xea,
   0x50, 0xf5, 0xa8, 0xea, 0x50, 0xf5, 0xa8, 0xea, 0x50, 0xf5, 0xa8, 0xea,
   0x50, 0xf5, 0xf8, 0xff, 0xfc, 0xff, 0xfe, 0xff};
