#define pyraminx_width 64
#define pyraminx_height 64
static unsigned char pyraminx_bits[] = {
   0x00, 0x00, 0x00, 0x00, 0x00, 0x00, 0x00, 0x00, 0x00, 0x00, 0x00, 0x00,
   0x00, 0x00, 0x00, 0x00, 0x00, 0x00, 0x00, 0x00, 0x00, 0x00, 0x00, 0x00,
   0x00, 0x00, 0x00, 0x00, 0x00, 0x00, 0x00, 0x00, 0x00, 0x00, 0x00, 0x00,
   0x00, 0x00, 0x00, 0x00, 0x00, 0x00, 0x00, 0x00, 0x00, 0x00, 0x00, 0x00,
   0x00, 0x00, 0x00, 0x80, 0x00, 0x00, 0x00, 0x00, 0x00, 0x00, 0x00, 0xc0,
   0x01, 0x00, 0x00, 0x00, 0x00, 0x00, 0x00, 0xc0, 0x07, 0x00, 0x00, 0x00,
   0x00, 0x00, 0x00, 0x60, 0x0e, 0x00, 0x00, 0x00, 0x00, 0x00, 0x00, 0x70,
   0x1e, 0x00, 0x00, 0x00, 0x00, 0x00, 0x00, 0xb0, 0x7c, 0x00, 0x00, 0x00,
   0x00, 0x00, 0x00, 0x18, 0xf5, 0x00, 0x00, 0x00, 0x00, 0x00, 0x00, 0x5c,
   0xec, 0x03, 0x00, 0x00, 0x00, 0x00, 0x00, 0x2e, 0xda, 0x0d, 0x00, 0x00,
   0x00, 0x00, 0x00, 0x86, 0xe8, 0x37, 0x00, 0x00, 0x00, 0x00, 0x00, 0x17,
   0xd9, 0x6f, 0x00, 0x00, 0x00, 0x00, 0x80, 0x45, 0xb4, 0xbb, 0x01, 0x00,
   0x00, 0x00, 0x80, 0x23, 0x52, 0xdd, 0x05, 0x00, 0x00, 0x00, 0xc0, 0x88,
   0xb8, 0x7e, 0x07, 0x00, 0x00, 0x00, 0x60, 0x11, 0x71, 0xfd, 0x06, 0x00,
   0x00, 0x00, 0xe0, 0x44, 0xa4, 0xba, 0x0b, 0x00, 0x00, 0x00, 0x30, 0x22,
   0x62, 0xd5, 0x0d, 0x00, 0x00, 0x00, 0x98, 0x88, 0xe8, 0xea, 0x07, 0x00,
   0x00, 0x00, 0x38, 0x11, 0x51, 0xf5, 0x0f, 0x00, 0x00, 0x00, 0x4c, 0x44,
   0xc4, 0xfa, 0x1b, 0x00, 0x00, 0x00, 0x2e, 0x22, 0x62, 0xd5, 0x1f, 0x00,
   0x00, 0x00, 0xff, 0x88, 0x88, 0xae, 0x16, 0x00, 0x00, 0x80, 0xff, 0x1f,
   0x91, 0xd7, 0x0d, 0x00, 0x00, 0x80, 0x4e, 0xfe, 0xc4, 0xaa, 0x3a, 0x00,
   0x00, 0xc0, 0x2e, 0xe2, 0x3f, 0xd7, 0x35, 0x00, 0x00, 0xe0, 0x8c, 0x88,
   0xfe, 0xab, 0x2a, 0x00, 0x00, 0x60, 0x0d, 0x11, 0xf1, 0xd5, 0x35, 0x00,
   0x00, 0x70, 0x58, 0x44, 0xc4, 0xab, 0x3b, 0x00, 0x00, 0x18, 0x1a, 0x22,
   0xe2, 0x57, 0x15, 0x00, 0x00, 0x88, 0x98, 0x88, 0xe8, 0xae, 0x1b, 0x00,
   0x00, 0x1c, 0x31, 0x11, 0x31, 0x5f, 0x1d, 0x00, 0x00, 0x46, 0x34, 0x44,
   0x74, 0xbc, 0x1b, 0x00, 0x00, 0x23, 0x62, 0x22, 0x3a, 0x76, 0x0d, 0x00,
   0x00, 0x8b, 0x68, 0x88, 0x8c, 0xec, 0x0f, 0x00, 0x80, 0x11, 0x51, 0x11,
   0x17, 0xd9, 0x0f, 0x00, 0xc0, 0x44, 0xc4, 0x44, 0x47, 0xac, 0x07, 0x00,
   0x60, 0x22, 0xe2, 0xa2, 0x23, 0x5a, 0x07, 0x00, 0xa0, 0x88, 0x88, 0xc9,
   0x88, 0xa8, 0x06, 0x00, 0x30, 0x11, 0x91, 0xd1, 0x11, 0x51, 0x07, 0x00,
   0x70, 0x44, 0xc4, 0x65, 0x44, 0xb4, 0x03, 0x00, 0xc0, 0x27, 0x22, 0x33,
   0x22, 0x52, 0x03, 0x00, 0x00, 0xfc, 0x88, 0x9f, 0x88, 0xa8, 0x03, 0x00,
   0x00, 0xc0, 0x1f, 0x1f, 0x11, 0x71, 0x03, 0x00, 0x00, 0x00, 0xf8, 0x4f,
   0x44, 0xa4, 0x01, 0x00, 0x00, 0x00, 0x80, 0x3f, 0x22, 0xe2, 0x01, 0x00,
   0x00, 0x00, 0x00, 0xf8, 0x8f, 0xc8, 0x01, 0x00, 0x00, 0x00, 0x00, 0x00,
   0xff, 0xd1, 0x00, 0x00, 0x00, 0x00, 0x00, 0x00, 0xf0, 0xdf, 0x00, 0x00,
   0x00, 0x00, 0x00, 0x00, 0x00, 0xfe, 0x00, 0x00, 0x00, 0x00, 0x00, 0x00,
   0x00, 0xe0, 0x00, 0x00, 0x00, 0x00, 0x00, 0x00, 0x00, 0x00, 0x00, 0x00,
   0x00, 0x00, 0x00, 0x00, 0x00, 0x00, 0x00, 0x00, 0x00, 0x00, 0x00, 0x00,
   0x00, 0x00, 0x00, 0x00, 0x00, 0x00, 0x00, 0x00, 0x00, 0x00, 0x00, 0x00,
   0x00, 0x00, 0x00, 0x00, 0x00, 0x00, 0x00, 0x00, 0x00, 0x00, 0x00, 0x00,
   0x00, 0x00, 0x00, 0x00, 0x00, 0x00, 0x00, 0x00, 0x00, 0x00, 0x00, 0x00,
   0x00, 0x00, 0x00, 0x00, 0x00, 0x00, 0x00, 0x00};
