/* XPM */
static char *file_bin[] = {
	"16 16 3 1",
	". c grey90   m white g4 grey90",
	"b c black  m black g4 black",
	"g c white m white g4 white",
	"................",
	"................",
	".bbbbbbbbbbbbbb.",
	".bggggggggggggb.",
	".bgbggbgggbgggb.",
	".bgbgbgbgbgbggb.",
	".bgbggbgggbgggb.",
	".bggggggggggggb.",
	".bggbggbgbggbgb.",
	".bgbgbgbgbgbggb.",
	".bggbggbgbggbgb.",
	".bggggggggggggb.",
	".bbbbbbbbbbbbbb.",
	"................",
	"................",
	"................",
};


