/* XPM */
static char *file_pic[] = {
	"16 16 6 1",
	". c grey90   m white g4 grey90",
	"b c black m black g4 black",
	"g c green4 m black g4 grey80",
	"r c brown m black g4 grey30",
	"l c green3 m black g4 grey60",
	"w c lightblue m white g4 white",
	"................",
	"................",
	"................",
	".bbbbbbbbbbbbbb.",
	".bwwwwwwwwwwwwb.",
	".bwwwwwllllwwwb.",
	".bwwwwllllllwwb.",
	".bwwwwwllllwwwb.",
	".bwwwwwwrwwwwwb.",
	".bwwwwwwrwwwwwb.",
	".bggwgggrggwwwb.",
	".bggggggggggggb.",
	".bbbbbbbbbbbbbb.",
	"................",
	"................",
	"................",
};	
