#define noname_width 48
#define noname_height 48
static char noname_bits[] = {
 0x00,0x00,0x00,0x00,0x00,0x00,0x00,0x00,0x00,0x00,0x00,0x00,0x00,0x00,0x00,
 0x00,0x00,0x00,0x00,0x00,0x00,0x00,0x00,0x00,0x00,0x00,0x00,0x00,0x00,0x00,
 0x00,0x00,0x00,0x00,0x00,0x00,0x00,0x00,0x00,0x00,0x00,0x00,0x00,0x00,0x00,
 0x00,0x00,0x00,0x00,0x00,0x78,0x27,0x00,0x00,0x00,0x00,0xd8,0x20,0x00,0x00,
 0x00,0x00,0xf8,0x2e,0x00,0x00,0x00,0x00,0xf8,0x26,0x00,0x00,0x00,0x00,0xf8,
 0x25,0x00,0x00,0x00,0x00,0xe8,0x20,0x00,0x00,0x00,0x00,0xf8,0x27,0x00,0x00,
 0x00,0x00,0x78,0x27,0x00,0x00,0x00,0x00,0xf8,0x27,0x00,0x00,0x00,0x00,0xf8,
 0x27,0x00,0x00,0x00,0x00,0x78,0x23,0x00,0x00,0x00,0x00,0xe8,0x2f,0x00,0x00,
 0x00,0x00,0xec,0x6f,0x00,0x00,0x00,0x00,0xfc,0xd7,0x00,0x00,0x00,0x00,0xff,
 0xfe,0x00,0x00,0x00,0x00,0xff,0xfe,0x07,0x00,0x00,0x80,0xff,0xe7,0x0f,0x00,
 0x00,0xf0,0xe7,0x8f,0x19,0x00,0x00,0xf8,0x60,0x8c,0x13,0x00,0x00,0x6c,0x30,
 0x0c,0x26,0x00,0x00,0x24,0x18,0x0c,0x66,0x00,0x00,0x26,0x3c,0x08,0x44,0x00,
 0x00,0x26,0x2c,0x08,0x44,0x00,0x00,0x32,0x24,0x1c,0x4e,0x00,0x00,0x72,0x24,
 0x34,0x5b,0x00,0x00,0x52,0x26,0x24,0x51,0x00,0x00,0x48,0x22,0x64,0x11,0x00,
 0x00,0x48,0x22,0x06,0x00,0x00,0x00,0x00,0x00,0x00,0x00,0x00,0x00,0x00,0x00,
 0x00,0x00,0x00,0x00,0x00,0x00,0x00,0x00,0x00,0x00,0x00,0x00,0x00,0x00,0x00,
 0x00,0x00,0x00,0x00,0x00,0x00,0x00,0x00,0x00,0x00,0x00,0x00,0x00,0x00,0x00,
 0x00,0x00,0x00,0x00,0x00,0x00,0x00,0x00,0x00,0x00,0x00,0x00,0x00,0x00,0x00,
 0x00,0x00,0x00,0x00,0x00,0x00,0x00,0x00,0x00,0x00,0x00,0x00,0x00,0x00,0x00,
 0x00,0x00,0x00};
