#define frowny_width 16
#define frowny_height 16
static char frowny_bits[] = {
   0xe0, 0x03, 0x18, 0x0c, 0x04, 0x10, 0x32, 0x23, 0x32, 0x23, 0x01, 0x40,
   0x01, 0x40, 0x01, 0x40, 0xe1, 0x43, 0x11, 0x44, 0x0a, 0x28, 0x02, 0x20,
   0x04, 0x10, 0x18, 0x0c, 0xe0, 0x03, 0x00, 0x00};
