#define adjust_width 24
#define adjust_height 24
static char adjust_bits[] = {
   0x00, 0x00, 0x00, 0xfe, 0x84, 0x3f, 0x82, 0x84, 0x20, 0x82, 0x84, 0x20,
   0x82, 0x84, 0x20, 0x82, 0x84, 0x20, 0x82, 0x84, 0x20, 0xfe, 0x84, 0x3f,
   0x00, 0x04, 0x00, 0x00, 0x04, 0x00, 0x00, 0x04, 0x00, 0xfe, 0xff, 0x1f,
   0x00, 0x04, 0x00, 0x00, 0x04, 0x00, 0x00, 0x84, 0x3f, 0xfe, 0x84, 0x20,
   0x82, 0x84, 0x20, 0x82, 0x84, 0x20, 0x82, 0x84, 0x20, 0x82, 0x84, 0x20,
   0x82, 0x84, 0x20, 0xfe, 0x84, 0x3f, 0x00, 0x00, 0x00, 0x00, 0x00, 0x00};
