#define copysize_width 24
#define copysize_height 24
static char copysize_bits[] = {
   0x00, 0x00, 0x00, 0x00, 0x00, 0x00, 0x00, 0x00, 0x00, 0x00, 0x00, 0x00,
   0xe0, 0xff, 0x07, 0x20, 0x08, 0x04, 0x20, 0x08, 0x04, 0xa8, 0x08, 0x04,
   0x70, 0x08, 0x04, 0x20, 0x08, 0x04, 0xf0, 0x09, 0x04, 0x10, 0x09, 0x04,
   0x10, 0x09, 0x04, 0x10, 0x09, 0x04, 0x10, 0x09, 0x04, 0xf0, 0xf9, 0x07,
   0x00, 0x00, 0x00, 0x00, 0x00, 0x00, 0x00, 0x00, 0x00, 0x00, 0x00, 0x00,
   0x00, 0x00, 0x00, 0x00, 0x00, 0x00, 0x00, 0x00, 0x00, 0x00, 0x00, 0x00};
