#define slider_width 28
#define slider_height 28
static char slider_bits[] = {
   0x00, 0x00, 0x00, 0x00, 0x00, 0x00, 0x00, 0x00, 0x00, 0x00, 0x00, 0x00,
   0x00, 0x00, 0x00, 0x00, 0x00, 0x00, 0x00, 0x00, 0x00, 0x00, 0x00, 0x00,
   0x00, 0x00, 0x00, 0x00, 0x00, 0x00, 0x00, 0x00, 0xf8, 0xff, 0xff, 0x00,
   0x08, 0x20, 0x80, 0x00, 0x08, 0x20, 0x80, 0x00, 0x08, 0x21, 0x84, 0x00,
   0x88, 0x27, 0x8f, 0x00, 0xc8, 0x27, 0x9f, 0x00, 0x88, 0x27, 0x8f, 0x00,
   0x08, 0x21, 0x84, 0x00, 0x08, 0x20, 0x80, 0x00, 0x08, 0x20, 0x80, 0x00,
   0xf8, 0xff, 0xff, 0x00, 0x00, 0x00, 0x00, 0x00, 0x00, 0x00, 0x00, 0x00,
   0x00, 0x00, 0x00, 0x00, 0x00, 0x00, 0x00, 0x00, 0x00, 0x00, 0x00, 0x00,
   0x00, 0x00, 0x00, 0x00, 0x00, 0x00, 0x00, 0x00, 0x00, 0x00, 0x00, 0x00,
   0x00, 0x00, 0x00, 0x00};
