/* XPM */
static char * againr_xpm[] = {
"384 32 11 1",
" 	c #000000000000",
".	c #BEFBBEFBBEFB",
"X	c #7DF77DF77DF7",
"o	c #FFFFFFFFFFFF",
"O	c #000065950000",
"+	c #FFFFC30BCB2B",
"@	c #AEBADB6CE79D",
"#	c #8A2800000000",
"$	c #FFFF00000000",
"%	c #000000008A28",
"&	c #00000000FFFF",
"                                                                                                                                                                                                                                                                                                                                                                                                ",
".                                                                                                                                                                                                                                                                                                                                                                                              .",
"..XXXXXXXXXXXXXXXXXXXXXXXXXXXXXXXXXXXXXXXXXXXXXXXXXXXXXXXXXXXXXXXXXXXXXXXXXXXXXXXXXXXXXXXXXXXXXXXXXXXXXXXXXXXXXXXXXXXXXXXXXXXXXXXXXXXXXXXXXXXXXXXXXXXXXXXXXXXXXXXXXXXXXXXXXXXXXXXXXXXXXXXXXXXXXXXXXXXXXXXXXXXXXXXXXXXXXXXXXXXXXXXXXXXXXXXXXXXXXXXXXXXXXXXXXXXXXXXXXXXXXXXXXXXXXXXXXXXXXXXXXXXXXXXXXXXXXXXXXXXXXXXXXXXXXXXXXXXXXXXXXXXXXXXXXXXXXXXXXXXXXXXXXXXXXXXXXXXXXXXXXXXXXXXXXXXXXXXXXXXX..",
"..XXXXXXXXXXXXXXXXXXXXX     XXXXXXXXXXXXXXXXXXXXXXXXXXX ooo XXXXXXXXXXXXXXXXXXXXXXXXXXXXXXXXXXXXXXXXXXXXXXXXXXXXXXXXXXXXXXXXXXXXXXXXXXXXXXXXXXXXXXXXXXXXXXXXXXXXXXXXXXXXXXXXXXXXXXXXXXXXXXXXXXXXXXXXXXXXXOOOOOOOOXXXXXXXXXXXXXXXXXXXXXXXXXXXXOOXXXXXXXXXXXXXXXXXXXXXXXXXXXXXXXXXXXXXXXXXXXXXXXXXXXXXXXXXXXXXXXXXXXXXXXXXXXXXXXXXXXXXXX ooo XXXXXXXXXXXXXXXXXXXXXXXXXXX     XXXXXXXXXXXXXXXXXXX..",
"..XXXXXXXXXXXXXXXXXXXX       XXXXXXXXXXXXXXXXXXXXXXXXX ooooo XXXXXXXXXXXXXXXXXXXXXXXXXXXXXXXXXXXXXXXXXXXXXXXXXXXXXXXXXXXXXXXXXXXXXXXXXXXXXXXXXXXXX       XXXXXXXXXXXXXXXXX XXXXXXXXXXXXXXXXXXXXXXXXOOOOOOOOOOOOOOXXXXXXXXXXXXXXXXXXXXXXXXXXXXOOXXXXXXXXXXXXXXXXXXXXXXXXXXXXXXXXXXXXXXXXXXXXXXXXXXXXXXXXXXXXXXXXXXXXXXXXXXXXXXXXXXXXXX ooooo XXXXXXXXXXXXXXXXXXXXXXXXX       XXXXXXXXXXXXXXXXXX..",
"..XXXXXXXXXXXXXXXXXXX         XXXXXXXXXXXXXXXXXXXXXXX ooooooo XXXXXXXXXXXXXXXXXXXXXXXXXXXXXXXXXXXXXXXXXXXXXXXXXXXXXXXXXXXXXXXXXXXXXXXXXXXXXXXXXXXXX       XXXXXXXXXXXXXXX XXXXXXXXXXXXXXXXXXXXOOOOOOOOOOOOOOOOOOOXXXXXXXXXXXXXXXXXXXXXXXXXXXXOOXXXXXXXXXXXXXXXXXXXXXXXXXXXXXXXXXXXXXXXXXXXXXXXXXXXXXXXXXXXXXXXXXXXXXXXXXXXXXXXXXXXXX ooooooo XXXXXXXXXXXXXXXXXXXXXXX         XXXXXXXXXXXXXXXXX..",
"..XXXXXXXXXXXXXXXXXXX         XXXXXXXXXXXXXXXXXXXXXXX ooooooo XXXXXXXXXXXXXXXXXXXXXXXXXXXXXXXXXXXXXXXXXXXXXXXXXXXXXXXXXXXXXXXXXXXXXXXXXXXXXXXXXXXXXX       XXXXXXXXXXXXX XXXXXXXXXXXXXXXXOOOOOOOOOOOOOOOOOOOOOOOOXXXXXXXXXXXXXXXXXXXXXXXXXXXOOOXXXXXXXXXXXXXXXXXXXXXXXXXXXXXXXXXXXXXXXXXXXXXXXXXXXXXXXXXXXXXXXXXXXXXXXXXXXXXXXXXXXXX ooooooo XXXXXXXXXXXXXXXXXXXXXXX         XXXXXXXXXXXXXXXXX..",
"..XXXXXXXXXXXXXXXXXXX         XXXXXXXXXXXXXXXXXXXXXXX ooooooo XXXXXXXXXXXXXXXXXXXXXXXXXXXXXXXXXXXXXXXXXXXXXXXXXXXXXXXXXXXXXXXXXXXXXXXXXXXXXXXXXXXXXXX       XXXXXXXXXXX XXXXXXXXXXXOOOOOOOOOOOOOOOOOOOOOXXXXXXXXOXXXXXXXXXXXXXXXXXXXXXXXXXXXOOOXXXXXXXXXXXXXXXXXXXXXXXXXXXXXXXXXXXXXXXXXXXXXXXXXXXXXXXXXXXXXXXXXXXXXXXXXXXXXXXXXXXXX ooooooo XXXXXXXXXXXXXXXXXXXXXXX         XXXXXXXXXXXXXXXXX..",
"..XXXXXXXXXXXXXXXXXXXX       XXXXXXXXXXXXXXXXXXXXXXXXX ooooo XXXXXXXXXXXXXXXXXXXXXXXXXXXXXXXXXXXXXXXXXXXXXXXXXXXXXXXXXXXXXXXXXXXXXXXXXXXXXXXXXXXXXXXXX       XXXXXXXXX XXXXXXXXXOOOOOOOOXXXXXXXXOOOOOOXXXXXXXXXXOXXXXXXXXXXXXXXXXXXXXXXXXXXXOOOXXXXXXXXXXXXXXXXXXXXXXXXXXXXXXXXXXXXXXXXXXXXXXXXXXXXXXXXXXXXXXXXXXXXXXXXXXXXXXXXXXXXXX ooooo XXXXXXXXXXXXXXXXXXXXXXXXX       XXXXXXXXXXXXXXXXXX..",
"..XXXXXXXXXXXXXXXXXXXXX     XXXXXXXXXXXXXXXXXXXXXXXXXXX ooo XXXXXXXXXXXXXXXXXXXXXXXXXXXXXXXXXXXXXXXXXXXXXXXXXXXXXXXXXXXXXXXXXXXXXXXXXXXXXXXXXXXXXXXXXX       XXXXXXXXX XXXXXXXXXXXXXXXXXXXXXXXXXOOOOOOXXXXXXXXXXXXXXXXXXXXXXXXXXXOXXXXXXXXXOOOXXXXXXXXXXXXXXXXXXXXXXXXXXXXXXXXXXXXXXXXXXXXXXXXXXXXXXXXXXXXXXXXXXXXXXXXXXXXXXXXXXXXXXXX ooo XXXXXXXXXXXXXXXXXXXXXXXXXXX     XXXXXXXXXXXXXXXXXXX..",
"..XXXXXXXXX XXXXXXXXXXXX   XXXXXXXXXXX XXXX XXXXXXXXXXXX o XXXXXXXXXXX XXXXXXXXXXXXXXXXXXXXXXXXXXXXXXXXXXXXXXXXXXXXXXXXXXXXXXXXXXXXXXXXXXXXXXXXXXXXXXXX       XXXXXXX XXXXXXXXXXXXXXXXXXXXXXXXXXOOOOOXXXXXXXXXXXXXXXXOXXXXXXXXXOOOXXXXXXXXXOOOXXXXXXXXXXXXXXXXXXXXXXXXXXXXXXXXXXXXXXXXXXXXXXXXXXXXXXXXXXXXXXXXXXXXXXXXXXXX XXXXXXXXXXXX o XXXXXXXXXXX XXXX XXXXXXXXXXXX   XXXXXXXXXXX XXXXXXXX..",
"..XXXXXXXXXX                          XXXXXX             o            XXXXXXXXXXXXXXXXXXXXXXXXXXXXXXXXXXXXXXXXXXXXXXXXXXXXXXXXXXXXXXXXXXXXXXXXXXXXXXXXXX       XXXXX XXXXXXXXXXXXXXXXXXXXXXXXXXXOOOOOXXXXXXXXXOOXXXXXOXXXXXXXOOOOOXXXXXXXXXOOOXXXXXXXXXXXXXXXXXXXXXXXXXXXXXXXXXXXXXXXXXXXXXXXXXXXXXXXXXXXXXXXXXXXXXXXXXXXXX             o            XXXXXX                          XXXXXXXXX..",
"..XXXXXXXX                              XX  oooooooooooooooooooooooooo  XXXXXXXXXXX++++++++++++++++++++++++++++++++++++++++++++++++XXXXXXXXXXXXXXXXXXXXXX       XXX XXXXXXXXXXXXXXXXXXXXXXXXXXXXOOOOOXXXXXXOOOOOXXXXOOOXXXXXXOOOOOOXXXXXXXOOOOXXXXXXXXXXXXXXX@@@@@@@@@@@@@@@@@@@@@@@@@@@@@@@@@@@@@@@@@@@@@@@@XXXXXXXXXXXX  oooooooooooooooooooooooooo  XX                              XXXXXXX..",
"..XXXXXXXX                              XX oo          ooooo         oo XXXXXXXXXXX#$$$$$$+#$$$$$$+#$$$$$$+#$$$$$$+#$$$$$$+#$$$$$$+XXXXXXXXXXXXXXXXXXXXXXX       X XXXXXXXXXXXXXXXXXXXXXXXXXXXXXOOOOOXXXOOOOOOOOXXXXOOOOXXXXXOOOOOOOXXXXXXOOOOXXXXXXXXXXXXXXX%&&&&&&@%&&&&&&@%&&&&&&@%&&&&&&@%&&&&&&@%&&&&&&@XXXXXXXXXXXX oo          ooooo         oo XX                              XXXXXXX..",
"..XXXXXXXX   XXXXXXXXX       XXXXXXXX   XX   XXXXXXXXX ooooo XXXXXXXX   XXXXXXXXXXX#$$$$$$+#$$$$$$+#$$$$$$+#$$$$$$+#$$$$$$+#$$$$$$+XXXXXXXXXXXXXXXXXXXXXXX      . XXXXXXXXXXXXXXXXXXXXXXXXXXXXXXOOOOXXOOOOOOOOOOXXXXOOOOOOXXXOOOOOOOXXXXXXOOOOXXXXXXXXXXXXXXX%&&&&&&@%&&&&&&@%&&&&&&@%&&&&&&@%&&&&&&@%&&&&&&@XXXXXXXXXXXX   XXXXXXXXX ooooo XXXXXXXX   XX   XXXXXXXXX       XXXXXXXX   XXXXXXX..",
"..XXXXXXXXXXXXXXXXXXXX       XXXXXXXXXXXXXXXXXXXXXXXXX ooooo XXXXXXXXXXXXXXXXXXXXXX#$$$$$$+#$$$$$$+#$$$$$$+#$$$$$$+#$$$$$$+#$$$$$$+XXXXXXXXXXXXXXXXXXXXXXXX    .  XXXXXXXXXXXXXXXXXXXXXXXXXXXXXXOOOOXXOOOOOXXXOOOXXXOOOOOOOXXOOOOOOOOXXXXOOOOXXXXXXXXXXXXXXXX%&&&&&&@%&&&&&&@%&&&&&&@%&&&&&&@%&&&&&&@%&&&&&&@XXXXXXXXXXXXXXXXXXXXXXXX ooooo XXXXXXXXXXXXXXXXXXXXXXXXX       XXXXXXXXXXXXXXXXXX..",
"..XXXXXXXXXXXXXXXXXXXX       XXXXXXXXXXXXXXXXXXXXXXXXX ooooo XXXXXXXXXXXXXXXXXXXXXX#$$$$$$+#$$$$$$+#$$$$$$+#$$$$$$+#$$$$$$+#$$$$$$+XXXXXXXXXXXXXXXXXXXXXXXXX  .    XXXXXXXXXXXXXXXXXXXXXXXXXXXXXOOOOXXOOOOXXXXOOOXXOOOOOOOOOXXOOOOOOOOXXXOOOOXXXXXXXXXXXXXXXX%&&&&&&@%&&&&&&@%&&&&&&@%&&&&&&@%&&&&&&@%&&&&&&@XXXXXXXXXXXXXXXXXXXXXXXX ooooo XXXXXXXXXXXXXXXXXXXXXXXXX       XXXXXXXXXXXXXXXXXX..",
"..XXXXXXXXXXXXXXXXXXXX       XXXXXXXXXXXXXXXXXXXXXXXXX ooooo XXXXXXXXXXXXXXXXXXXXXX#$$$$$$+#$$$$$$+#$$$$$$+#$$$$$$+#$$$$$$+#$$$$$$+XXXXXXXXXXXXXXXXXXXXXXXXX .      XXXXXXXXXXXXXXXXXXXXXXXXXXXXOOOOXXOOOOXXXXOOOXXOOOXXXOOOOXOOOOOOOOOXXOOOOXXXXXXXXXXXXXXXX%&&&&&&@%&&&&&&@%&&&&&&@%&&&&&&@%&&&&&&@%&&&&&&@XXXXXXXXXXXXXXXXXXXXXXXX ooooo XXXXXXXXXXXXXXXXXXXXXXXXX       XXXXXXXXXXXXXXXXXX..",
"..XXXXXXXXXXXXXXXXXXXX       XXXXXXXXXXXXXXXXXXXXXXXXX ooooo XXXXXXXXXXXXXXXXXXXXXX#$$$$$$+#$$$$$$+#$$$$$$+#$$$$$$+#$$$$$$+#$$$$$$+XXXXXXXXXXXXXXXXXXXXXXXX X       XXXXXXXXXXXXXXXXXXXXXXXXXXXXOOOOXXXOOOXXOOOOXXXOOOXXXOOOOXOOOXXOOOOOOOOOOXXXXXXXXXXXXXXXX%&&&&&&@%&&&&&&@%&&&&&&@%&&&&&&@%&&&&&&@%&&&&&&@XXXXXXXXXXXXXXXXXXXXXXXX ooooo XXXXXXXXXXXXXXXXXXXXXXXXX       XXXXXXXXXXXXXXXXXX..",
"..XXXXXXXXXXXXXXXXXXX         XXXXXXXXXXXXXXXXXXXXXXX  ooooo  XXXXXXXXXXXXXXXXXXXXX################################################XXXXXXXXXXXXXXXXXXXXXXX XXX       XXXXXXXXXXXXXXXXXXXXXXXXXXXOOOXXXXOOOOOOOXXXXXOOOXXXOOOXXOOOXXXOOOOOOOOOXXXXXXXXXXXXXXXX%%%%%%%%%%%%%%%%%%%%%%%%%%%%%%%%%%%%%%%%%%%%%%%%XXXXXXXXXXXXXXXXXXXXXXX  ooooo  XXXXXXXXXXXXXXXXXXXXXXX         XXXXXXXXXXXXXXXXX..",
"..XXXXXXXXXXXXXXXXXXX         XXXXXXXXXXXXXXXXXXXXXXX ooo ooo XXXXXXXXXXXXXXXXXXXXXXXXXXXXXXXXXXXXXXXXXXXXXXXXXXXXXXXXXXXXXXXXXXXXXXXXXXXXXXXXXXXXXXXXXXX XXXXX       XXXXXXXXXXXXXXXXXXXXXXXXXXOOOXXXXOOOOOOOXXXXOOOOOXXOOOXXOOOXXXXOOOOOOOOXXXXXXXXXXXXXXXXXXXXXXXXXXXXXXXXXXXXXXXXXXXXXXXXXXXXXXXXXXXXXXXXXXXXXXXXXXXXXXXXXXXXXXX ooo ooo XXXXXXXXXXXXXXXXXXXXXXX         XXXXXXXXXXXXXXXXX..",
"..XXXXXXXXXXXXXXXXXX     X     XXXXXXXXXXXXXXXXXXXXX ooo X ooo XXXXXXXXXXXXXXXXXXXXXXXXXXXXXXXXXXXXXXXXXXXXXXXXXXXXXXXXXXXXXXXXXXXXXXXXXXXXXXXXXXXXXXXXX XXXXXXX       XXXXXXXXXXXXXXXXXXXXXXXXXOOOXXXXOOOOOOOOXXXOOOOOOOOOOXXOOXXXXXXXOOOOOXXXXXXXXXXXXXXXXXXXXXXXXXXXXXXXXXXXXXXXXXXXXXXXXXXXXXXXXXXXXXXXXXXXXXXXXXXXXXXXXXXXXXXX ooo X ooo XXXXXXXXXXXXXXXXXXXXX     X     XXXXXXXXXXXXXXXX..",
"..XXXXXXXXXXXXXXXXXX    XXX    XXXXXXXXXXXXXXXXXXXXX o  XXX  o XXXXXXXXXXXXXXXXXXXXXXXXXXXXXXXXXXXXXXXXXXXXXXXXXXXXXXXXXXXXXXXXXXXXXXXXXXXXXXXXXXXXXXXXX XXXXXXXX       XXXXXXXXXXXXXXXXXXXXXXXXOOOXXXXOOOXXOOOOOXXXOOOOOOOOXXOOXXXXXXXXOOOOXXXXXXXXXXXXXXXXXXXXXXXXXXXXXXXXXXXXXXXXXXXXXXXXXXXXXXXXXXXXXXXXXXXXXXXXXXXXXXXXXXXXXXXoo  XXX  o XXXXXXXXXXXXXXXXXXXXX    XXX    XXXXXXXXXXXXXXXX..",
"..XXXXXXXXXXXXXXXXX   XXXXXXX   XXXXXXXXXXXXXXXXXXX o XXXXXXX o XXXXXXXXXXXXXXXXXXXXXXXXXXXXXXXXXXXXXXXXXXXXXXXXXXXXXXXXXXXXXXXXXXXXXXXXXXXXXXXXXXXXXXX XXXXXXXXX       XXXXXXXXXXXXXXXXXXXXXXXXOOOXXXXOOXXXXXOOOOXXXXOOOOOXXXOOXXXXXXXXXOOOXXXXXXXXXXXXXXXXXXXXXXXXXXXXXXXXXXXXXXXXXXXXXXXXXXXXXXXXXXXXXXXXXXXXXXXXXXXXXXXXXXXXXX o XXXXXXX o XXXXXXXXXXXXXXXXXXX   XXXXXXX   XXXXXXXXXXXXXXX..",
"..XXXXXXXXXXXXXXXXX   XXXXXXX   XXXXXXXXXXXXXXXXXXX o XXXXXXX o XXXXXXXXXXXXXXXXXXXXXXXXXXXXXXXXXXXXXXXXXXXXXXXXXXXXXXXXXXXXXXXXXXXXXXXXXXXXXXXXXXXXXX XXXXXXXXXXX       XXXXXXXXXXXXXXXXXXXXXXXOOXXXXXOOXXXXXXXOOOXXXXXOOOXXXOOXXXXXXXXXXXOXXXXXXXXXXXXXXXXXXXXXXXXXXXXXXXXXXXXXXXXXXXXXXXXXXXXXXXXXXXXXXXXXXXXXXXXXXXXXXXXXXXXXX o XXXXXXX o XXXXXXXXXXXXXXXXXXX   XXXXXXX   XXXXXXXXXXXXXXX..",
"..XXXXXXXXXXXXXXXX   XXXXXXXXX   XXXXXXXXXXXXXXXXX o XXXXXXXXX o XXXXXXXXXXXXXXXXXXXXXXXXXXXXXXXXXXXXXXXXXXXXXXXXXXXXXXXXXXXXXXXXXXXXXXXXXXXXXXXXXXXX XXXXXXXXXXXXX       XXXXXXXXXXXXXXXXXXXXXXOOXXXXXOOXXXXXXXXOOOOXXXXXXXXXOOXXXXXXXXXXXXXXXXXXXXXXXXXXXXXXXXXXXXXXXXXXXXXXXXXXXXXXXXXXXXXXXXXXXXXXXXXXXXXXXXXXXXXXXXXXXXXXXXX o XXXXXXXXXoo XXXXXXXXXXXXXXXXX   XXXXXXXXX   XXXXXXXXXXXXXX..",
"..XXXXXXXXXXXXXXXX   XXXXXXXXX   XXXXXXXXXXXXXXXXX o XXXXXXXXX o XXXXXXXXXXXXXXXXXXXXXXXXXXXXXXXXXXXXXXXXXXXXXXXXXXXXXXXXXXXXXXXXXXXXXXXXXXXXXXXXXXX XXXXXXXXXXXXXXX       XXXXXXXXXXXXXXXXXXXXXOOXXXXXXOXXXXXXXXXXOOOXXXXXXXXXOXXXXXXXXXXXXXXXXXXXXXXXXXXXXXXXXXXXXXXXXXXXXXXXXXXXXXXXXXXXXXXXXXXXXXXXXXXXXXXXXXXXXXXXXXXXXXXXXX o XXXXXXXXX o XXXXXXXXXXXXXXXXX   XXXXXXXXX   XXXXXXXXXXXXXX..",
"..XXXXXXXXXXXXXX    XXXXXXXXXXX    XXXXXXXXXXXXX  o XXXXXXXXXXX o  XXXXXXXXXXXXXXXXXXXXXXXXXXXXXXXXXXXXXXXXXXXXXXXXXXXXXXXXXXXXXXXXXXXXXXXXXXXXXXXX XXXXXXXXXXXXXXXXX       XXXXXXXXXXXXXXXXXXXXOOXXXXXXOXXXXXXXXXXXXOOXXXXXXXXOXXXXXXXXXXXXXXXXXXXXXXXXXXXXXXXXXXXXXXXXXXXXXXXXXXXXXXXXXXXXXXXXXXXXXXXXXXXXXXXXXXXXXXXXXXXXXXX  o XXXXXXXXXXXo   XXXXXXXXXXXXX    XXXXXXXXXXX    XXXXXXXXXXXX..",
"..XXXXXXXXXXXXX     XXXXXXXXXXX     XXXXXXXXXXX ooo XXXXXXXXXXX ooo XXXXXXXXXXXXXXXXXXXXXXXXXXXXXXXXXXXXXXXXXXXXXXXXXXXXXXXXXXXXXXXXXXXXXXXXXXXXXXXXXXXXXXXXXXXXXXXXXXXXXXXXXXXXXXXXXXXXXXXXXXXXOXXXXXXXOXXXXXXXXXXXXXOOOXXXXXXOXXXXXXXXXXXXXXXXXXXXXXXXXXXXXXXXXXXXXXXXXXXXXXXXXXXXXXXXXXXXXXXXXXXXXXXXXXXXXXXXXXXXXXXXXXXXXX ooo XXXXXXXXXXX ooo XXXXXXXXXXX     XXXXXXXXXXX     XXXXXXXXXXX..",
"..XXXXXXXXXXXXXXXXXXXXXXXXXXXXXXXXXXXXXXXXXXXXXXXXXXXXXXXXXXXXXXXXXXXXXXXXXXXXXXXXXXXXXXXXXXXXXXXXXXXXXXXXXXXXXXXXXXXXXXXXXXXXXXXXXXXXXXXXXXXXXXXXXXXXXXXXXXXXXXXXXXXXXXXXXXXXXXXXXXXXXXXXXXXXXXXXXXXXXXXXXXXXXXXXXXXXXXXXXXXXXXXXXXXXXXXXXXXXXXXXXXXXXXXXXXXXXXXXXXXXXXXXXXXXXXXXXXXXXXXXXXXXXXXXXXXXXXXXXXXXXXXXXXXXXXXXXXXXXXXXXXXXXXXXXXXXXXXXXXXXXXXXXXXXXXXXXXXXXXXXXXXXXXXXXXXXXXXXXXXX..",
"................................................................................................................................................................................................................................................................................................................................................................................................",
"................................................................................................................................................................................................................................................................................................................................................................................................"};
