/* XPM */
static char * again_xpm[] = {
"384 32 10 1",
" 	c #FFFFFFFFFFFF",
".	c #000000000000",
"X	c #BEFBBEFBBEFB",
"o	c #000065950000",
"O	c #FFFFC30BCB2B",
"+	c #AEBADB6CE79D",
"@	c #8A2800000000",
"#	c #FFFF00000000",
"$	c #000000008A28",
"%	c #00000000FFFF",
"                                                                                                                                                                                                                                                                                                                                                                                                ",
".                                                                                                                                                                                                                                                                                                                                                                                              .",
"..XXXXXXXXXXXXXXXXXXXXXXXXXXXXXXXXXXXXXXXXXXXXXXXXXXXXXXXXXXXXXXXXXXXXXXXXXXXXXXXXXXXXXXXXXXXXXXXXXXXXXXXXXXXXXXXXXXXXXXXXXXXXXXXXXXXXXXXXXXXXXXXXXXXXXXXXXXXXXXXXXXXXXXXXXXXXXXXXXXXXXXXXXXXXXXXXXXXXXXXXXXXXXXXXXXXXXXXXXXXXXXXXXXXXXXXXXXXXXXXXXXXXXXXXXXXXXXXXXXXXXXXXXXXXXXXXXXXXXXXXXXXXXXXXXXXXXXXXXXXXXXXXXXXXXXXXXXXXXXXXXXXXXXXXXXXXXXXXXXXXXXXXXXXXXXXXXXXXXXXXXXXXXXXXXXXXXXXXXXXX..",
"..XXXXXXXXXXXXXXXXXXXXX.....XXXXXXXXXXXXXXXXXXXXXXXXXXX.   .XXXXXXXXXXXXXXXXXXXXXXXXXXXXXXXXXXXXXXXXXXXXXXXXXXXXXXXXXXXXXXXXXXXXXXXXXXXXXXXXXXXXXXXXXXXXXXXXXXXXXXXXXXXXXXXXXXXXXXXXXXXXXXXXXXXXXXXXXXXXXooooooooXXXXXXXXXXXXXXXXXXXXXXXXXXXXooXXXXXXXXXXXXXXXXXXXXXXXXXXXXXXXXXXXXXXXXXXXXXXXXXXXXXXXXXXXXXXXXXXXXXXXXXXXXXXXXXXXXXXX.   .XXXXXXXXXXXXXXXXXXXXXXXXXXX.....XXXXXXXXXXXXXXXXXXX..",
"..XXXXXXXXXXXXXXXXXXXX.......XXXXXXXXXXXXXXXXXXXXXXXXX.     .XXXXXXXXXXXXXXXXXXXXXXXXXXXXXXXXXXXXXXXXXXXXXXXXXXXXXXXXXXXXXXXXXXXXXXXXXXXXXXXXXXXXX.......XXXXXXXXXXXXXXXXX.XXXXXXXXXXXXXXXXXXXXXXXXooooooooooooooXXXXXXXXXXXXXXXXXXXXXXXXXXXXooXXXXXXXXXXXXXXXXXXXXXXXXXXXXXXXXXXXXXXXXXXXXXXXXXXXXXXXXXXXXXXXXXXXXXXXXXXXXXXXXXXXXXX.     .XXXXXXXXXXXXXXXXXXXXXXXXX.......XXXXXXXXXXXXXXXXXX..",
"..XXXXXXXXXXXXXXXXXXX.........XXXXXXXXXXXXXXXXXXXXXXX.       .XXXXXXXXXXXXXXXXXXXXXXXXXXXXXXXXXXXXXXXXXXXXXXXXXXXXXXXXXXXXXXXXXXXXXXXXXXXXXXXXXXXXX.......XXXXXXXXXXXXXXX.XXXXXXXXXXXXXXXXXXXXoooooooooooooooooooXXXXXXXXXXXXXXXXXXXXXXXXXXXXooXXXXXXXXXXXXXXXXXXXXXXXXXXXXXXXXXXXXXXXXXXXXXXXXXXXXXXXXXXXXXXXXXXXXXXXXXXXXXXXXXXXXX.       .XXXXXXXXXXXXXXXXXXXXXXX.........XXXXXXXXXXXXXXXXX..",
"..XXXXXXXXXXXXXXXXXXX.........XXXXXXXXXXXXXXXXXXXXXXX.       .XXXXXXXXXXXXXXXXXXXXXXXXXXXXXXXXXXXXXXXXXXXXXXXXXXXXXXXXXXXXXXXXXXXXXXXXXXXXXXXXXXXXXX.......XXXXXXXXXXXXX.XXXXXXXXXXXXXXXXooooooooooooooooooooooooXXXXXXXXXXXXXXXXXXXXXXXXXXXoooXXXXXXXXXXXXXXXXXXXXXXXXXXXXXXXXXXXXXXXXXXXXXXXXXXXXXXXXXXXXXXXXXXXXXXXXXXXXXXXXXXXXX.       .XXXXXXXXXXXXXXXXXXXXXXX.........XXXXXXXXXXXXXXXXX..",
"..XXXXXXXXXXXXXXXXXXX.........XXXXXXXXXXXXXXXXXXXXXXX.       .XXXXXXXXXXXXXXXXXXXXXXXXXXXXXXXXXXXXXXXXXXXXXXXXXXXXXXXXXXXXXXXXXXXXXXXXXXXXXXXXXXXXXXX.......XXXXXXXXXXX.XXXXXXXXXXXoooooooooooooooooooooXXXXXXXXoXXXXXXXXXXXXXXXXXXXXXXXXXXXoooXXXXXXXXXXXXXXXXXXXXXXXXXXXXXXXXXXXXXXXXXXXXXXXXXXXXXXXXXXXXXXXXXXXXXXXXXXXXXXXXXXXXX.       .XXXXXXXXXXXXXXXXXXXXXXX.........XXXXXXXXXXXXXXXXX..",
"..XXXXXXXXXXXXXXXXXXXX.......XXXXXXXXXXXXXXXXXXXXXXXXX.     .XXXXXXXXXXXXXXXXXXXXXXXXXXXXXXXXXXXXXXXXXXXXXXXXXXXXXXXXXXXXXXXXXXXXXXXXXXXXXXXXXXXXXXXXX.......XXXXXXXXX.XXXXXXXXXooooooooXXXXXXXXooooooXXXXXXXXXXoXXXXXXXXXXXXXXXXXXXXXXXXXXXoooXXXXXXXXXXXXXXXXXXXXXXXXXXXXXXXXXXXXXXXXXXXXXXXXXXXXXXXXXXXXXXXXXXXXXXXXXXXXXXXXXXXXXX.     .XXXXXXXXXXXXXXXXXXXXXXXXX.......XXXXXXXXXXXXXXXXXX..",
"..XXXXXXXXXXXXXXXXXXXXX.....XXXXXXXXXXXXXXXXXXXXXXXXXXX.   .XXXXXXXXXXXXXXXXXXXXXXXXXXXXXXXXXXXXXXXXXXXXXXXXXXXXXXXXXXXXXXXXXXXXXXXXXXXXXXXXXXXXXXXXXX.......XXXXXXXXX.XXXXXXXXXXXXXXXXXXXXXXXXXooooooXXXXXXXXXXXXXXXXXXXXXXXXXXXoXXXXXXXXXoooXXXXXXXXXXXXXXXXXXXXXXXXXXXXXXXXXXXXXXXXXXXXXXXXXXXXXXXXXXXXXXXXXXXXXXXXXXXXXXXXXXXXXXXX.   .XXXXXXXXXXXXXXXXXXXXXXXXXXX.....XXXXXXXXXXXXXXXXXXX..",
"..XXXXXXXXX.XXXXXXXXXXXX...XXXXXXXXXXX.XXXX.XXXXXXXXXXXX. .XXXXXXXXXXX.XXXXXXXXXXXXXXXXXXXXXXXXXXXXXXXXXXXXXXXXXXXXXXXXXXXXXXXXXXXXXXXXXXXXXXXXXXXXXXXX.......XXXXXXX.XXXXXXXXXXXXXXXXXXXXXXXXXXoooooXXXXXXXXXXXXXXXXoXXXXXXXXXoooXXXXXXXXXoooXXXXXXXXXXXXXXXXXXXXXXXXXXXXXXXXXXXXXXXXXXXXXXXXXXXXXXXXXXXXXXXXXXXXXXXXXXXX.XXXXXXXXXXXX. .XXXXXXXXXXX.XXXX.XXXXXXXXXXXX...XXXXXXXXXXX.XXXXXXXX..",
"..XXXXXXXXXX..........................XXXXXX............. ............XXXXXXXXXXXXXXXXXXXXXXXXXXXXXXXXXXXXXXXXXXXXXXXXXXXXXXXXXXXXXXXXXXXXXXXXXXXXXXXXXX.......XXXXX.XXXXXXXXXXXXXXXXXXXXXXXXXXXoooooXXXXXXXXXooXXXXXoXXXXXXXoooooXXXXXXXXXoooXXXXXXXXXXXXXXXXXXXXXXXXXXXXXXXXXXXXXXXXXXXXXXXXXXXXXXXXXXXXXXXXXXXXXXXXXXXXX............. ............XXXXXX..........................XXXXXXXXX..",
"..XXXXXXXX..............................XX..                          ..XXXXXXXXXXXOOOOOOOOOOOOOOOOOOOOOOOOOOOOOOOOOOOOOOOOOOOOOOOOXXXXXXXXXXXXXXXXXXXXXX.......XXX.XXXXXXXXXXXXXXXXXXXXXXXXXXXXoooooXXXXXXoooooXXXXoooXXXXXXooooooXXXXXXXooooXXXXXXXXXXXXXXX++++++++++++++++++++++++++++++++++++++++++++++++XXXXXXXXXXXX..                          ..XX..............................XXXXXXX..",
"..XXXXXXXX..............................XX.  ..........     .........  .XXXXXXXXXXX@######O@######O@######O@######O@######O@######OXXXXXXXXXXXXXXXXXXXXXXX.......X.XXXXXXXXXXXXXXXXXXXXXXXXXXXXXoooooXXXooooooooXXXXooooXXXXXoooooooXXXXXXooooXXXXXXXXXXXXXXX$%%%%%%+$%%%%%%+$%%%%%%+$%%%%%%+$%%%%%%+$%%%%%%+XXXXXXXXXXXX.  ..........     .........  .XX..............................XXXXXXX..",
"..XXXXXXXX...XXXXXXXXX.......XXXXXXXX...XX...XXXXXXXXX.     .XXXXXXXX...XXXXXXXXXXX@######O@######O@######O@######O@######O@######OXXXXXXXXXXXXXXXXXXXXXXX......X.XXXXXXXXXXXXXXXXXXXXXXXXXXXXXXooooXXooooooooooXXXXooooooXXXoooooooXXXXXXooooXXXXXXXXXXXXXXX$%%%%%%+$%%%%%%+$%%%%%%+$%%%%%%+$%%%%%%+$%%%%%%+XXXXXXXXXXXX...XXXXXXXXX.     .XXXXXXXX...XX...XXXXXXXXX.......XXXXXXXX...XXXXXXX..",
"..XXXXXXXXXXXXXXXXXXXX.......XXXXXXXXXXXXXXXXXXXXXXXXX.     .XXXXXXXXXXXXXXXXXXXXXX@######O@######O@######O@######O@######O@######OXXXXXXXXXXXXXXXXXXXXXXXX....X..XXXXXXXXXXXXXXXXXXXXXXXXXXXXXXooooXXoooooXXXoooXXXoooooooXXooooooooXXXXooooXXXXXXXXXXXXXXXX$%%%%%%+$%%%%%%+$%%%%%%+$%%%%%%+$%%%%%%+$%%%%%%+XXXXXXXXXXXXXXXXXXXXXXXX.     .XXXXXXXXXXXXXXXXXXXXXXXXX.......XXXXXXXXXXXXXXXXXX..",
"..XXXXXXXXXXXXXXXXXXXX.......XXXXXXXXXXXXXXXXXXXXXXXXX.     .XXXXXXXXXXXXXXXXXXXXXX@######O@######O@######O@######O@######O@######OXXXXXXXXXXXXXXXXXXXXXXXXX..X....XXXXXXXXXXXXXXXXXXXXXXXXXXXXXooooXXooooXXXXoooXXoooooooooXXooooooooXXXooooXXXXXXXXXXXXXXXX$%%%%%%+$%%%%%%+$%%%%%%+$%%%%%%+$%%%%%%+$%%%%%%+XXXXXXXXXXXXXXXXXXXXXXXX.     .XXXXXXXXXXXXXXXXXXXXXXXXX.......XXXXXXXXXXXXXXXXXX..",
"..XXXXXXXXXXXXXXXXXXXX.......XXXXXXXXXXXXXXXXXXXXXXXXX.     .XXXXXXXXXXXXXXXXXXXXXX@######O@######O@######O@######O@######O@######OXXXXXXXXXXXXXXXXXXXXXXXXX.X......XXXXXXXXXXXXXXXXXXXXXXXXXXXXooooXXooooXXXXoooXXoooXXXooooXoooooooooXXooooXXXXXXXXXXXXXXXX$%%%%%%+$%%%%%%+$%%%%%%+$%%%%%%+$%%%%%%+$%%%%%%+XXXXXXXXXXXXXXXXXXXXXXXX.     .XXXXXXXXXXXXXXXXXXXXXXXXX.......XXXXXXXXXXXXXXXXXX..",
"..XXXXXXXXXXXXXXXXXXXX.......XXXXXXXXXXXXXXXXXXXXXXXXX.     .XXXXXXXXXXXXXXXXXXXXXX@######O@######O@######O@######O@######O@######OXXXXXXXXXXXXXXXXXXXXXXXX.X.......XXXXXXXXXXXXXXXXXXXXXXXXXXXXooooXXXoooXXooooXXXoooXXXooooXoooXXooooooooooXXXXXXXXXXXXXXXX$%%%%%%+$%%%%%%+$%%%%%%+$%%%%%%+$%%%%%%+$%%%%%%+XXXXXXXXXXXXXXXXXXXXXXXX.     .XXXXXXXXXXXXXXXXXXXXXXXXX.......XXXXXXXXXXXXXXXXXX..",
"..XXXXXXXXXXXXXXXXXXX.........XXXXXXXXXXXXXXXXXXXXXXX..     ..XXXXXXXXXXXXXXXXXXXXX@@@@@@@@@@@@@@@@@@@@@@@@@@@@@@@@@@@@@@@@@@@@@@@@XXXXXXXXXXXXXXXXXXXXXXX.XXX.......XXXXXXXXXXXXXXXXXXXXXXXXXXXoooXXXXoooooooXXXXXoooXXXoooXXoooXXXoooooooooXXXXXXXXXXXXXXXX$$$$$$$$$$$$$$$$$$$$$$$$$$$$$$$$$$$$$$$$$$$$$$$$XXXXXXXXXXXXXXXXXXXXXXX..     ..XXXXXXXXXXXXXXXXXXXXXXX.........XXXXXXXXXXXXXXXXX..",
"..XXXXXXXXXXXXXXXXXXX.........XXXXXXXXXXXXXXXXXXXXXXX.   .   .XXXXXXXXXXXXXXXXXXXXXXXXXXXXXXXXXXXXXXXXXXXXXXXXXXXXXXXXXXXXXXXXXXXXXXXXXXXXXXXXXXXXXXXXXXX.XXXXX.......XXXXXXXXXXXXXXXXXXXXXXXXXXoooXXXXoooooooXXXXoooooXXoooXXoooXXXXooooooooXXXXXXXXXXXXXXXXXXXXXXXXXXXXXXXXXXXXXXXXXXXXXXXXXXXXXXXXXXXXXXXXXXXXXXXXXXXXXXXXXXXXXXX.   .   .XXXXXXXXXXXXXXXXXXXXXXX.........XXXXXXXXXXXXXXXXX..",
"..XXXXXXXXXXXXXXXXXX.....X.....XXXXXXXXXXXXXXXXXXXXX.   .X.   .XXXXXXXXXXXXXXXXXXXXXXXXXXXXXXXXXXXXXXXXXXXXXXXXXXXXXXXXXXXXXXXXXXXXXXXXXXXXXXXXXXXXXXXXX.XXXXXXX.......XXXXXXXXXXXXXXXXXXXXXXXXXoooXXXXooooooooXXXooooooooooXXooXXXXXXXoooooXXXXXXXXXXXXXXXXXXXXXXXXXXXXXXXXXXXXXXXXXXXXXXXXXXXXXXXXXXXXXXXXXXXXXXXXXXXXXXXXXXXXXXX.   .X.   .XXXXXXXXXXXXXXXXXXXXX.....X.....XXXXXXXXXXXXXXXX..",
"..XXXXXXXXXXXXXXXXXX....XXX....XXXXXXXXXXXXXXXXXXXXX. ..XXX.. .XXXXXXXXXXXXXXXXXXXXXXXXXXXXXXXXXXXXXXXXXXXXXXXXXXXXXXXXXXXXXXXXXXXXXXXXXXXXXXXXXXXXXXXXX.XXXXXXXX.......XXXXXXXXXXXXXXXXXXXXXXXXoooXXXXoooXXoooooXXXooooooooXXooXXXXXXXXooooXXXXXXXXXXXXXXXXXXXXXXXXXXXXXXXXXXXXXXXXXXXXXXXXXXXXXXXXXXXXXXXXXXXXXXXXXXXXXXXXXXXXXXX  ..XXX.. .XXXXXXXXXXXXXXXXXXXXX....XXX....XXXXXXXXXXXXXXXX..",
"..XXXXXXXXXXXXXXXXX...XXXXXXX...XXXXXXXXXXXXXXXXXXX. .XXXXXXX. .XXXXXXXXXXXXXXXXXXXXXXXXXXXXXXXXXXXXXXXXXXXXXXXXXXXXXXXXXXXXXXXXXXXXXXXXXXXXXXXXXXXXXXX.XXXXXXXXX.......XXXXXXXXXXXXXXXXXXXXXXXXoooXXXXooXXXXXooooXXXXoooooXXXooXXXXXXXXXoooXXXXXXXXXXXXXXXXXXXXXXXXXXXXXXXXXXXXXXXXXXXXXXXXXXXXXXXXXXXXXXXXXXXXXXXXXXXXXXXXXXXXXX. .XXXXXXX. .XXXXXXXXXXXXXXXXXXX...XXXXXXX...XXXXXXXXXXXXXXX..",
"..XXXXXXXXXXXXXXXXX...XXXXXXX...XXXXXXXXXXXXXXXXXXX. .XXXXXXX. .XXXXXXXXXXXXXXXXXXXXXXXXXXXXXXXXXXXXXXXXXXXXXXXXXXXXXXXXXXXXXXXXXXXXXXXXXXXXXXXXXXXXXX.XXXXXXXXXXX.......XXXXXXXXXXXXXXXXXXXXXXXooXXXXXooXXXXXXXoooXXXXXoooXXXooXXXXXXXXXXXoXXXXXXXXXXXXXXXXXXXXXXXXXXXXXXXXXXXXXXXXXXXXXXXXXXXXXXXXXXXXXXXXXXXXXXXXXXXXXXXXXXXXXX. .XXXXXXX. .XXXXXXXXXXXXXXXXXXX...XXXXXXX...XXXXXXXXXXXXXXX..",
"..XXXXXXXXXXXXXXXX...XXXXXXXXX...XXXXXXXXXXXXXXXXX. .XXXXXXXXX. .XXXXXXXXXXXXXXXXXXXXXXXXXXXXXXXXXXXXXXXXXXXXXXXXXXXXXXXXXXXXXXXXXXXXXXXXXXXXXXXXXXXX.XXXXXXXXXXXXX.......XXXXXXXXXXXXXXXXXXXXXXooXXXXXooXXXXXXXXooooXXXXXXXXXooXXXXXXXXXXXXXXXXXXXXXXXXXXXXXXXXXXXXXXXXXXXXXXXXXXXXXXXXXXXXXXXXXXXXXXXXXXXXXXXXXXXXXXXXXXXXXXXXX. .XXXXXXXXX  .XXXXXXXXXXXXXXXXX...XXXXXXXXX...XXXXXXXXXXXXXX..",
"..XXXXXXXXXXXXXXXX...XXXXXXXXX...XXXXXXXXXXXXXXXXX. .XXXXXXXXX. .XXXXXXXXXXXXXXXXXXXXXXXXXXXXXXXXXXXXXXXXXXXXXXXXXXXXXXXXXXXXXXXXXXXXXXXXXXXXXXXXXXX.XXXXXXXXXXXXXXX.......XXXXXXXXXXXXXXXXXXXXXooXXXXXXoXXXXXXXXXXoooXXXXXXXXXoXXXXXXXXXXXXXXXXXXXXXXXXXXXXXXXXXXXXXXXXXXXXXXXXXXXXXXXXXXXXXXXXXXXXXXXXXXXXXXXXXXXXXXXXXXXXXXXXX. .XXXXXXXXX. .XXXXXXXXXXXXXXXXX...XXXXXXXXX...XXXXXXXXXXXXXX..",
"..XXXXXXXXXXXXXX....XXXXXXXXXXX....XXXXXXXXXXXXX.. .XXXXXXXXXXX. ..XXXXXXXXXXXXXXXXXXXXXXXXXXXXXXXXXXXXXXXXXXXXXXXXXXXXXXXXXXXXXXXXXXXXXXXXXXXXXXXX.XXXXXXXXXXXXXXXXX.......XXXXXXXXXXXXXXXXXXXXooXXXXXXoXXXXXXXXXXXXooXXXXXXXXoXXXXXXXXXXXXXXXXXXXXXXXXXXXXXXXXXXXXXXXXXXXXXXXXXXXXXXXXXXXXXXXXXXXXXXXXXXXXXXXXXXXXXXXXXXXXXXX.. .XXXXXXXXXXX ...XXXXXXXXXXXXX....XXXXXXXXXXX....XXXXXXXXXXXX..",
"..XXXXXXXXXXXXX.....XXXXXXXXXXX.....XXXXXXXXXXX.   .XXXXXXXXXXX.   .XXXXXXXXXXXXXXXXXXXXXXXXXXXXXXXXXXXXXXXXXXXXXXXXXXXXXXXXXXXXXXXXXXXXXXXXXXXXXXXXXXXXXXXXXXXXXXXXXXXXXXXXXXXXXXXXXXXXXXXXXXXXoXXXXXXXoXXXXXXXXXXXXXoooXXXXXXoXXXXXXXXXXXXXXXXXXXXXXXXXXXXXXXXXXXXXXXXXXXXXXXXXXXXXXXXXXXXXXXXXXXXXXXXXXXXXXXXXXXXXXXXXXXXXX.   .XXXXXXXXXXX.   .XXXXXXXXXXX.....XXXXXXXXXXX.....XXXXXXXXXXX..",
"..XXXXXXXXXXXXXXXXXXXXXXXXXXXXXXXXXXXXXXXXXXXXXXXXXXXXXXXXXXXXXXXXXXXXXXXXXXXXXXXXXXXXXXXXXXXXXXXXXXXXXXXXXXXXXXXXXXXXXXXXXXXXXXXXXXXXXXXXXXXXXXXXXXXXXXXXXXXXXXXXXXXXXXXXXXXXXXXXXXXXXXXXXXXXXXXXXXXXXXXXXXXXXXXXXXXXXXXXXXXXXXXXXXXXXXXXXXXXXXXXXXXXXXXXXXXXXXXXXXXXXXXXXXXXXXXXXXXXXXXXXXXXXXXXXXXXXXXXXXXXXXXXXXXXXXXXXXXXXXXXXXXXXXXXXXXXXXXXXXXXXXXXXXXXXXXXXXXXXXXXXXXXXXXXXXXXXXXXXXXX..",
"................................................................................................................................................................................................................................................................................................................................................................................................",
"................................................................................................................................................................................................................................................................................................................................................................................................"};
