/* XPM */
static char * comprr_xpm[] = {
"96 32 3 1",
" 	c #000000000000",
".	c #BEFBBEFBBEFB",
"X	c #7DF77DF77DF7",
"                                                                                                ",
".                                                                                               ",
"..XXXXXXXXXXXXXXXXXXXXXXXXXXXXXXXXXXXXXXXXXXXXXXXXXXXXXXXXXXXXXXXXXXXXXXXXXXXXXXXXXXXXXXXXXXXX  ",
"..XXXXXXXXXXXXXXXXXXXXXXXXXXXXXXXXXXXXXXXXXXXXXXXXXXXXXXXXXXXXXXXXXXXXXXXXXXXXXXXXXXXXXXXXXXXX  ",
"..XXXXXXXXXXXXXXXXXXXXXXXXXXXXXXXXXX       XXXXXXXXXXXXXXXXX XXXXXXXXXXXXXXXXXXXXXXXXXXXXXXXXX  ",
"..XXXXXXXXXXXXXXXXXXXXXXXXXXXXXXXXXXX       XXXXXXXXXXXXXXX XXXXXXXXXXXXXXXXXXXXXXXXXXXXXXXXXX  ",
"..XXXXXXXXXXXXXXXXXXXXXXXXXXXXXXXXXXXX       XXXXXXXXXXXXX XXXXXXXXXXXXXXXXXXXXXXXXXXXXXXXXXXX  ",
"..XXXXXXXXXXXXXXXXXXXXXXXXXXXXXXXXXXXXX       XXXXXXXXXXX XXXXXXXXXXXXXXXXXXXXXXXXXXXXXXXXXXXX  ",
"..XXXXXXXXXXXXXXXXXXXXXXXXXXXXXXXXXXXXXX       XXXXXXXXX XXXXXXXXXXXXXXXXXXXXXXXXXXXXXXXXXXXXX  ",
"..XXXXXXXXXXXXXXXXXXXXXXXXXXXXXXXXXXXXXX       XXXXXXXXX XXXXXXXXXXXXXXXXXXXXXXXXXXXXXXXXXXXXX  ",
"..XXXXXXXXXXXXXXXXXXXXXXXXXXXXXXXXXXXXXXX       XXXXXXX XXXXXXXXXXXXXXXXXXXXXXXXXXXXXXXXXXXXXX  ",
"..XXXXXXXXXXXXXXXXXXXXXXXXXXXXXXXXXXXXXXXX       XXXXX XXXXXXXXXXXXXXXXXXXXXXXXXXXXXXXXXXXXXXX  ",
"..XXXXXXXXXXXXXXXXXXXXXXXXXXXXXXXXXXXXXXXXX       XXX XXXXXXXXXXXXXXXXXXXXXXXXXXXXXXXXXXXXXXXX  ",
"..XXXXXXXXXXXXXXXXXXXXXXXXXXXXXXXXXXXXXXXXXX       X XXXXXXXXXXXXXXXXXXXXXXXXXXXXXXXXXXXXXXXXX  ",
"..XXXXXXXXXXXXXXXXXXXXXXXXXXXXXXXXXXXXXXXXXX      X XXXXXXXXXXXXXXXXXXXXXXXXXXXXXXXXXXXXXXXXXX  ",
"..XXXXXXXXXXXXXXXXXXXXXXXXXXXXXXXXXXXXXXXXXXX    X  XXXXXXXXXXXXXXXXXXXXXXXXXXXXXXXXXXXXXXXXXX  ",
"..XXXXXXXXXXXXXXXXXXXXXXXXXXXXXXXXXXXXXXXXXXXX  X    XXXXXXXXXXXXXXXXXXXXXXXXXXXXXXXXXXXXXXXXX  ",
"..XXXXXXXXXXXXXXXXXXXXXXXXXXXXXXXXXXXXXXXXXXXX X      XXXXXXXXXXXXXXXXXXXXXXXXXXXXXXXXXXXXXXXX  ",
"..XXXXXXXXXXXXXXXXXXXXXXXXXXXXXXXXXXXXXXXXXXX X       XXXXXXXXXXXXXXXXXXXXXXXXXXXXXXXXXXXXXXXX  ",
"..XXXXXXXXXXXXXXXXXXXXXXXXXXXXXXXXXXXXXXXXXX XXX       XXXXXXXXXXXXXXXXXXXXXXXXXXXXXXXXXXXXXXX  ",
"..XXXXXXXXXXXXXXXXXXXXXXXXXXXXXXXXXXXXXXXXX XXXXX       XXXXXXXXXXXXXXXXXXXXXXXXXXXXXXXXXXXXXX  ",
"..XXXXXXXXXXXXXXXXXXXXXXXXXXXXXXXXXXXXXXXX XXXXXXX       XXXXXXXXXXXXXXXXXXXXXXXXXXXXXXXXXXXXX  ",
"..XXXXXXXXXXXXXXXXXXXXXXXXXXXXXXXXXXXXXXXX XXXXXXXX       XXXXXXXXXXXXXXXXXXXXXXXXXXXXXXXXXXXX  ",
"..XXXXXXXXXXXXXXXXXXXXXXXXXXXXXXXXXXXXXXX XXXXXXXXX       XXXXXXXXXXXXXXXXXXXXXXXXXXXXXXXXXXXX  ",
"..XXXXXXXXXXXXXXXXXXXXXXXXXXXXXXXXXXXXXX XXXXXXXXXXX       XXXXXXXXXXXXXXXXXXXXXXXXXXXXXXXXXXX  ",
"..XXXXXXXXXXXXXXXXXXXXXXXXXXXXXXXXXXXXX XXXXXXXXXXXXX       XXXXXXXXXXXXXXXXXXXXXXXXXXXXXXXXXX  ",
"..XXXXXXXXXXXXXXXXXXXXXXXXXXXXXXXXXXXX XXXXXXXXXXXXXXX       XXXXXXXXXXXXXXXXXXXXXXXXXXXXXXXXX  ",
"..XXXXXXXXXXXXXXXXXXXXXXXXXXXXXXXXXXX XXXXXXXXXXXXXXXXX       XXXXXXXXXXXXXXXXXXXXXXXXXXXXXXXX  ",
"..XXXXXXXXXXXXXXXXXXXXXXXXXXXXXXXXXXXXXXXXXXXXXXXXXXXXXXXXXXXXXXXXXXXXXXXXXXXXXXXXXXXXXXXXXXXX  ",
"..XXXXXXXXXXXXXXXXXXXXXXXXXXXXXXXXXXXXXXXXXXXXXXXXXXXXXXXXXXXXXXXXXXXXXXXXXXXXXXXXXXXXXXXXXXXX  ",
"............................................................................................... ",
"................................................................................................"};
