/* XPM */
static char * humanr_xpm[] = {
"96 32 3 1",
" 	c #000000000000",
".	c #BEFBBEFBBEFB",
"X	c #7DF77DF77DF7",
"                                                                                                ",
".                                                                                               ",
"..XXXXXXXXXXXXXXXXXXXXXXXXXXXXXXXXXXXXXXXXXXXXXXXXXXXXXXXXXXXXXXXXXXXXXXXXXXXXXXXXXXXXXXXXXXXX  ",
"..XXXXXXXXXXXXXXXXXXXXXXXXXXXXXXXXXXXXXXXXXXXXXXXXXXXXXXXXXXXXXXXXXXXXXXXXXXXXXXXXXXXXXXXXXXXX  ",
"..XXXXXXXXXXXXXXXXXXXXXXXXXXXXXXXXXXXXXXXXXX     XXXXXXXXXXXXXXXXXXXXXXXXXXXXXXXXXXXXXXXXXXXXX  ",
"..XXXXXXXXXXXXXXXXXXXXXXXXXXXXXXXXXXXXXXXXX       XXXXXXXXXXXXXXXXXXXXXXXXXXXXXXXXXXXXXXXXXXXX  ",
"..XXXXXXXXXXXXXXXXXXXXXXXXXXXXXXXXXXXXXXXX         XXXXXXXXXXXXXXXXXXXXXXXXXXXXXXXXXXXXXXXXXXX  ",
"..XXXXXXXXXXXXXXXXXXXXXXXXXXXXXXXXXXXXXXXX         XXXXXXXXXXXXXXXXXXXXXXXXXXXXXXXXXXXXXXXXXXX  ",
"..XXXXXXXXXXXXXXXXXXXXXXXXXXXXXXXXXXXXXXXXX       XXXXXXXXXXXXXXXXXXXXXXXXXXXXXXXXXXXXXXXXXXXX  ",
"..XXXXXXXXXXXXXXXXXXXXXXXXXXXXXXXXXXXXXXXXXX     XXXXXXXXXXXXXXXXXXXXXXXXXXXXXXXXXXXXXXXXXXXXX  ",
"..XXXXXXXXXXXXXXXXXXXXXXXXXXXXXX XXXXXXXXXXXX   XXXXXXXXXXX XXXXXXXXXXXXXXXXXXXXXXXXXXXXXXXXXX  ",
"..XXXXXXXXXXXXXXXXXXXXXXXXXXXXXXX X                      X XXXXXXXXXXXXXXXXXXXXXXXXXXXXXXXXXXX  ",
"..XXXXXXXXXXXXXXXXXXXXXXXXXXXXX                              XXXXXXXXXXXXXXXXXXXXXXXXXXXXXXXXX  ",
"..XXXXXXXXXXXXXXXXXXXXXXXXXXXXX                              XXXXXXXXXXXXXXXXXXXXXXXXXXXXXXXXX  ",
"..XXXXXXXXXXXXXXXXXXXXXXXXXXXXXX XXXXXXXXXX       XXXXXXXXX XXXXXXXXXXXXXXXXXXXXXXXXXXXXXXXXXX  ",
"..XXXXXXXXXXXXXXXXXXXXXXXXXXXXXXXXXXXXXXXXX       XXXXXXXXXXXXXXXXXXXXXXXXXXXXXXXXXXXXXXXXXXXX  ",
"..XXXXXXXXXXXXXXXXXXXXXXXXXXXXXXXXXXXXXXXXX       XXXXXXXXXXXXXXXXXXXXXXXXXXXXXXXXXXXXXXXXXXXX  ",
"..XXXXXXXXXXXXXXXXXXXXXXXXXXXXXXXXXXXXXXXXXX     XXXXXXXXXXXXXXXXXXXXXXXXXXXXXXXXXXXXXXXXXXXXX  ",
"..XXXXXXXXXXXXXXXXXXXXXXXXXXXXXXXXXXXXXXXXX       XXXXXXXXXXXXXXXXXXXXXXXXXXXXXXXXXXXXXXXXXXXX  ",
"..XXXXXXXXXXXXXXXXXXXXXXXXXXXXXXXXXXXXXXXX         XXXXXXXXXXXXXXXXXXXXXXXXXXXXXXXXXXXXXXXXXXX  ",
"..XXXXXXXXXXXXXXXXXXXXXXXXXXXXXXXXXXXXXXXX         XXXXXXXXXXXXXXXXXXXXXXXXXXXXXXXXXXXXXXXXXXX  ",
"..XXXXXXXXXXXXXXXXXXXXXXXXXXXXXXXXXXXXXXX    XXX    XXXXXXXXXXXXXXXXXXXXXXXXXXXXXXXXXXXXXXXXXX  ",
"..XXXXXXXXXXXXXXXXXXXXXXXXXXXXXXXXXXXXXXX   XXXXX   XXXXXXXXXXXXXXXXXXXXXXXXXXXXXXXXXXXXXXXXXX  ",
"..XXXXXXXXXXXXXXXXXXXXXXXXXXXXXXXXXXXXXX   XXXXXXX   XXXXXXXXXXXXXXXXXXXXXXXXXXXXXXXXXXXXXXXXX  ",
"..XXXXXXXXXXXXXXXXXXXXXXXXXXXXXXXXXXXXXX   XXXXXXX   XXXXXXXXXXXXXXXXXXXXXXXXXXXXXXXXXXXXXXXXX  ",
"..XXXXXXXXXXXXXXXXXXXXXXXXXXXXXXXXXXXXX   XXXXXXXXX   XXXXXXXXXXXXXXXXXXXXXXXXXXXXXXXXXXXXXXXX  ",
"..XXXXXXXXXXXXXXXXXXXXXXXXXXXXXXXXXXXX    XXXXXXXXX    XXXXXXXXXXXXXXXXXXXXXXXXXXXXXXXXXXXXXXX  ",
"..XXXXXXXXXXXXXXXXXXXXXXXXXXXXXXXXXXX    XXXXXXXXXXX    XXXXXXXXXXXXXXXXXXXXXXXXXXXXXXXXXXXXXX  ",
"..XXXXXXXXXXXXXXXXXXXXXXXXXXXXXXXXXXXXXXXXXXXXXXXXXXXXXXXXXXXXXXXXXXXXXXXXXXXXXXXXXXXXXXXXXXXX  ",
"..XXXXXXXXXXXXXXXXXXXXXXXXXXXXXXXXXXXXXXXXXXXXXXXXXXXXXXXXXXXXXXXXXXXXXXXXXXXXXXXXXXXXXXXXXXXX  ",
"............................................................................................... ",
"................................................................................................"};
