/* XPM */
static char * p2_xpm[] = {
"8 8 3 1",
" 	c #AEBADB6CE79D",
".	c #000000008A28",
"X	c #00000000FFFF",
"        ",
".XXXXXX ",
".XXXXXX ",
".XXXXXX ",
".XXXXXX ",
".XXXXXX ",
".XXXXXX ",
"........"};
