/* XPM */
static char * Xtron_icon_xpm[] = {
"64 64 7 1",
" 	c #000065950000",
".	c #FFFFC30BCB2B",
"X	c #8A2800000000",
"o	c #FFFF00000000",
"O	c #AEBADB6CE79D",
"+	c #000000008A28",
"@	c #00000000FFFF",
"                                                                ",
"                                                                ",
"                                                                ",
"                                                                ",
"                                                                ",
"                                                                ",
"   ......................                                       ",
"   Xoooooooooooooooooooo.                                       ",
"   Xoooooooooooooooooooo.                                       ",
"   Xo.                oo.                                       ",
"   Xo.                oo.                                       ",
"   Xo.                oo.                                       ",
"   Xo.                oo.                                       ",
"   Xo.                oo.                                       ",
"   Xo.                oo.          OOOOOOOOOOOOOOOOOOOOOOO      ",
"   Xo.                oo.          +@@@@@@@@@@@@@@@@@@@@@O      ",
"   Xo.                oo.          +@+++++++++++++++++++@O      ",
"   Xo.                oo.          +@O                 +@O      ",
"   Xo.                oo.          +@O                 +@O      ",
"   Xo.                oo.          +@O                 +@O      ",
"   Xo.      ..........oo.          +@O                 +@O      ",
"   Xo.      Xooooooooooo.          +@O                 +@O      ",
"   Xo.      XoXXXXXXXXXXX          +@O                 +@O      ",
"   Xo.      Xo.                    +@O                 +@O      ",
"   Xo.      Xo.                    +@O                 +@O      ",
"   Xo.      Xo.                    +@O                 +@O      ",
"   Xo.      Xo.                    +@O                 +@O      ",
"   Xo.      Xo.                    +@O                 +@O      ",
"   Xo.      Xo.                    +@O                 +@O      ",
"   Xo.      Xo.                    +@O                 +@O      ",
"   Xo.      Xo.                    +@O                 +@O      ",
"   Xo.      Xo................  OOO+@O                 +@O      ",
"   Xo.      Xoooooooooooooooo.  +@@@@O                 +@O      ",
"   Xo.      XXXXXXXXXXXXXXXXXX  ++++++                 +@O      ",
"   Xo.                                                 +@O      ",
"   Xo.                                                 +@O      ",
"   Xo.                                                 +@O      ",
"   Xo.                                                 +@O      ",
"   Xo.....................                             +@O      ",
"   Xooooooooooooooooooooo.                             +@O      ",
"   XXXXXXXXXXXXXXXXXXXXXo.                             +@O      ",
"                       Xo.                             +@O      ",
"                       Xo.                             +@O      ",
"                       XXX                             +@O      ",
"                                                       +@O      ",
"                                                       +@O      ",
"                                                       +@O      ",
"                                                       +@O      ",
"                                                       +@O      ",
"                                                       +@O      ",
"                                                       +@O      ",
"        OOOOOOOOOOOOOOOOOOOOOOOOOOOOOOOOOOOOOOOOOOOOOOO+@O      ",
"        +@@@@@@@@@@@@@@@@@@@@@@@@@@@@@@@@@@@@@@@@@@@@@@@@O      ",
"        +@++++++++++++++++++++++++++++++++++++++++++++++++      ",
"        +@O                                                     ",
"        +@O                                                     ",
"        +@O                                                     ",
"        +@O                                                     ",
"        +@OOOOOO                                                ",
"        +@@@@@@O                                                ",
"        ++++++++                                                ",
"                                                                ",
"                                                                ",
"                                                                "};
