#define noname_width 48
#define noname_height 48
static char noname_bits[] = {
 0x00,0x00,0x00,0x00,0x00,0x00,0x00,0x00,0x00,0x00,0x00,0x00,0x00,0x00,0x00,
 0x00,0x00,0x00,0x00,0x00,0x00,0x00,0x00,0x00,0x00,0x00,0x00,0x00,0x00,0x00,
 0x00,0x00,0x00,0x00,0x00,0x00,0x00,0x00,0x00,0x00,0x00,0x00,0x00,0x00,0x00,
 0x00,0x00,0x00,0x00,0x00,0x00,0x00,0x00,0x00,0x00,0x62,0xc4,0x30,0x62,0x00,
 0x00,0x92,0x24,0x49,0x92,0x00,0x00,0x92,0x24,0x49,0x92,0x00,0x00,0x92,0x24,
 0x49,0x92,0x00,0x00,0x62,0xc4,0x30,0x62,0x00,0x00,0x00,0x00,0x00,0x00,0x00,
 0x00,0x8c,0x18,0x46,0x8c,0x00,0x00,0x92,0x24,0x49,0x92,0x00,0x00,0x92,0x24,
 0x49,0x92,0x00,0x00,0x92,0x24,0x49,0x92,0x00,0x00,0x8c,0x18,0x46,0x8c,0x00,
 0x00,0x00,0x00,0x00,0x00,0x00,0x00,0x12,0x23,0x31,0x8c,0x00,0x00,0x92,0x24,
 0x49,0x92,0x00,0x00,0x92,0x24,0x49,0x92,0x00,0x00,0x92,0x24,0x49,0x92,0x00,
 0x00,0x12,0x23,0x31,0x8c,0x00,0x00,0x00,0x00,0x00,0x00,0x00,0x00,0x8c,0xc4,
 0x30,0x62,0x00,0x00,0x92,0x24,0x49,0x92,0x00,0x00,0x92,0x24,0x49,0x92,0x00,
 0x00,0x92,0x24,0x49,0x92,0x00,0x00,0x8c,0xc4,0x30,0x62,0x00,0x00,0x00,0x00,
 0x00,0x00,0x00,0x00,0x62,0x24,0x46,0x8c,0x00,0x00,0x92,0x24,0x49,0x92,0x00,
 0x00,0x92,0x24,0x49,0x92,0x00,0x00,0x92,0x24,0x49,0x92,0x00,0x00,0x62,0x24,
 0x46,0x8c,0x00,0x00,0x00,0x00,0x00,0x00,0x00,0x00,0x00,0x00,0x00,0x00,0x00,
 0x00,0x00,0x00,0x00,0x00,0x00,0x00,0x00,0x00,0x00,0x00,0x00,0x00,0x00,0x00,
 0x00,0x00,0x00,0x00,0x00,0x00,0x00,0x00,0x00,0x00,0x00,0x00,0x00,0x00,0x00,
 0x00,0x00,0x00,0x00,0x00,0x00,0x00,0x00,0x00,0x00,0x00,0x00,0x00,0x00,0x00,
 0x00,0x00,0x00};
