/* XPM */
static char * brushOp_xpm[] = {
"40 40 5 1",
" 	c #A699C71BCF3C",
".	c #000000000000",
"X	c #FFFFFFFFFFFF",
"o	c #FFFF8A283CF3",
"O	c #51445144FFFF",
"        .XXXXXXXXXXXXXXXXXXXXXXXXXXXXXXX",
"         .XXXXXXXXXXXXXXXXXXXXXXXXXXXXXX",
"         .XXXXXXXXXXXXXXXXXXXXXXXXXXXXXX",
"         ..XXXXXXXXXXXXXXXXXXXXXXXXXXXXX",
".       .  .XXXXXXXXXXXXXXXXXXXXXXXXXXXX",
"X.     .    .XXXXXXXXXXXXXXXXXXXXXXXXXXX",
"XX.   .    . .XXXXXXXXXXXXXXXXXXXXXXXXXX",
"XXX...    .   .XXXXXXXXXXXXXXXXXXXXXXXXX",
"XXXXX.   .     .XXXXXXXXXXXXXXXXXXXXXXXX",
"XXXXXX. .      .XXXXXXXXXXXXXXXXXXXXXXXX",
"XXXXXXX.        .XXXXXXXXXXXXXXXXXXXXXXX",
"XXXXXXXX.       .........XXXXXXXXXXXXXXX",
"XXXXXXXXX.     .ooooooooo.XXXXXXXXXXXXXX",
"XXXXXXXXXX.   .ooooooooooo..XXXXXXXXXXXX",
"XXXXXXXXXXX. .oooooo.ooooooo.XXXXXXXXXXX",
"XXXXXXXXXXXX.ooooooooo.oooooo.XXXXXXXXXX",
"XXXXXXXXXXXXX.ooooooooo.ooooo.XXXXXXXXXX",
"XXXXXXXXXXXXX.oooooooooo.ooooo.XXXXXXXXX",
"XXXXXXXXXXXXX.ooo.ooooooo.oooo.XXXXXXXXX",
"XXXXXXXXXXXXX.oooooooooooooooo.XXXXXXXXX",
"XXXXXXXXXXXXX.oooo.ooooooo.ooo.XXXXXXXXX",
"XXXXXXXXXXXXXX.oooo.oooooooooOO.XXXXXXXX",
"XXXXXXXXXXXXXX.ooooo.oooooooOOO.XXXXXXXX",
"XXXXXXXXXXXXXXX.oooooo.ooooOOOO.XXXXXXXX",
"XXXXXXXXXXXXXXXX.oooooooooOOOOO.XXXXXXXX",
"XXXXXXXXXXXXXXXXX..ooooOOOOOOOO.XXXXXXXX",
"XXXXXXXXXXXXXXXXXXX..OOOOOOOOOOO.XXXXXXX",
"XXXXXXXXOOOOOOOOOOXXX....OOOOOOO.XXXXXXX",
"XXXXXXOOOOOOOOOOOOOOXXXXX...OOOO.XXXXXXX",
"XXXXOOOOOOOOOOOOOOOOOOXXXXXX..OO.XXXXXXX",
"XXXOOOOOOOOOOOOOOOOOOOOXXXXXOO.O.OOOXXXX",
"XXXOOOOOOOOOOOOOOOOOOOOXXXXOOOO..OOOOXXX",
"XXXOOOOOOOOOOOOOOOOOOOOXXXOOOOOO.OOOOOXX",
"XXXXOOOOOOOOOOOOOOOOOOXXXXXOOOOO.OOOOXXX",
"XXXXXXOOOOOOOOOOOOOOXXXXXXXXOOOOOOOOXXXX",
"XXXXXXXXOOOOOOOOOOXXXXXXXXXXXXXXXXXXXXXX",
"XXXXXXXXXXXXXXXXXXXXXXXXXXXXXXXXXXXXXXXX",
"XXXXXXXXXXXXXXXXXXXXXXXXXXXXXXXXXXXXXXXX",
"XXXXXXXXXXXXXXXXXXXXXXXXXXXXXXXXXXXXXXXX",
"XXXXXXXXXXXXXXXXXXXXXXXXXXXXXXXXXXXXXXXX"};
