/* XPM */
static char * paintL_xpm[] = {
"2 14 2 1",
" 	c #FFFFFFFFFFFF m white s A",
".	c #000000000000 m black s E",
"..",
"..",
"  ",
"  ",
"..",
"..",
"  ",
"  ",
"..",
"..",
"  ",
"  ",
"..",
".."};
