/* XPM */
static char * paintN_xpm[] = {
"14 14 2 1",
" 	c #FFFFFFFFFFFF m white s A",
".	c #000000000000 m black s E",
"            ..",
"            ..",
"              ",
"              ",
"        ..    ",
"        ..    ",
"              ",
"              ",
"    ..        ",
"    ..        ",
"              ",
"              ",
"..            ",
"..            "};
