#define icon_width 64
#define icon_height 54
static char icon_bits[] = {
   0x00, 0x00, 0x00, 0x00, 0x00, 0x00, 0x00, 0x00, 0x00, 0x00, 0x00, 0x00,
   0x00, 0x00, 0x00, 0x00, 0xfc, 0xff, 0xff, 0xcf, 0x7f, 0x9e, 0xcf, 0xff,
   0x34, 0x06, 0x00, 0x48, 0x49, 0x92, 0x48, 0x92, 0x0c, 0x08, 0x4e, 0xc8,
   0x7f, 0x9e, 0xca, 0xa4, 0x0c, 0x78, 0x31, 0x08, 0x00, 0x80, 0x48, 0xc9,
   0x04, 0xd8, 0x20, 0x0a, 0x00, 0x80, 0x4f, 0x92, 0xc4, 0xbb, 0x63, 0x0a,
   0x00, 0x00, 0xc0, 0xa4, 0x04, 0x9c, 0x24, 0x0a, 0x00, 0x00, 0x40, 0xc9,
   0x0c, 0xfc, 0xbd, 0x09, 0x00, 0x00, 0xc0, 0xff, 0x0c, 0xdf, 0xcf, 0x09,
   0x00, 0x00, 0x00, 0x00, 0x34, 0xdf, 0x8b, 0x08, 0x00, 0x00, 0x00, 0x00,
   0xc4, 0xcd, 0x87, 0x08, 0x00, 0x00, 0x00, 0x00, 0xc4, 0xdb, 0x87, 0x08,
   0x00, 0x00, 0x00, 0x00, 0x04, 0xfb, 0x47, 0x08, 0x00, 0x00, 0x00, 0x00,
   0xc4, 0xfe, 0x3b, 0x09, 0x00, 0x00, 0x00, 0x00, 0xc4, 0x47, 0x00, 0x08,
   0x00, 0x00, 0x00, 0x00, 0x84, 0x03, 0x00, 0x08, 0x00, 0x00, 0x00, 0x00,
   0xfc, 0xff, 0xff, 0x0f, 0x00, 0x00, 0x00, 0x00, 0x00, 0x00, 0x00, 0x00,
   0x00, 0x00, 0x00, 0x00, 0x00, 0x00, 0x00, 0x00, 0x00, 0x00, 0x00, 0x00,
   0xfc, 0xf3, 0xff, 0xff, 0xf9, 0xf9, 0xff, 0x1f, 0xac, 0x12, 0x00, 0x00,
   0x09, 0xf9, 0xff, 0x1f, 0x54, 0x13, 0x00, 0x00, 0x69, 0xf9, 0xff, 0x1f,
   0xac, 0x12, 0xc0, 0x01, 0x69, 0xf9, 0xff, 0x1f, 0x54, 0x13, 0x60, 0x02,
   0x69, 0xf9, 0xff, 0x1f, 0xac, 0xd2, 0x9f, 0x04, 0x69, 0xf9, 0xff, 0x1f,
   0xfc, 0x13, 0x90, 0x04, 0x69, 0xf9, 0xff, 0x1f, 0x00, 0x10, 0x92, 0x04,
   0x69, 0xf9, 0xff, 0x1f, 0x00, 0xd0, 0xa3, 0x02, 0x69, 0x01, 0x00, 0x00,
   0x00, 0x10, 0xc8, 0x07, 0x69, 0x01, 0x00, 0x00, 0x00, 0x10, 0x25, 0x0c,
   0x69, 0x01, 0x00, 0x00, 0x00, 0x50, 0x22, 0x18, 0x69, 0x01, 0x00, 0x00,
   0x00, 0x10, 0x20, 0x10, 0x69, 0x01, 0x00, 0x00, 0x00, 0x10, 0x00, 0x00,
   0x69, 0x01, 0x00, 0x00, 0x00, 0xf0, 0xff, 0xff, 0x09, 0x01, 0x00, 0x00,
   0x00, 0x00, 0x00, 0x00, 0xf8, 0x01, 0x00, 0x00, 0x00, 0x00, 0x00, 0x00,
   0x00, 0x00, 0x00, 0x00, 0xfc, 0xff, 0xff, 0xff, 0xff, 0xff, 0x0f, 0x00,
   0x04, 0x00, 0x00, 0x00, 0x00, 0x00, 0x08, 0x00, 0xa4, 0xbb, 0x24, 0x75,
   0x91, 0xee, 0x08, 0x00, 0xa4, 0xa8, 0x25, 0x35, 0x99, 0x26, 0x09, 0x00,
   0xa4, 0xa8, 0xc6, 0x14, 0x66, 0xe2, 0x08, 0x00, 0xa4, 0xbb, 0x44, 0x74,
   0x22, 0x2e, 0x09, 0x00, 0x04, 0x00, 0x00, 0x00, 0x00, 0x00, 0x08, 0x00,
   0xfc, 0xff, 0xff, 0xff, 0xff, 0xff, 0x0f, 0x00, 0x00, 0x00, 0x00, 0x00,
   0x00, 0x00, 0x00, 0x00, 0x00, 0x00, 0x00, 0x00, 0x00, 0x00, 0x00, 0x00,
   0x00, 0x00, 0x00, 0x00, 0x00, 0x00, 0x00, 0x00, 0x00, 0x00, 0x00, 0x00,
   0x00, 0x00, 0x00, 0x00, 0x00, 0x00, 0x00, 0x00, 0x00, 0x00, 0x00, 0x00,
   0x00, 0x00, 0x00, 0x00, 0x00, 0x00, 0x00, 0x00, 0x00, 0x00, 0x00, 0x00,
   0x00, 0x00, 0x00, 0x00, 0x00, 0x00, 0x00, 0x00, 0x00, 0x00, 0x00, 0x00};
